<svg width="500" height="500" viewBox="0 0 500 500" fill="none" xmlns="http://www.w3.org/2000/svg">
<path d="M500 382.4H0V382.65H500V382.4Z" fill="#EBEBEB"/>
<path d="M449.9 398.49H416.78V398.74H449.9V398.49Z" fill="#EBEBEB"/>
<path d="M273.22 395.359H260.33V395.609H273.22V395.359Z" fill="#EBEBEB"/>
<path d="M349.67 396.42H322.53V396.67H349.67V396.42Z" fill="#EBEBEB"/>
<path d="M415.78 389.211H359.67V389.461H415.78V389.211Z" fill="#EBEBEB"/>
<path d="M78.99 400.779H52.46V401.029H78.99V400.779Z" fill="#EBEBEB"/>
<path d="M110.89 400.779H87.8896V401.029H110.89V400.779Z" fill="#EBEBEB"/>
<path d="M191.81 395.24H131V395.49H191.81V395.24Z" fill="#EBEBEB"/>
<path d="M237 337.8H43.91C42.3973 337.797 40.9475 337.195 39.8788 336.124C38.8102 335.053 38.21 333.603 38.21 332.09V60.66C38.2231 59.156 38.8292 57.718 39.8964 56.6582C40.9637 55.5985 42.4059 55.0026 43.91 55H237C238.514 55 239.967 55.6016 241.038 56.6724C242.108 57.7433 242.71 59.1956 242.71 60.71V332.09C242.71 333.604 242.108 335.057 241.038 336.128C239.967 337.198 238.514 337.8 237 337.8ZM43.91 55.2C42.4636 55.2026 41.0774 55.7791 40.0556 56.8027C39.0338 57.8264 38.46 59.2136 38.46 60.66V332.09C38.46 333.536 39.0338 334.924 40.0556 335.947C41.0774 336.971 42.4636 337.547 43.91 337.55H237C238.447 337.547 239.834 336.971 240.858 335.948C241.881 334.924 242.457 333.537 242.46 332.09V60.66C242.457 59.2127 241.881 57.8255 240.858 56.8021C239.834 55.7787 238.447 55.2026 237 55.2H43.91Z" fill="#EBEBEB"/>
<path d="M453.31 337.8H260.21C258.696 337.797 257.246 337.195 256.175 336.125C255.105 335.054 254.503 333.604 254.5 332.09V60.66C254.516 59.1551 255.124 57.7171 256.193 56.6576C257.262 55.5981 258.705 55.0025 260.21 55H453.31C454.812 55.0052 456.252 55.6022 457.317 56.6617C458.382 57.7212 458.987 59.1578 459 60.66V332.09C459 333.601 458.401 335.05 457.335 336.121C456.268 337.191 454.821 337.795 453.31 337.8ZM260.21 55.2C258.763 55.2026 257.375 55.7787 256.352 56.8021C255.329 57.8255 254.753 59.2127 254.75 60.66V332.09C254.753 333.537 255.329 334.924 256.352 335.948C257.375 336.971 258.763 337.547 260.21 337.55H453.31C454.757 337.547 456.145 336.971 457.168 335.948C458.191 334.924 458.767 333.537 458.77 332.09V60.66C458.767 59.2127 458.191 57.8255 457.168 56.8021C456.145 55.7787 454.757 55.2026 453.31 55.2H260.21Z" fill="#EBEBEB"/>
<path d="M264.9 296.39C262.9 290.64 247.11 298.46 240.7 307.99C236.43 314.33 233.82 321.11 232.61 330.21C232.75 319.83 232.92 308.67 233.08 298.14C234.38 295.52 237.34 289.47 239.46 284.67C246.57 268.67 263.46 262.67 269.29 252.61C276.94 239.37 276.89 219.52 270.39 212.35C264.73 206.13 246 248.23 243.89 252.93C238.133 265.518 234.507 278.975 233.16 292.75C233.32 282.86 233.47 273.75 233.59 266.75C233.99 243.9 234.48 236.55 234.71 234.29C235.49 233.19 236.41 231.9 236.95 231.21C241.48 225.38 251.54 218.43 256.56 209.95C263.9 197.56 262.72 182.74 257.56 177.22C252.18 171.45 242.66 185.09 237.61 198.6C232.56 212.11 234.72 225.05 233.3 236.28C233.01 238.48 232.7 246.84 232.42 258.44C230.88 245.96 227.83 237.6 222.17 229.81C215.17 220.23 209.17 208.56 203.48 210.07C197.79 211.58 200.83 227.01 205.37 237.85C209.37 247.51 229.37 257.13 232.27 264.9C231.92 280.62 231.61 300.54 231.39 319.08C229.82 309.5 230.9 308.7 224.46 294.03C220.64 285.31 204.95 274.56 203.08 280.55C201.21 286.54 204.08 297.86 209.97 305.79C214.75 312.19 225.35 312.18 227.8 316.15C228.38 317.08 230.27 320.63 231.35 322.67C231.09 345.31 230.98 365.3 231.11 372.11L232.11 372.18C232.11 370.42 232.19 358.9 232.39 343.66C234.97 335.55 252.3 330.82 257.65 322.38C263.28 313.59 267.31 303.29 264.9 296.39Z" fill="#E6E6E6"/>
<path d="M248.61 382.399H215.35C214.468 382.401 213.612 382.097 212.929 381.539C212.245 380.981 211.776 380.204 211.6 379.339L209.24 367.699H254.72L252.35 379.339C252.177 380.203 251.709 380.98 251.027 381.538C250.346 382.096 249.491 382.4 248.61 382.399Z" fill="#F0F0F0"/>
<path d="M255.67 372.209H208.29C207.738 372.21 207.205 372.005 206.795 371.636C206.385 371.267 206.126 370.758 206.07 370.209L205.07 361.599C205.036 361.287 205.068 360.972 205.164 360.673C205.261 360.374 205.418 360.099 205.628 359.865C205.837 359.631 206.093 359.444 206.379 359.316C206.666 359.187 206.976 359.12 207.29 359.119H256.61C256.923 359.12 257.233 359.187 257.519 359.315C257.804 359.444 258.06 359.631 258.268 359.866C258.477 360.1 258.634 360.375 258.729 360.674C258.824 360.972 258.855 361.288 258.82 361.599L257.82 370.209C257.766 370.747 257.518 371.247 257.122 371.615C256.727 371.984 256.21 372.195 255.67 372.209Z" fill="#F0F0F0"/>
<path d="M400.77 378.23H432.62V242.32H400.77V378.23Z" fill="#F0F0F0"/>
<path d="M265.45 382.4H430.47V378.23H265.45V382.4Z" fill="#F0F0F0"/>
<path d="M400.76 242.32H263.31V378.23H400.76V242.32Z" fill="#F5F5F5"/>
<path d="M388.24 295.891H275.83V324.671H388.24V295.891Z" fill="#F0F0F0"/>
<path d="M388.24 332.93H275.83V361.71H388.24V332.93Z" fill="#F0F0F0"/>
<path d="M319.42 300.85H344.65C346.367 300.85 347.76 299.459 347.76 297.745C347.76 296.03 346.367 294.64 344.65 294.64H319.42C317.702 294.64 316.31 296.03 316.31 297.745C316.31 299.459 317.702 300.85 319.42 300.85Z" fill="#F5F5F5"/>
<path d="M388.24 258.85H275.83V287.63H388.24V258.85Z" fill="#F0F0F0"/>
<path d="M319.42 263.81H344.65C345.472 263.807 346.26 263.48 346.842 262.899C347.425 262.319 347.754 261.532 347.76 260.71C347.757 259.886 347.428 259.096 346.846 258.513C346.263 257.931 345.474 257.602 344.65 257.6H319.42C318.596 257.602 317.806 257.931 317.223 258.513C316.641 259.096 316.312 259.886 316.31 260.71C316.315 261.532 316.645 262.319 317.227 262.899C317.809 263.48 318.597 263.807 319.42 263.81Z" fill="#F5F5F5"/>
<path d="M319.42 337.89H344.65C345.473 337.89 346.262 337.563 346.845 336.982C347.428 336.401 347.757 335.613 347.76 334.79C347.757 333.966 347.428 333.176 346.846 332.594C346.263 332.011 345.474 331.682 344.65 331.68H319.42C318.596 331.682 317.806 332.011 317.223 332.594C316.641 333.176 316.312 333.966 316.31 334.79C316.312 335.613 316.641 336.401 317.224 336.982C317.807 337.563 318.596 337.89 319.42 337.89Z" fill="#F5F5F5"/>
<path d="M260.48 242.32L400.76 242.32V238.44L260.48 238.44V242.32Z" fill="#F0F0F0"/>
<path d="M435.64 238.449H400.76V242.329H435.64V238.449Z" fill="#E6E6E6"/>
<path d="M147.41 382.4H178.88L178.88 178.87H147.41L147.41 382.4Z" fill="#E0E0E0"/>
<path d="M67.21 382.401H172.58L183.65 131.881H78.28L67.21 382.401Z" fill="#E6E6E6"/>
<path d="M51.8398 382.401H168.4L179.46 131.881H62.9098L51.8398 382.401Z" fill="#F0F0F0"/>
<path d="M156.99 370.12L166.31 144.17H74.3202L64.9902 370.12H156.99Z" fill="white"/>
<path d="M117.46 370.12L148.73 144.17H138.92L107.65 370.12H117.46Z" fill="#FAFAFA"/>
<path d="M103.49 370.12L134.76 144.17H118.03L86.7598 370.12H103.49Z" fill="#FAFAFA"/>
<path d="M293.47 200.119L421 200.119V80.8191L293.47 80.8191V200.119Z" fill="#E6E6E6"/>
<path d="M289.5 200.119L419.14 200.119V80.8191L289.5 80.8191V200.119Z" fill="#F5F5F5"/>
<path d="M293.47 205L421 205V200.12L293.47 200.12V205Z" fill="#E6E6E6"/>
<path d="M285.96 205L406.94 205V200.12L285.96 200.12V205Z" fill="#F5F5F5"/>
<path d="M413.6 192.721V88.2109L295.04 88.2109V192.721H413.6Z" fill="#FAFAFA"/>
<path d="M295.84 192.731V88.2207H295.05V192.731H295.84Z" fill="#E6E6E6"/>
<path d="M393.94 192.721L373.44 88.2109H346.57L367.07 192.721H393.94Z" fill="white"/>
<path d="M362.72 192.721L342.22 88.2109H330.09L350.59 192.721H362.72Z" fill="white"/>
<path d="M409.64 187.059V76.7194C409.64 76.3825 409.367 76.1094 409.03 76.1094H408.98C408.643 76.1094 408.37 76.3825 408.37 76.7194V187.059C408.37 187.396 408.643 187.669 408.98 187.669H409.03C409.367 187.669 409.64 187.396 409.64 187.059Z" fill="#EBEBEB"/>
<path opacity="0.5" d="M286.6 94.3594L423.15 94.3594V76.0994L286.6 76.0994V94.3594Z" fill="#E6E6E6"/>
<path d="M286.6 78.3691L423.15 78.3691V76.0991L286.6 76.0991V78.3691Z" fill="#E0E0E0"/>
<path d="M286.83 77.0996L422.93 77.0996C423.41 77.0996 423.8 76.7101 423.8 76.2296V75.9796C423.8 75.4991 423.41 75.1096 422.93 75.1096L286.83 75.1096C286.349 75.1096 285.96 75.4991 285.96 75.9796V76.2296C285.96 76.7101 286.349 77.0996 286.83 77.0996Z" fill="#EBEBEB"/>
<path d="M286.43 94.8406H423.32C423.383 94.8406 423.445 94.8282 423.502 94.8039C423.56 94.7797 423.612 94.7442 423.656 94.6994C423.7 94.6547 423.734 94.6017 423.757 94.5436C423.78 94.4854 423.792 94.4232 423.79 94.3606C423.79 94.236 423.741 94.1164 423.653 94.0283C423.564 93.9401 423.445 93.8906 423.32 93.8906H286.43C286.305 93.8906 286.184 93.9398 286.094 94.0277C286.005 94.1155 285.953 94.2351 285.95 94.3606C285.95 94.4879 286.001 94.61 286.091 94.7C286.181 94.7901 286.303 94.8406 286.43 94.8406Z" fill="white"/>
<path d="M250 427.56C357.083 427.56 443.89 422.492 443.89 416.24C443.89 409.988 357.083 404.92 250 404.92C142.918 404.92 56.1104 409.988 56.1104 416.24C56.1104 422.492 142.918 427.56 250 427.56Z" fill="#F5F5F5"/>
<path d="M64.8383 272.081L63.8252 272.199L65.6255 287.594L66.6386 287.476L64.8383 272.081Z" fill="#2EB553"/>
<path d="M67.31 293.202L66.2969 293.32L67.2052 301.087L68.2183 300.969L67.31 293.202Z" fill="#2EB553"/>
<path d="M134.59 240.69L133.39 237.32C132.564 235.004 130.977 233.036 128.888 231.739C126.799 230.442 124.332 229.892 121.89 230.18L74.0999 235.77C71.237 236.106 68.6247 237.565 66.8375 239.827C65.0504 242.088 64.2347 244.967 64.5699 247.83L78.1699 364.13C78.2828 365.103 78.5864 366.044 79.0632 366.899C79.5401 367.754 80.1809 368.507 80.949 369.115C81.7171 369.722 82.5974 370.172 83.5396 370.439C84.4818 370.706 85.4673 370.784 86.4399 370.67L257.44 350.67C258.414 350.56 259.357 350.258 260.215 349.782C261.073 349.306 261.828 348.666 262.437 347.897C263.047 347.129 263.499 346.248 263.767 345.304C264.035 344.361 264.114 343.374 264 342.4L252.2 241.86C251.972 239.897 250.973 238.106 249.424 236.879C247.875 235.653 245.902 235.092 243.94 235.32L144.64 246.94C142.505 247.187 140.349 246.704 138.524 245.569C136.699 244.434 135.312 242.714 134.59 240.69Z" fill="#2EB553"/>
<path d="M139.362 190.114L85.334 200.881L100.167 275.317L154.195 264.551L139.362 190.114Z" fill="#2EB553"/>
<path opacity="0.7" d="M139.362 190.114L85.334 200.881L100.167 275.317L154.195 264.551L139.362 190.114Z" fill="white"/>
<g opacity="0.4">
<path opacity="0.4" d="M132.15 208L98.8697 214.64C98.0944 214.79 97.291 214.629 96.6339 214.191C95.9768 213.753 95.5189 213.074 95.3597 212.3C95.2092 211.525 95.3705 210.721 95.8085 210.064C96.2466 209.407 96.9261 208.949 97.6997 208.79L131 202.18C131.775 202.029 132.578 202.191 133.235 202.629C133.893 203.067 134.35 203.746 134.51 204.52C134.651 205.294 134.483 206.092 134.041 206.743C133.6 207.393 132.921 207.845 132.15 208Z" fill="#2EB553"/>
<path opacity="0.4" d="M134.6 220.33L101.32 227C100.546 227.147 99.7452 226.985 99.0903 226.547C98.4355 226.109 97.9791 225.431 97.8197 224.66C97.6722 223.886 97.8348 223.085 98.2727 222.43C98.7105 221.775 99.3883 221.319 100.16 221.16L133.44 214.53C134.214 214.382 135.014 214.545 135.669 214.983C136.324 215.42 136.78 216.098 136.94 216.87C137.076 217.637 136.908 218.428 136.471 219.074C136.034 219.72 135.363 220.17 134.6 220.33Z" fill="#2EB553"/>
<path opacity="0.4" d="M137.05 232.639L103.77 239.269C102.996 239.417 102.195 239.254 101.541 238.817C100.886 238.379 100.429 237.701 100.27 236.929C100.122 236.156 100.285 235.355 100.723 234.7C101.161 234.045 101.838 233.589 102.61 233.429L135.89 226.789C136.664 226.642 137.464 226.805 138.119 227.242C138.774 227.68 139.231 228.358 139.39 229.129C139.54 229.905 139.379 230.708 138.941 231.365C138.503 232.022 137.823 232.48 137.05 232.639Z" fill="#2EB553"/>
<path opacity="0.4" d="M139.51 245.001L106.23 251.631C105.455 251.781 104.651 251.62 103.994 251.182C103.337 250.744 102.879 250.064 102.72 249.291C102.57 248.515 102.731 247.712 103.169 247.055C103.607 246.398 104.286 245.94 105.06 245.781L138.34 239.151C139.115 239 139.919 239.161 140.576 239.6C141.233 240.038 141.691 240.717 141.85 241.491C142.001 242.266 141.839 243.069 141.401 243.726C140.963 244.384 140.284 244.841 139.51 245.001Z" fill="#2EB553"/>
<path opacity="0.4" d="M132.86 259.069L108.68 263.889C107.906 264.037 107.105 263.874 106.451 263.436C105.796 262.998 105.339 262.321 105.18 261.549C105.029 260.774 105.191 259.971 105.629 259.313C106.067 258.656 106.746 258.198 107.52 258.039L131.7 253.219C132.474 253.072 133.275 253.234 133.929 253.672C134.584 254.11 135.041 254.788 135.2 255.559C135.35 256.334 135.189 257.138 134.751 257.795C134.313 258.452 133.634 258.91 132.86 259.069Z" fill="#2EB553"/>
</g>
<path d="M216.344 175.769L161.763 183.236L172.05 258.436L226.632 250.969L216.344 175.769Z" fill="#2EB553"/>
<path opacity="0.7" d="M216.344 175.769L161.763 183.236L172.05 258.436L226.632 250.969L216.344 175.769Z" fill="white"/>
<g opacity="0.4">
<path opacity="0.4" d="M208.06 193.199L174.44 197.799C173.657 197.902 172.865 197.692 172.236 197.214C171.607 196.737 171.192 196.031 171.08 195.249C170.977 194.466 171.188 193.674 171.665 193.045C172.142 192.416 172.848 192.001 173.63 191.889L207.25 187.289C208.033 187.186 208.825 187.397 209.454 187.874C210.083 188.351 210.498 189.057 210.61 189.839C210.713 190.622 210.503 191.414 210.025 192.043C209.548 192.672 208.842 193.087 208.06 193.199Z" fill="#2EB553"/>
<path opacity="0.4" d="M209.76 205.629L176.14 210.229C175.357 210.332 174.565 210.121 173.936 209.644C173.307 209.167 172.892 208.461 172.78 207.679C172.68 206.897 172.892 206.108 173.369 205.481C173.846 204.855 174.55 204.441 175.33 204.329L208.95 199.729C209.732 199.626 210.522 199.835 211.151 200.31C211.78 200.785 212.196 201.489 212.31 202.269C212.413 203.052 212.203 203.844 211.725 204.473C211.248 205.102 210.542 205.517 209.76 205.629Z" fill="#2EB553"/>
<path opacity="0.4" d="M187.101 221.399L177.841 222.669C177.058 222.772 176.266 222.562 175.637 222.084C175.008 221.607 174.592 220.901 174.481 220.119C174.378 219.336 174.588 218.544 175.065 217.915C175.543 217.286 176.249 216.871 177.031 216.759L186.301 215.489C187.082 215.389 187.871 215.601 188.498 216.078C189.125 216.555 189.539 217.259 189.651 218.039C189.753 218.822 189.543 219.614 189.066 220.243C188.588 220.872 187.882 221.287 187.101 221.399Z" fill="#2EB553"/>
<path opacity="0.4" d="M205.07 218.939L195.8 220.209C195.019 220.309 194.23 220.098 193.603 219.621C192.976 219.144 192.562 218.439 192.45 217.659C192.348 216.876 192.558 216.085 193.035 215.456C193.512 214.827 194.219 214.411 195 214.299L204.26 213.039C205.042 212.936 205.832 213.145 206.461 213.621C207.09 214.096 207.506 214.799 207.62 215.579C207.723 216.362 207.513 217.154 207.036 217.783C206.558 218.412 205.852 218.828 205.07 218.939Z" fill="#2EB553"/>
<path opacity="0.4" d="M213.16 230.5L179.54 235.1C178.758 235.203 177.966 234.993 177.337 234.515C176.708 234.038 176.292 233.332 176.18 232.55C176.081 231.769 176.292 230.979 176.769 230.353C177.246 229.726 177.951 229.312 178.73 229.2L212.35 224.59C213.133 224.487 213.925 224.697 214.554 225.175C215.183 225.652 215.599 226.358 215.71 227.14C215.813 227.923 215.603 228.715 215.126 229.344C214.648 229.973 213.942 230.388 213.16 230.5Z" fill="#2EB553"/>
<path opacity="0.4" d="M205.68 244.19L181.24 247.53C180.46 247.63 179.672 247.42 179.046 246.945C178.419 246.47 178.004 245.768 177.89 244.99C177.787 244.209 177.996 243.418 178.471 242.789C178.946 242.161 179.65 241.744 180.43 241.63L204.87 238.29C205.65 238.19 206.438 238.4 207.064 238.875C207.691 239.35 208.106 240.052 208.22 240.83C208.323 241.611 208.114 242.402 207.639 243.031C207.163 243.659 206.46 244.076 205.68 244.19Z" fill="#2EB553"/>
</g>
<path d="M164.841 186.741L109.959 191.523L116.548 267.137L171.43 262.355L164.841 186.741Z" fill="#2EB553"/>
<path opacity="0.8" d="M164.841 186.741L109.959 191.523L116.548 267.137L171.43 262.355L164.841 186.741Z" fill="white"/>
<g opacity="0.4">
<path opacity="0.4" d="M155.71 203.76L121.9 206.7C121.114 206.764 120.333 206.515 119.729 206.008C119.124 205.5 118.744 204.775 118.67 203.99C118.609 203.205 118.859 202.427 119.366 201.825C119.873 201.222 120.596 200.843 121.38 200.77L155.19 197.77C155.977 197.706 156.757 197.954 157.362 198.462C157.966 198.969 158.347 199.694 158.42 200.48C158.459 200.873 158.419 201.27 158.304 201.649C158.188 202.027 157.999 202.378 157.747 202.683C157.495 202.988 157.186 203.24 156.836 203.425C156.487 203.609 156.104 203.723 155.71 203.76Z" fill="#2EB553"/>
<path opacity="0.4" d="M156.8 216.26L122.99 219.26C122.203 219.324 121.423 219.076 120.819 218.569C120.214 218.061 119.834 217.336 119.76 216.55C119.696 215.764 119.945 214.984 120.452 214.379C120.959 213.774 121.684 213.394 122.47 213.32L156.28 210.32C157.066 210.256 157.847 210.505 158.451 211.012C159.056 211.52 159.436 212.245 159.51 213.03C159.574 213.817 159.325 214.597 158.818 215.202C158.311 215.806 157.586 216.187 156.8 216.26Z" fill="#2EB553"/>
<path opacity="0.4" d="M157.891 228.76L124.081 231.76C123.294 231.824 122.514 231.576 121.909 231.069C121.305 230.561 120.924 229.836 120.851 229.05C120.787 228.264 121.035 227.484 121.543 226.879C122.05 226.274 122.775 225.894 123.561 225.82L157.371 222.82C158.157 222.756 158.937 223.005 159.542 223.512C160.147 224.02 160.527 224.745 160.601 225.53C160.665 226.317 160.416 227.097 159.909 227.702C159.402 228.306 158.676 228.687 157.891 228.76Z" fill="#2EB553"/>
<path opacity="0.4" d="M159 241.259L125.19 244.259C124.403 244.323 123.623 244.074 123.019 243.567C122.414 243.06 122.034 242.335 121.96 241.549C121.896 240.762 122.145 239.982 122.652 239.378C123.159 238.773 123.884 238.393 124.67 238.319L158.48 235.379C159.267 235.315 160.047 235.564 160.651 236.071C161.256 236.578 161.636 237.303 161.71 238.089C161.758 238.866 161.502 239.63 160.996 240.222C160.49 240.813 159.775 241.185 159 241.259Z" fill="#2EB553"/>
<path opacity="0.4" d="M150.83 254.569L126.26 256.709C125.469 256.781 124.681 256.537 124.069 256.028C123.458 255.52 123.074 254.79 123 253.999C122.936 253.212 123.185 252.432 123.692 251.828C124.199 251.223 124.924 250.843 125.71 250.769L150.28 248.629C151.067 248.565 151.847 248.814 152.451 249.321C153.056 249.828 153.436 250.553 153.51 251.339C153.574 252.121 153.33 252.897 152.829 253.501C152.328 254.104 151.61 254.488 150.83 254.569Z" fill="#2EB553"/>
</g>
<path d="M231.716 183.068L176.689 185.721L180.344 261.533L235.37 258.88L231.716 183.068Z" fill="#2EB553"/>
<path opacity="0.8" d="M231.716 183.068L176.689 185.721L180.344 261.533L235.37 258.88L231.716 183.068Z" fill="white"/>
<g opacity="0.4">
<path opacity="0.4" d="M221.94 199.699L188.05 201.339C187.263 201.371 186.494 201.093 185.91 200.563C185.326 200.034 184.974 199.296 184.93 198.509C184.898 197.721 185.176 196.952 185.706 196.368C186.235 195.785 186.973 195.433 187.76 195.389L221.66 193.749C222.448 193.716 223.217 193.994 223.801 194.524C224.384 195.054 224.736 195.792 224.78 196.579C224.813 197.368 224.533 198.138 224.001 198.722C223.47 199.306 222.729 199.657 221.94 199.699Z" fill="#2EB553"/>
<path opacity="0.4" d="M222.55 212.238L188.65 213.868C187.862 213.901 187.094 213.622 186.51 213.093C185.926 212.563 185.574 211.825 185.53 211.038C185.497 210.249 185.777 209.479 186.309 208.894C186.841 208.31 187.581 207.959 188.37 207.918L222.26 206.278C223.049 206.245 223.819 206.525 224.403 207.057C224.988 207.589 225.338 208.329 225.38 209.118C225.413 209.906 225.134 210.674 224.605 211.258C224.075 211.842 223.337 212.194 222.55 212.238Z" fill="#2EB553"/>
<path opacity="0.4" d="M198.6 225.998L189.26 226.448C188.473 226.48 187.704 226.202 187.12 225.672C186.536 225.143 186.184 224.405 186.14 223.618C186.108 222.83 186.386 222.061 186.916 221.478C187.445 220.894 188.183 220.542 188.97 220.498L198.31 220.038C199.099 220.005 199.87 220.285 200.454 220.817C201.038 221.348 201.389 222.089 201.43 222.878C201.463 223.665 201.185 224.434 200.655 225.018C200.125 225.602 199.387 225.954 198.6 225.998Z" fill="#2EB553"/>
<path opacity="0.4" d="M216.711 225.08L207.371 225.53C206.583 225.562 205.814 225.284 205.23 224.754C204.647 224.225 204.295 223.487 204.251 222.7C204.218 221.912 204.496 221.143 205.026 220.559C205.556 219.975 206.294 219.624 207.081 219.58L216.421 219.13C217.208 219.097 217.977 219.375 218.561 219.905C219.145 220.434 219.497 221.173 219.541 221.96C219.573 222.747 219.295 223.516 218.765 224.1C218.236 224.684 217.498 225.036 216.711 225.08Z" fill="#2EB553"/>
<path opacity="0.4" d="M223.76 237.308L189.86 238.938C189.072 238.971 188.304 238.693 187.72 238.163C187.136 237.633 186.784 236.895 186.74 236.108C186.707 235.319 186.987 234.549 187.519 233.965C188.05 233.381 188.791 233.03 189.58 232.988L223.47 231.348C224.259 231.316 225.029 231.595 225.613 232.127C226.198 232.659 226.548 233.399 226.59 234.188C226.623 234.976 226.344 235.745 225.815 236.328C225.285 236.912 224.547 237.264 223.76 237.308Z" fill="#2EB553"/>
<path opacity="0.4" d="M215.1 250.289L190.47 251.479C189.683 251.511 188.914 251.233 188.33 250.703C187.746 250.174 187.394 249.436 187.35 248.649C187.317 247.861 187.596 247.092 188.126 246.508C188.655 245.924 189.393 245.573 190.18 245.529L214.81 244.339C215.598 244.306 216.367 244.584 216.95 245.114C217.534 245.643 217.886 246.382 217.93 247.169C217.963 247.956 217.684 248.725 217.155 249.309C216.625 249.893 215.887 250.245 215.1 250.289Z" fill="#2EB553"/>
</g>
<path d="M149.85 242.839L148.97 239.549C148.353 237.272 146.922 235.301 144.947 234.011C142.973 232.72 140.593 232.2 138.26 232.549L90.4697 238.139C87.5704 238.495 84.9002 239.895 82.9598 242.079C81.0194 244.262 79.9421 247.078 79.9297 249.999L82.6397 363.849C82.6559 364.787 82.8726 365.711 83.2754 366.558C83.6781 367.404 84.2576 368.155 84.9747 368.76C85.6918 369.364 86.5301 369.808 87.433 370.062C88.336 370.315 89.2828 370.372 90.2097 370.229L261.21 350.229C263.195 349.989 265.025 349.032 266.356 347.539C267.687 346.046 268.427 344.119 268.44 342.119L266.1 243.699C266.082 242.761 265.864 241.838 265.46 240.991C265.056 240.144 264.476 239.393 263.758 238.789C263.04 238.184 262.201 237.741 261.298 237.487C260.394 237.234 259.447 237.177 258.52 237.319L159.23 248.929C157.192 249.241 155.11 248.792 153.381 247.669C151.651 246.547 150.395 244.828 149.85 242.839Z" fill="#2EB553"/>
<path opacity="0.3" d="M149.85 242.839L148.97 239.549C148.353 237.272 146.922 235.301 144.947 234.011C142.973 232.72 140.593 232.2 138.26 232.549L90.4697 238.139C87.5704 238.495 84.9002 239.895 82.9598 242.079C81.0194 244.262 79.9421 247.078 79.9297 249.999L82.6397 363.849C82.6559 364.787 82.8726 365.711 83.2754 366.558C83.6781 367.404 84.2576 368.155 84.9747 368.76C85.6918 369.364 86.5301 369.808 87.433 370.062C88.336 370.315 89.2828 370.372 90.2097 370.229L261.21 350.229C263.195 349.989 265.025 349.032 266.356 347.539C267.687 346.046 268.427 344.119 268.44 342.119L266.1 243.699C266.082 242.761 265.864 241.838 265.46 240.991C265.056 240.144 264.476 239.393 263.758 238.789C263.04 238.184 262.201 237.741 261.298 237.487C260.394 237.234 259.447 237.177 258.52 237.319L159.23 248.929C157.192 249.241 155.11 248.792 153.381 247.669C151.651 246.547 150.395 244.828 149.85 242.839Z" fill="black"/>
<path d="M316.999 188.11C316.259 191.82 315.469 195.48 314.579 199.11C313.689 202.74 312.819 206.41 311.849 210.04L310.369 215.47L310.179 216.17C310.089 216.47 309.989 216.77 309.869 217.08C309.614 217.761 309.278 218.409 308.869 219.01C308.374 219.757 307.739 220.402 306.999 220.91C306.185 221.462 305.248 221.806 304.269 221.91C302.789 222.018 301.308 221.702 299.999 221C299.006 220.459 298.074 219.812 297.219 219.07C295.674 217.719 294.306 216.176 293.149 214.48L295.999 212C297.36 213.058 298.797 214.014 300.299 214.86C300.952 215.23 301.643 215.529 302.359 215.75C302.969 215.95 303.509 215.92 303.509 215.82C303.509 215.72 303.409 215.82 303.359 215.82C303.309 215.82 303.359 215.82 303.359 215.65C303.359 215.48 303.479 215.3 303.549 215.04L303.779 213.93L304.939 208.47L307.289 197.55C308.049 193.91 308.869 190.26 309.659 186.66L316.999 188.11Z" fill="#FFC3BD"/>
<path d="M313.68 176.679C305.15 183.209 305.5 195.519 305.5 195.519L320.75 199.169C320.75 199.169 325.44 186.789 323.54 182.259C321.56 177.539 318.49 172.999 313.68 176.679Z" fill="#263238"/>
<path d="M296.759 212.149L291.149 206.539L288.149 215.319C288.149 215.319 292.889 217.869 297.419 215.459L296.759 212.149Z" fill="#FFC3BD"/>
<path d="M283.38 205.67L282.35 212.61L288.12 215.32L291.15 206.54L283.38 205.67Z" fill="#FFC3BD"/>
<path d="M363.119 408.86L354.539 409.7L345.609 389.27L354.189 388.43L363.119 408.86Z" fill="#FFC3BD"/>
<path d="M418.4 378.659L411.95 384.709L398.04 369.419L404.49 363.369L418.4 378.659Z" fill="#FFC3BD"/>
<path d="M408.999 381.81L413.839 373.09C413.921 372.937 414.055 372.819 414.217 372.758C414.379 372.697 414.558 372.698 414.719 372.76L422.169 375.6C422.354 375.677 422.519 375.792 422.656 375.938C422.792 376.084 422.896 376.257 422.961 376.445C423.026 376.634 423.051 376.834 423.033 377.033C423.016 377.232 422.957 377.425 422.859 377.6C421.119 380.6 420.129 381.98 417.999 385.82C416.689 388.18 414.139 393.59 412.329 396.82C410.519 400.05 407.199 398.47 407.659 396.95C409.729 390.13 409.339 386.34 408.759 383.34C408.66 382.817 408.745 382.276 408.999 381.81Z" fill="#263238"/>
<path d="M353.4 407.049H363.94C364.13 407.05 364.314 407.112 364.464 407.228C364.614 407.344 364.722 407.506 364.77 407.689L367.06 416.019C367.116 416.216 367.126 416.423 367.088 416.624C367.049 416.825 366.965 417.014 366.84 417.176C366.716 417.339 366.555 417.47 366.371 417.559C366.187 417.648 365.985 417.692 365.78 417.689C362.06 417.689 360.3 417.689 355.67 417.689H341.51C337.65 417.689 336.85 413.799 338.44 413.439C345.59 411.859 349.7 409.679 351.91 407.599C352.32 407.235 352.852 407.039 353.4 407.049Z" fill="#263238"/>
<path opacity="0.2" d="M345.62 389.279L350.22 399.809H359.17L354.2 388.439L345.62 389.279Z" fill="black"/>
<path opacity="0.2" d="M404.49 363.379L398.04 369.429L405.22 377.309L411.67 371.249L404.49 363.379Z" fill="black"/>
<path d="M316.26 175.419C316.26 175.419 312.4 177.109 325.34 228.309L361.28 225.199C359.42 210.629 358.62 201.609 363.01 170.979C357.89 170.373 352.733 170.142 347.58 170.289C342.113 170.37 336.659 170.842 331.26 171.699C326.2 172.684 321.193 173.925 316.26 175.419Z" fill="#263238"/>
<path d="M347.58 170C347.58 170 349.58 170 352.02 170C353.47 172.23 348.77 182 341.02 188.39C339.839 184.838 337.671 181.695 334.77 179.33L347.58 170Z" fill="white"/>
<path d="M331.26 171.57C331.26 171.57 330.35 171.7 328.18 172.2C326.73 174.43 324.28 183.96 328.55 188.82C329.625 185.135 331.782 181.857 334.74 179.41L331.26 171.57Z" fill="white"/>
<path d="M344.37 152.049C343.8 157.389 343.6 167.049 347.58 170.289C347.58 170.289 343.33 174.629 334.74 179.409C328.49 175.089 331.26 171.699 331.26 171.699C336.99 169.799 336.46 165.469 335.09 161.469L344.37 152.049Z" fill="#FFC3BD"/>
<path d="M334.59 179.44C334.59 179.44 339.86 173.7 342.59 174.8C345.32 175.9 343.21 177.87 342.97 179.72C342.73 181.57 344.03 186.49 340.38 185.21C336.73 183.93 334.59 179.44 334.59 179.44Z" fill="#2EB553"/>
<path d="M334.38 179.32C334.38 179.32 331.89 174.92 329.2 175.51C326.51 176.1 328.11 177.64 328.35 179.3C328.66 181.42 326.42 185.5 329.66 184.3C332.9 183.1 334.38 179.32 334.38 179.32Z" fill="#2EB553"/>
<g opacity="0.2">
<path opacity="0.2" d="M333 178.369C332.964 179.256 333.135 180.139 333.5 180.949C333.831 180.432 334.122 179.89 334.37 179.329C334.001 178.702 333.576 178.109 333.1 177.559C333.017 177.82 332.984 178.095 333 178.369Z" fill="black"/>
<path opacity="0.2" d="M336.51 177.578C335.38 178.578 334.6 179.438 334.6 179.438C334.89 180.038 335.224 180.617 335.6 181.168C336.204 180.562 336.56 179.753 336.6 178.898C336.696 178.458 336.664 178.001 336.51 177.578Z" fill="black"/>
</g>
<path d="M334.53 181.24C333.78 181.24 333.32 180.43 333.27 178.5C333.22 176.57 334.7 177.64 334.7 177.64C334.7 177.64 336.7 176.64 336.34 178.95C336.08 180.78 335.3 181.24 334.53 181.24Z" fill="#2EB553"/>
<path opacity="0.2" d="M340.59 155.9L335.1 161.47C335.429 162.398 335.68 163.351 335.85 164.32C338.06 163.81 341.26 161.51 341.29 159.15C341.254 158.034 341.017 156.933 340.59 155.9Z" fill="black"/>
<path d="M335.88 133.999C335.88 133.999 329.88 142.309 328.88 145.999C324.8 148.379 323.98 136.669 326.14 129.449C332.88 133.679 335.88 133.999 335.88 133.999Z" fill="#263238"/>
<path d="M349.07 143.71C346.84 152.24 346.07 155.9 340.85 159.47C332.98 164.85 322.99 160.25 322.62 151.22C322.29 143.1 325.99 130.51 335.12 128.74C337.132 128.331 339.215 128.446 341.17 129.073C343.125 129.699 344.887 130.817 346.286 132.319C347.686 133.821 348.677 135.657 349.164 137.651C349.651 139.646 349.619 141.732 349.07 143.71Z" fill="#FFC3BD"/>
<path d="M353.709 140.3C353.709 140.3 349.419 147.25 348.839 150.3C345.729 152.41 344.419 143.15 345.729 137.3C347.159 132.09 353.709 140.3 353.709 140.3Z" fill="#263238"/>
<path d="M352 135.47C350.76 136.41 349.45 132.94 350.68 130.28C348.31 130.43 345.46 129.02 346.07 126.73C341.4 128.3 339.67 123.55 340.21 120.26C340.86 116.26 344.34 115.41 346.39 116.46C346.39 114.67 350.91 110.94 352.63 113.86C355.82 112.73 360.96 113.08 360.85 117C362.96 117.06 369.19 119.45 366.85 125C369.6 125.16 371.09 128.65 369.56 131.29C370.162 131.609 370.679 132.068 371.067 132.63C371.455 133.191 371.701 133.837 371.787 134.514C371.872 135.19 371.793 135.878 371.557 136.517C371.321 137.157 370.934 137.731 370.43 138.19C371.7 140.83 367.849 144.76 365.799 144.29C364.239 146.68 361.85 148.48 360.29 146.44C357.29 148.65 353.839 145.84 354.609 143.68C351.209 143.16 347.74 137.49 352 135.47Z" fill="#263238"/>
<path d="M357.079 127.07C359.319 130.81 359.129 135.07 356.669 136.52C354.209 137.97 350.379 136.17 348.139 132.43C345.899 128.69 346.079 124.43 348.549 122.98C351.019 121.53 354.839 123.34 357.079 127.07Z" fill="#2EB553"/>
<path d="M336.28 132.999C336.15 134.069 333.2 133.789 332.35 131.899C331.13 133.179 328.26 133.839 327.28 132.449C325.62 135.569 322.28 134.749 321.42 133.259C320.56 131.769 319.99 128.999 321.72 128.449C320.72 127.589 321.02 123.539 323.64 124.049C324.74 121.889 327.75 119.439 329.95 121.349C331.15 120.349 335.95 118.269 337.89 122.079C338.315 121.788 338.801 121.598 339.311 121.522C339.82 121.446 340.341 121.486 340.832 121.64C341.324 121.794 341.775 122.058 342.15 122.411C342.525 122.764 342.816 123.198 343 123.679C346.11 122.869 347.46 125.229 347.45 126.509C349.66 127.109 349.81 130.929 348.45 131.749C348.98 133.679 348.7 135.749 346.67 135.569C346.28 138.169 342.8 138.569 341.98 137.159C339.72 138.609 335.11 136.089 336.28 132.999Z" fill="#263238"/>
<path d="M331 125.62C333.53 122.12 342.76 120.62 350.75 125.91C357.95 130.64 357.48 141.63 351.75 141.04C346.02 140.45 340.36 133.74 340.36 133.74L331 125.62Z" fill="#263238"/>
<path d="M349.77 151.41C348.973 152.914 347.615 154.042 345.99 154.55C343.82 155.2 342.7 153.28 343.26 151.21C343.77 149.35 345.5 146.77 347.69 147.03C348.168 147.093 348.622 147.275 349.012 147.559C349.401 147.843 349.713 148.22 349.92 148.655C350.127 149.09 350.221 149.57 350.195 150.051C350.169 150.533 350.023 151 349.77 151.41Z" fill="#FFC3BD"/>
<path d="M325.34 228.31C325.34 228.31 313.18 282.11 321.34 320.04C326.78 345.44 346.34 396.75 346.34 396.75L361.68 396.36C361.68 396.36 346.83 342.51 343.76 321.36C338.51 285.14 351.66 226.07 351.66 226.07L325.34 228.31Z" fill="#2EB553"/>
<path opacity="0.2" d="M339.36 239.18L347 251.27C344.69 265.605 343.224 280.063 342.61 294.57C331.86 275.27 337 249.39 339.36 239.18Z" fill="black"/>
<path d="M344.18 397.55L363.12 397.06L362.03 391.25L342.7 392.16L344.18 397.55Z" fill="#263238"/>
<path d="M333.2 227.74C333.2 227.74 340.33 284.79 355.8 315.94C368.29 341.1 401.62 376.94 401.62 376.94L410.14 368.16C410.14 368.16 387.63 329.24 378.35 312.53C355.58 271.53 374.19 240.28 361.28 225.23L333.2 227.74Z" fill="#2EB553"/>
<path d="M400.759 378.09L411.759 367.37L408.109 362.4L396.439 374.04L400.759 378.09Z" fill="#263238"/>
<path d="M361.64 223.049L363.54 226.129C363.69 226.359 363.41 226.639 363 226.679L325.3 229.939C324.98 229.939 324.7 229.829 324.66 229.629L324.06 226.439C324.01 226.219 324.28 226.009 324.63 225.979L361.03 222.829C361.142 222.808 361.257 222.818 361.365 222.856C361.472 222.895 361.567 222.962 361.64 223.049Z" fill="#2EB553"/>
<path opacity="0.5" d="M361.64 223.049L363.54 226.129C363.69 226.359 363.41 226.639 363 226.679L325.3 229.939C324.98 229.939 324.7 229.829 324.66 229.629L324.06 226.439C324.01 226.219 324.28 226.009 324.63 225.979L361.03 222.829C361.142 222.808 361.257 222.818 361.365 222.856C361.472 222.895 361.567 222.962 361.64 223.049Z" fill="white"/>
<path d="M357.1 227.54L358.1 227.46C358.29 227.46 358.43 227.33 358.41 227.21L357.59 223.07C357.59 222.94 357.39 222.86 357.19 222.88L356.19 222.96C355.99 222.96 355.85 223.09 355.88 223.21L356.7 227.35C356.73 227.47 356.91 227.56 357.1 227.54Z" fill="#2EB553"/>
<path d="M328.07 230.049L329.07 229.969C329.26 229.969 329.4 229.839 329.38 229.719L328.56 225.579C328.524 225.508 328.465 225.45 328.392 225.416C328.32 225.381 328.238 225.372 328.16 225.389L327.16 225.469C326.96 225.469 326.82 225.599 326.85 225.719L327.67 229.859C327.7 229.999 327.88 230.069 328.07 230.049Z" fill="#2EB553"/>
<path d="M342.59 228.8L343.59 228.71C343.79 228.71 343.93 228.58 343.9 228.46L343.08 224.32C343.08 224.2 342.88 224.11 342.69 224.13L341.69 224.22C341.5 224.22 341.36 224.35 341.38 224.47L342.2 228.61C342.22 228.73 342.39 228.81 342.59 228.8Z" fill="#2EB553"/>
<path d="M334.63 143.419C334.49 144.119 334.01 144.619 333.55 144.529C333.09 144.439 332.83 143.789 332.96 143.089C333.09 142.389 333.59 141.889 334.05 141.979C334.51 142.069 334.77 142.709 334.63 143.419Z" fill="#263238"/>
<path d="M326.669 141.849C326.807 141.145 326.546 140.5 326.085 140.41C325.625 140.319 325.139 140.817 325.001 141.521C324.862 142.226 325.123 142.87 325.584 142.961C326.045 143.051 326.53 142.554 326.669 141.849Z" fill="#263238"/>
<path d="M326.3 140.5L324.7 139.68C324.7 139.68 325.31 141.17 326.3 140.5Z" fill="#263238"/>
<path d="M329.41 143.609C328.474 145.092 327.336 146.438 326.03 147.609C326.333 147.943 326.707 148.206 327.123 148.379C327.54 148.552 327.99 148.631 328.44 148.609L329.41 143.609Z" fill="#ED847E"/>
<path d="M331.69 151.909C333.167 151.924 334.596 151.382 335.69 150.389C335.711 150.373 335.729 150.353 335.741 150.329C335.754 150.306 335.761 150.28 335.762 150.254C335.763 150.228 335.759 150.201 335.749 150.177C335.739 150.152 335.724 150.13 335.704 150.112C335.685 150.094 335.662 150.081 335.637 150.073C335.611 150.065 335.585 150.063 335.559 150.066C335.532 150.07 335.507 150.079 335.485 150.093C335.463 150.107 335.444 150.126 335.43 150.149C334.757 150.742 333.953 151.168 333.084 151.392C332.215 151.617 331.306 151.633 330.43 151.439C330.407 151.435 330.384 151.435 330.362 151.439C330.34 151.444 330.319 151.453 330.3 151.466C330.282 151.48 330.266 151.496 330.254 151.516C330.242 151.535 330.233 151.556 330.23 151.579C330.224 151.601 330.223 151.625 330.227 151.648C330.231 151.671 330.24 151.692 330.254 151.711C330.267 151.73 330.284 151.746 330.304 151.758C330.324 151.77 330.347 151.777 330.37 151.779C330.804 151.87 331.246 151.913 331.69 151.909Z" fill="#263238"/>
<path d="M339.4 140.69C339.463 140.689 339.525 140.672 339.58 140.64C339.66 140.593 339.717 140.515 339.739 140.425C339.762 140.335 339.748 140.24 339.7 140.16C339.369 139.598 338.909 139.124 338.358 138.776C337.806 138.428 337.18 138.217 336.53 138.16C336.484 138.159 336.438 138.167 336.395 138.183C336.352 138.199 336.313 138.224 336.28 138.256C336.246 138.287 336.219 138.325 336.2 138.367C336.182 138.409 336.171 138.454 336.17 138.5C336.169 138.546 336.176 138.592 336.193 138.635C336.209 138.678 336.234 138.717 336.265 138.751C336.297 138.784 336.335 138.811 336.377 138.83C336.419 138.849 336.464 138.859 336.51 138.86C337.047 138.919 337.561 139.105 338.012 139.403C338.462 139.7 338.835 140.1 339.1 140.57C339.137 140.613 339.183 140.646 339.235 140.667C339.288 140.688 339.344 140.696 339.4 140.69Z" fill="#263238"/>
<path d="M324.48 137.869C324.536 137.882 324.594 137.882 324.65 137.869C325.114 137.594 325.637 137.433 326.176 137.398C326.715 137.363 327.254 137.456 327.75 137.669C327.831 137.703 327.922 137.705 328.005 137.675C328.087 137.645 328.156 137.585 328.196 137.507C328.236 137.429 328.246 137.338 328.222 137.253C328.199 137.169 328.145 137.096 328.07 137.049C327.471 136.778 326.816 136.655 326.159 136.692C325.503 136.728 324.865 136.923 324.3 137.259C324.221 137.305 324.164 137.38 324.14 137.468C324.115 137.556 324.126 137.649 324.17 137.729C324.204 137.778 324.251 137.818 324.306 137.842C324.36 137.867 324.42 137.876 324.48 137.869Z" fill="#263238"/>
<path d="M364.54 179.16C365.22 179.82 365.69 180.34 366.22 180.93C366.75 181.52 367.22 182.1 367.7 182.69C368.65 183.88 369.56 185.1 370.41 186.35C372.101 188.87 373.598 191.514 374.89 194.26C376.179 197.019 377.22 199.887 378 202.83C378.39 204.3 378.74 205.83 379 207.3C379.496 209.424 379.253 211.653 378.31 213.62C377.761 214.653 377.002 215.559 376.08 216.28C375.281 216.895 374.403 217.399 373.47 217.78C371.865 218.399 370.183 218.796 368.47 218.96C365.432 219.252 362.37 219.212 359.34 218.84C353.54 218.166 347.815 216.95 342.24 215.21L343.16 211.58C345.88 212.03 348.68 212.45 351.44 212.74C354.2 213.03 356.98 213.29 359.71 213.35C362.355 213.445 365.003 213.298 367.62 212.91C368.747 212.727 369.844 212.39 370.88 211.91C371.515 211.67 372.039 211.203 372.35 210.6C372.434 210.37 372.475 210.125 372.47 209.88C372.484 209.7 372.484 209.52 372.47 209.34C372.47 209.14 372.4 208.96 372.31 208.59C372.03 207.3 371.66 206.03 371.26 204.77C370.446 202.258 369.444 199.811 368.26 197.45C367.071 195.075 365.708 192.793 364.18 190.62C363.43 189.52 362.64 188.45 361.82 187.42C361.41 186.9 360.98 186.42 360.56 185.91C360.14 185.4 359.66 184.91 359.33 184.55L364.54 179.16Z" fill="#FFC3BD"/>
<path d="M345.45 212.13L338.45 208.42L338.13 217.69C338.13 217.69 343.13 218.01 345.99 215.69L345.45 212.13Z" fill="#FFC3BD"/>
<path d="M333.17 262L338.95 199.19L326.6 189.73L288.9 186.26L282.35 257.32L333.17 262Z" fill="#2EB553"/>
<path opacity="0.8" d="M333.17 262L338.95 199.19L326.6 189.73L288.9 186.26L282.35 257.32L333.17 262Z" fill="white"/>
<path d="M338.95 199.19L326.6 189.73L329.84 201.05L338.95 199.19Z" fill="#2EB553"/>
<path d="M286.77 268.3C295.275 268.3 302.17 261.405 302.17 252.9C302.17 244.395 295.275 237.5 286.77 237.5C278.265 237.5 271.37 244.395 271.37 252.9C271.37 261.405 278.265 268.3 286.77 268.3Z" fill="#2EB553"/>
<path d="M294.378 262.524C299.7 258.32 300.606 250.597 296.402 245.276C292.197 239.954 284.475 239.048 279.153 243.253C273.832 247.457 272.926 255.179 277.13 260.501C281.334 265.823 289.057 266.728 294.378 262.524Z" fill="white"/>
<path d="M294.36 251.819L288.94 251.189L289.57 245.769L285.69 245.309L285.06 250.729L279.64 250.089L279.18 253.979L284.6 254.619L283.96 260.029L287.85 260.489L288.48 255.069L293.9 255.709L294.36 251.819Z" fill="#2EB553"/>
<path opacity="0.4" d="M329.73 212.21C329.68 212.759 329.522 213.294 329.265 213.782C329.008 214.271 328.657 214.704 328.233 215.057C327.808 215.41 327.318 215.676 326.791 215.839C326.264 216.003 325.709 216.061 325.16 216.01L297.66 213.48C296.551 213.376 295.528 212.836 294.816 211.98C294.103 211.123 293.76 210.019 293.86 208.91C293.91 208.36 294.068 207.826 294.325 207.337C294.582 206.848 294.933 206.415 295.357 206.062C295.782 205.709 296.271 205.444 296.799 205.28C297.326 205.117 297.88 205.059 298.43 205.11L325.93 207.64C326.48 207.69 327.014 207.848 327.503 208.105C327.991 208.362 328.424 208.713 328.777 209.137C329.13 209.561 329.396 210.051 329.559 210.579C329.723 211.106 329.781 211.66 329.73 212.21Z" fill="#2EB553"/>
<path opacity="0.4" d="M320.36 223.559C320.31 224.109 320.152 224.643 319.895 225.132C319.638 225.62 319.287 226.053 318.863 226.406C318.438 226.759 317.948 227.025 317.421 227.189C316.894 227.352 316.34 227.41 315.79 227.359L296.57 225.589C296.02 225.539 295.486 225.381 294.997 225.124C294.509 224.867 294.075 224.516 293.723 224.092C293.37 223.667 293.104 223.178 292.94 222.65C292.777 222.123 292.719 221.569 292.77 221.019C292.82 220.469 292.978 219.935 293.235 219.446C293.492 218.958 293.843 218.525 294.267 218.172C294.692 217.819 295.181 217.553 295.709 217.39C296.236 217.226 296.79 217.168 297.34 217.219L316.56 218.999C317.667 219.103 318.688 219.641 319.4 220.495C320.112 221.35 320.457 222.451 320.36 223.559Z" fill="#2EB553"/>
<path d="M334.17 208.97L335.22 215.9L338.12 217.69L338.44 208.42L334.17 208.97Z" fill="#FFC3BD"/>
<path d="M363 171C367.41 171.78 373.59 184.42 373.59 184.42L362.48 194.42C362.48 194.42 353.64 184.78 354.11 179.04C354.52 174.19 357.4 170 363 171Z" fill="#263238"/>
<path d="M407.28 386.499C407.395 386.497 407.509 386.48 407.62 386.449C408.68 386.089 409.37 384.139 409.69 383.009C409.696 382.976 409.694 382.942 409.684 382.911C409.673 382.879 409.655 382.851 409.63 382.829C409.603 382.807 409.569 382.795 409.535 382.795C409.5 382.795 409.467 382.807 409.44 382.829C409.12 382.989 406.3 384.499 406.21 385.609C406.197 385.73 406.218 385.852 406.271 385.962C406.324 386.071 406.407 386.164 406.51 386.229C406.728 386.405 407 386.5 407.28 386.499ZM409.28 383.319C408.79 384.879 408.16 385.909 407.56 386.109C407.424 386.151 407.279 386.156 407.141 386.125C407.002 386.093 406.874 386.026 406.77 385.929C406.716 385.898 406.672 385.853 406.644 385.798C406.615 385.743 406.604 385.68 406.61 385.619C406.61 384.939 408.26 383.869 409.23 383.319H409.28Z" fill="#2EB553"/>
<path d="M406.84 383.76C407.8 383.756 408.747 383.534 409.61 383.11C409.634 383.094 409.654 383.071 409.668 383.045C409.682 383.019 409.69 382.99 409.69 382.96C409.691 382.929 409.683 382.898 409.667 382.872C409.651 382.845 409.628 382.824 409.6 382.81C409.51 382.76 407.28 381.53 406.08 381.96C405.929 382.004 405.79 382.083 405.675 382.191C405.561 382.299 405.473 382.432 405.42 382.58C405.345 382.72 405.32 382.882 405.349 383.038C405.378 383.195 405.459 383.336 405.58 383.44C405.952 383.684 406.396 383.797 406.84 383.76ZM409.13 382.96C408.18 383.37 406.33 383.62 405.81 383.18C405.72 383.1 405.63 382.98 405.75 382.71C405.785 382.611 405.844 382.521 405.92 382.448C405.996 382.375 406.089 382.321 406.19 382.29C407 382 408.5 382.65 409.13 383V382.96Z" fill="#2EB553"/>
<path d="M348.729 408.749C349.696 408.726 350.658 408.602 351.599 408.379C351.632 408.367 351.661 408.346 351.681 408.317C351.701 408.288 351.712 408.254 351.712 408.219C351.712 408.184 351.701 408.15 351.681 408.121C351.661 408.093 351.632 408.071 351.599 408.059C351.169 407.849 347.339 406.059 346.379 406.739C346.291 406.797 346.221 406.878 346.177 406.973C346.133 407.069 346.116 407.175 346.129 407.279C346.132 407.475 346.18 407.668 346.27 407.841C346.361 408.015 346.491 408.165 346.649 408.279C347.275 408.654 348.004 408.818 348.729 408.749ZM350.999 408.149C349.869 408.359 347.769 408.639 346.899 407.989C346.788 407.901 346.696 407.791 346.631 407.665C346.565 407.539 346.527 407.401 346.519 407.259C346.511 407.215 346.516 407.17 346.534 407.129C346.551 407.088 346.581 407.053 346.619 407.029C347.149 406.659 349.409 407.449 350.999 408.149Z" fill="#2EB553"/>
<path d="M351.56 408.389C351.599 408.4 351.641 408.4 351.68 408.389C351.705 408.367 351.723 408.338 351.732 408.306C351.741 408.274 351.74 408.24 351.73 408.209C351.73 408.049 350.83 404.279 348.73 404.519C348.21 404.589 348.06 404.839 348.04 405.049C347.91 406.049 350.32 407.939 351.47 408.419L351.56 408.389ZM348.94 404.819C350.27 404.819 351.04 407.019 351.3 407.899C350.05 407.239 348.3 405.669 348.41 405.059C348.41 405.009 348.41 404.869 348.8 404.829L348.94 404.819Z" fill="#2EB553"/>
<path d="M334.239 142.06L332.649 141.24C332.649 141.24 333.259 142.73 334.239 142.06Z" fill="#263238"/>
</svg>
