<svg width="203" height="128" viewBox="0 0 203 128" fill="none" xmlns="http://www.w3.org/2000/svg">
<path d="M203 112.485H0V112.571H203V112.485Z" fill="#EBEBEB"/>
<path d="M182.659 118.013H169.213V118.099H182.659V118.013Z" fill="#EBEBEB"/>
<path d="M134.475 118.947H130.947V119.033H134.475V118.947Z" fill="#EBEBEB"/>
<path d="M168.807 114.824H161.016V114.91H168.807V114.824Z" fill="#EBEBEB"/>
<path d="M38.8337 115.402H21.2986V115.488H38.8337V115.402Z" fill="#EBEBEB"/>
<path d="M45.0214 115.402H42.4514V115.488H45.0214V115.402Z" fill="#EBEBEB"/>
<path d="M91.4108 116.852H53.3767V116.937H91.4108V116.852Z" fill="#EBEBEB"/>
<path d="M96.2219 97.1616H17.8274C17.2132 97.1607 16.6246 96.9536 16.1908 96.5858C15.7569 96.218 15.5132 95.7195 15.5132 95.1998V1.94461C15.5185 1.42789 15.7646 0.933816 16.1979 0.569714C16.6312 0.205612 17.2167 0.00088517 17.8274 0H96.2219C96.8368 0 97.4264 0.206688 97.8612 0.574594C98.2959 0.9425 98.5402 1.44149 98.5402 1.96178V95.1998C98.5402 95.7201 98.2959 96.2191 97.8612 96.587C97.4264 96.9549 96.8368 97.1616 96.2219 97.1616ZM17.8274 0.0687143C17.2402 0.0696244 16.6774 0.267663 16.2625 0.619363C15.8477 0.971062 15.6147 1.44768 15.6147 1.94461V95.1998C15.6147 95.6967 15.8477 96.1734 16.2625 96.5251C16.6774 96.8768 17.2402 97.0748 17.8274 97.0757H96.2219C96.8095 97.0748 97.3727 96.8769 97.7882 96.5253C98.2037 96.1737 98.4376 95.6971 98.4387 95.1998V1.94461C98.4376 1.44737 98.2037 0.970755 97.7882 0.619153C97.3727 0.267552 96.8095 0.0696225 96.2219 0.0687143H17.8274Z" fill="#EBEBEB"/>
<path d="M184.044 97.1616H105.645C105.031 97.1607 104.442 96.9537 104.007 96.586C103.573 96.2183 103.328 95.7198 103.327 95.1998V1.94461C103.333 1.42757 103.58 0.933506 104.014 0.569499C104.448 0.205492 105.034 0.000875516 105.645 0H184.044C184.654 0.00178811 185.238 0.206915 185.671 0.57092C186.103 0.934925 186.349 1.42848 186.354 1.94461V95.1998C186.354 95.7189 186.111 96.2169 185.678 96.5846C185.245 96.9523 184.657 97.1598 184.044 97.1616ZM105.645 0.0687143C105.058 0.0696225 104.494 0.267552 104.079 0.619153C103.663 0.970755 103.429 1.44737 103.428 1.94461V95.1998C103.429 95.6971 103.663 96.1737 104.079 96.5253C104.494 96.8769 105.058 97.0748 105.645 97.0757H184.044C184.631 97.0748 185.195 96.8769 185.61 96.5253C186.026 96.1737 186.259 95.6971 186.261 95.1998V1.94461C186.259 1.44737 186.026 0.970755 185.61 0.619153C185.195 0.267552 184.631 0.0696225 184.044 0.0687143H105.645Z" fill="#EBEBEB"/>
<path d="M108.719 112.485H122.969V67.57H108.719V112.485Z" fill="#E6E6E6"/>
<path d="M111.09 112.485H108.719V108.441H113.579L111.09 112.485Z" fill="#F0F0F0"/>
<path d="M166.72 112.485H180.97V67.57H166.72V112.485Z" fill="#E6E6E6"/>
<path d="M108.719 110.932H168.79V67.5697H108.719V110.932Z" fill="#F0F0F0"/>
<path d="M110.562 81.3813H166.951V69.4904H110.562V81.3813Z" fill="#E6E6E6"/>
<path d="M136.091 73.1801H141.418C143.732 73.1801 145.945 71.7131 147.536 69.1226H129.973C131.564 71.7199 133.777 73.1801 136.091 73.1801Z" fill="#F0F0F0"/>
<path d="M166.419 112.485H168.79V108.441H163.931L166.419 112.485Z" fill="#F0F0F0"/>
<path d="M110.562 95.1963H166.951V83.3053H110.562V95.1963Z" fill="#E6E6E6"/>
<path d="M136.091 86.9985H141.418C143.732 86.9985 145.945 85.5314 147.536 82.9409H129.973C131.564 85.5486 133.777 86.9985 136.091 86.9985Z" fill="#F0F0F0"/>
<path d="M110.562 109.011H166.951V97.1203H110.562V109.011Z" fill="#E6E6E6"/>
<path d="M136.091 100.814H141.418C143.732 100.814 145.945 99.3469 147.536 96.7563H129.973C131.564 99.3469 133.777 100.814 136.091 100.814Z" fill="#F0F0F0"/>
<path d="M31.664 57.3833L86.0842 57.3833V10.7849L31.664 10.7849L31.664 57.3833Z" fill="#E6E6E6"/>
<path d="M27.884 57.3833L85.0813 57.3833V10.7849L27.884 10.7849L27.884 57.3833Z" fill="#F0F0F0"/>
<path d="M80.2944 53.3288V14.8386L32.6828 14.8386V53.3288H80.2944Z" fill="white"/>
<path d="M56.1579 19.9272L47.4208 27.3345C45.3095 29.1257 44.1238 31.5523 44.1238 34.0822C44.1238 36.6122 45.3095 39.0388 47.4208 40.83L56.1579 48.227C56.2005 48.2632 56.2512 48.2918 56.3069 48.3114C56.3626 48.331 56.4224 48.3411 56.4827 48.3411C56.5431 48.3411 56.6028 48.331 56.6586 48.3114C56.7143 48.2918 56.7649 48.2632 56.8075 48.227L65.5487 40.83C67.66 39.0388 68.8457 36.6122 68.8457 34.0822C68.8457 31.5523 67.66 29.1257 65.5487 27.3345L56.8116 19.9272C56.7243 19.8548 56.607 19.8142 56.4848 19.8142C56.3625 19.8142 56.2452 19.8548 56.1579 19.9272ZM48.0704 40.2665C46.1319 38.6216 45.0433 36.3933 45.0433 34.0702C45.0433 31.7471 46.1319 29.5188 48.0704 27.8739V40.2665ZM64.8991 40.2665V27.8877C66.8376 29.5326 67.9262 31.7609 67.9262 34.084C67.9262 36.407 66.8376 38.6353 64.8991 40.2802V40.2665Z" fill="#F0F0F0"/>
<path d="M165.181 51.5352H134.776L133.042 66.7278H163.447L165.181 51.5352Z" fill="#E6E6E6"/>
<path d="M163.447 66.728L163.326 67.5698H132.916L133.042 66.728H163.447Z" fill="#E6E6E6"/>
<path d="M164.247 51.5352H133.842L132.104 66.7278H162.51L164.247 51.5352Z" fill="#F0F0F0"/>
<path d="M161.896 65.7387L163.167 52.5662C163.171 52.5224 163.163 52.4785 163.146 52.4371C163.128 52.3957 163.101 52.3578 163.066 52.3257C163.03 52.2935 162.988 52.2678 162.94 52.2501C162.893 52.2324 162.842 52.223 162.79 52.2227H134.837C134.741 52.2224 134.648 52.2526 134.578 52.3073C134.507 52.3621 134.463 52.4373 134.455 52.5181L133.168 65.6872C133.165 65.7313 133.172 65.7755 133.19 65.8171C133.207 65.8587 133.235 65.8968 133.271 65.929C133.306 65.9612 133.35 65.9868 133.398 66.0043C133.446 66.0218 133.497 66.0308 133.55 66.0307H161.503C161.6 66.0346 161.696 66.0063 161.769 65.9519C161.843 65.8974 161.888 65.821 161.896 65.7387Z" fill="white"/>
<path d="M154.589 66.728L154.467 67.5698H120.984L121.106 66.728H154.589Z" fill="#F0F0F0"/>
<path d="M113.716 43.4138L170.812 43.4138V11.2935L113.716 11.2935V43.4138Z" fill="#E6E6E6"/>
<path d="M112.45 43.4138L169.546 43.4138V11.2935L112.45 11.2935V43.4138Z" fill="#F5F5F5"/>
<path d="M167.268 41.2489V13.4609L114.727 13.4609V41.2489H167.268Z" fill="white"/>
<path d="M115.682 41.2457V13.4578H114.723V41.2457H115.682Z" fill="#E6E6E6"/>
<path d="M113.392 37.5625L168.604 37.5625V34.6559L113.392 34.6559V37.5625Z" fill="#F5F5F5"/>
<path d="M109.965 7.71338H173.301C173.393 7.71427 173.482 7.74569 173.547 7.80091C173.612 7.85613 173.649 7.93076 173.65 8.00885C173.65 8.08721 173.613 8.16237 173.548 8.21778C173.482 8.27319 173.394 8.30432 173.301 8.30432H109.965C109.919 8.30477 109.873 8.29747 109.83 8.28282C109.787 8.26818 109.748 8.24649 109.716 8.219C109.683 8.19152 109.657 8.15879 109.639 8.12272C109.621 8.08665 109.612 8.04794 109.612 8.00885C109.613 7.93017 109.651 7.85502 109.717 7.79971C109.783 7.74439 109.872 7.71337 109.965 7.71338Z" fill="#E6E6E6"/>
<path d="M108.739 8.00872C108.739 8.15535 108.79 8.29869 108.887 8.42066C108.983 8.54262 109.119 8.63774 109.279 8.69401C109.439 8.75027 109.616 8.76517 109.786 8.73681C109.956 8.70846 110.112 8.63812 110.235 8.53467C110.357 8.43123 110.441 8.29932 110.476 8.15559C110.51 8.01186 110.493 7.86276 110.427 7.7271C110.362 7.59144 110.25 7.4753 110.106 7.39334C109.962 7.31139 109.793 7.26729 109.62 7.26661C109.505 7.26616 109.39 7.28502 109.283 7.32211C109.176 7.3592 109.079 7.41379 108.997 7.48275C108.915 7.55171 108.85 7.63367 108.806 7.72393C108.762 7.81419 108.739 7.91097 108.739 8.00872Z" fill="#E6E6E6"/>
<path d="M170.337 9.67114C170.462 9.67116 170.582 9.62975 170.67 9.55585C170.759 9.48194 170.81 9.38145 170.812 9.27604V8.41711C170.812 8.3105 170.762 8.20826 170.673 8.13287C170.584 8.05749 170.463 8.01514 170.337 8.01514C170.275 8.01513 170.214 8.02555 170.156 8.0458C170.099 8.06604 170.047 8.09571 170.003 8.13308C169.959 8.17045 169.924 8.21479 169.901 8.26354C169.878 8.31229 169.866 8.36449 169.866 8.41711V9.27604C169.868 9.38086 169.919 9.48084 170.007 9.55465C170.095 9.62846 170.213 9.67026 170.337 9.67114Z" fill="#E6E6E6"/>
<path d="M115.251 9.67114C115.373 9.66682 115.488 9.6236 115.573 9.55023C115.658 9.47687 115.707 9.37886 115.71 9.27604V8.41711C115.71 8.3105 115.66 8.20826 115.571 8.13287C115.482 8.05749 115.361 8.01514 115.235 8.01514C115.173 8.01513 115.111 8.02555 115.054 8.0458C114.997 8.06604 114.944 8.09571 114.901 8.13308C114.857 8.17045 114.822 8.21479 114.799 8.26354C114.775 8.31229 114.764 8.36449 114.764 8.41711V9.27604C114.765 9.32912 114.779 9.38151 114.804 9.43016C114.829 9.47882 114.865 9.52279 114.91 9.55952C114.956 9.59626 115.009 9.62504 115.068 9.6442C115.126 9.66335 115.189 9.67251 115.251 9.67114Z" fill="#E6E6E6"/>
<path opacity="0.4" d="M110.079 39.2151L168.604 39.2151V8.00863L110.079 8.00863V39.2151Z" fill="#E0E0E0"/>
<path d="M163.825 8.00871C163.825 8.15549 163.877 8.29897 163.973 8.42101C164.069 8.54305 164.206 8.63817 164.366 8.69433C164.527 8.7505 164.703 8.7652 164.873 8.73656C165.043 8.70793 165.199 8.63725 165.322 8.53346C165.445 8.42968 165.528 8.29745 165.562 8.15349C165.596 8.00953 165.579 7.86032 165.512 7.72472C165.446 7.58912 165.333 7.47321 165.189 7.39167C165.045 7.31012 164.875 7.2666 164.702 7.2666C164.469 7.2666 164.246 7.34479 164.082 7.48396C163.917 7.62313 163.825 7.81189 163.825 8.00871Z" fill="#E6E6E6"/>
<path d="M80.9968 110.259H85.6902V75.809H80.9968V110.259Z" fill="#F0F0F0"/>
<path d="M30.0846 112.44H83.8877V110.259H30.0846V112.44Z" fill="#F0F0F0"/>
<path d="M80.997 75.8086H28.282V110.258H80.997V75.8086Z" fill="#F5F5F5"/>
<path d="M74.4159 80.0483H34.8634C33.2669 80.0483 31.9727 81.1435 31.9727 82.4946V88.8987C31.9727 90.2497 33.2669 91.3449 34.8634 91.3449H74.4159C76.0124 91.3449 77.3066 90.2497 77.3066 88.8987V82.4946C77.3066 81.1435 76.0124 80.0483 74.4159 80.0483Z" fill="#F0F0F0"/>
<path d="M74.4159 94.7188H34.8634C33.2669 94.7188 31.9727 95.814 31.9727 97.165V103.569C31.9727 104.92 33.2669 106.015 34.8634 106.015H74.4159C76.0124 106.015 77.3066 104.92 77.3066 103.569V97.165C77.3066 95.814 76.0124 94.7188 74.4159 94.7188Z" fill="#F0F0F0"/>
<path d="M44.8182 86.4733H64.4605C64.7031 86.4733 64.9359 86.392 65.1079 86.2471C65.2798 86.1022 65.377 85.9056 65.378 85.7003C65.377 85.4946 65.28 85.2977 65.1081 85.1523C64.9363 85.0068 64.7035 84.9247 64.4605 84.9238H44.8182C44.5752 84.9247 44.3424 85.0068 44.1706 85.1523C43.9987 85.2977 43.9017 85.4946 43.9006 85.7003C43.9017 85.9056 43.9989 86.1022 44.1708 86.2471C44.3428 86.392 44.5755 86.4733 44.8182 86.4733Z" fill="#F5F5F5"/>
<path d="M44.8182 101.143H64.4605C64.7031 101.143 64.9359 101.062 65.1079 100.917C65.2798 100.772 65.377 100.576 65.378 100.37C65.377 100.165 65.28 99.9676 65.1081 99.8222C64.9363 99.6768 64.7035 99.5947 64.4605 99.5938H44.8182C44.5752 99.5947 44.3424 99.6768 44.1706 99.8222C43.9987 99.9676 43.9017 100.165 43.9006 100.37C43.9017 100.576 43.9989 100.772 44.1708 100.917C44.3428 101.062 44.5755 101.143 44.8182 101.143Z" fill="#F5F5F5"/>
<path d="M101.5 128C144.975 128 180.219 126.259 180.219 124.111C180.219 121.963 144.975 120.222 101.5 120.222C58.0244 120.222 22.7805 121.963 22.7805 124.111C22.7805 126.259 58.0244 128 101.5 128Z" fill="#F5F5F5"/>
<path d="M118.897 15.9592H43.8684L49.6986 102.425H124.723L118.897 15.9592Z" fill="#263238"/>
<path d="M120.355 15.9592H45.3259L51.1561 102.425H126.185L120.355 15.9592Z" fill="#0043A5"/>
<path opacity="0.5" d="M115.186 18.8655H48.7566L53.519 97.1342H121.674L115.186 18.8655Z" fill="black"/>
<path d="M48.7566 18.8655C53.6936 44.9562 50.3075 71.0469 55.2526 97.1342H123.4C118.463 71.0469 121.849 44.9562 116.904 18.8655H48.7566Z" fill="white"/>
<g opacity="0.3">
<path opacity="0.3" d="M62.6905 42.3176C64.1955 42.3278 65.6385 42.8264 66.7217 43.7105C67.805 44.5946 68.4461 45.7969 68.5126 47.0692C68.5429 47.6812 68.4257 48.2921 68.1682 48.8646C67.9106 49.4371 67.5181 49.9593 67.0144 50.3993C66.5108 50.8393 65.9066 51.188 65.2386 51.4241C64.5706 51.6602 63.8529 51.7788 63.129 51.7727C61.6333 51.7622 60.1998 51.265 59.1256 50.3842C58.0515 49.5033 57.4192 48.3065 57.3598 47.0417C57.3285 46.4315 57.4429 45.8221 57.6961 45.2501C57.9493 44.6781 58.3362 44.1552 58.8335 43.7125C59.3325 43.2738 59.9318 42.9257 60.5949 42.6895C61.258 42.4532 61.9711 42.3337 62.6905 42.3382V42.3176ZM62.6499 41.3453C61.7748 41.3407 60.9078 41.4872 60.1018 41.7758C59.2959 42.0644 58.568 42.489 57.9626 43.0238C57.3572 43.5586 56.8871 44.1923 56.581 44.8861C56.2749 45.5799 56.1393 46.3192 56.1824 47.0589C56.2532 48.5859 57.016 50.0312 58.3124 51.095C59.6089 52.1588 61.3395 52.7595 63.1453 52.7725C64.0244 52.7786 64.8958 52.6337 65.7068 52.3465C66.5178 52.0593 67.2515 51.6358 67.8634 51.1016C68.4753 50.5674 68.9526 49.9337 69.2666 49.2388C69.5806 48.5439 69.7246 47.8023 69.69 47.0589C69.6028 45.5253 68.8244 44.0782 67.5148 43.0154C66.2053 41.9527 64.4643 41.355 62.6499 41.3453Z" fill="#0043A5"/>
</g>
<path d="M100.371 85.1784H78.8534C78.6924 85.176 78.5327 85.2028 78.3849 85.2568C78.2371 85.3109 78.1046 85.391 77.9962 85.4918C77.8879 85.5925 77.8062 85.7117 77.7566 85.8413C77.7069 85.9709 77.6905 86.108 77.7084 86.2434C77.7476 86.533 77.9094 86.8009 78.164 86.9973C78.4185 87.1937 78.7485 87.3055 79.0929 87.3119H100.611C100.772 87.3144 100.932 87.2876 101.08 87.2333C101.227 87.179 101.36 87.0985 101.467 86.9972C101.575 86.8959 101.656 86.7761 101.704 86.6461C101.753 86.516 101.768 86.3787 101.748 86.2434C101.709 85.955 101.549 85.6881 101.296 85.4922C101.043 85.2964 100.714 85.1849 100.371 85.1784Z" fill="#E0E0E0"/>
<path d="M111.881 80.694H78.4188C78.2568 80.6915 78.0961 80.7179 77.9471 80.7716C77.7981 80.8253 77.6642 80.905 77.5541 81.0056C77.4441 81.1062 77.3605 81.2253 77.3087 81.3552C77.2568 81.485 77.2381 81.6227 77.2536 81.7591C77.2827 82.0478 77.4377 82.317 77.6882 82.5145C77.9388 82.7119 78.2672 82.8235 78.6096 82.8276H112.056C112.218 82.8315 112.379 82.8064 112.529 82.7537C112.679 82.7011 112.814 82.6222 112.925 82.5222C113.037 82.4222 113.122 82.3035 113.175 82.1737C113.228 82.044 113.248 81.9062 113.233 81.7694C113.207 81.4798 113.054 81.2089 112.804 81.0099C112.553 80.811 112.225 80.6983 111.881 80.694Z" fill="#E0E0E0"/>
<g opacity="0.3">
<path opacity="0.3" d="M63.3767 60.8119C64.8706 60.8209 66.3026 61.3182 67.3732 62.1999C68.4439 63.0816 69.0703 64.2794 69.1216 65.5428C69.149 66.1545 69.0304 66.7645 68.773 67.3365C68.5156 67.9085 68.1247 68.4307 67.6235 68.872C67.1219 69.3116 66.5198 69.6601 65.854 69.8964C65.1881 70.1327 64.4723 70.2517 63.7502 70.2463C62.2527 70.2376 60.8167 69.7413 59.7402 68.8604C58.6636 67.9795 58.0293 66.7816 57.9688 65.5154C57.9442 64.9028 58.0661 64.2923 58.3272 63.7206C58.5884 63.1489 58.9833 62.6278 59.4884 62.1885C59.9935 61.7492 60.5983 61.4008 61.2665 61.1642C61.9347 60.9277 62.6524 60.8078 63.3767 60.8119ZM63.3767 59.8155C62.497 59.811 61.6253 59.9568 60.8138 60.2443C60.0023 60.5317 59.2678 60.955 58.6544 61.4885C58.0409 62.0221 57.5611 62.655 57.2438 63.3493C56.9264 64.0437 56.7781 64.7851 56.8076 65.5291C56.8797 67.0603 57.6466 68.5089 58.9488 69.5738C60.251 70.6386 61.9882 71.2376 63.799 71.2461C64.676 71.249 65.5447 71.1016 66.3527 70.8127C67.1606 70.5239 67.8911 70.0995 68.5 69.5653C69.1089 69.0311 69.5836 68.3981 69.8956 67.7044C70.2076 67.0107 70.3504 66.2707 70.3153 65.5291C70.2545 64.0028 69.4982 62.5556 68.2048 61.4906C66.9115 60.4256 65.1813 59.8253 63.3767 59.8155Z" fill="#0043A5"/>
</g>
<path d="M88.427 45.8633H76.9169C76.5787 45.8609 76.2544 45.7487 76.0112 45.5499C75.7679 45.3511 75.6241 45.0808 75.6096 44.7948C75.6041 44.6566 75.6316 44.5189 75.6904 44.3898C75.7491 44.2608 75.838 44.143 75.9516 44.0437C76.0653 43.9443 76.2014 43.8653 76.3519 43.8113C76.5024 43.7574 76.6641 43.7297 76.8276 43.7297H88.3336C88.672 43.732 88.9965 43.8435 89.241 44.0414C89.4855 44.2394 89.6315 44.5089 89.649 44.7948C89.6551 44.9336 89.6279 45.072 89.5691 45.2017C89.5103 45.3313 89.4212 45.4496 89.3071 45.5494C89.1929 45.6492 89.0561 45.7285 88.9049 45.7824C88.7537 45.8363 88.5911 45.8639 88.427 45.8633Z" fill="#E0E0E0"/>
<path d="M101.711 45.8633H93.9161C93.5774 45.861 93.2528 45.7489 93.0088 45.5501C92.7649 45.3514 92.6203 45.0811 92.6047 44.7948C92.5992 44.6566 92.6267 44.5189 92.6855 44.3898C92.7442 44.2608 92.8331 44.143 92.9467 44.0437C93.0604 43.9443 93.1965 43.8653 93.347 43.8113C93.4975 43.7574 93.6593 43.7297 93.8227 43.7297H101.622C101.96 43.732 102.284 43.8436 102.528 44.0417C102.772 44.2397 102.917 44.5092 102.933 44.7948C102.939 44.9336 102.912 45.072 102.853 45.2017C102.795 45.3313 102.705 45.4496 102.591 45.5494C102.477 45.6492 102.34 45.7285 102.189 45.7824C102.038 45.8363 101.875 45.8639 101.711 45.8633Z" fill="#E0E0E0"/>
<path d="M107.996 50.3469H77.0996C76.7615 50.3454 76.4371 50.2333 76.1943 50.0342C75.9515 49.8352 75.8089 49.5644 75.7963 49.2784C75.7909 49.1402 75.8184 49.0025 75.8771 48.8735C75.9359 48.7444 76.0247 48.6267 76.1384 48.5273C76.252 48.4279 76.3882 48.3489 76.5386 48.295C76.6891 48.2411 76.8509 48.2133 77.0143 48.2134H107.907C108.244 48.215 108.567 48.3266 108.809 48.5251C109.051 48.7235 109.194 48.9934 109.206 49.2784C109.212 49.4164 109.185 49.5539 109.127 49.6829C109.069 49.8119 108.981 49.9297 108.868 50.0294C108.755 50.129 108.62 50.2085 108.47 50.263C108.321 50.3176 108.159 50.3461 107.996 50.3469Z" fill="#E0E0E0"/>
<g opacity="0.3">
<path opacity="0.3" d="M64.2578 79.2825C65.7723 79.3076 67.2227 79.8045 68.3313 80.678C69.44 81.5515 70.129 82.7403 70.2666 84.0169C70.3395 84.615 70.2649 85.2194 70.0475 85.7918C69.8302 86.3643 69.4749 86.8924 69.004 87.3426C68.5292 87.7851 67.9481 88.1367 67.2997 88.3737C66.6514 88.6107 65.9506 88.7277 65.2444 88.7169C63.7168 88.696 62.2508 88.2037 61.1219 87.3326C59.9929 86.4614 59.2789 85.2713 59.1138 83.986C59.0442 83.3834 59.1261 82.7752 59.3543 82.2014C59.5824 81.6276 59.9515 81.1012 60.4374 80.6568C60.9263 80.2155 61.5185 79.8654 62.1764 79.6287C62.8342 79.3921 63.5431 79.2742 64.2578 79.2825ZM64.201 78.2896C63.3315 78.2752 62.4683 78.4164 61.6678 78.7041C60.8673 78.9918 60.1478 79.4194 59.5563 79.9588C58.9648 80.4983 58.5147 81.1375 58.2355 81.8345C57.9564 82.5315 57.8544 83.2705 57.9364 84.0031C58.249 87.1571 61.631 89.7167 65.3581 89.7167C69.0852 89.7167 71.7567 87.1571 71.4481 84.0031C71.287 82.4622 70.4582 81.0261 69.121 79.9713C67.7838 78.9165 66.0328 78.3175 64.2051 78.2896H64.201Z" fill="#0043A5"/>
</g>
<path d="M113.274 66.6973H77.6232C77.4598 66.6972 77.298 66.725 77.1475 66.7789C76.9971 66.8329 76.8609 66.9119 76.7473 67.0113C76.6336 67.1106 76.5448 67.2283 76.486 67.3574C76.4272 67.4864 76.3998 67.6242 76.4052 67.7624C76.4198 68.0474 76.5631 68.3169 76.8056 68.5151C77.0482 68.7132 77.3713 68.8251 77.7085 68.8275H113.376C113.539 68.8275 113.701 68.7998 113.851 68.7458C114.002 68.6919 114.138 68.6129 114.252 68.5135C114.365 68.4141 114.454 68.2964 114.513 68.1674C114.572 68.0383 114.599 67.9006 114.594 67.7624C114.581 67.4744 114.436 67.202 114.189 67.003C113.943 66.8041 113.615 66.6944 113.274 66.6973Z" fill="#E0E0E0"/>
<path d="M104.825 62.2104H77.4691C77.3053 62.2104 77.1432 62.2382 76.9924 62.2924C76.8416 62.3465 76.7053 62.4258 76.5916 62.5256C76.4779 62.6253 76.3892 62.7435 76.3306 62.8729C76.2721 63.0023 76.2451 63.1404 76.2511 63.2789C76.2626 63.5637 76.4039 63.8336 76.6453 64.0321C76.8867 64.2306 77.2096 64.3424 77.5462 64.344H104.907C105.07 64.3441 105.232 64.3163 105.382 64.2624C105.533 64.2085 105.669 64.1295 105.782 64.0301C105.896 63.9307 105.985 63.813 106.044 63.6839C106.103 63.5549 106.13 63.4172 106.125 63.2789C106.115 62.9928 105.974 62.721 105.731 62.5215C105.489 62.3219 105.164 62.2103 104.825 62.2104Z" fill="#E0E0E0"/>
<path d="M63.3077 50.4089L62.8286 49.7423C61.7771 48.289 59.5806 46.9938 58.8254 46.6124L59.3938 45.7604C60.8851 46.5243 62.2137 47.4953 63.3239 48.6326C65.0494 46.6708 67.5707 44.6541 70.9851 42.4758L71.72 43.2798C68.066 45.6058 65.4757 47.7462 63.8152 49.7836C63.6487 49.9931 63.4782 50.2027 63.3077 50.4089Z" fill="#0043A5"/>
<path d="M63.9167 68.8925C63.7583 68.6692 63.5959 68.4459 63.4335 68.226C62.3779 66.7727 60.1855 65.4774 59.4385 65.0926L60.015 64.2406C61.4986 65.0066 62.8201 65.9774 63.9248 67.1128C65.6543 65.1545 68.1959 63.1343 71.6631 60.9561L72.3818 61.76C68.679 64.086 66.0725 66.2264 64.4201 68.2638L63.9167 68.8925Z" fill="#0043A5"/>
<path d="M65.3093 87.4179L64.7734 86.7514C63.6041 85.2981 61.3386 84.0028 60.5591 83.6214L61.0869 82.7694C62.6211 83.5387 64.0034 84.5067 65.1834 85.6382C66.7749 83.6799 69.1947 81.6597 72.5564 79.4849L73.3156 80.2888C69.7266 82.6148 67.2621 84.7552 65.764 86.7926L65.3093 87.4179Z" fill="#0043A5"/>
<path d="M90.9848 25.4241C90.2702 26.7434 89.5381 28.0615 88.7883 29.3786C90.3339 30.0291 91.6554 31.0057 92.6254 32.214C93.5953 33.4224 94.1811 34.8218 94.3262 36.2774H99.7219C99.3646 31.6083 95.8162 27.5439 90.9848 25.4241Z" fill="#0043A5"/>
<path d="M70.4289 36.2843H75.8246C75.6923 34.9927 75.9704 33.6948 76.63 32.5247C77.2895 31.3546 78.3067 30.355 79.5761 29.6293C78.5259 28.31 77.4595 26.9907 76.3768 25.6714C72.4386 27.829 70.0838 31.7835 70.4289 36.2843Z" fill="#263238"/>
<path d="M83.685 23.8922C81.0961 23.8705 78.5562 24.489 76.377 25.6718C77.4596 26.9912 78.526 28.3105 79.5762 29.6298C80.9829 28.8519 82.6299 28.4431 84.3102 28.4548C85.8649 28.4624 87.3953 28.7814 88.7762 29.3858C89.5232 28.0665 90.2554 26.7484 90.9727 25.4313C88.7233 24.4336 86.2245 23.9058 83.685 23.8922Z" fill="#0043A5"/>
<path opacity="0.5" d="M83.685 23.8922C81.0961 23.8705 78.5562 24.489 76.377 25.6718C77.4596 26.9912 78.526 28.3105 79.5762 29.6298C80.9829 28.8519 82.6299 28.4431 84.3102 28.4548C85.8649 28.4624 87.3953 28.7814 88.7762 29.3858C89.5232 28.0665 90.2554 26.7484 90.9727 25.4313C88.7233 24.4336 86.2245 23.9058 83.685 23.8922Z" fill="#263238"/>
<path d="M90.2783 33.158C90.2783 33.158 84.8298 35.0442 84.2533 35.3877C84.1156 35.476 84.0001 35.5866 83.9137 35.7132C83.8273 35.8397 83.7717 35.9796 83.7501 36.1247C83.7286 36.2697 83.7415 36.4169 83.7882 36.5576C83.8348 36.6983 83.9143 36.8297 84.0219 36.9441C84.2253 37.1885 84.533 37.3564 84.8801 37.4122C85.2271 37.468 85.5862 37.4073 85.8814 37.243C86.4782 36.8788 90.2865 33.158 90.2783 33.158ZM84.5537 36.5937C84.5007 36.5374 84.4616 36.4727 84.4386 36.4034C84.4156 36.3342 84.4092 36.2617 84.4198 36.1903C84.4304 36.1189 84.4577 36.05 84.5003 35.9877C84.5428 35.9254 84.5996 35.8709 84.6674 35.8275C84.8136 35.7479 84.9903 35.7189 85.161 35.7463C85.3318 35.7738 85.4836 35.8558 85.585 35.9752C85.638 36.0315 85.6771 36.0962 85.7001 36.1655C85.7231 36.2347 85.7295 36.3072 85.7189 36.3786C85.7083 36.45 85.681 36.5189 85.6384 36.5812C85.5959 36.6435 85.5391 36.698 85.4713 36.7414C85.327 36.8224 85.1516 36.8537 84.981 36.8288C84.8104 36.8038 84.6575 36.7247 84.5537 36.6074V36.5937Z" fill="#263238"/>
<path d="M96.7376 30.9764C96.7642 31.1832 96.7384 31.3924 96.6619 31.5901C96.5854 31.7878 96.46 31.9694 96.294 32.1229C96.128 32.2763 95.9253 32.3981 95.6994 32.48C95.4734 32.5619 95.2294 32.6022 94.9836 32.598C94.4628 32.5893 93.9638 32.4196 93.5808 32.1208C93.1979 31.822 92.9574 31.4149 92.9049 30.9764C92.8771 30.7707 92.9016 30.5623 92.9766 30.3653C93.0517 30.1683 93.1756 29.9871 93.3402 29.8338C93.5047 29.6806 93.706 29.5589 93.9306 29.4769C94.1553 29.3948 94.398 29.3544 94.6426 29.3582C95.1648 29.3656 95.6658 29.5342 96.0516 29.8321C96.4373 30.1301 96.6813 30.537 96.7376 30.9764Z" fill="white"/>
<path d="M94.3627 30.6051C94.3667 30.6378 94.3625 30.6708 94.3504 30.702C94.3383 30.7331 94.3186 30.7618 94.2926 30.7861C94.2665 30.8104 94.2347 30.8298 94.1992 30.843C94.1637 30.8563 94.1254 30.863 94.0866 30.8628C94.0033 30.8623 93.9231 30.8357 93.8616 30.7881C93.8002 30.7405 93.7617 30.6753 93.7537 30.6051C93.749 30.5724 93.7527 30.5392 93.7645 30.5078C93.7764 30.4763 93.796 30.4474 93.8222 30.423C93.8484 30.3986 93.8805 30.3792 93.9163 30.3661C93.9521 30.3531 93.9908 30.3467 94.0297 30.3475C94.1131 30.348 94.1932 30.3746 94.2547 30.4222C94.3162 30.4698 94.3546 30.535 94.3627 30.6051Z" fill="#263238"/>
<path d="M95.8162 30.6052C95.8202 30.6382 95.8159 30.6715 95.8036 30.7029C95.7913 30.7343 95.7713 30.7632 95.7448 30.7875C95.7183 30.8119 95.686 30.8312 95.65 30.8442C95.614 30.8572 95.5752 30.8636 95.5361 30.8629C95.4533 30.8609 95.3741 30.8338 95.3129 30.7865C95.2518 30.7392 95.2129 30.6749 95.2031 30.6052C95.1984 30.5722 95.2022 30.5387 95.2143 30.507C95.2263 30.4753 95.2464 30.4462 95.273 30.4218C95.2996 30.3973 95.3322 30.3779 95.3685 30.3651C95.4048 30.3523 95.444 30.3463 95.4833 30.3476C95.5666 30.3481 95.6467 30.3747 95.7082 30.4223C95.7697 30.4699 95.8082 30.5351 95.8162 30.6052Z" fill="#263238"/>
<path d="M94.9106 31.9521C94.5089 31.9494 94.1227 31.8208 93.8265 31.5913C93.7988 31.5675 93.7832 31.5354 93.7832 31.502C93.7832 31.4685 93.7988 31.4364 93.8265 31.4126C93.8402 31.4006 93.8566 31.391 93.8747 31.3844C93.8929 31.3779 93.9124 31.3745 93.9321 31.3745C93.9518 31.3745 93.9714 31.3779 93.9895 31.3844C94.0076 31.391 94.024 31.4006 94.0377 31.4126C94.278 31.6001 94.5919 31.7053 94.9187 31.7081C95.0704 31.711 95.2211 31.6868 95.361 31.637C95.5009 31.5873 95.6269 31.5132 95.7307 31.4195C95.7581 31.3949 95.796 31.3806 95.836 31.3796C95.8558 31.3791 95.8755 31.3819 95.894 31.3879C95.9125 31.3939 95.9294 31.4029 95.9438 31.4144C95.9582 31.4259 95.9698 31.4397 95.9779 31.455C95.986 31.4702 95.9905 31.4867 95.991 31.5035C95.9916 31.5202 95.9882 31.5369 95.9812 31.5526C95.9741 31.5682 95.9635 31.5826 95.9499 31.5947C95.8162 31.7129 95.6545 31.8058 95.4754 31.8674C95.2962 31.929 95.1038 31.9578 94.9106 31.9521Z" fill="#263238"/>
<path d="M85.9179 26.1458C85.9515 26.3502 85.9322 26.5584 85.8614 26.7559C85.7905 26.9534 85.6699 27.1356 85.5077 27.2898C85.3456 27.444 85.1458 27.5665 84.9222 27.649C84.6986 27.7315 84.4566 27.7719 84.2127 27.7674C83.6875 27.7571 83.1841 27.5878 82.7938 27.2903C82.4035 26.9928 82.1521 26.5867 82.0853 26.1458C82.049 25.9423 82.0659 25.7345 82.1347 25.5371C82.2035 25.3397 82.3226 25.1575 82.4836 25.0032C82.6446 24.849 82.8436 24.7265 83.0666 24.6443C83.2896 24.5621 83.5311 24.5223 83.7742 24.5276C84.3004 24.538 84.805 24.7066 85.1977 25.0031C85.5905 25.2996 85.8458 25.7046 85.9179 26.1458Z" fill="white"/>
<path d="M83.5306 25.768C83.5359 25.8003 83.5328 25.8331 83.5217 25.8643C83.5106 25.8955 83.4917 25.9243 83.4663 25.9487C83.4409 25.9732 83.4095 25.9927 83.3744 26.006C83.3392 26.0193 83.3011 26.026 83.2627 26.0257C83.1789 26.0239 83.0987 25.997 83.0362 25.9498C82.9738 25.9026 82.9331 25.8382 82.9216 25.768C82.9156 25.7357 82.9182 25.7026 82.929 25.6711C82.9398 25.6397 82.9587 25.6106 82.9842 25.586C83.0098 25.5615 83.0415 25.5419 83.0769 25.5288C83.1124 25.5158 83.1509 25.5094 83.1896 25.5103C83.2735 25.5114 83.3542 25.538 83.4169 25.5854C83.4795 25.6327 83.5199 25.6975 83.5306 25.768Z" fill="#263238"/>
<path d="M84.9801 25.768C84.9854 25.8006 84.9823 25.8337 84.9709 25.8651C84.9596 25.8966 84.9403 25.9255 84.9145 25.9501C84.8886 25.9746 84.8567 25.994 84.8211 26.0071C84.7855 26.0201 84.7469 26.0265 84.7081 26.0257C84.6246 26.0232 84.5448 25.9961 84.4825 25.949C84.4202 25.902 84.3793 25.8379 84.367 25.768C84.3617 25.7354 84.3648 25.7023 84.3762 25.6709C84.3875 25.6394 84.4068 25.6105 84.4326 25.5859C84.4585 25.5614 84.4904 25.542 84.526 25.5289C84.5616 25.5159 84.6002 25.5095 84.639 25.5103C84.7228 25.5121 84.803 25.539 84.8655 25.5862C84.9279 25.6334 84.9686 25.6978 84.9801 25.768Z" fill="#263238"/>
<path d="M85.0206 26.7984H83.1205C83.0844 26.7934 83.0516 26.7777 83.0279 26.7541C83.0042 26.7305 82.9912 26.7006 82.9912 26.6696C82.9912 26.6386 83.0042 26.6087 83.0279 26.5851C83.0516 26.5615 83.0844 26.5458 83.1205 26.5408H85.0206C85.0567 26.5458 85.0896 26.5615 85.1133 26.5851C85.137 26.6087 85.15 26.6386 85.15 26.6696C85.15 26.7006 85.137 26.7305 85.1133 26.7541C85.0896 26.7777 85.0567 26.7934 85.0206 26.7984Z" fill="#263238"/>
<path d="M76.2754 30.9764C76.302 31.1832 76.2762 31.3924 76.1997 31.5901C76.1232 31.7878 75.9978 31.9694 75.8318 32.1229C75.6659 32.2763 75.4632 32.3981 75.2372 32.48C75.0113 32.5619 74.7673 32.6022 74.5215 32.598C74.0007 32.5893 73.5017 32.4196 73.1187 32.1208C72.7357 31.822 72.4953 31.4149 72.4428 30.9764C72.415 30.7707 72.4394 30.5623 72.5145 30.3653C72.5895 30.1683 72.7135 29.9871 72.878 29.8338C73.0425 29.6806 73.2439 29.5589 73.4685 29.4769C73.6931 29.3948 73.9358 29.3544 74.1805 29.3582C74.7024 29.3664 75.2029 29.5351 75.5885 29.833C75.9741 30.1308 76.2183 30.5373 76.2754 30.9764Z" fill="white"/>
<path d="M73.892 30.6051C73.896 30.6378 73.8918 30.6708 73.8797 30.702C73.8676 30.7331 73.8479 30.7618 73.8219 30.7861C73.7958 30.8104 73.764 30.8298 73.7285 30.843C73.693 30.8563 73.6547 30.863 73.6159 30.8628C73.5326 30.8623 73.4524 30.8357 73.3909 30.7881C73.3295 30.7405 73.291 30.6753 73.283 30.6051C73.2783 30.5724 73.282 30.5392 73.2938 30.5078C73.3057 30.4763 73.3253 30.4474 73.3515 30.423C73.3777 30.3986 73.4098 30.3792 73.4456 30.3661C73.4814 30.3531 73.5201 30.3467 73.559 30.3475C73.6424 30.348 73.7225 30.3746 73.784 30.4222C73.8455 30.4698 73.8839 30.535 73.892 30.6051Z" fill="#263238"/>
<path d="M75.3456 30.6051C75.3502 30.6379 75.3465 30.6711 75.3347 30.7025C75.3229 30.734 75.3032 30.7629 75.277 30.7873C75.2509 30.8117 75.2188 30.8311 75.183 30.8442C75.1472 30.8572 75.1085 30.8636 75.0695 30.8628C74.9867 30.8608 74.9075 30.8337 74.8464 30.7864C74.7853 30.7391 74.7463 30.6748 74.7366 30.6051C74.7319 30.5724 74.7356 30.5392 74.7474 30.5078C74.7593 30.4763 74.7789 30.4474 74.8051 30.423C74.8313 30.3986 74.8634 30.3792 74.8992 30.3661C74.935 30.3531 74.9737 30.3467 75.0127 30.3475C75.0962 30.3472 75.1769 30.3736 75.2386 30.4213C75.3002 30.469 75.3384 30.5347 75.3456 30.6051Z" fill="#263238"/>
<path d="M73.4859 31.9525C73.4671 31.9528 73.4485 31.9498 73.4311 31.9439C73.4137 31.938 73.3978 31.9293 73.3844 31.9182C73.3566 31.8944 73.3411 31.8623 73.3411 31.8288C73.3411 31.7954 73.3566 31.7633 73.3844 31.7395C73.5161 31.621 73.6753 31.5269 73.8521 31.463C74.0289 31.3992 74.2194 31.367 74.4116 31.3685C74.8137 31.3721 75.2 31.5018 75.4956 31.7326C75.5099 31.7442 75.5212 31.7581 75.5289 31.7734C75.5367 31.7888 75.5407 31.8053 75.5407 31.822C75.5407 31.8387 75.5367 31.8552 75.5289 31.8705C75.5212 31.8859 75.5099 31.8998 75.4956 31.9113C75.4663 31.9342 75.4279 31.947 75.388 31.947C75.3481 31.947 75.3097 31.9342 75.2804 31.9113C75.0402 31.7216 74.7239 31.6161 74.3953 31.6158C74.244 31.6129 74.0936 31.6368 73.9538 31.6859C73.814 31.735 73.6878 31.8083 73.5833 31.901C73.5596 31.9279 73.5249 31.9463 73.4859 31.9525Z" fill="#263238"/>
<path d="M104.236 19.0887C102.97 16.8315 100.014 15.3369 96.827 15.3369H90.331C89.8849 15.3536 89.4416 15.2702 89.0459 15.0953C88.6502 14.9203 88.3162 14.6599 88.0777 14.3406C87.1723 12.9045 85.0124 11.8806 82.5601 11.8806C80.1079 11.8806 78.0941 12.9113 77.3796 14.3406C77.0832 14.9453 76.2347 15.3369 75.2603 15.3369H68.7643C65.5771 15.3369 62.8204 16.8315 61.8622 19.0887C61.8267 19.1675 61.8129 19.2521 61.8217 19.3361C61.8321 19.5123 61.9222 19.6784 62.0734 19.7999C62.2245 19.9214 62.4252 19.9891 62.6337 19.9889H103.591C103.716 19.9891 103.839 19.962 103.948 19.9101C104.057 19.8583 104.149 19.7835 104.214 19.6929C104.279 19.6024 104.315 19.4992 104.319 19.3933C104.323 19.2875 104.295 19.1826 104.236 19.0887ZM82.824 15.9588C82.3395 15.9503 81.8762 15.7887 81.5253 15.5058C81.1744 15.2229 80.9614 14.8391 80.928 14.4299C80.9117 14.2328 80.9439 14.0351 81.0225 13.849C81.101 13.663 81.2243 13.4928 81.3846 13.3491C81.5448 13.2055 81.7385 13.0915 81.9534 13.0144C82.1683 12.9372 82.3998 12.8986 82.6332 12.901C83.1209 12.9053 83.5887 13.0651 83.9432 13.3485C84.2977 13.6319 84.5128 14.0181 84.5455 14.4299C84.5619 14.6281 84.5293 14.8271 84.4497 15.0141C84.3702 15.201 84.2454 15.3719 84.0834 15.5158C83.9214 15.6597 83.7258 15.7734 83.5089 15.8497C83.2921 15.9259 83.0588 15.9631 82.824 15.9588Z" fill="#263238"/>
<path d="M146.331 121.662C146.013 121.695 145.692 121.628 145.429 121.473C145.395 121.436 145.374 121.392 145.369 121.346C145.364 121.299 145.375 121.253 145.401 121.212C145.42 121.176 145.449 121.145 145.485 121.121C145.521 121.096 145.563 121.079 145.608 121.071C146.087 120.957 147.195 121.459 147.232 121.483C147.246 121.488 147.257 121.497 147.265 121.508C147.272 121.519 147.275 121.532 147.273 121.545C147.272 121.556 147.267 121.567 147.258 121.576C147.249 121.585 147.237 121.591 147.224 121.593C146.929 121.638 146.63 121.661 146.331 121.662ZM145.795 121.174C145.75 121.168 145.705 121.168 145.661 121.174C145.633 121.178 145.607 121.188 145.584 121.202C145.562 121.217 145.544 121.235 145.531 121.256C145.49 121.332 145.531 121.37 145.531 121.39C145.693 121.552 146.448 121.555 146.992 121.49C146.619 121.325 146.213 121.218 145.795 121.174Z" fill="#0043A5"/>
<path d="M147.224 121.593H147.195C146.818 121.455 146.03 120.905 146.046 120.624C146.046 120.555 146.095 120.473 146.29 120.455C146.436 120.445 146.581 120.482 146.696 120.558C147 120.828 147.205 121.165 147.289 121.531C147.294 121.539 147.296 121.549 147.296 121.558C147.296 121.568 147.294 121.577 147.289 121.586C147.279 121.591 147.269 121.595 147.257 121.596C147.246 121.597 147.234 121.596 147.224 121.593ZM146.359 120.562H146.318C146.193 120.562 146.188 120.613 146.188 120.627C146.188 120.799 146.72 121.228 147.114 121.414C147.037 121.121 146.864 120.852 146.615 120.637C146.541 120.591 146.451 120.566 146.359 120.569V120.562Z" fill="#0043A5"/>
<path d="M150.496 121.535H147.512L146.444 115.688H149.428L150.496 121.535Z" fill="#FFC3BD"/>
<path d="M147.492 121.243H150.74C150.801 121.244 150.86 121.261 150.91 121.292C150.959 121.323 150.996 121.365 151.016 121.414L151.901 123.658C151.92 123.708 151.924 123.761 151.915 123.814C151.906 123.866 151.882 123.915 151.846 123.958C151.811 124.002 151.764 124.037 151.709 124.063C151.654 124.088 151.594 124.102 151.531 124.105C150.354 124.105 148.649 124.032 147.171 124.032C145.446 124.032 145.6 124.111 143.574 124.111C142.356 124.111 141.873 123.064 142.356 122.967C144.634 122.538 144.897 122.49 146.773 121.439C146.983 121.312 147.234 121.244 147.492 121.243Z" fill="#263238"/>
<path opacity="0.2" d="M146.444 115.69L146.996 118.704H149.981L149.428 115.69H146.444Z" fill="black"/>
<path d="M150.155 58.562L148.125 60.297L151.235 61.2281C151.235 61.2281 152.453 59.8126 151.596 58.8437L150.155 58.562Z" fill="#FFC3BD"/>
<path d="M147.443 62.7225L150.549 63.1073L151.243 61.228L148.133 60.2969L147.443 62.7225Z" fill="#FFC3BD"/>
<path d="M151.511 37.1985C151.775 37.6795 151.986 38.0883 152.197 38.535C152.408 38.9816 152.603 39.4111 152.806 39.8508C153.192 40.7338 153.537 41.634 153.858 42.5444C154.184 43.4656 154.455 44.4001 154.67 45.3445L154.824 46.066L154.95 46.8013C154.995 47.0452 155.023 47.2994 155.047 47.5502C155.072 47.8011 155.112 48.0278 155.112 48.3439V48.7905V49.1856L155.088 49.5739L155.043 49.9415C154.991 50.4362 154.913 50.9001 154.84 51.3707C154.678 52.2984 154.491 53.2054 154.284 54.1193C153.854 55.9162 153.383 57.6718 152.814 59.4412L149.116 58.8228C149.351 57.0774 149.595 55.3046 149.79 53.5593C149.883 52.6866 149.985 51.8174 150.041 50.9653C150.066 50.5462 150.094 50.1202 150.094 49.7182V49.4158V49.1375V48.8593L150.066 48.6325C150.047 48.4515 150.017 48.2714 149.976 48.0931C149.94 47.9007 149.907 47.7083 149.855 47.5125L149.704 46.925L149.53 46.334C149.278 45.5438 148.994 44.7502 148.669 43.9565C148.344 43.1629 147.983 42.3727 147.601 41.5893C147.415 41.1942 147.22 40.8025 147.017 40.4177C146.814 40.0329 146.611 39.631 146.412 39.2977L151.511 37.1985Z" fill="#263238"/>
<path d="M137.492 57.3315C137.492 57.3315 137.987 76.6539 139.327 84.3499C140.724 92.3551 145.823 118.119 145.823 118.119H150.874C150.874 118.119 149.063 93.5988 148.486 85.7207C147.857 77.1315 147.995 57.3315 147.995 57.3315H137.492Z" fill="#0043A5"/>
<path d="M144.609 116.416C144.585 116.416 145.129 118.192 145.129 118.192H151.276L151.231 116.608L144.609 116.416Z" fill="#263238"/>
<path d="M136.354 26.008C136.369 25.794 136.248 25.6135 136.082 25.6049C135.917 25.5963 135.77 25.7628 135.754 25.9768C135.739 26.1908 135.86 26.3712 136.026 26.3799C136.191 26.3885 136.338 26.222 136.354 26.008Z" fill="#263238"/>
<path d="M136.229 26.3794C135.9 27.0344 135.469 27.6491 134.946 28.2072C135.117 28.312 135.313 28.3836 135.52 28.4169C135.727 28.4501 135.94 28.4442 136.144 28.3996L136.229 26.3794Z" fill="#ED847E"/>
<path d="M137.301 24.8059C137.27 24.8059 137.239 24.7988 137.212 24.7853C137.067 24.6885 136.896 24.623 136.714 24.5943C136.532 24.5656 136.345 24.5745 136.168 24.6204C136.15 24.6264 136.131 24.6293 136.111 24.629C136.092 24.6286 136.073 24.625 136.055 24.6183C136.037 24.6115 136.021 24.6019 136.008 24.5898C135.995 24.5778 135.984 24.5637 135.978 24.5482C135.971 24.5324 135.969 24.5157 135.97 24.4991C135.971 24.4824 135.976 24.4661 135.985 24.4511C135.993 24.4361 136.006 24.4227 136.02 24.4117C136.035 24.4006 136.052 24.3921 136.071 24.3867C136.293 24.3255 136.53 24.311 136.761 24.3445C136.991 24.378 137.209 24.4586 137.395 24.5791C137.425 24.5995 137.445 24.6292 137.451 24.6619C137.456 24.6946 137.446 24.7277 137.423 24.7544C137.409 24.7703 137.39 24.7832 137.369 24.7921C137.348 24.801 137.325 24.8058 137.301 24.8059Z" fill="#263238"/>
<path d="M144.252 28.3513C143.748 30.1997 143.18 33.5839 144.658 34.8139C144.658 34.8139 143.984 36.6863 139.928 36.6863C135.462 36.6863 137.878 34.8139 137.878 34.8139C140.314 34.3226 140.334 32.7971 139.969 31.361L144.252 28.3513Z" fill="#FFC3BD"/>
<path d="M146.229 35.68C146.667 34.9276 147.151 34.0618 146.229 33.7938C145.222 33.4949 139.656 33.1925 137.703 33.7491C137.181 33.8617 136.734 34.145 136.459 34.5367C136.184 34.9284 136.104 35.3965 136.237 35.838L146.229 35.68Z" fill="#0043A5"/>
<path d="M150.5 35.5391C153.07 36.5423 154.377 44.1489 154.377 44.1489L149.201 45.5232C148.276 43.5106 147.526 41.4437 146.956 39.3389C146.16 36.1644 147.869 34.5152 150.5 35.5391Z" fill="#263238"/>
<path d="M118.686 47.3752L116.299 45.6367L114.151 48.2822C114.151 48.2822 116.08 49.5912 118.211 49.0552L118.686 47.3752Z" fill="#FFC3BD"/>
<path d="M113.152 44.7949L112.823 47.4095L114.151 48.2822L116.299 45.6367L113.152 44.7949Z" fill="#FFC3BD"/>
<path d="M144.8 25.5379C144.5 28.1627 144.479 29.7088 142.855 31.0556C142.332 31.494 141.678 31.8039 140.963 31.9519C140.248 32.1 139.498 32.0807 138.795 31.8961C138.092 31.7115 137.461 31.3686 136.971 30.904C136.48 30.4394 136.148 29.8707 136.01 29.2587C135.442 26.9018 136.01 23.0058 139.108 21.9613C139.767 21.7207 140.49 21.631 141.203 21.7012C141.916 21.7714 142.595 21.9991 143.172 22.3613C143.749 22.7236 144.202 23.2078 144.488 23.7653C144.774 24.3228 144.881 24.9341 144.8 25.5379Z" fill="#FFC3BD"/>
<path d="M138.446 26.3795C138.174 24.5654 138.219 23.8783 139.364 23.4763C138.174 23.277 137.143 23.2495 136.652 22.662C136.16 22.0745 136.043 20.5731 138.43 19.886C138.211 20.2296 138.905 20.9442 141.101 20.2983C143.298 19.6524 146.497 19.5836 146.785 21.4733C147.947 21.1297 149.891 24.1634 147.597 26.3795C145.685 28.2347 144.41 29.5163 144.033 30.5023C144.015 30.5485 143.986 30.591 143.947 30.627C143.909 30.663 143.862 30.6917 143.809 30.7111C143.757 30.7306 143.7 30.7405 143.643 30.74C143.585 30.7395 143.529 30.7288 143.476 30.7084C142.685 30.3958 141.268 30.6638 140.634 30.8081C140.545 30.8277 140.451 30.821 140.367 30.7891C140.283 30.7573 140.214 30.7022 140.172 30.6329C139.762 29.9182 138.653 27.8774 138.446 26.3795Z" fill="#263238"/>
<path d="M146.355 21.7034C146.355 21.7034 147.297 20.5799 149.104 21.4148C148.175 21.3782 147.245 21.4758 146.355 21.7034Z" fill="#263238"/>
<path d="M146.509 21.9438C146.509 21.9438 147.821 21.2567 146.798 19.9614C146.86 20.6319 146.762 21.3062 146.509 21.9438Z" fill="#263238"/>
<path d="M139.965 26.455C139.822 27.1045 139.441 27.6996 138.877 28.1556C138.125 28.7569 137.476 28.3308 137.456 27.5578C137.435 26.8707 137.801 25.7094 138.674 25.4002C139.546 25.091 140.119 25.6785 139.965 26.455Z" fill="#FFC3BD"/>
<path opacity="0.3" d="M137.91 68.0684C138.202 73.8335 138.661 80.5262 139.327 84.3501C139.583 85.8069 139.956 87.8477 140.403 90.2149C142.198 81.928 143.269 71.2498 137.91 68.0684Z" fill="black"/>
<path d="M135.673 121.662C135.291 121.662 134.922 121.617 134.804 121.473C134.773 121.434 134.757 121.389 134.757 121.342C134.757 121.296 134.773 121.25 134.804 121.212C134.859 121.143 134.941 121.093 135.036 121.071C135.535 120.957 136.558 121.459 136.603 121.483C136.615 121.489 136.625 121.498 136.63 121.51C136.636 121.521 136.636 121.533 136.631 121.545C136.628 121.557 136.621 121.568 136.611 121.576C136.601 121.585 136.588 121.591 136.574 121.593C136.277 121.637 135.975 121.66 135.673 121.662ZM135.222 121.174C135.177 121.168 135.13 121.168 135.084 121.174C135.055 121.179 135.028 121.188 135.003 121.203C134.979 121.217 134.958 121.235 134.942 121.256C134.889 121.332 134.906 121.37 134.922 121.39C135.056 121.552 135.807 121.555 136.367 121.49C136.014 121.322 135.625 121.215 135.222 121.174Z" fill="#0043A5"/>
<path d="M136.579 121.593H136.55C136.197 121.455 135.503 120.906 135.572 120.624C135.572 120.555 135.645 120.473 135.84 120.456C135.912 120.448 135.986 120.453 136.056 120.471C136.125 120.489 136.19 120.519 136.246 120.559C136.615 120.823 136.652 121.504 136.652 121.531C136.651 121.542 136.648 121.552 136.643 121.562C136.637 121.571 136.629 121.579 136.619 121.586C136.607 121.591 136.593 121.594 136.579 121.593ZM135.892 120.562H135.852C135.722 120.562 135.714 120.614 135.71 120.627C135.669 120.799 136.136 121.229 136.497 121.414C136.475 121.13 136.349 120.859 136.136 120.638C136.067 120.591 135.981 120.567 135.892 120.569V120.562Z" fill="#0043A5"/>
<path d="M139.859 121.535H136.879L136.822 115.688H139.806L139.859 121.535Z" fill="#FFC3BD"/>
<path d="M136.907 121.243H140.155C140.214 121.242 140.27 121.259 140.315 121.29C140.359 121.322 140.389 121.366 140.399 121.414L140.898 123.658C140.91 123.713 140.907 123.77 140.889 123.824C140.872 123.878 140.84 123.928 140.797 123.971C140.754 124.014 140.7 124.048 140.64 124.071C140.58 124.094 140.514 124.105 140.448 124.105C139.274 124.105 137.577 124.032 136.104 124.032C134.374 124.032 132.88 124.111 130.854 124.111C129.636 124.111 129.335 123.064 129.851 122.967C132.202 122.538 134.11 122.49 136.168 121.439C136.389 121.318 136.645 121.25 136.907 121.243Z" fill="#263238"/>
<path opacity="0.2" d="M136.826 115.69L136.851 118.704H139.835L139.81 115.69H136.826Z" fill="black"/>
<path d="M132.169 57.3315C132.169 57.3315 130.951 76.2038 130.976 83.8998C130.976 91.905 135.766 118.119 135.766 118.119H140.817C140.817 118.119 139.502 92.3723 140.07 84.5182C140.675 75.929 143.606 57.3384 143.606 57.3384L132.169 57.3315Z" fill="#0043A5"/>
<path d="M134.865 116.416C134.841 116.416 135.072 118.192 135.072 118.192H141.219L141.455 116.608L134.865 116.416Z" fill="#263238"/>
<path d="M133.257 35.5153C133.257 35.5153 128.174 46.3824 130.387 65.1654H148.949C149.144 63.104 147.204 45.149 149.972 35.3848C148.216 35.097 146.439 34.9065 144.654 34.8144C142.396 34.7044 140.132 34.7044 137.874 34.8144C136.316 34.9471 134.773 35.1814 133.257 35.5153Z" fill="#263238"/>
<path opacity="0.2" d="M130.631 45.3514C130.355 47.0693 130.127 49.0311 129.981 51.1921C133.586 48.3886 134.821 41.4038 134.821 41.4038L130.631 45.3514Z" fill="black"/>
<path d="M135.17 40.6892C134.439 42.2971 133.7 43.8467 132.888 45.403C132.076 46.9594 131.236 48.4952 130.29 50.0344L129.92 50.6081L129.733 50.8967C129.656 51.0135 129.664 51.0204 129.453 51.3193C129.089 51.8037 128.585 52.2012 127.988 52.4737C127.494 52.6934 126.955 52.831 126.4 52.8791C125.637 52.9382 124.868 52.8859 124.126 52.7245C123.54 52.6016 122.965 52.4432 122.405 52.2504C121.4 51.8984 120.428 51.4851 119.494 51.0135C119.035 50.7902 118.597 50.5497 118.162 50.3264C117.728 50.1031 117.334 49.8179 116.867 49.543L119.06 46.6983C120.633 47.4319 122.284 48.0381 123.992 48.5089C124.355 48.6037 124.726 48.6749 125.101 48.7219C125.315 48.7605 125.536 48.7605 125.75 48.7219C125.775 48.7219 125.698 48.7013 125.564 48.7597C125.401 48.8301 125.261 48.9341 125.158 49.062C125.072 49.1823 125.182 49.0036 125.219 48.9349L125.365 48.6635L125.657 48.1241C126.428 46.6674 127.143 45.1591 127.837 43.6577C128.532 42.1563 129.206 40.5896 129.827 39.0745L135.17 40.6892Z" fill="#263238"/>
<path d="M137.187 36.6556C138.138 38.9025 131.414 47.9487 131.414 47.9487L127.427 44.6058C127.427 44.6058 128.446 41.7645 129.79 38.3425C131.114 34.979 136.282 34.5083 137.187 36.6556Z" fill="#263238"/>
</svg>
