<svg width="300" height="202" viewBox="0 0 300 202" fill="none" xmlns="http://www.w3.org/2000/svg">
<path d="M266.781 61.0285L262.953 79.6056L260.489 77.1968L256.297 80.1948L253.093 76.2068L245.909 81.4413L239.769 71.1527L232.921 75.1728L230.205 71.4213L221.509 76.3311L218.893 70.7159L224.989 41.1328L257.669 47.8943L266.781 61.0285Z" fill="#EBEBEB"/>
<path d="M257.668 47.8945L266.78 61.0287L255.444 58.6841L257.668 47.8945Z" fill="#DBDBDB"/>
<path d="M262.136 83.3174L256.524 110.572L212.504 101.466L218.076 74.4316L220.692 80.0428L229.392 75.133L232.104 78.8845L238.956 74.8685L245.092 85.1571L252.28 79.9226L255.48 83.9066L259.676 80.9126L262.136 83.3174Z" fill="#EBEBEB"/>
<path d="M199.132 80.1225L154.272 82.904L150.708 25.2048L184.02 23.1367L196.248 33.4172L199.132 80.1225Z" fill="#EBEBEB"/>
<path d="M184.021 23.1367L196.249 33.4172L184.697 34.1347L184.021 23.1367Z" fill="#DBDBDB"/>
<path d="M171.6 61.9625L171.424 60.6599C170.972 57.9625 171.708 54.9445 174.048 51.7902C176.16 48.9846 177.304 46.9806 177.176 44.704C177.032 42.1389 175.332 40.5197 172.168 40.6479C170.36 40.742 168.623 41.3851 167.188 42.4916L165.808 39.3934C167.408 38.0908 170.208 37.1289 172.868 36.9886C178.64 36.668 181.448 40.0908 181.668 43.9105C181.86 47.3293 180.092 49.8984 177.844 52.9004C175.78 55.6379 175.104 57.8944 175.396 60.4475L175.52 61.7541L171.6 61.9625ZM170.888 69.0606C170.784 67.2009 171.964 65.8222 173.72 65.726C175.476 65.6298 176.756 66.8643 176.86 68.728C176.956 70.4875 175.88 71.9063 174.024 72.0105C172.252 72.1107 170.972 70.8202 170.872 69.0606H170.888Z" fill="#DBDBDB"/>
<path d="M59.3918 52.1467L54.8799 50.0986L54.2519 51.4814C54.1591 51.679 54.0144 51.8476 53.8333 51.969C53.6522 52.0905 53.4415 52.1602 53.2239 52.1708C52.9759 52.1789 52.7287 52.203 52.4839 52.2429C52.2689 52.2749 52.0493 52.2478 51.8485 52.1645C51.6478 52.0812 51.4733 51.9448 51.3439 51.77L50.4599 50.5315L46.4319 53.4253L47.3159 54.6637C47.4388 54.8425 47.5112 55.0513 47.5252 55.2679C47.5393 55.4846 47.4946 55.701 47.3959 55.8942C47.2818 56.1146 47.179 56.3407 47.0879 56.5716C47.0086 56.7751 46.8755 56.9532 46.7028 57.0867C46.5302 57.2201 46.3245 57.3039 46.1079 57.3291L44.5999 57.4774L45.0839 62.4192L46.5999 62.2669C46.8173 62.2495 47.0353 62.2918 47.2305 62.3893C47.4257 62.4867 47.5908 62.6357 47.7079 62.82C47.7719 62.9242 47.8399 63.0244 47.9119 63.1246C47.9839 63.2248 48.0559 63.321 48.1319 63.4172C48.2699 63.5855 48.3587 63.7889 48.3883 64.0047C48.418 64.2204 48.3874 64.4403 48.2999 64.6397L47.6679 66.0344L52.1839 68.0866L52.8119 66.6958C52.9055 66.4983 53.051 66.3302 53.2328 66.2094C53.4147 66.0887 53.6259 66.0199 53.8439 66.0104C54.089 66.0003 54.3334 65.9762 54.5759 65.9383C54.7908 65.9063 55.0104 65.9334 55.2112 66.0167C55.4119 66.1 55.5864 66.2363 55.7158 66.4112L56.5999 67.6497L60.6319 64.7559L59.7478 63.5174C59.6211 63.3403 59.5464 63.1311 59.5323 62.9137C59.5182 62.6962 59.5651 62.4791 59.6679 62.287C59.7793 62.0678 59.8794 61.8431 59.9679 61.6136C60.0448 61.4086 60.1772 61.229 60.3503 61.0952C60.5235 60.9614 60.7304 60.8786 60.9478 60.8561L62.4639 60.7038L61.9759 55.7619L60.4598 55.9102C60.2438 55.9292 60.0267 55.888 59.8326 55.7911C59.6384 55.6942 59.4748 55.5454 59.3598 55.3611C59.2918 55.2569 59.2239 55.1567 59.1519 55.0565C59.0799 54.9563 59.0079 54.8561 58.9319 54.7639C58.7947 54.5936 58.7066 54.389 58.677 54.1721C58.6474 53.9553 58.6774 53.7345 58.7639 53.5335L59.3918 52.1467ZM56.8319 56.7199C57.2996 57.3739 57.5633 58.1523 57.5895 58.9565C57.6158 59.7607 57.4034 60.5547 56.9793 61.238C56.5552 61.9212 55.9384 62.4631 55.2069 62.7952C54.4754 63.1272 53.6621 63.2343 52.8698 63.1032C52.0775 62.972 51.3418 62.6083 50.7558 62.0581C50.1698 61.5079 49.7597 60.796 49.5776 60.0123C49.3954 59.2287 49.4492 58.4085 49.7323 57.6555C50.0154 56.9024 50.515 56.2505 51.1679 55.782C52.0431 55.1539 53.1315 54.8999 54.1937 55.0758C55.2558 55.2517 56.2048 55.843 56.8319 56.7199Z" fill="#EBEBEB"/>
<path d="M263.352 117.717L260.344 119.456L260.876 120.378C260.955 120.51 260.995 120.663 260.99 120.817C260.985 120.971 260.936 121.121 260.848 121.248C260.756 121.392 260.668 121.54 260.588 121.697C260.522 121.835 260.418 121.952 260.288 122.032C260.159 122.113 260.009 122.156 259.856 122.154H258.8V125.637H259.864C260.017 125.635 260.167 125.677 260.297 125.758C260.426 125.839 260.53 125.955 260.596 126.094C260.676 126.25 260.764 126.398 260.856 126.542C260.944 126.669 260.993 126.819 260.998 126.973C261.003 127.127 260.963 127.28 260.884 127.412L260.352 128.334L263.36 130.073L263.896 129.148C263.973 129.016 264.086 128.909 264.221 128.838C264.356 128.768 264.508 128.736 264.66 128.747H265.172C265.324 128.736 265.475 128.768 265.61 128.839C265.745 128.91 265.858 129.017 265.936 129.148L266.472 130.077L269.476 128.338L268.944 127.412C268.868 127.279 268.831 127.128 268.837 126.975C268.842 126.822 268.891 126.673 268.976 126.546C269.068 126.402 269.156 126.25 269.236 126.098C269.302 125.959 269.405 125.843 269.535 125.762C269.665 125.681 269.815 125.639 269.968 125.641H271.032V122.158H269.96C269.807 122.16 269.657 122.117 269.527 122.037C269.397 121.956 269.294 121.839 269.228 121.701C269.148 121.548 269.06 121.396 268.968 121.252C268.883 121.125 268.834 120.977 268.829 120.824C268.823 120.671 268.86 120.519 268.936 120.386L269.468 119.46L266.464 117.721L265.928 118.635C265.85 118.766 265.738 118.873 265.603 118.944C265.468 119.015 265.316 119.046 265.164 119.035H264.908H264.652C264.499 119.046 264.347 119.014 264.212 118.943C264.076 118.872 263.963 118.766 263.884 118.635L263.352 117.717ZM264.908 121.043C265.471 121.043 266.023 121.209 266.492 121.523C266.961 121.836 267.326 122.282 267.542 122.803C267.758 123.325 267.815 123.899 267.705 124.453C267.596 125.007 267.324 125.516 266.926 125.915C266.527 126.314 266.019 126.586 265.466 126.696C264.914 126.806 264.341 126.749 263.82 126.533C263.299 126.316 262.855 125.95 262.542 125.48C262.229 125.01 262.063 124.458 262.064 123.893C262.063 123.519 262.136 123.148 262.279 122.801C262.422 122.455 262.631 122.141 262.895 121.875C263.16 121.61 263.473 121.4 263.819 121.257C264.164 121.113 264.534 121.039 264.908 121.039V121.043Z" fill="#EBEBEB"/>
<path d="M68.521 37.3368L65.765 39.453L66.401 40.2987C66.4959 40.4192 66.5542 40.5645 66.5691 40.7172C66.584 40.87 66.5548 41.0238 66.485 41.1604C66.4085 41.3165 66.3417 41.4771 66.285 41.6414C66.2357 41.7862 66.1471 41.9143 66.0291 42.0113C65.9111 42.1083 65.7683 42.1703 65.617 42.1905L64.561 42.3268L65.009 45.7777L66.065 45.6414C66.2188 45.6199 66.3754 45.6424 66.5169 45.7062C66.6585 45.77 66.7791 45.8726 66.865 46.0021C66.9614 46.1415 67.0655 46.2754 67.177 46.4029C67.2801 46.5165 67.3484 46.6573 67.374 46.8086C67.3995 46.9599 67.3811 47.1154 67.321 47.2566L66.921 48.2426L70.121 49.5772L70.521 48.5913C70.5806 48.4498 70.6784 48.3279 70.8036 48.2394C70.9287 48.1508 71.0761 48.0992 71.229 48.0903L71.485 48.0622L71.737 48.0221C71.8851 47.9942 72.0379 48.0074 72.1789 48.0604C72.32 48.1134 72.4438 48.2042 72.537 48.3227L73.189 49.1764L75.945 47.0602L75.301 46.2145C75.208 46.0924 75.1509 45.9466 75.136 45.7937C75.1212 45.6407 75.1492 45.4866 75.217 45.3488C75.2928 45.1938 75.3596 45.0346 75.417 44.8719C75.4663 44.7271 75.555 44.599 75.673 44.502C75.791 44.405 75.9337 44.3429 76.085 44.3228L77.141 44.1865L76.693 40.7356L75.637 40.8719C75.4837 40.8938 75.3273 40.8719 75.1858 40.8088C75.0443 40.7457 74.9234 40.6439 74.837 40.5152C74.737 40.3709 74.633 40.2346 74.521 40.1144C74.4278 39.9984 74.3675 39.8594 74.3464 39.712C74.3253 39.5646 74.3442 39.4143 74.401 39.2767L74.801 38.2907L71.601 36.9561L71.201 37.942C71.1407 38.0829 71.0427 38.2043 70.9177 38.2928C70.7927 38.3812 70.6457 38.4332 70.493 38.443L70.237 38.4671L70.001 38.4751C69.853 38.503 69.7002 38.4898 69.5591 38.4368C69.4181 38.3838 69.2942 38.2931 69.201 38.1745L68.521 37.3368ZM70.493 40.435C71.0502 40.3632 71.6161 40.4584 72.1194 40.7085C72.6227 40.9587 73.0407 41.3526 73.3208 41.8405C73.601 42.3284 73.7306 42.8885 73.6934 43.4502C73.6562 44.0119 73.4538 44.5499 73.1117 44.9965C72.7697 45.443 72.3033 45.778 71.7715 45.9593C71.2396 46.1406 70.6661 46.16 70.1233 46.015C69.5805 45.8701 69.0926 45.5673 68.7213 45.1449C68.3501 44.7224 68.1119 44.1993 68.037 43.6414C67.987 43.2691 68.011 42.8906 68.1075 42.5276C68.2041 42.1647 68.3713 41.8244 68.5995 41.5264C68.8278 41.2284 69.1126 40.9786 69.4375 40.7913C69.7625 40.604 70.1212 40.4829 70.493 40.435Z" fill="#EBEBEB"/>
<path d="M47.9283 127.765C48.0786 123.89 48.0252 120.011 47.7683 116.142C47.196 108.153 45.98 100.223 44.1323 92.4304C43.1163 88.0457 41.8683 83.7331 40.5643 79.4245C40.5243 79.2922 40.3163 79.3283 40.3523 79.4645C44.3803 94.6549 47.6843 110.326 47.4563 126.118C47.3923 130.526 46.8803 134.875 46.4643 139.268C46.4643 139.384 46.6443 139.432 46.6723 139.312C47.5003 135.54 47.7723 131.605 47.9283 127.765Z" fill="#EBEBEB"/>
<path d="M40.3531 79.4531C40.3531 79.4531 34.2571 94.9641 35.6211 98.5953C36.9851 102.227 39.8011 103.004 39.8011 103.004C39.8011 103.004 36.0691 108.343 38.6771 113.349C41.2851 118.355 47.0771 118.118 47.4771 123.794C47.4651 123.822 47.7851 100.09 40.3531 79.4531Z" fill="#EBEBEB"/>
<path d="M46.8009 114.022C46.8107 113.996 46.8107 113.968 46.8009 113.942C46.0008 103.353 44.0177 92.8864 40.8889 82.7398C40.8889 82.7118 40.8289 82.7198 40.8369 82.7398C42.0449 87.2822 43.1116 91.8433 44.0369 96.4232C43.2173 95.6452 42.2161 95.0857 41.1249 94.7959C41.1249 94.7959 41.0929 94.82 41.1249 94.828C42.2713 95.2489 43.302 95.9356 44.1329 96.832C44.3089 97.7338 44.4849 98.6316 44.6489 99.5334C43.2849 98.0063 41.3969 97.2488 39.5049 96.5274C39.5006 96.5292 39.497 96.5323 39.4944 96.5362C39.4918 96.5401 39.4905 96.5447 39.4905 96.5494C39.4905 96.5541 39.4918 96.5587 39.4944 96.5626C39.497 96.5665 39.5006 96.5696 39.5049 96.5714C41.4769 97.373 43.4369 98.4071 44.7729 100.111C45.2369 102.684 45.6449 105.266 45.9969 107.858C45.012 106.824 43.749 106.099 42.3609 105.77C42.3169 105.77 42.2929 105.822 42.3369 105.834C43.7628 106.255 45.0358 107.082 46.0009 108.215H46.0249C46.1449 109.123 46.2596 110.036 46.3689 110.952C45.607 110.306 44.7468 109.787 43.8209 109.413C43.7969 109.413 43.7809 109.441 43.8209 109.449C44.7657 109.859 45.631 110.433 46.3769 111.145C46.3769 111.145 46.3969 111.145 46.4089 111.145C46.5089 112.014 46.6089 112.884 46.6969 113.754C45.3233 112.09 43.5408 110.814 41.5249 110.05C41.5164 110.05 41.5083 110.054 41.5023 110.06C41.4963 110.066 41.4929 110.074 41.4929 110.082C41.4929 110.091 41.4963 110.099 41.5023 110.105C41.5083 110.111 41.5164 110.114 41.5249 110.114C43.5154 110.994 45.2639 112.343 46.6209 114.046C46.6358 114.065 46.656 114.079 46.6788 114.086C46.7016 114.093 46.726 114.093 46.7489 114.086C46.8809 115.421 47.0009 116.756 47.0969 118.094C47.0969 118.114 47.1289 118.114 47.1289 118.094C47.0249 116.75 46.9156 115.393 46.8009 114.022Z" fill="white"/>
<path d="M41.9004 93.2693C40.7964 92.5809 39.5352 92.1863 38.2364 92.123C38.23 92.123 38.2239 92.1256 38.2194 92.1301C38.2149 92.1346 38.2124 92.1407 38.2124 92.1471C38.2124 92.1535 38.2149 92.1596 38.2194 92.1641C38.2239 92.1686 38.23 92.1711 38.2364 92.1711C39.4921 92.4097 40.7107 92.8141 41.8604 93.3735C41.9084 93.3855 41.9444 93.3014 41.9004 93.2693Z" fill="white"/>
<path d="M42.6398 109.689C41.7913 109.201 40.857 108.881 39.8878 108.747C39.8558 108.747 39.8518 108.791 39.8878 108.799C40.8342 108.989 41.7496 109.31 42.6078 109.753C42.6438 109.773 42.6758 109.709 42.6398 109.689Z" fill="white"/>
<path d="M63.9609 98.8634C61.3821 100.65 59.0136 102.723 56.9009 105.044C54.7221 107.501 53.0415 110.36 51.9529 113.461C49.636 119.921 48.3902 126.717 48.2649 133.581C48.1872 137.382 48.551 141.179 49.3489 144.895C49.3554 144.922 49.372 144.946 49.3952 144.961C49.4185 144.976 49.4467 144.982 49.4739 144.976C49.5012 144.971 49.5254 144.956 49.5416 144.933C49.5578 144.911 49.5647 144.883 49.5609 144.855C48.568 138.297 48.6058 131.623 49.6729 125.076C50.7209 118.663 52.3649 111.681 56.4369 106.467C58.6529 103.625 61.4169 101.392 64.1489 99.0838C64.2929 98.9556 64.1089 98.7592 63.9609 98.8634Z" fill="#EBEBEB"/>
<path d="M49.1609 128.956C50.6288 126.577 52.3539 124.367 54.3049 122.367C57.3569 119.309 59.9249 117.136 60.3249 115.116C60.7249 113.096 57.2689 111.605 57.2689 111.605C57.2689 111.605 61.4889 112.367 62.6449 110.591C63.8009 108.816 64.3569 98.5312 64.3569 98.5312C64.3569 98.5312 56.6769 104.026 53.0969 111.73C49.5169 119.433 49.1609 128.956 49.1609 128.956Z" fill="#EBEBEB"/>
<path d="M61.6006 108.178C61.0949 108.103 60.5822 108.085 60.0726 108.126C60.0126 108.126 60.0166 108.23 60.0726 108.234C60.5766 108.234 61.0846 108.21 61.5886 108.234C61.5943 108.233 61.5996 108.23 61.6037 108.225C61.6078 108.221 61.6106 108.216 61.6119 108.21C61.6131 108.204 61.6127 108.198 61.6107 108.192C61.6087 108.187 61.6052 108.182 61.6006 108.178Z" fill="white"/>
<path d="M56.0846 118.154C55.2736 118.171 54.4719 118.331 53.7166 118.628C53.7166 118.628 53.7166 118.668 53.7166 118.664C54.5166 118.475 55.2886 118.399 56.0806 118.263C56.0909 118.258 56.0997 118.251 56.1061 118.241C56.1124 118.232 56.116 118.221 56.1165 118.21C56.1169 118.198 56.1141 118.187 56.1085 118.177C56.1028 118.168 56.0945 118.16 56.0846 118.154Z" fill="white"/>
<path d="M54.4279 114.707C54.0912 114.705 53.755 114.734 53.4239 114.795C53.4178 114.798 53.4125 114.802 53.4088 114.807C53.4051 114.813 53.4031 114.819 53.4031 114.826C53.4031 114.832 53.4051 114.838 53.4088 114.844C53.4125 114.849 53.4178 114.853 53.4239 114.856C53.7592 114.875 54.0956 114.86 54.4279 114.811C54.4417 114.811 54.455 114.806 54.4647 114.796C54.4745 114.786 54.4799 114.773 54.4799 114.759C54.4799 114.746 54.4745 114.732 54.4647 114.722C54.455 114.713 54.4417 114.707 54.4279 114.707Z" fill="white"/>
<path d="M26.6447 109.773C29.1444 110.622 31.5398 111.753 33.7847 113.144C36.1141 114.627 38.1341 116.549 39.7327 118.803C43.0963 123.494 45.6716 128.705 47.3567 134.23C48.2965 137.288 48.8765 140.447 49.0847 143.64C49.0804 143.661 49.069 143.68 49.0527 143.693C49.0363 143.706 49.0158 143.714 48.9947 143.714C48.9736 143.714 48.9532 143.706 48.9368 143.693C48.9204 143.68 48.9091 143.661 48.9047 143.64C48.1987 138.103 46.6303 132.711 44.2567 127.661C41.9247 122.711 38.9847 117.444 34.4887 114.166C32.0407 112.382 29.2887 111.212 26.5447 109.977C26.4007 109.929 26.5007 109.725 26.6447 109.773Z" fill="#EBEBEB"/>
<path d="M45.5645 130.7C43.8267 129.115 41.9207 127.727 39.8805 126.559C36.7045 124.792 34.1245 123.63 33.3365 122.086C32.5485 120.543 35.0005 118.539 35.0005 118.539C35.0005 118.539 31.7605 120.143 30.4165 118.96C29.0725 117.778 26.2485 109.602 26.2485 109.602C26.2485 109.602 33.7325 112.267 38.4005 117.674C43.0685 123.08 45.5645 130.7 45.5645 130.7Z" fill="#EBEBEB"/>
<path d="M39.3523 123.172C38.6164 123.121 37.8776 123.212 37.1763 123.441C37.1763 123.441 37.1763 123.477 37.1763 123.473C37.8918 123.35 38.6148 123.275 39.3403 123.248C39.3923 123.248 39.4043 123.176 39.3523 123.172Z" fill="white"/>
<path d="M32.8248 114.595C32.4892 114.568 32.1513 114.587 31.8208 114.651C31.7848 114.651 31.7968 114.716 31.8208 114.712C32.1528 114.675 32.4768 114.688 32.8048 114.679C32.815 114.68 32.825 114.677 32.8331 114.671C32.8413 114.664 32.847 114.656 32.8494 114.646C32.8517 114.636 32.8506 114.625 32.8461 114.616C32.8416 114.607 32.8341 114.599 32.8248 114.595Z" fill="white"/>
<path d="M55.217 153.978H38.325L40.733 136.299L41.349 131.766H52.193L52.809 136.299L55.217 153.978Z" fill="#DBDBDB"/>
<path d="M52.8082 136.299H40.7322L41.3482 131.766H52.1922L52.8082 136.299Z" fill="#C7C7C7"/>
<path d="M53.7411 130.194H39.7971V134.034H53.7411V130.194Z" fill="#DBDBDB"/>
<path d="M27.5833 153.978L57.9873 153.882L88.3912 153.846L149.199 153.777L210.007 153.846L240.411 153.882L270.815 153.978L240.411 154.078L210.007 154.11L149.199 154.179L88.3912 154.11L57.9873 154.074L27.5833 153.978Z" fill="#263238"/>
<path d="M150 183.849C213.345 183.849 264.696 178.211 264.696 171.256C264.696 164.301 213.345 158.663 150 158.663C86.6553 158.663 35.3042 164.301 35.3042 171.256C35.3042 178.211 86.6553 183.849 150 183.849Z" fill="#EBEBEB"/>
<path d="M123.3 169.172C122.368 169.489 95.6439 169.573 94.6199 168.94C94.2199 168.699 93.9919 164.799 93.8199 160.078C93.7839 159.06 93.7559 158.006 93.7319 156.94L91.5999 142.655L109.468 142.539L111.152 156.828L111.084 159.97C111.084 159.97 121.332 164.519 122.38 165.345C123.428 166.17 124.232 168.856 123.3 169.172Z" fill="#EB9481"/>
<path d="M123.301 169.172C122.369 169.488 95.6445 169.573 94.6205 168.939C94.1485 168.643 93.8925 162.947 93.7485 156.939L111.133 156.827L111.065 159.969C111.065 159.969 121.313 164.519 122.361 165.344C123.409 166.17 124.233 168.855 123.301 169.172Z" fill="white"/>
<path d="M123.301 169.172C122.369 169.489 95.6448 169.573 94.6208 168.94C94.2208 168.699 93.9928 164.799 93.8208 160.078L111.049 159.97C111.049 159.97 121.297 164.519 122.345 165.344C123.393 166.17 124.233 168.855 123.301 169.172Z" fill="#A6A6A6"/>
<path d="M122.912 168.102C118.432 168.006 100.352 168.05 95.9157 168.298C95.8797 168.298 95.8797 168.323 95.9157 168.327C100.356 168.515 118.436 168.327 122.912 168.174C123.008 168.17 123.008 168.102 122.912 168.102Z" fill="#263238"/>
<path d="M120.636 164.387C120.138 164.375 119.643 164.468 119.182 164.658C118.721 164.849 118.305 165.133 117.96 165.493C117.33 166.135 116.975 166.997 116.968 167.898C116.968 167.926 117.016 167.926 117.02 167.898C117.169 167.011 117.599 166.196 118.248 165.575C118.897 164.954 119.729 164.559 120.62 164.451C120.628 164.453 120.637 164.452 120.645 164.447C120.652 164.443 120.658 164.435 120.66 164.427C120.662 164.418 120.661 164.409 120.656 164.402C120.652 164.394 120.644 164.389 120.636 164.387Z" fill="#263238"/>
<path d="M112.8 160.411C111.008 160.391 108.932 161.032 107.82 162.507C107.78 162.563 107.86 162.623 107.912 162.595C109.477 161.767 111.127 161.109 112.832 160.631C112.858 160.624 112.881 160.607 112.896 160.584C112.911 160.561 112.917 160.534 112.913 160.507C112.909 160.48 112.895 160.455 112.874 160.437C112.854 160.419 112.827 160.41 112.8 160.411Z" fill="#263238"/>
<path d="M114.192 160.943C112.396 160.943 110.32 161.569 109.212 163.04C109.168 163.1 109.248 163.16 109.304 163.132C110.867 162.301 112.515 161.641 114.22 161.164C114.246 161.157 114.268 161.14 114.283 161.118C114.298 161.095 114.305 161.068 114.301 161.041C114.298 161.015 114.285 160.99 114.265 160.972C114.245 160.954 114.219 160.944 114.192 160.943Z" fill="#263238"/>
<path d="M115.576 161.48C113.784 161.48 111.708 162.102 110.596 163.577C110.556 163.633 110.636 163.693 110.688 163.665C112.254 162.837 113.903 162.178 115.608 161.701C115.634 161.694 115.657 161.677 115.672 161.654C115.687 161.631 115.693 161.604 115.689 161.577C115.685 161.549 115.672 161.525 115.651 161.507C115.63 161.489 115.603 161.48 115.576 161.48Z" fill="#263238"/>
<path d="M116.964 162.018C115.168 161.998 113.092 162.639 111.984 164.114C111.94 164.17 112.024 164.23 112.076 164.202C113.641 163.374 115.29 162.715 116.996 162.238C117.022 162.231 117.045 162.215 117.06 162.192C117.075 162.169 117.081 162.141 117.077 162.114C117.073 162.087 117.059 162.062 117.038 162.045C117.017 162.027 116.991 162.017 116.964 162.018Z" fill="#263238"/>
<path d="M97.0442 164.03C95.0442 164.03 95.0442 167.177 97.0442 167.165C99.0442 167.153 99.0602 164.018 97.0442 164.03Z" fill="#263238"/>
<path d="M114.724 155.609C113.816 154.856 112.672 155.609 112.116 156.383C111.191 157.75 110.639 159.337 110.516 160.984C110.516 161.02 110.544 161.036 110.572 161.036C110.579 161.07 110.595 161.102 110.616 161.129C110.638 161.156 110.666 161.177 110.698 161.191C110.73 161.204 110.764 161.21 110.799 161.208C110.833 161.205 110.867 161.195 110.896 161.177C112.168 160.291 113.64 159.497 114.604 158.243C115.152 157.513 115.6 156.311 114.724 155.609ZM112.54 159.433C111.924 159.886 111.288 160.307 110.688 160.784C111.008 159.886 111.284 158.98 111.692 158.114C111.881 157.699 112.097 157.298 112.34 156.912C112.74 156.315 114.484 154.808 114.668 156.76C114.772 157.83 113.272 158.896 112.54 159.433Z" fill="#263238"/>
<path d="M106.052 161.666C107.612 161.898 109.224 161.449 110.756 161.205C110.789 161.196 110.82 161.18 110.846 161.157C110.872 161.134 110.892 161.106 110.905 161.074C110.918 161.042 110.923 161.007 110.92 160.973C110.917 160.939 110.906 160.905 110.888 160.876C110.894 160.872 110.899 160.866 110.902 160.859C110.905 160.853 110.907 160.845 110.907 160.838C110.907 160.831 110.905 160.823 110.902 160.817C110.899 160.81 110.894 160.804 110.888 160.8C109.657 159.7 108.159 158.944 106.544 158.608C105.6 158.427 104.264 158.688 104.144 159.862C104 160.968 105.14 161.521 106.052 161.666ZM104.964 160.648C103.764 159.108 106.056 158.976 106.744 159.137C107.191 159.248 107.629 159.39 108.056 159.561C108.931 159.925 109.787 160.333 110.62 160.784C109.86 160.86 109.112 160.996 108.356 161.1C107.452 161.221 105.636 161.493 104.964 160.648Z" fill="#263238"/>
<path d="M65.3279 76.6318C65.3279 76.6318 86.0759 111.998 86.6319 114.483C87.4839 118.299 91.9999 155.978 91.9999 155.978L113.6 155.577C113.6 155.577 109.88 122.355 106.356 111.409C103.82 103.526 85.5079 77.3773 85.5079 77.3773L65.3279 76.6318Z" fill="#37474F"/>
<path d="M111.636 152.275C108.536 152.25 97.5477 152.126 93.4197 152.511C93.3877 152.511 93.3917 152.567 93.4197 152.571C94.8397 152.776 108.532 152.459 111.632 152.359C111.638 152.361 111.645 152.362 111.652 152.361C111.659 152.36 111.665 152.358 111.671 152.354C111.677 152.35 111.682 152.345 111.685 152.339C111.688 152.333 111.69 152.326 111.691 152.319C111.691 152.313 111.69 152.306 111.687 152.299C111.684 152.293 111.68 152.287 111.674 152.283C111.669 152.279 111.663 152.276 111.656 152.274C111.649 152.273 111.642 152.273 111.636 152.275Z" fill="#263238"/>
<path d="M68.8676 79.8782C70.2276 82.0145 71.6676 84.1066 73.0516 86.2269C74.4356 88.3471 75.8276 90.4673 77.1996 92.5836C79.9356 96.8587 82.6022 101.162 85.1996 105.493C86.4672 107.501 87.5516 109.619 88.4396 111.822C89.2502 114.025 89.8593 116.298 90.2596 118.612C90.6836 120.932 90.9636 123.277 91.2236 125.621C91.4902 128.114 91.7689 130.609 92.0596 133.104C92.6276 138.211 93.1969 143.317 93.7676 148.423C93.8356 149.048 93.9036 149.674 93.9676 150.303C93.9676 150.395 93.8116 150.411 93.7996 150.303C93.1636 145.233 92.6356 140.142 92.0596 135.072C91.7716 132.542 91.4849 130.013 91.1996 127.485C90.9316 125.133 90.6756 122.776 90.3116 120.439C89.9776 118.133 89.4694 115.855 88.7916 113.626C88.0447 111.317 87.0439 109.099 85.8076 107.012C83.3076 102.688 80.6596 98.4392 78.0116 94.1868C75.3636 89.9343 72.6436 85.6457 69.8516 81.4453C69.5076 80.9283 69.1596 80.4113 68.7996 79.9022C68.7716 79.8742 68.8436 79.8381 68.8676 79.8782Z" fill="#263238"/>
<path d="M72.128 171.256C71.144 171.196 45.728 160.879 45.024 159.902C44.9926 159.844 44.9787 159.779 44.984 159.713C44.984 158.835 46.748 155.773 48.22 151.749C48.312 151.493 48.968 150.298 49.876 148.691C52.4 144.286 56.8 136.699 56.8 136.699L73.412 143.312L65.46 155.236L64.224 158.122C64.224 158.122 72.02 166.198 72.676 167.34C73.332 168.483 73.108 171.312 72.128 171.256Z" fill="#EB9481"/>
<path d="M72.128 171.256C71.144 171.196 45.728 160.88 45.024 159.902C44.9926 159.844 44.9787 159.779 44.984 159.713C44.984 158.836 46.748 155.774 48.22 151.75C48.312 151.493 48.968 150.299 49.876 148.691L65.476 155.236L64.24 158.122C64.24 158.122 72.036 166.198 72.692 167.341C73.348 168.483 73.108 171.313 72.128 171.256Z" fill="white"/>
<path d="M72.128 171.256C71.144 171.196 45.728 160.879 45.024 159.901C44.752 159.529 45.888 156.054 48.224 151.749L64.224 158.126C64.224 158.126 72.02 166.194 72.68 167.344C73.34 168.494 73.108 171.312 72.128 171.256Z" fill="#A6A6A6"/>
<path d="M72.1676 170.118C68.0516 168.347 51.2756 161.589 47.0716 160.154C47.0356 160.154 47.0276 160.154 47.0716 160.178C51.1156 162.022 67.9436 168.643 72.1516 170.198C72.2316 170.218 72.2556 170.154 72.1676 170.118Z" fill="#263238"/>
<path d="M71.4478 165.817C70.9914 165.616 70.4984 165.513 69.9998 165.513C69.5013 165.513 69.0083 165.616 68.5518 165.817C67.7312 166.177 67.0807 166.841 66.7358 167.669C66.7358 167.693 66.7718 167.713 66.7838 167.689C67.2554 166.921 67.9628 166.326 68.8001 165.994C69.6373 165.663 70.5593 165.612 71.4278 165.849C71.4346 165.848 71.4403 165.843 71.444 165.837C71.4477 165.831 71.4491 165.824 71.4478 165.817Z" fill="#263238"/>
<path d="M65.676 159.188C64.024 158.495 61.856 158.311 60.276 159.26C60.216 159.297 60.276 159.381 60.328 159.377C62.0894 159.198 63.8647 159.207 65.624 159.405C65.6511 159.408 65.6783 159.401 65.7006 159.385C65.7228 159.369 65.7386 159.346 65.745 159.319C65.7514 159.293 65.7479 159.265 65.7352 159.241C65.7225 159.217 65.7015 159.198 65.676 159.188Z" fill="#263238"/>
<path d="M66.7595 160.207C65.1075 159.513 62.9395 159.329 61.3595 160.279C61.2995 160.315 61.3595 160.399 61.4115 160.395C63.1728 160.214 64.9483 160.224 66.7075 160.423C66.7346 160.426 66.7618 160.419 66.7841 160.404C66.8064 160.388 66.8222 160.365 66.8285 160.338C66.8349 160.311 66.8314 160.284 66.8187 160.259C66.806 160.235 66.785 160.217 66.7595 160.207Z" fill="#263238"/>
<path d="M67.8481 161.224C66.1921 160.531 64.0241 160.347 62.4481 161.297C62.3841 161.333 62.4481 161.417 62.4961 161.413C64.2573 161.232 66.0329 161.241 67.7921 161.441C67.8197 161.445 67.8481 161.44 67.8715 161.424C67.895 161.409 67.912 161.385 67.919 161.358C67.926 161.331 67.9227 161.302 67.9095 161.278C67.8964 161.253 67.8745 161.234 67.8481 161.224Z" fill="#263238"/>
<path d="M68.9326 162.243C67.2766 161.549 65.1125 161.365 63.5325 162.311C63.4685 162.351 63.5325 162.435 63.5805 162.431C65.3418 162.25 67.1173 162.259 68.8766 162.459C68.9042 162.464 68.9325 162.458 68.956 162.442C68.9795 162.427 68.9965 162.404 69.0035 162.377C69.0105 162.349 69.0071 162.321 68.994 162.296C68.9809 162.271 68.9589 162.252 68.9326 162.243Z" fill="#263238"/>
<path d="M49.712 156.619C47.844 155.874 46.684 158.787 48.56 159.533C50.436 160.278 51.6 157.365 49.712 156.619Z" fill="#263238"/>
<path d="M69.2558 155.461C68.6918 154.422 67.3598 154.679 66.5478 155.196C65.1799 156.114 64.0765 157.376 63.3478 158.855C63.3445 158.862 63.3428 158.869 63.3428 158.876C63.3427 158.883 63.3443 158.891 63.3473 158.897C63.3504 158.904 63.3549 158.909 63.3605 158.914C63.3662 158.919 63.3727 158.922 63.3798 158.923C63.3798 159.056 63.4678 159.212 63.6238 159.18C65.1398 158.831 66.7998 158.651 68.1598 157.849C68.9398 157.384 69.7878 156.443 69.2558 155.461ZM65.7958 158.182C65.0558 158.37 64.3118 158.523 63.5798 158.739C64.1852 158.008 64.8274 157.309 65.5038 156.643C65.8367 156.325 66.1909 156.031 66.5638 155.761C67.1438 155.36 69.3358 154.619 68.7758 156.499C68.4678 157.537 66.6798 157.958 65.7958 158.182Z" fill="#263238"/>
<path d="M58.9479 157.813C60.3079 158.615 61.9679 158.803 63.4799 159.156C63.6359 159.192 63.7399 159.036 63.7279 158.899C63.7354 158.899 63.7426 158.896 63.7487 158.891C63.7549 158.887 63.7598 158.881 63.763 158.874C63.7662 158.867 63.7676 158.86 63.7671 158.852C63.7666 158.845 63.7641 158.838 63.7599 158.831C63.0323 157.349 61.9288 156.084 60.5599 155.164C59.7599 154.643 58.4199 154.382 57.8519 155.416C57.2839 156.451 58.1519 157.344 58.9479 157.813ZM58.3239 156.459C57.7679 154.579 59.9559 155.324 60.5359 155.729C60.9084 155.999 61.2612 156.295 61.5919 156.615C62.267 157.282 62.9078 157.983 63.5119 158.715C62.7799 158.499 62.0359 158.342 61.2959 158.154C60.3999 157.913 58.6279 157.513 58.3239 156.459Z" fill="#263238"/>
<path d="M66.7515 154.571L48.1555 147.048C48.1555 147.048 71.2115 113.08 71.3795 110.551C71.5315 108.315 61.4035 88.828 61.0075 83.1487C60.5755 77.0164 63.5195 72.275 66.7595 69.3291L85.9395 77.5014C85.9395 77.5014 83.9155 80.7439 80.7395 82.5515C80.7395 82.5515 90.5755 105.076 90.0155 112.002C89.4555 118.928 66.7515 154.571 66.7515 154.571Z" fill="#37474F"/>
<path d="M67.576 151.028C64.888 149.869 65.676 150.162 62.972 149.024C61.652 148.471 52.972 144.851 51.636 144.551C51.608 144.551 51.588 144.591 51.616 144.607C52.772 145.316 61.524 148.783 62.856 149.312C65.58 150.386 64.808 150.05 67.544 151.092C67.5481 151.097 67.5535 151.102 67.5598 151.104C67.566 151.107 67.5728 151.108 67.5796 151.108C67.5864 151.107 67.5929 151.105 67.5986 151.101C67.6042 151.097 67.6088 151.092 67.6118 151.086C67.6149 151.08 67.6163 151.073 67.616 151.066C67.6157 151.059 67.6136 151.053 67.6101 151.047C67.6065 151.041 67.6015 151.036 67.5955 151.033C67.5896 151.029 67.5829 151.028 67.576 151.028Z" fill="#263238"/>
<path d="M83.8843 82.1391C81.8874 82.6055 79.9337 83.241 78.0443 84.0389C78.0367 84.0415 78.0296 84.0456 78.0236 84.0509C78.0176 84.0563 78.0127 84.0628 78.0091 84.07C78.0056 84.0773 78.0035 84.0852 78.003 84.0932C78.0026 84.1013 78.0037 84.1094 78.0063 84.117C78.0089 84.1246 78.013 84.1317 78.0183 84.1377C78.0237 84.1438 78.0302 84.1487 78.0374 84.1522C78.0447 84.1558 78.0525 84.1578 78.0606 84.1583C78.0686 84.1588 78.0767 84.1577 78.0843 84.1551C80.0443 83.5819 82.0363 83.0449 83.9643 82.3675C84.1123 82.3154 84.0363 82.107 83.8843 82.1391Z" fill="#263238"/>
<path d="M81.5995 81.3609C81.4131 81.6931 81.2487 82.0372 81.1075 82.391C80.9694 82.6595 80.8839 82.952 80.8555 83.2527C80.8555 83.3128 80.9355 83.3248 80.9715 83.2888C81.1721 83.0482 81.3341 82.7778 81.4515 82.4872C81.6155 82.1705 81.7835 81.8579 81.9395 81.5333C82.0475 81.2968 81.7235 81.1445 81.5995 81.3609Z" fill="#263238"/>
<path d="M81.8401 79.5415C81.9601 79.2449 82.0761 78.9523 82.2001 78.6557C82.3241 78.3591 82.4801 78.0545 82.6001 77.7419C82.6001 77.6938 82.6961 77.7419 82.6761 77.778C82.5561 78.0746 82.4801 78.3872 82.3881 78.6918C82.2961 78.9964 82.1921 79.301 82.0921 79.6056C81.9041 80.1708 81.6921 80.7319 81.4321 81.281C81.7469 81.2967 82.0612 81.2419 82.3521 81.1207C82.6493 80.9301 82.8778 80.6492 83.0041 80.3191C83.1721 79.9904 83.3281 79.6537 83.5001 79.3251C83.7118 78.9698 83.89 78.5954 84.0321 78.2068C84.0321 78.1587 84.1281 78.2068 84.1081 78.2429C83.8473 79.0644 83.5056 79.8579 83.0881 80.6116C82.9081 80.9042 82.7681 81.2128 82.4401 81.3251C82.0851 81.4246 81.7135 81.4505 81.3481 81.4012C81.3001 81.4012 81.2441 81.4012 81.2601 81.3291C81.4239 80.724 81.6175 80.1274 81.8401 79.5415Z" fill="#263238"/>
<path d="M81.0238 83.2848C81.7078 84.7316 82.3078 86.1745 82.9438 87.6174C83.5798 89.0603 84.1438 90.4551 84.7158 91.8899C85.8598 94.7837 86.8838 97.7336 87.7838 100.708C88.2278 102.182 88.6398 103.669 89.0078 105.168C89.4131 106.663 89.7099 108.184 89.8958 109.722C90.0563 111.256 89.9205 112.807 89.4958 114.291C89.0546 115.757 88.4886 117.182 87.8038 118.551C87.3838 119.417 87.2438 119.301 87.4438 118.864C88.0158 117.621 89.5158 113.858 89.4078 110.695C89.3203 109.182 89.0872 107.68 88.7118 106.211C88.3625 104.695 87.9691 103.192 87.5318 101.702C86.6798 98.7597 85.6678 95.8779 84.6278 93.0002C84.0438 91.3969 83.4278 89.7937 82.8278 88.1905C82.2278 86.5873 81.6278 85.1124 80.9558 83.3409C80.9358 83.2687 81.0038 83.2407 81.0238 83.2848Z" fill="#263238"/>
<path d="M66.9082 78.5035C67.2402 78.3793 67.7082 78.5837 68.0442 78.6398C68.4793 78.7138 68.919 78.758 69.3602 78.7721C69.7967 78.7875 70.2337 78.7728 70.6682 78.728C71.1057 78.7167 71.5345 78.6027 71.9202 78.3953C72.5529 77.9335 73.0953 77.3587 73.5202 76.6999C74.0265 76.0267 74.4445 75.2913 74.7642 74.5116C74.7642 74.4635 74.8482 74.5116 74.8322 74.5436C74.6922 74.9885 74.5882 75.4374 74.4322 75.8743C74.2597 76.2847 74.0537 76.6802 73.8162 77.0566C73.4311 77.8141 72.8615 78.462 72.1602 78.9404C71.3882 79.3813 70.3962 79.3412 69.5362 79.3051C69.0374 79.276 68.5414 79.2104 68.0522 79.1087C67.7002 79.0326 67.1082 78.9765 66.8842 78.6679C66.8736 78.6561 66.8658 78.6421 66.8613 78.6269C66.8567 78.6117 66.8555 78.5958 66.8578 78.5801C66.8601 78.5644 66.8658 78.5494 66.8745 78.5362C66.8832 78.523 66.8947 78.5118 66.9082 78.5035Z" fill="#263238"/>
<path d="M53.4642 143.485C56.5202 138.847 59.5202 134.171 62.4642 129.457C65.4082 124.744 68.3122 119.995 71.1762 115.209C71.8602 114.067 72.6482 112.928 73.0882 111.662C73.5682 110.287 73.2962 108.952 72.8642 107.606C72.0484 105.149 71.0949 102.74 70.0082 100.391C68.9362 98.0226 67.7802 95.694 66.6442 93.3573C65.5082 91.0207 64.3202 88.7121 63.4442 86.2752C62.6442 83.9466 62.3202 81.5337 62.9442 79.1209C63.5682 76.7081 64.9122 74.5759 66.3162 72.5678C66.6842 72.0388 67.0642 71.5137 67.4362 70.9646C67.4642 70.9246 67.5242 70.9646 67.4962 71.0127C65.9482 73.1049 64.4402 75.3213 63.5322 77.7782C63.0681 78.9893 62.8086 80.2693 62.7642 81.5658C62.7566 82.8818 62.9606 84.1905 63.3682 85.4415C64.1202 87.8784 65.3082 90.183 66.4162 92.4756C67.5242 94.7682 68.7082 97.1409 69.8002 99.5016C70.9267 101.878 71.9281 104.311 72.8002 106.792C73.1722 107.894 73.6002 109.049 73.5682 110.231C73.5402 111.526 72.9242 112.692 72.2842 113.782C69.4842 118.532 66.6162 123.225 63.6962 127.89C60.7762 132.556 57.7722 137.221 54.7322 141.838L53.5802 143.582C53.5202 143.654 53.4162 143.57 53.4642 143.485Z" fill="#263238"/>
<path d="M87.0038 55.8981C88.7358 59.7057 97.4838 64.9522 101.58 65.5173C104.524 65.9181 113.476 66.0624 116.544 65.5934C120.144 65.0403 117.392 55.3209 115.268 55.5734C109.428 56.2548 104.468 57.0163 102.908 57.0163C101.004 57.0163 90.7038 53.7057 89.4638 53.2368C86.4238 52.1025 86.0238 53.7378 87.0038 55.8981Z" fill="#EB9481"/>
<path d="M87.0598 56.9118C89.2518 60.1623 96.5358 65.4769 96.5358 65.4769L97.5478 63.2324L100.896 55.8096C100.896 55.8096 94.2038 53.7054 89.7998 52.7435C89.2816 52.6253 88.7544 52.5502 88.2238 52.519C85.4118 52.3667 85.1678 54.1062 87.0598 56.9118Z" fill="#0043A5"/>
<path d="M87.0598 56.9125C89.2518 60.163 96.5358 65.4776 96.5358 65.4776L97.5478 63.2331C94.8318 60.0708 90.6358 55.2813 88.2238 52.5278C85.4118 52.3675 85.1678 54.1069 87.0598 56.9125Z" fill="#263238"/>
<path d="M95.2236 63.9706C95.7796 62.6039 98.2516 57.1009 98.8676 55.9546C98.9076 55.8745 98.9716 55.8825 98.9356 55.9546C97.8633 58.6912 96.6428 61.3672 95.2796 63.9706C95.2636 64.0187 95.1996 64.0027 95.2236 63.9706Z" fill="#263238"/>
<path d="M114.196 55.6733C117.748 55.2084 122.144 54.4108 125.868 55.994C126.286 56.1583 126.637 56.4591 126.864 56.8477C128.544 57.529 128.728 58.527 128.728 58.527C130.1 59.6412 130.148 60.6913 130.148 60.6913C130.148 60.6913 132.116 61.4929 131.816 62.7835C131.488 64.2104 128.792 62.7835 126.832 62.8997C122.332 63.1803 116.032 64.8356 114.732 65.044L114.196 55.6733Z" fill="#EB9481"/>
<path d="M121.912 59.8741C123.227 59.7839 124.548 59.7839 125.864 59.8741C127.296 60.0542 128.714 60.3422 130.104 60.7358C130.113 60.739 130.122 60.7384 130.131 60.7343C130.14 60.7302 130.146 60.7228 130.149 60.7137C130.153 60.7047 130.152 60.6948 130.148 60.6861C130.144 60.6775 130.137 60.6708 130.127 60.6676C127.517 59.6413 124.675 59.3529 121.912 59.834C121.848 59.826 121.848 59.8781 121.912 59.8741Z" fill="#263238"/>
<path d="M121.077 55.7095C123.273 55.8217 124.645 56.1744 126.853 56.8397V56.8157C124.421 55.7976 123.425 55.7015 121.065 55.6133C120.989 55.6453 120.993 55.7095 121.077 55.7095Z" fill="#263238"/>
<path d="M121.432 63.5811C120.86 63.8496 121 64.1502 122.092 64.4027C123.184 64.6552 127.724 64.7314 127.564 66.3185C127.404 67.9057 121 67.7053 119.212 67.1442C117.424 66.5831 114.732 65.044 114.732 65.044C116 64.8316 118.976 64.0259 121.432 63.5811Z" fill="#EB9481"/>
<path d="M91.7599 61.9657C91.7319 62.651 91.6679 63.3484 91.5719 64.0418C91.5719 64.0138 91.5719 63.9897 91.5999 63.9657C91.7319 63.6049 91.8639 63.2362 92.0239 62.8875C92.0239 62.8875 92.0639 62.8875 92.0599 62.8875C91.9831 63.2696 91.8678 63.6429 91.7159 64.0017C91.6439 64.1741 91.5759 64.3424 91.4999 64.5108C91.4519 64.8194 91.3959 65.124 91.3359 65.4286C91.2159 66.0017 90.676 68.4386 90.536 68.8514C90.512 68.9356 90.408 68.9156 90.416 68.8194C90.444 68.3705 90.896 65.8334 90.988 65.2562C91.1666 64.1419 91.4057 63.038 91.7039 61.9496C91.7239 61.9296 91.7639 61.9456 91.7599 61.9657Z" fill="#263238"/>
<path d="M87.6001 80.1905C86.5321 80.7396 85.1561 81.5933 78.9561 80.3709C78.5561 80.2907 78.1801 80.1945 77.7881 80.0783C71.9762 78.3308 64.9882 71.4811 64.6082 70.9962C64.6082 70.9962 73.8441 55.9942 85.6561 51.2768C87.1161 50.6956 89.5321 51.8179 90.8561 53.2167C91.3321 53.7177 92.3681 57.401 91.9721 60.383C91.5761 63.3649 88.6641 79.6414 87.6001 80.1905Z" fill="#0043A5"/>
<path d="M86.7685 60.2471C86.8131 60.881 86.7245 61.5173 86.5085 62.1148C86.4578 61.4807 86.5465 60.8431 86.7685 60.2471Z" fill="white"/>
<path d="M82.7405 70.4629C82.7659 70.7784 82.7552 71.0957 82.7085 71.4088C82.67 71.7242 82.5934 72.0337 82.4805 72.3306C82.4529 72.0139 82.4636 71.6949 82.5125 71.3807C82.5534 71.0671 82.6299 70.7591 82.7405 70.4629Z" fill="white"/>
<path d="M75.8965 62.7402C75.9415 63.3755 75.853 64.0132 75.6365 64.612C75.5862 63.9765 75.6749 63.3378 75.8965 62.7402Z" fill="white"/>
<path d="M89.4043 69.9424C89.4298 70.2592 89.4191 70.5779 89.3723 70.8923C89.3338 71.2077 89.2572 71.5172 89.1443 71.8141C89.1167 71.4973 89.1275 71.1784 89.1763 70.8642C89.2167 70.5492 89.2932 70.2399 89.4043 69.9424Z" fill="white"/>
<path d="M80.6165 61.4173C80.9312 61.3904 81.2479 61.3998 81.5604 61.4453C81.8754 61.4854 82.1843 61.5635 82.4804 61.678C81.8477 61.7236 81.2126 61.6348 80.6165 61.4173Z" fill="white"/>
<path d="M72.8484 68.7954C73.4811 68.7507 74.1161 68.8395 74.7124 69.0562C74.0795 69.1071 73.4432 69.0181 72.8484 68.7954Z" fill="white"/>
<path d="M82 76.7841C82.6327 76.7385 83.2679 76.8274 83.864 77.0448C83.2312 77.0949 82.595 77.0059 82 76.7841Z" fill="white"/>
<path d="M70.4526 73.8824C71.0853 73.8376 71.7203 73.9265 72.3166 74.1431C71.6838 74.1932 71.0477 74.1042 70.4526 73.8824Z" fill="white"/>
<path d="M86.7083 53.064C87.3409 53.0193 87.9759 53.1081 88.5722 53.3248C87.9396 53.3695 87.3046 53.2807 86.7083 53.064Z" fill="white"/>
<path d="M84.4475 55.6221C84.2453 55.8656 84.0142 56.0837 83.7595 56.2714C83.5116 56.4634 83.2433 56.6274 82.9595 56.7603C83.1604 56.5183 83.3886 56.3004 83.6395 56.111C83.8897 55.9183 84.1607 55.7542 84.4475 55.6221Z" fill="white"/>
<path d="M72.1319 62.8877C71.9272 63.1292 71.6949 63.3457 71.4399 63.533C71.1945 63.7287 70.9258 63.8929 70.6399 64.022C70.8457 63.7815 71.0778 63.5651 71.3319 63.3767C71.5778 63.1818 71.8464 63.0176 72.1319 62.8877Z" fill="white"/>
<path d="M87.5127 66.167C87.3081 66.4097 87.0759 66.6276 86.8208 66.8163C86.5748 67.0111 86.3062 67.1753 86.0208 67.3053C86.2254 67.0626 86.4576 66.8446 86.7127 66.656C86.96 66.4631 87.2284 66.299 87.5127 66.167Z" fill="white"/>
<path d="M77.5518 72.4512C77.3472 72.6939 77.1149 72.9118 76.8598 73.1005C76.6135 73.2947 76.3449 73.4589 76.0598 73.5894C76.2644 73.3467 76.4967 73.1288 76.7518 72.9402C76.9991 72.7473 77.2675 72.5832 77.5518 72.4512Z" fill="white"/>
<path d="M91.3279 57.5811C91.1233 57.8238 90.8911 58.0417 90.6359 58.2303C90.3881 58.4224 90.1198 58.5864 89.8359 58.7193C90.0406 58.4766 90.2728 58.2587 90.5279 58.07C90.7743 57.8758 91.0428 57.7116 91.3279 57.5811Z" fill="white"/>
<path d="M91.1204 64.8641C90.8782 64.6591 90.6607 64.4264 90.4724 64.1707C90.2777 63.9245 90.1138 63.6553 89.9844 63.3691C90.2275 63.5718 90.4451 63.8032 90.6324 64.0585C90.8235 64.3087 90.9871 64.5788 91.1204 64.8641Z" fill="white"/>
<path d="M68.9204 69.8817C68.6782 69.6767 68.4607 69.444 68.2724 69.1883C68.0799 68.9405 67.9162 68.6716 67.7844 68.3867C68.0267 68.5918 68.2441 68.8245 68.4324 69.0801C68.6263 69.3269 68.7901 69.596 68.9204 69.8817Z" fill="white"/>
<path d="M88.4207 75.8503C88.1776 75.6477 87.96 75.4162 87.7727 75.161C87.581 74.9126 87.4173 74.6438 87.2847 74.3594C87.5269 74.5644 87.7444 74.7971 87.9327 75.0528C88.1257 75.2987 88.2895 75.5664 88.4207 75.8503Z" fill="white"/>
<path d="M78.6485 58.8357C78.4063 58.6321 78.1888 58.4007 78.0005 58.1463C77.8096 57.8974 77.646 57.6287 77.5125 57.3447C77.7555 57.5473 77.9731 57.7788 78.1605 58.0341C78.3513 58.283 78.5149 58.5518 78.6485 58.8357Z" fill="white"/>
<path d="M78.8206 79.2489C78.5784 79.0439 78.3609 78.8111 78.1726 78.5555C77.9807 78.3073 77.817 78.0384 77.6846 77.7539C77.9277 77.9565 78.1453 78.188 78.3326 78.4433C78.5251 78.6925 78.6888 78.9628 78.8206 79.2489Z" fill="white"/>
<path d="M80.4801 67.2088C80.2402 67.0027 80.0242 66.7701 79.8361 66.5155C79.6409 66.2696 79.4769 66.0004 79.3481 65.7139C79.5891 65.919 79.8053 66.1517 79.9921 66.4072C80.1866 66.6537 80.3505 66.9228 80.4801 67.2088Z" fill="white"/>
<path d="M88.6914 57.2135C87.1834 56.933 85.7674 53.8107 85.5874 51.7105C85.5874 51.5663 86.2914 50.424 87.0954 48.9931C87.5834 48.1234 88.0994 47.1414 88.5114 46.2116C88.5954 46.0232 89.0874 46.6605 89.0874 46.6605L90.1594 47.4621L93.6994 50.1835C92.8564 51.1971 92.1404 52.3102 91.5674 53.4981C91.5108 53.6268 91.4679 53.7612 91.4394 53.8989C91.4378 53.9216 91.4378 53.9444 91.4394 53.9671C91.2194 54.7606 90.1434 57.4821 88.6914 57.2135Z" fill="#EB9481"/>
<path d="M91.4397 53.9179C91.4382 53.9406 91.4382 53.9633 91.4397 53.986C91.2296 53.9243 91.0249 53.8452 90.8277 53.7496C86.9517 51.9299 88.6597 46.7275 88.6597 46.7275L90.1797 47.481L93.7197 50.2025C92.8768 51.216 92.1608 52.3292 91.5877 53.5171C91.5243 53.645 91.4747 53.7794 91.4397 53.9179Z" fill="#263238"/>
<path d="M97.7678 39.1084C97.7678 39.1084 99.5398 40.2346 99.5478 42.2386C99.5558 44.2426 98.7478 46.2026 98.5798 46.2747C98.4118 46.3468 97.7678 39.1084 97.7678 39.1084Z" fill="#263238"/>
<path d="M88.9755 40.1508C87.9115 42.255 87.9675 48.8882 89.2955 50.5956C91.2235 53.0726 94.9354 53.9263 97.1794 51.4774C99.3514 49.1046 99.1274 40.4634 97.5794 38.8522C95.3274 36.4714 90.5515 37.0365 88.9755 40.1508Z" fill="#EB9481"/>
<path d="M94.6238 45.4609C94.6238 45.4609 94.5878 45.485 94.5918 45.501C94.6158 45.9539 94.5678 46.475 94.1638 46.6353C94.1638 46.6353 94.1638 46.6633 94.1638 46.6593C94.6638 46.5792 94.7198 45.8858 94.6238 45.4609Z" fill="#263238"/>
<path d="M94.2119 44.9998C93.4839 44.9598 93.4599 46.4187 94.1359 46.4547C94.8119 46.4908 94.8199 45.0319 94.2119 44.9998Z" fill="#263238"/>
<path d="M97.0916 45.4453C97.0916 45.4453 97.1276 45.4453 97.1276 45.4854C97.1036 45.9383 97.1556 46.4593 97.5636 46.6156C97.5636 46.6156 97.5636 46.6437 97.5636 46.6397C97.0596 46.5635 96.9996 45.8702 97.0916 45.4453Z" fill="#263238"/>
<path d="M97.5038 44.9805C98.2278 44.9364 98.2638 46.3953 97.5918 46.4354C96.9198 46.4755 96.8958 45.0165 97.5038 44.9805Z" fill="#263238"/>
<path d="M93.7559 43.8901C93.947 43.8356 94.1352 43.7714 94.3199 43.6977C94.53 43.6596 94.7214 43.5524 94.8639 43.3931C94.8984 43.3348 94.9129 43.2666 94.9049 43.1993C94.897 43.1319 94.8671 43.069 94.8199 43.0204C94.7116 42.9379 94.5834 42.8859 94.4484 42.8697C94.3134 42.8535 94.1765 42.8737 94.0519 42.9282C93.7819 43.0006 93.5483 43.1705 93.3959 43.4051C93.3654 43.461 93.3516 43.5244 93.356 43.5878C93.3605 43.6513 93.3829 43.7121 93.4208 43.7632C93.4587 43.8142 93.5104 43.8533 93.5698 43.8758C93.6292 43.8983 93.6938 43.9033 93.7559 43.8901Z" fill="#263238"/>
<path d="M97.9994 44.5353C97.8048 44.4917 97.6125 44.4382 97.4234 44.375C97.2126 44.347 97.017 44.2498 96.8674 44.0984C96.8288 44.0427 96.8102 43.9755 96.8146 43.9079C96.8189 43.8402 96.846 43.776 96.8914 43.7257C96.9945 43.6373 97.1196 43.5784 97.2533 43.5551C97.387 43.5318 97.5245 43.5451 97.6514 43.5934C97.925 43.6502 98.1675 43.8075 98.3314 44.0343C98.3656 44.088 98.3836 44.1505 98.3831 44.2142C98.3825 44.2779 98.3635 44.3401 98.3283 44.3932C98.2931 44.4463 98.2433 44.488 98.1849 44.5132C98.1265 44.5385 98.062 44.5461 97.9994 44.5353Z" fill="#263238"/>
<path d="M93.6004 49.7459C93.7084 49.8542 93.8124 49.9986 93.9764 50.0147C94.1445 50.0146 94.3108 49.979 94.4644 49.9104C94.4644 49.9104 94.4924 49.9104 94.4644 49.9344C94.3988 50.0226 94.3106 50.0912 94.2091 50.1329C94.1076 50.1746 93.9967 50.1878 93.8884 50.1711C93.797 50.1461 93.7149 50.0948 93.6524 50.0235C93.5898 49.9522 93.5495 49.864 93.5364 49.7699C93.5332 49.7614 93.5335 49.752 93.5372 49.7437C93.541 49.7355 93.5479 49.729 93.5564 49.7258C93.5648 49.7226 93.5742 49.7229 93.5825 49.7267C93.5907 49.7305 93.5972 49.7374 93.6004 49.7459Z" fill="#263238"/>
<path d="M96.2162 47.8141C96.2162 47.8141 96.2362 48.4874 96.2162 48.804C95.6016 48.7387 94.9809 48.7603 94.3722 48.8682C94.2282 48.9002 94.2443 48.784 94.4082 48.7078C94.8985 48.4833 95.4445 48.4108 95.9762 48.4994C96.0082 48.4153 95.9242 47.4574 95.9762 47.4614C96.2182 47.509 96.4524 47.5899 96.6722 47.7018C96.6722 46.291 96.4482 44.8962 96.4682 43.4854C96.4682 43.4373 96.5442 43.4293 96.5522 43.4854C96.8365 44.9779 96.9705 46.4952 96.9522 48.0145C96.9562 48.1868 96.3362 47.8782 96.2162 47.8141Z" fill="#263238"/>
<path d="M95.3155 48.5635C95.1561 48.9838 94.8602 49.3381 94.4755 49.5695C93.8715 49.814 93.6755 49.2649 94.2835 48.7679C94.6024 48.6064 94.9593 48.5357 95.3155 48.5635Z" fill="#263238"/>
<path d="M94.6884 49.4445C94.6246 49.4966 94.5531 49.5385 94.4764 49.5687C93.9204 49.7932 93.7004 49.3483 94.1484 48.8994C94.4524 48.9235 94.8004 49.0357 94.6884 49.4445Z" fill="#FF99BA"/>
<path d="M88.6721 45.822C89.4041 46.0464 90.2441 43.842 90.4841 43.0164C90.6921 42.2709 90.9321 39.9022 90.9681 39.7378C91.0041 39.5735 94.1681 41.834 96.0001 41.2969C97.8321 40.7599 99.0761 39.0966 99.1041 38.323C99.1321 37.5495 96.8401 35.5855 94.8601 35.4853C92.8801 35.3851 90.1961 37.8901 90.1961 37.8901C90.5203 37.5215 90.8146 37.1275 91.0761 36.7118C91.0441 36.6236 89.7641 37.1366 89.5281 38.0505C89.5281 38.0505 89.7841 36.9002 89.6881 36.8801C89.5921 36.8601 88.5961 37.8421 88.8201 38.5875C88.8201 38.5875 87.6681 39.5855 87.5641 40.6797C87.4601 41.7739 87.8121 45.5575 88.6721 45.822Z" fill="#263238"/>
<path d="M97.3114 40.8804C96.7666 41.1764 96.1798 41.3873 95.5714 41.5057C94.8886 41.5667 94.2012 41.4565 93.5714 41.185C92.937 40.9394 92.3477 40.59 91.8274 40.151C91.3674 39.7742 90.9554 39.3133 90.4634 38.9766C90.3394 38.8884 90.1994 39.0688 90.2754 39.181C91.0963 40.3428 92.2689 41.2085 93.6194 41.65C94.2467 41.8549 94.9163 41.8932 95.5627 41.7611C96.2092 41.629 96.8103 41.3311 97.3074 40.8965C97.3074 40.8965 97.3194 40.8804 97.3114 40.8804Z" fill="#263238"/>
<path d="M89.4355 45.626C89.4355 45.626 88.2995 43.3174 87.2755 43.6901C86.2515 44.0629 86.8755 47.2573 87.9275 47.8424C88.0564 47.926 88.2008 47.9826 88.352 48.0089C88.5032 48.0351 88.6582 48.0305 88.8076 47.9954C88.957 47.9602 89.0978 47.8951 89.2215 47.8041C89.3452 47.7131 89.4493 47.598 89.5275 47.4657L89.4355 45.626Z" fill="#EB9481"/>
<path d="M87.4797 44.5996C87.4797 44.5996 87.4557 44.5996 87.4797 44.6317C88.2077 45.0645 88.5037 45.8341 88.6797 46.6357C88.6465 46.5508 88.5954 46.4742 88.5298 46.4111C88.4642 46.348 88.3857 46.2999 88.2997 46.2701C88.2138 46.2404 88.1224 46.2297 88.0319 46.2389C87.9414 46.248 87.854 46.2767 87.7757 46.323C87.7517 46.323 87.7757 46.3671 87.7757 46.3671C87.9188 46.3448 88.0652 46.3676 88.1949 46.4322C88.3246 46.4968 88.431 46.6001 88.4997 46.7279C88.6142 46.9419 88.7053 47.1676 88.7717 47.4012C88.7957 47.4773 88.9277 47.4573 88.9157 47.3731C89.0877 46.3751 88.5277 44.8641 87.4797 44.5996Z" fill="#263238"/>
<path d="M81.9359 55.9344C81.1359 60.4754 86.0479 75.774 89.1959 78.6317C93.8799 82.8801 102.54 85.6737 105.68 86.5835C107.048 86.9843 110.832 77.3371 109.448 76.6998C106.484 75.3491 97.2759 72.4634 96.3999 71.7419C95.5239 71.0205 90.2439 63.3772 87.8919 58.9764C84.7439 53.0526 82.3319 53.6378 81.9359 55.9344Z" fill="#EB9481"/>
<path d="M107.116 75.8496C107.116 75.8496 111.204 76.8957 113.84 77.7013C115.312 78.1542 117.768 79.1522 118.7 79.9779C120.092 81.2163 125.124 87.2764 123.684 88.5309C122.38 89.6692 118.716 83.9097 118.716 83.9097C118.716 83.9097 122.924 89.3926 121.116 90.4708C119.308 91.549 116 84.4909 116 84.4909C116 84.4909 120.196 90.2223 118.144 91.0359C116.592 91.6492 113.264 85.4247 113.264 85.4247C113.264 85.4247 116.84 90.3746 115.264 91.076C113.528 91.8536 110.1 86.2985 110.1 86.2985C105.812 87.4087 103.3 86.1782 101.648 85.0961C101.26 84.8315 107.116 75.8496 107.116 75.8496Z" fill="#EB9481"/>
<path d="M117.38 81.9178C117.9 82.543 118.428 83.1763 118.888 83.8456C119.348 84.515 119.784 85.2043 120.18 85.9138C120.717 86.8313 121.146 87.8077 121.46 88.8236C120.772 87.0601 119.16 84.6352 118.7 83.9659C118.24 83.2965 117.812 82.6031 117.356 81.9338C117.344 81.9178 117.368 81.9017 117.38 81.9178Z" fill="#263238"/>
<path d="M114.935 83.5411C115.823 84.2465 117.683 86.8677 118.399 88.6272C118.431 88.6994 118.399 88.6954 118.347 88.6272C117.787 87.7575 115.515 84.3908 114.915 83.5531C114.903 83.5411 114.923 83.5291 114.935 83.5411Z" fill="#263238"/>
<path d="M112.588 84.5667C113.692 85.7263 114.563 87.0868 115.156 88.5747C115.184 88.6469 115.128 88.6348 115.084 88.5747C114.256 87.224 113.616 86.1699 112.544 84.6028C112.528 84.5667 112.564 84.5306 112.588 84.5667Z" fill="#263238"/>
<path d="M86.3994 56.2671C82.7474 51.0927 80.5634 53.0086 81.2954 58.6278C81.9834 63.8823 83.8194 70.1428 83.8194 70.1428L93.0194 65.6698C93.0194 65.6698 88.7234 59.5817 86.3994 56.2671Z" fill="#0043A5"/>
<path d="M88.6204 58.3027C88.7416 58.595 88.8289 58.9003 88.8804 59.2126C88.9365 59.5259 88.9567 59.8446 88.9404 60.1625C88.8204 59.8687 88.7345 59.5621 88.6844 59.2486C88.6249 58.9371 88.6034 58.6195 88.6204 58.3027Z" fill="white"/>
<path d="M83.168 61.4493C83.7551 61.2098 84.3868 61.1003 85.02 61.1283C84.7282 61.2486 84.4235 61.3348 84.112 61.3851C83.801 61.4446 83.4841 61.4662 83.168 61.4493Z" fill="white"/>
<path d="M83.4045 53.4004C83.1568 53.9861 82.7873 54.5122 82.3206 54.9435C82.5683 54.3577 82.9378 53.8317 83.4045 53.4004Z" fill="white"/>
<path d="M91.2005 63.8662C91.079 64.1593 90.9247 64.4377 90.7405 64.6959C90.5611 64.9573 90.3516 65.1968 90.1165 65.4093C90.3642 64.8235 90.7337 64.2975 91.2005 63.8662Z" fill="white"/>
<path d="M84.7995 67.0041C84.5063 66.8839 84.2283 66.7292 83.9715 66.5432C83.7105 66.3636 83.4715 66.1537 83.2595 65.918C83.8441 66.1662 84.3691 66.5365 84.7995 67.0041Z" fill="white"/>
<path d="M87.6 57.8262C88.092 58.5035 88.6 59.1648 89.104 59.8302C88.976 59.4935 88.864 59.1528 88.768 58.8081H88.792C88.892 59.0727 89.008 59.3332 89.104 59.6097L89.248 60.0105C89.2604 60.0379 89.2711 60.066 89.28 60.0947C89.68 60.6117 90.08 61.1288 90.448 61.6578C90.9 62.2911 91.336 62.9324 91.776 63.5736C92.216 64.2149 92.66 65.0125 93.136 65.6578C93.18 65.7139 92.336 66.0586 92.244 66.1027C92.152 66.1468 92.104 66.0706 92.192 66.0426C92.28 66.0145 92.952 65.6017 92.96 65.5937C92.52 64.9444 92.012 64.3472 91.552 63.7179C91.092 63.0887 90.636 62.4594 90.192 61.8221C89.292 60.5236 88.468 59.1769 87.572 57.8743L87.6 57.8262Z" fill="#263238"/>
<path d="M81.5123 62.3473C81.6523 62.6198 81.8043 62.8884 81.9123 63.1689L82.0643 63.5176C81.8523 62.5196 81.6643 61.5136 81.4443 60.5156C81.8683 62.1188 82.2963 63.7581 82.6883 65.3853C83.0603 66.9405 83.5123 68.5116 83.7283 70.0988C84.0073 69.9762 84.2964 69.8783 84.5923 69.8062C84.2953 69.9988 83.9755 70.1536 83.6403 70.2671C83.1582 68.6531 82.7576 67.0158 82.4403 65.3613C82.3403 64.9124 82.2483 64.4635 82.1523 64.0146C82.0483 63.7421 81.9243 63.4815 81.8003 63.213C81.6763 62.9445 81.5643 62.6439 81.4523 62.3593C81.4763 62.3433 81.5043 62.3272 81.5123 62.3473Z" fill="#263238"/>
<path d="M83.9561 68.5957C85.2361 67.8743 90.5841 65.1007 91.7801 64.5877C91.8641 64.5516 91.9081 64.5877 91.8241 64.6438C89.2855 66.1219 86.6683 67.4599 83.9841 68.6518C83.9521 68.6599 83.9201 68.6158 83.9561 68.5957Z" fill="#263238"/>
<path d="M230.528 173.966H108.656L126.276 73.8262H248.148L230.528 173.966Z" fill="#1890FF"/>
<path d="M167.988 63.4531H128.104L126.276 73.8258H168.96L167.988 63.4531Z" fill="#0043A5"/>
<g opacity="0.5">
<path d="M230.528 173.966H108.656L126.276 73.8262H248.148L230.528 173.966Z" fill="#0043A5"/>
<path opacity="0.5" d="M167.987 63.4531H128.103L126.275 73.8258H168.959L167.987 63.4531Z" fill="#0043A5"/>
</g>
<path d="M123.8 67.6852C123.533 66.5382 123.533 65.3452 123.8 64.1982C124.067 65.3452 124.067 66.5382 123.8 67.6852Z" fill="#263238"/>
<path d="M120.257 68.7113C119.849 68.2881 119.498 67.8139 119.213 67.3005C118.913 66.7977 118.678 66.2591 118.513 65.6973C118.921 66.1179 119.272 66.591 119.557 67.1041C119.856 67.6086 120.091 68.1485 120.257 68.7113Z" fill="#263238"/>
<path d="M117.697 71.3773C116.573 71.0348 115.542 70.4384 114.685 69.6338C115.245 69.7971 115.783 70.0315 116.285 70.3312C116.797 70.6194 117.271 70.9708 117.697 71.3773Z" fill="#263238"/>
<path d="M116.801 74.9682C115.656 75.2357 114.465 75.2357 113.321 74.9682C114.465 74.7007 115.656 74.7007 116.801 74.9682Z" fill="#263238"/>
<path d="M117.84 78.5195C117.416 78.9255 116.943 79.2769 116.432 79.5656C115.93 79.8653 115.393 80.0997 114.832 80.263C115.254 79.8549 115.728 79.5033 116.24 79.2169C116.741 78.9158 117.279 78.6813 117.84 78.5195Z" fill="#263238"/>
<path d="M120.496 81.0801C120.155 82.208 119.56 83.2421 118.756 84.1021C118.919 83.5395 119.154 83.0006 119.456 82.4989C119.741 81.9836 120.09 81.5069 120.496 81.0801Z" fill="#263238"/>
<path d="M124.08 81.9668C124.219 82.5372 124.287 83.123 124.28 83.7103C124.289 84.2976 124.221 84.8837 124.08 85.4537C123.937 84.884 123.869 84.2977 123.88 83.7103C123.873 83.123 123.941 82.5372 124.08 81.9668Z" fill="#263238"/>
<path d="M127.624 80.9602C128.031 81.3833 128.382 81.8576 128.668 82.371C128.968 82.8728 129.202 83.4118 129.364 83.9742C128.56 83.1142 127.964 82.0801 127.624 80.9521V80.9602Z" fill="#263238"/>
<path d="M130.181 78.2744C130.742 78.4362 131.28 78.6707 131.781 78.9718C132.293 79.2582 132.766 79.6098 133.189 80.0179C132.627 79.8561 132.089 79.6216 131.589 79.3205C131.076 79.0341 130.603 78.6825 130.181 78.2744Z" fill="#263238"/>
<path d="M131.064 74.684C132.21 74.4165 133.402 74.4165 134.548 74.684C133.402 74.9514 132.21 74.9514 131.064 74.684Z" fill="#263238"/>
<path d="M130.04 71.1321C130.464 70.7265 130.937 70.3763 131.448 70.0901C131.948 69.786 132.486 69.5502 133.048 69.3887C132.19 70.1943 131.158 70.7909 130.032 71.1321H130.04Z" fill="#263238"/>
<path d="M127.381 68.5716C127.546 68.0104 127.779 67.4718 128.077 66.9684C128.363 66.455 128.714 65.9808 129.121 65.5576C128.959 66.1201 128.725 66.659 128.425 67.1608C128.139 67.6743 127.788 68.1485 127.381 68.5716Z" fill="#263238"/>
<path d="M230.348 173.966H108.216L90.8723 77.4609H213.008L230.348 173.966Z" fill="#0043A5"/>
<path d="M133.197 136.455C136 136.455 138.273 134.177 138.273 131.368C138.273 128.559 136 126.282 133.197 126.282C130.393 126.282 128.121 128.559 128.121 131.368C128.121 134.177 130.393 136.455 133.197 136.455Z" fill="white"/>
<path d="M173.325 136.455C176.128 136.455 178.401 134.177 178.401 131.368C178.401 128.559 176.128 126.282 173.325 126.282C170.521 126.282 168.249 128.559 168.249 131.368C168.249 134.177 170.521 136.455 173.325 136.455Z" fill="white"/>
<path d="M160.553 137.268L160.273 136.735C160.249 136.687 157.625 131.829 152.349 131.829C147.549 131.829 146.349 136.402 146.317 136.599L146.173 137.18L145.009 136.899L145.149 136.314C145.149 136.258 146.581 130.627 152.349 130.627C158.349 130.627 161.217 135.95 161.337 136.178L161.617 136.707L160.553 137.268Z" fill="white"/>
<path d="M125.723 39.0046C125.531 40.8455 124.833 42.5969 123.706 44.0632C122.579 45.5296 121.067 46.6532 119.339 47.3087C117.612 47.9643 115.737 48.126 113.923 47.7757C112.109 47.4255 110.428 46.5771 109.067 45.3252L104.079 46.0587L106.575 41.738C106.004 40.3322 105.761 38.8145 105.863 37.3002C105.965 35.7859 106.411 34.3149 107.165 32.9989C107.92 31.6828 108.964 30.5564 110.218 29.7052C111.472 28.8539 112.903 28.3002 114.402 28.0862C115.902 27.8721 117.43 28.0033 118.872 28.4697C120.313 28.9362 121.63 29.7257 122.721 30.7782C123.812 31.8307 124.65 33.1186 125.17 34.544C125.69 35.9695 125.879 37.4949 125.723 39.0046Z" fill="white"/>
<path d="M125.724 39.0043C125.536 40.8443 124.844 42.5963 123.724 44.0664C123.176 44.8099 122.516 45.4631 121.768 46.0023C121.035 46.5617 120.227 47.0138 119.368 47.3449C118.507 47.6843 117.604 47.9002 116.684 47.9862C116.223 48.0276 115.761 48.037 115.3 48.0143C114.836 48.0024 114.375 47.9541 113.92 47.87C112.081 47.5311 110.373 46.6859 108.988 45.4291L109.104 45.4652L104.124 46.2307L103.76 46.2868L103.944 45.9662L106.424 41.6376V41.8099C105.838 40.3781 105.59 38.8306 105.696 37.2871C105.803 35.7436 106.263 34.2453 107.04 32.9081C107.815 31.5751 108.882 30.4352 110.16 29.5735C111.435 28.7232 112.886 28.1733 114.404 27.9651C115.922 27.7569 117.467 27.8956 118.924 28.3711C120.365 28.8624 121.678 29.6703 122.768 30.7358C123.855 31.7986 124.686 33.0956 125.198 34.5282C125.71 35.9609 125.89 37.4916 125.724 39.0043ZM125.724 39.0043C125.885 37.4991 125.699 35.9768 125.181 34.5549C124.662 33.1331 123.824 31.8497 122.731 30.8039C121.639 29.7581 120.321 28.9778 118.88 28.5233C117.439 28.0688 115.913 27.9523 114.42 28.1827C112.941 28.4019 111.533 28.9587 110.304 29.8099C109.085 30.6679 108.066 31.7811 107.32 33.0725C106.584 34.3667 106.151 35.8109 106.052 37.2969C105.954 38.7929 106.195 40.2917 106.756 41.6816L106.792 41.7698L106.744 41.854L104.232 46.1666L104.056 45.9021L109.048 45.2007H109.116L109.164 45.2447C110.498 46.4892 112.152 47.3372 113.94 47.6936C114.385 47.7846 114.837 47.8395 115.292 47.858C115.746 47.89 116.201 47.89 116.656 47.858C117.566 47.7844 118.463 47.5862 119.32 47.2688C120.178 46.9555 120.987 46.518 121.72 45.9702C122.465 45.4354 123.126 44.7908 123.68 44.0584C124.814 42.5954 125.522 40.8459 125.724 39.0043Z" fill="#263238"/>
<path d="M110.936 42.6233C110.928 42.4906 110.948 42.3578 110.993 42.233C111.039 42.1082 111.11 41.9942 111.201 41.898C111.293 41.8018 111.403 41.7254 111.525 41.6737C111.648 41.622 111.779 41.596 111.912 41.5973C112.183 41.5973 112.444 41.7054 112.636 41.8978C112.828 42.0902 112.936 42.3512 112.936 42.6233C112.936 42.8955 112.828 43.1564 112.636 43.3489C112.444 43.5413 112.183 43.6494 111.912 43.6494C111.779 43.6507 111.648 43.6247 111.525 43.573C111.403 43.5212 111.293 43.4449 111.201 43.3487C111.11 43.2525 111.039 43.1384 110.993 43.0137C110.948 42.8889 110.928 42.756 110.936 42.6233ZM111.336 40.2546L111.104 32.3027H112.704L112.472 40.2546H111.336Z" fill="#0043A5"/>
<path d="M114.74 42.6233C114.732 42.491 114.752 42.3585 114.797 42.234C114.843 42.1095 114.913 41.9956 115.004 41.8995C115.096 41.8033 115.205 41.7269 115.327 41.6749C115.449 41.6229 115.58 41.5965 115.712 41.5973C115.984 41.5973 116.244 41.7054 116.436 41.8978C116.628 42.0902 116.736 42.3512 116.736 42.6233C116.736 42.8955 116.628 43.1564 116.436 43.3489C116.244 43.5413 115.984 43.6494 115.712 43.6494C115.58 43.6502 115.449 43.6237 115.327 43.5718C115.205 43.5198 115.096 43.4434 115.004 43.3472C114.913 43.2511 114.843 43.1372 114.797 43.0127C114.752 42.8882 114.732 42.7557 114.74 42.6233ZM115.14 40.2546L114.92 32.3027H116.52L116.288 40.2546H115.14Z" fill="#0043A5"/>
<path d="M118.54 42.6233C118.532 42.4906 118.552 42.3578 118.598 42.233C118.643 42.1082 118.714 41.9942 118.806 41.898C118.897 41.8018 119.007 41.7254 119.13 41.6737C119.252 41.622 119.383 41.596 119.516 41.5973C119.788 41.5973 120.048 41.7054 120.24 41.8978C120.432 42.0902 120.54 42.3512 120.54 42.6233C120.54 42.8955 120.432 43.1564 120.24 43.3489C120.048 43.5413 119.788 43.6494 119.516 43.6494C119.383 43.6507 119.252 43.6247 119.13 43.573C119.007 43.5212 118.897 43.4449 118.806 43.3487C118.714 43.2525 118.643 43.1384 118.598 43.0137C118.552 42.8889 118.532 42.756 118.54 42.6233ZM118.94 40.2546L118.708 32.3027H120.308L120.08 40.2546H118.94Z" fill="#0043A5"/>
</svg>
