<svg width="500" height="500" viewBox="0 0 500 500" fill="none" xmlns="http://www.w3.org/2000/svg">
<path d="M263.5 480C386.383 480 486 474.851 486 468.5C486 462.149 386.383 457 263.5 457C140.617 457 41 462.149 41 468.5C41 474.851 140.617 480 263.5 480Z" fill="#F5F5F5"/>
<path d="M334 34.5791C334 34.5791 256.6 7.05912 180.63 50.8791C104.66 94.6991 66.3 181.669 33.38 251.339C0.459974 321.009 19.38 391.889 77.38 424.199C135.38 456.509 174.81 408.879 256.17 406.559C337.53 404.239 359.44 415.869 427 369.909C494.56 323.949 506.71 215.399 453.46 135.089C400.21 54.7791 334 34.5791 334 34.5791Z" fill="#92E3A9"/>
<path opacity="0.7" d="M334 34.5791C334 34.5791 256.6 7.05912 180.63 50.8791C104.66 94.6991 66.3 181.669 33.38 251.339C0.459974 321.009 19.38 391.889 77.38 424.199C135.38 456.509 174.81 408.879 256.17 406.559C337.53 404.239 359.44 415.869 427 369.909C494.56 323.949 506.71 215.399 453.46 135.089C400.21 54.7791 334 34.5791 334 34.5791Z" fill="white"/>
<path d="M50.6567 287C50.6567 287 52.5167 290.53 50.8667 293.84C49.2167 297.15 47.1367 300.47 48.3767 302.13C49.6167 303.79 53.3767 305.86 52.9367 309.38C52.4967 312.9 47.5467 319.95 50.6567 323.89C53.7667 327.83 58.9467 327.62 59.1567 331.97C59.3667 336.32 54.1567 339.84 55.6267 343.78C57.0967 347.72 65.6267 348.55 65.6267 351.24C65.6267 353.93 62.3067 356.84 65.0067 359.74C67.7067 362.64 80.7267 370.21 82.5467 367.1C84.3667 363.99 88.1667 355.39 85.6967 343.18C85.2767 341.13 82.3567 340.67 81.9467 337.77C81.5367 334.87 82.7767 329.69 80.7067 326.77C78.6367 323.85 71.9967 322.83 71.5867 320.55C71.1767 318.27 74.0667 312.68 71.1667 309.16C68.2667 305.64 61.4267 304 61.4267 301.7C61.4267 299.4 63.5067 296.52 60.6067 293.41C57.7067 290.3 50.6567 287 50.6567 287Z" fill="#92E3A9"/>
<path d="M60.5767 311.42C64.8967 324.42 72.4567 342.09 75.5267 350.62C79.2567 360.98 82.5267 368.48 84.1567 378.84C85.7867 389.2 86.7267 458.59 86.7267 458.59" stroke="#263238" stroke-linecap="round" stroke-linejoin="round"/>
<path d="M51.7266 288.25C51.7266 288.25 55.2466 291.15 58.3566 303.79C58.5566 304.6 58.7866 305.46 59.0366 306.37" stroke="#263238" stroke-linecap="round" stroke-linejoin="round"/>
<path d="M115.427 310.609C115.005 311.457 114.773 312.386 114.745 313.332C114.717 314.278 114.895 315.219 115.267 316.089C116.587 318.739 118.267 321.389 117.267 322.719C116.267 324.049 113.267 325.719 113.617 328.519C113.967 331.319 117.927 336.979 115.437 340.129C112.947 343.279 108.807 343.129 108.637 346.599C108.467 350.069 112.637 352.899 111.457 356.049C110.277 359.199 103.457 359.869 103.457 362.049C103.457 364.229 106.117 366.529 103.957 368.849C101.797 371.169 91.3969 377.199 89.9069 374.699C88.4169 372.199 85.4169 365.329 87.3869 355.559C87.7169 353.919 90.0569 353.559 90.3869 351.229C90.7169 348.899 89.7269 344.759 91.3869 342.439C93.0469 340.119 98.3869 339.289 98.6769 337.439C98.9669 335.589 96.6769 331.139 99.0069 328.319C101.337 325.499 106.807 324.169 106.807 322.319C106.807 320.469 105.147 318.169 107.467 315.679C109.787 313.189 115.427 310.609 115.427 310.609Z" fill="#92E3A9"/>
<path d="M107.487 330.15C104.037 340.58 97.9866 354.7 95.4866 361.52C92.4866 369.82 89.9066 375.82 88.5866 384.11C87.2666 392.4 86.5366 447.93 86.5366 447.93" stroke="#263238" stroke-linecap="round" stroke-linejoin="round"/>
<path d="M114.597 311.609C114.597 311.609 111.777 313.929 109.297 324.049C109.137 324.699 108.947 325.389 108.747 326.109" stroke="#263238" stroke-linecap="round" stroke-linejoin="round"/>
<path d="M58.4069 357.57C58.7579 358.277 58.9521 359.051 58.9763 359.84C59.0004 360.629 58.854 361.413 58.5469 362.14C57.4369 364.36 56.0469 366.57 56.8769 367.68C57.7069 368.79 60.2069 370.18 59.9269 372.53C59.6469 374.88 56.3269 379.6 58.4069 382.23C60.4869 384.86 63.9469 384.72 64.0869 387.63C64.2269 390.54 60.7269 392.9 61.7269 395.53C62.7269 398.16 68.3769 398.72 68.3769 400.53C68.3769 402.34 66.1669 404.27 67.9669 406.21C69.7669 408.15 78.4769 413.21 79.7269 411.13C80.9769 409.05 83.4869 403.3 81.8269 395.13C81.5569 393.76 79.6069 393.45 79.3269 391.51C79.0469 389.57 79.8769 386.11 78.4969 384.17C77.1169 382.23 72.6769 381.54 72.3969 380.01C72.1169 378.48 74.0569 374.75 72.1169 372.39C70.1769 370.03 65.6069 368.93 65.6069 367.39C65.6069 365.85 66.9969 363.92 65.0569 361.84C63.1169 359.76 58.4069 357.57 58.4069 357.57Z" fill="#92E3A9"/>
<path d="M65.0366 373.9C67.9266 382.61 72.9766 394.4 75.0366 400.1C77.5366 407.03 79.7066 412.1 80.8066 418.97C81.9066 425.84 82.5266 451.61 82.5266 451.61" stroke="#263238" stroke-linecap="round" stroke-linejoin="round"/>
<path d="M59.0967 358.4C59.0967 358.4 61.4567 360.34 63.5267 368.79C63.6667 369.34 63.8167 369.91 63.9867 370.51" stroke="#263238" stroke-linecap="round" stroke-linejoin="round"/>
<path d="M129.727 354.119C129.221 354.726 128.854 355.436 128.65 356.199C128.447 356.963 128.411 357.761 128.547 358.539C129.117 360.949 129.967 363.419 128.897 364.309C127.827 365.199 125.097 365.979 124.827 368.309C124.557 370.639 126.717 376.009 124.087 378.099C121.457 380.189 118.087 379.249 117.317 382.099C116.547 384.949 119.317 387.979 117.807 390.319C116.297 392.659 110.607 391.899 110.187 393.659C109.767 395.419 111.497 397.799 109.297 399.279C107.097 400.759 97.4967 403.699 96.7267 401.369C95.9567 399.039 94.8667 392.889 98.3367 385.319C98.9267 384.049 100.897 384.199 101.607 382.369C102.317 380.539 102.307 376.989 104.097 375.419C105.887 373.849 110.367 374.179 110.987 372.759C111.607 371.339 110.567 367.259 112.987 365.409C115.407 363.559 120.117 363.529 120.467 362.039C120.817 360.549 119.907 358.359 122.277 356.779C124.647 355.199 129.727 354.119 129.727 354.119Z" fill="#92E3A9"/>
<path d="M119.577 368.49C114.777 376.31 107.157 386.64 103.857 391.72C99.8565 397.89 95.0265 401.84 93.9165 408.77C92.8065 415.7 92.2065 441.41 92.2065 441.41" stroke="#263238" stroke-linecap="round" stroke-linejoin="round"/>
<path d="M128.907 354.77C128.907 354.77 126.167 356.12 122.217 363.87C121.957 364.37 121.677 364.87 121.367 365.44" stroke="#263238" stroke-linecap="round" stroke-linejoin="round"/>
<path d="M80.5566 466.401H95.9666C104.077 462.221 109.837 451.641 109.837 439.231C109.968 431.791 107.696 424.506 103.357 418.461H73.1666C68.8417 424.511 66.5833 431.795 66.7266 439.231C66.7266 451.641 72.4466 462.221 80.5566 466.401Z" fill="white" stroke="#263238" stroke-linecap="round" stroke-linejoin="round"/>
<path d="M96.2466 466.4H80.5566V468.7H96.2466V466.4Z" fill="white" stroke="#263238" stroke-linecap="round" stroke-linejoin="round"/>
<path d="M300.38 75H54.7402V260.92H300.38V75Z" stroke="#263238" stroke-linecap="round" stroke-linejoin="round"/>
<path d="M294.64 79.9297H60.4702V256H294.64V79.9297Z" stroke="#263238" stroke-linecap="round" stroke-linejoin="round"/>
<path d="M131.85 105.769C131.85 105.769 93.5904 102.999 90.3704 108.999C87.1504 114.999 89.4404 224.699 91.2904 226.079C93.1404 227.459 144.76 228.379 149.83 226.539C154.9 224.699 148 113.139 148 109.909C148 106.679 136 105.299 136 105.299" stroke="#263238" stroke-width="2" stroke-linecap="round" stroke-linejoin="round"/>
<path d="M94.3203 196.57C94.4003 211.03 94.7103 221.63 95.4403 221.92C97.7403 222.84 146.6 226.99 147.98 222.38C149.36 217.77 144.29 113.6 144.29 113.6" stroke="#263238" stroke-width="2" stroke-linecap="round" stroke-linejoin="round"/>
<path d="M142.45 113.14C142.45 113.14 95.9001 111.3 95.4501 113.6C95.1501 115.07 94.3001 158.26 94.3101 189.66" stroke="#263238" stroke-width="2" stroke-linecap="round" stroke-linejoin="round"/>
<path d="M96.8203 121.439H141.99" stroke="#263238" stroke-width="2" stroke-linecap="round" stroke-linejoin="round"/>
<path d="M137.84 119.351C135.08 122.271 137.84 119.351 139.69 115.181C141.54 111.011 137.84 116.011 133.69 119.351C129.54 122.691 131.85 120.191 133.23 115.601C134.61 111.011 131.85 115.601 128.16 118.521C124.47 121.441 126.32 120.191 127.7 115.181C129.08 110.171 127.7 115.181 122.17 118.521C116.64 121.861 119.4 121.851 122.17 116.851C124.94 111.851 120.33 116.851 115.26 118.521C110.19 120.191 115.26 118.521 117.1 113.931C118.94 109.341 113.87 115.181 110.19 117.681C106.51 120.181 110.19 117.681 111.11 114.761C112.03 111.841 108.8 115.601 105.11 119.351C101.42 123.101 105.11 119.351 105.57 116.011C106.03 112.671 101.42 121.441 101.42 121.441C101.42 121.441 102.8 113.091 101.88 115.181C101.267 116.521 100.491 117.78 99.5703 118.931" stroke="#92E3A9" stroke-width="2" stroke-linecap="round" stroke-linejoin="round"/>
<path d="M121.71 129.27H99.1201V152.78H121.71V129.27Z" stroke="#92E3A9" stroke-width="2" stroke-linecap="round" stroke-linejoin="round"/>
<path d="M103.73 129.27L100.05 133.42L107.88 130.66L100.05 138.03L112.95 129.73L100.05 143.56L117.56 130.66L99.1201 147.71L121.25 132.5L99.1201 152.78L121.25 138.03L105.58 151.86L121.71 143.1L111.57 151.4L121.25 148.17L119.4 151.4" stroke="#92E3A9" stroke-width="2" stroke-linecap="round" stroke-linejoin="round"/>
<path d="M141.18 201.18H123.91V219.16H141.18V201.18Z" stroke="#92E3A9" stroke-width="2" stroke-linecap="round" stroke-linejoin="round"/>
<path d="M127.43 201.18L124.61 204.35L130.6 202.24L124.61 207.88L134.48 201.53L124.61 212.11L138 202.24L123.91 215.28L140.82 203.65L123.91 219.16L140.82 207.88L128.84 218.45L141.18 211.75L133.42 218.1L140.82 215.63L139.41 218.1" stroke="#92E3A9" stroke-width="2" stroke-linecap="round" stroke-linejoin="round"/>
<path d="M98.6602 161.539H142.91" stroke="#263238" stroke-width="2" stroke-linecap="round" stroke-linejoin="round"/>
<path d="M98.2002 165.689L141.99 166.149" stroke="#263238" stroke-width="2" stroke-linecap="round" stroke-linejoin="round"/>
<path d="M126.32 130.66H140.61" stroke="#263238" stroke-width="2" stroke-linecap="round" stroke-linejoin="round"/>
<path d="M126.32 136.189H140.61" stroke="#263238" stroke-width="2" stroke-linecap="round" stroke-linejoin="round"/>
<path d="M126.32 141.721H140.61" stroke="#263238" stroke-width="2" stroke-linecap="round" stroke-linejoin="round"/>
<path d="M126.32 147.25H140.61" stroke="#263238" stroke-width="2" stroke-linecap="round" stroke-linejoin="round"/>
<path d="M141.99 168.449H99.1201V189.189H141.99V168.449Z" stroke="#92E3A9" stroke-width="2" stroke-linecap="round" stroke-linejoin="round"/>
<path d="M98.6602 172.599L104.65 168.909L97.7402 179.509L109.26 168.909L99.1202 184.129L117.1 168.449L101.43 186.889L120.79 168.909L106.04 186.889L127.24 168.449L110.19 188.729L131.39 168.909L115.26 187.809L136.92 168.449L120.33 188.729L141.99 168.449L126.32 188.269L141.07 175.369L131.39 187.349L141.07 180.899L139.17 183.979L137.38 186.889" stroke="#92E3A9" stroke-width="2" stroke-linecap="round" stroke-linejoin="round"/>
<path d="M100.97 194.73H140.61" stroke="#263238" stroke-width="2" stroke-linecap="round" stroke-linejoin="round"/>
<path d="M100.05 199.801H112.95" stroke="#263238" stroke-width="2" stroke-linecap="round" stroke-linejoin="round"/>
<path d="M149.83 115.91L181.47 112.02" stroke="#263238" stroke-width="2" stroke-linecap="round" stroke-linejoin="round"/>
<path d="M144.76 138.49H177.94" stroke="#263238" stroke-width="2" stroke-linecap="round" stroke-linejoin="round"/>
<path d="M92.2104 180.439L77.9204 185.509" stroke="#263238" stroke-width="2" stroke-linecap="round" stroke-linejoin="round"/>
<path d="M132.77 222.381C132.77 222.381 130.01 236.671 148.9 240.381" stroke="#263238" stroke-width="2" stroke-linecap="round" stroke-linejoin="round"/>
<path d="M146.14 236.67L150.75 240.82L144.29 242.66" stroke="#263238" stroke-width="2" stroke-linecap="round" stroke-linejoin="round"/>
<path d="M173.79 134.34L181.17 138.95L174.72 141.72" stroke="#263238" stroke-width="2" stroke-linecap="round" stroke-linejoin="round"/>
<path d="M175.48 110.641L183.31 111.561L177.78 116.631" stroke="#263238" stroke-width="2" stroke-linecap="round" stroke-linejoin="round"/>
<path d="M79.7602 180.9L71.9302 187.35L81.6102 187.81" stroke="#263238" stroke-width="2" stroke-linecap="round" stroke-linejoin="round"/>
<path d="M200.99 134.34H183.47V152.78H200.99V134.34Z" fill="#92E3A9"/>
<path d="M187.62 138.49L197.76 138.95" stroke="#263238" stroke-width="2" stroke-linecap="round" stroke-linejoin="round"/>
<path d="M187.62 142.18L197.76 142.64" stroke="#263238" stroke-width="2" stroke-linecap="round" stroke-linejoin="round"/>
<path d="M187.62 145.869L197.76 146.329" stroke="#263238" stroke-width="2" stroke-linecap="round" stroke-linejoin="round"/>
<path d="M173.129 159.185L155.729 161.238L157.89 179.551L175.29 177.498L173.129 159.185Z" fill="#92E3A9"/>
<path d="M160.33 164.88L170.45 164.15" stroke="#263238" stroke-width="2" stroke-linecap="round" stroke-linejoin="round"/>
<path d="M160.76 168.541L170.88 167.811" stroke="#263238" stroke-width="2" stroke-linecap="round" stroke-linejoin="round"/>
<path d="M161.19 172.201L171.32 171.471" stroke="#263238" stroke-width="2" stroke-linecap="round" stroke-linejoin="round"/>
<path d="M82.3373 190.529L64.938 192.582L67.099 210.895L84.4983 208.842L82.3373 190.529Z" fill="#92E3A9"/>
<path d="M69.52 196.22L79.65 195.49" stroke="#263238" stroke-width="2" stroke-linecap="round" stroke-linejoin="round"/>
<path d="M69.9502 199.89L80.0802 199.16" stroke="#263238" stroke-width="2" stroke-linecap="round" stroke-linejoin="round"/>
<path d="M70.3901 203.55L80.5101 202.82" stroke="#263238" stroke-width="2" stroke-linecap="round" stroke-linejoin="round"/>
<path d="M172.866 228.896L155.444 227.043L153.494 245.38L170.916 247.232L172.866 228.896Z" fill="#92E3A9"/>
<path d="M159.15 231.6L169.18 233.13" stroke="#263238" stroke-width="2" stroke-linecap="round" stroke-linejoin="round"/>
<path d="M158.76 235.27L168.79 236.8" stroke="#263238" stroke-width="2" stroke-linecap="round" stroke-linejoin="round"/>
<path d="M158.37 238.939L168.4 240.469" stroke="#263238" stroke-width="2" stroke-linecap="round" stroke-linejoin="round"/>
<path d="M300.37 260.92H54.7402V267.2H300.37V260.92Z" fill="#263238" stroke="#263238" stroke-linecap="round" stroke-linejoin="round"/>
<path d="M398.94 305.931V294.211H363.67V305.931C363.666 309.77 362.342 313.492 359.92 316.471L358.38 318.381H404.23L402.69 316.471C400.267 313.492 398.943 309.77 398.94 305.931Z" fill="#263238" stroke="#263238" stroke-linecap="round" stroke-linejoin="round"/>
<path d="M396.94 305.931V294.211H361.67V305.931C361.666 309.77 360.342 313.492 357.92 316.471L356.38 318.381H402.23L400.69 316.471C398.267 313.492 396.943 309.77 396.94 305.931Z" fill="white" stroke="#263238" stroke-linecap="round" stroke-linejoin="round"/>
<path d="M397.22 297.521H361.81V301.111H397.22V297.521Z" fill="#263238"/>
<path d="M441.7 193.811H316.9C312.217 193.811 308.42 197.607 308.42 202.291V289.421C308.42 294.104 312.217 297.901 316.9 297.901H441.7C446.383 297.901 450.18 294.104 450.18 289.421V202.291C450.18 197.607 446.383 193.811 441.7 193.811Z" fill="#263238" stroke="#263238" stroke-linecap="round" stroke-linejoin="round"/>
<path d="M445.51 193.811H320.71C316.027 193.811 312.23 197.607 312.23 202.291V289.421C312.23 294.104 316.027 297.901 320.71 297.901H445.51C450.193 297.901 453.99 294.104 453.99 289.421V202.291C453.99 197.607 450.193 193.811 445.51 193.811Z" fill="#263238" stroke="#263238" stroke-linecap="round" stroke-linejoin="round"/>
<path d="M308.42 281.721H450.19V289.421C450.19 291.67 449.296 293.827 447.706 295.417C446.116 297.007 443.959 297.901 441.71 297.901H316.91C314.661 297.901 312.504 297.007 310.914 295.417C309.323 293.827 308.43 291.67 308.43 289.421V281.721H308.42Z" fill="white" stroke="#263238" stroke-linecap="round" stroke-linejoin="round"/>
<path d="M443.05 200.291H315.55V273.831H443.05V200.291Z" fill="white"/>
<path d="M359.92 207.951H334.84C333.161 207.951 331.8 209.312 331.8 210.991V262.791C331.8 264.47 333.161 265.831 334.84 265.831H359.92C361.599 265.831 362.96 264.47 362.96 262.791V210.991C362.96 209.312 361.599 207.951 359.92 207.951Z" fill="#263238"/>
<path d="M360.35 212.801H334.42V260.961H360.35V212.801Z" fill="#92E3A9"/>
<path d="M394.53 213.611H371.06V216.041H394.53V213.611Z" fill="#263238"/>
<path d="M382.4 218.881H371.47V230.211H382.4V218.881Z" fill="#92E3A9"/>
<path d="M392.91 253.68H387.06V259.75H392.91V253.68Z" fill="#92E3A9"/>
<path d="M394 238.301H371.74V249.631H394V238.301Z" fill="#92E3A9"/>
<path d="M384.42 219.691H393.32" stroke="#263238" stroke-linecap="round" stroke-linejoin="round"/>
<path d="M384.42 222.521H393.32" stroke="#263238" stroke-linecap="round" stroke-linejoin="round"/>
<path d="M384.42 225.35H393.32" stroke="#263238" stroke-linecap="round" stroke-linejoin="round"/>
<path d="M384.42 228.18H393.32" stroke="#263238" stroke-linecap="round" stroke-linejoin="round"/>
<path d="M372.14 234.66H393.59" stroke="#263238" stroke-linecap="round" stroke-linejoin="round"/>
<path d="M372.14 252.471H393.59" stroke="#263238" stroke-linecap="round" stroke-linejoin="round"/>
<path d="M396.56 211.191H369.04V262.191H396.56V211.191Z" stroke="#263238" stroke-linecap="round" stroke-linejoin="round"/>
<path d="M430.15 211.191H404.25V230.211H430.15V211.191Z" fill="#BFBFBF"/>
<path d="M430.15 211.191H404.25V215.241H430.15V211.191Z" fill="#263238"/>
<path d="M413.03 218.18H406.26V224.73H413.03V218.18Z" stroke="#263238" stroke-linecap="round" stroke-linejoin="round"/>
<path d="M426.57 218.18H419.8V224.73H426.57V218.18Z" stroke="#263238" stroke-linecap="round" stroke-linejoin="round"/>
<path d="M427.66 213.49C427.66 213.688 427.601 213.881 427.492 214.046C427.382 214.21 427.226 214.338 427.043 214.414C426.86 214.49 426.659 214.51 426.465 214.471C426.271 214.432 426.093 214.337 425.953 214.197C425.813 214.057 425.718 213.879 425.679 213.685C425.641 213.491 425.661 213.29 425.736 213.108C425.812 212.925 425.94 212.769 426.105 212.659C426.269 212.549 426.462 212.49 426.66 212.49C426.925 212.49 427.18 212.596 427.367 212.783C427.555 212.971 427.66 213.225 427.66 213.49Z" fill="white"/>
<path d="M421.98 214.47C422.521 214.47 422.96 214.031 422.96 213.49C422.96 212.949 422.521 212.51 421.98 212.51C421.439 212.51 421 212.949 421 213.49C421 214.031 421.439 214.47 421.98 214.47Z" fill="white"/>
<path d="M428.08 240.521H408.25V255.091H428.08V240.521Z" fill="#BFBFBF"/>
<path d="M428.08 240.521H408.25V243.621H428.08V240.521Z" fill="#263238"/>
<path d="M426.18 242.281C426.182 242.432 426.139 242.58 426.057 242.706C425.975 242.832 425.857 242.931 425.718 242.99C425.579 243.05 425.426 243.066 425.278 243.038C425.13 243.01 424.994 242.938 424.886 242.832C424.779 242.726 424.706 242.591 424.676 242.443C424.645 242.296 424.66 242.142 424.717 242.003C424.774 241.863 424.872 241.744 424.997 241.66C425.122 241.576 425.269 241.531 425.42 241.531C425.62 241.531 425.812 241.61 425.954 241.75C426.096 241.891 426.177 242.081 426.18 242.281Z" fill="white"/>
<path d="M422.58 242.281C422.58 242.48 422.501 242.671 422.36 242.812C422.22 242.952 422.029 243.031 421.83 243.031C421.631 243.031 421.44 242.952 421.3 242.812C421.159 242.671 421.08 242.48 421.08 242.281C421.08 242.082 421.159 241.892 421.3 241.751C421.44 241.61 421.631 241.531 421.83 241.531C422.029 241.531 422.22 241.61 422.36 241.751C422.501 241.892 422.58 242.082 422.58 242.281Z" fill="white"/>
<path d="M328.08 204.15H319.75V269.48H328.08V204.15Z" fill="#BFBFBF"/>
<path d="M328.08 204.15H319.75V207.15H328.08V204.15Z" fill="#263238"/>
<path d="M325.75 209.15H321.75V213.82H325.75V209.15Z" stroke="#263238" stroke-linecap="round" stroke-linejoin="round"/>
<path d="M325.75 216.811H321.75V221.481H325.75V216.811Z" stroke="#263238" stroke-linecap="round" stroke-linejoin="round"/>
<path d="M325.75 224.48H321.75V229.15H325.75V224.48Z" stroke="#263238" stroke-linecap="round" stroke-linejoin="round"/>
<path d="M325.75 232.15H321.75V236.82H325.75V232.15Z" stroke="#263238" stroke-linecap="round" stroke-linejoin="round"/>
<path d="M325.75 239.811H321.75V244.481H325.75V239.811Z" stroke="#263238" stroke-linecap="round" stroke-linejoin="round"/>
<path d="M325.75 247.48H321.75V252.15H325.75V247.48Z" stroke="#263238" stroke-linecap="round" stroke-linejoin="round"/>
<path d="M325.75 255.15H321.75V259.82H325.75V255.15Z" stroke="#263238" stroke-linecap="round" stroke-linejoin="round"/>
<path d="M325.75 262.811H321.75V267.481H325.75V262.811Z" stroke="#263238" stroke-linecap="round" stroke-linejoin="round"/>
<path d="M439.42 203.48H333.42V206.15H439.42V203.48Z" fill="#BFBFBF"/>
<path d="M439.42 268.15H333.42V270.82H439.42V268.15Z" fill="#BFBFBF"/>
<path d="M402.24 318.381H356.38V320.471H402.24V318.381Z" fill="#263238" stroke="#263238" stroke-linecap="round" stroke-linejoin="round"/>
<path d="M432.22 316.67H325.75V320.47H432.22V316.67Z" fill="white" stroke="#263238" stroke-linecap="round" stroke-linejoin="round"/>
<path d="M230.34 465H226.01L223.84 332.33H232.51L230.34 465Z" fill="white" stroke="#263238" stroke-linecap="round" stroke-linejoin="round"/>
<path d="M230.34 465H228.43L228.69 332.33H232.51L230.34 465Z" fill="#263238" stroke="#263238" stroke-linecap="round" stroke-linejoin="round"/>
<path d="M292.07 465H287.74L285.57 332.33H294.24L292.07 465Z" fill="white" stroke="#263238" stroke-linecap="round" stroke-linejoin="round"/>
<path d="M292.07 465H290.16L290.42 332.33H294.24L292.07 465Z" fill="#263238" stroke="#263238" stroke-linecap="round" stroke-linejoin="round"/>
<path d="M269.97 465H265.63L263.47 332.33H272.13L269.97 465Z" fill="#263238" stroke="#263238" stroke-linecap="round" stroke-linejoin="round"/>
<path d="M269.97 465H268.06L268.31 332.33H272.13L269.97 465Z" fill="#263238" stroke="#263238" stroke-linecap="round" stroke-linejoin="round"/>
<path d="M311.68 465H307.34L305.18 332.33H313.84L311.68 465Z" fill="#263238" stroke="#263238" stroke-linecap="round" stroke-linejoin="round"/>
<path d="M311.68 465H309.76L310.02 332.33H313.84L311.68 465Z" fill="#263238" stroke="#263238" stroke-linecap="round" stroke-linejoin="round"/>
<path d="M314.93 334.359H246.95V417.359H314.93V334.359Z" fill="#263238" stroke="#263238" stroke-linecap="round" stroke-linejoin="round"/>
<path d="M296.16 334.359H228.18V417.359H296.16V334.359Z" fill="white" stroke="#263238" stroke-linecap="round" stroke-linejoin="round"/>
<path d="M433.46 465H429.13L426.96 332.33H435.63L433.46 465Z" fill="white" stroke="#263238" stroke-linecap="round" stroke-linejoin="round"/>
<path d="M433.46 465H431.55L431.81 332.33H435.63L433.46 465Z" fill="#263238" stroke="#263238" stroke-linecap="round" stroke-linejoin="round"/>
<path d="M473.09 465H468.75L466.59 332.33H475.25L473.09 465Z" fill="#263238" stroke="#263238" stroke-linecap="round" stroke-linejoin="round"/>
<path d="M473.09 465H471.18L471.43 332.33H475.25L473.09 465Z" fill="#263238" stroke="#263238" stroke-linecap="round" stroke-linejoin="round"/>
<path d="M477.99 327.33H218.13V336.46H477.99V327.33Z" fill="white" stroke="#263238" stroke-linecap="round" stroke-linejoin="round"/>
<path d="M477.99 327.33H218.13V331.89H477.99V327.33Z" fill="#263238" stroke="#263238" stroke-linecap="round" stroke-linejoin="round"/>
<path d="M477.99 327.33H439.63V336.46H477.99V327.33Z" fill="#263238" stroke="#263238" stroke-linecap="round" stroke-linejoin="round"/>
<path d="M486.39 320H211.08V329.13H486.39V320Z" fill="white" stroke="#263238" stroke-linecap="round" stroke-linejoin="round"/>
<path d="M486.39 320H448.03V329.13H486.39V320Z" fill="#263238" stroke="#263238" stroke-linecap="round" stroke-linejoin="round"/>
<path d="M292 342.33H232.5V371.33H292V342.33Z" fill="white" stroke="#263238" stroke-linecap="round" stroke-linejoin="round"/>
<path d="M268.75 353.83H255.75V358.33H268.75V353.83Z" fill="#263238" stroke="#263238" stroke-linecap="round" stroke-linejoin="round"/>
<path d="M292 378.83H232.5V407.83H292V378.83Z" fill="white" stroke="#263238" stroke-linecap="round" stroke-linejoin="round"/>
<path d="M268.75 390.33H255.75V394.83H268.75V390.33Z" fill="#263238" stroke="#263238" stroke-linecap="round" stroke-linejoin="round"/>
<path d="M383.59 387.471H401.37V351.711H383.59V387.471Z" fill="#263238"/>
<path d="M388.04 424.291H396.93V374.771H388.04V424.291Z" fill="#263238"/>
<path d="M396.1 420.48C396.1 420.48 403.57 428.96 422.77 431.91C432.91 433.47 443.47 435.41 452.63 440.26C458.52 443.38 470.25 450.21 470.25 458.01C470.259 459.156 469.987 460.286 469.458 461.302C468.928 462.318 468.157 463.188 467.213 463.837C466.268 464.485 465.179 464.892 464.041 465.021C462.903 465.151 461.75 464.999 460.684 464.579C459.618 464.159 458.672 463.484 457.928 462.613C457.184 461.742 456.665 460.701 456.417 459.583C456.168 458.464 456.199 457.302 456.504 456.198C456.81 455.094 457.382 454.082 458.17 453.25C453.374 446.035 445.937 440.99 437.46 439.2C422.86 436.02 412.2 437.32 391.66 423.66L396.1 420.48Z" fill="#263238"/>
<path d="M389.75 420.48C389.75 420.48 382.28 428.96 363.08 431.91C352.94 433.47 342.38 435.41 333.22 440.26C327.32 443.38 315.6 450.21 315.6 458.01C315.589 459.157 315.86 460.289 316.389 461.306C316.918 462.323 317.689 463.195 318.634 463.845C319.579 464.494 320.669 464.902 321.808 465.032C322.947 465.161 324.101 465.009 325.168 464.589C326.234 464.168 327.181 463.492 327.926 462.619C328.67 461.747 329.188 460.705 329.435 459.585C329.682 458.465 329.65 457.302 329.343 456.198C329.035 455.093 328.46 454.081 327.67 453.25C332.469 446.037 339.904 440.993 348.38 439.2C362.99 436.02 373.65 437.32 394.19 423.66L389.75 420.48Z" fill="#263238"/>
<path d="M389.45 465H396.16C396.524 465 396.82 464.705 396.82 464.34V452.54C396.82 452.176 396.524 451.88 396.16 451.88H389.45C389.085 451.88 388.79 452.176 388.79 452.54V464.34C388.79 464.705 389.085 465 389.45 465Z" fill="#263238"/>
<path d="M390.9 465H394.71V421.67H390.9V465Z" fill="#263238"/>
<path d="M435.54 248.461C433.32 260.299 431.983 272.285 431.54 284.321C431.25 293.601 431.1 301.551 430.96 308.561C430.54 330.351 430.3 342.431 426.87 345.681C426.43 345.981 423.59 347.731 417.65 348.231C415.99 348.371 410.71 348.441 403.53 348.481C380.76 348.411 356.83 348.221 356.45 348.221H355.06C355 348.221 354.95 348.331 354.9 348.381C341.22 348.301 337.7 348.221 337.45 348.221H336.06C333.19 350.711 334.9 353.911 337.4 353.931C339.27 353.931 371.86 354.221 394.15 354.221C398.09 354.221 401.8 354.221 405.09 354.221H420.15C431.82 354.221 441.49 354.141 444.15 353.921C452.4 353.241 456.1 350.451 456.49 350.131C461.99 345.251 462.2 334.541 462.71 308.681C462.84 301.681 463 293.741 463.28 284.501C463.73 272.414 465.1 260.379 467.38 248.501L435.54 248.461Z" fill="#263238"/>
<path d="M258.75 435.17L261 446.92C261 446.92 259 451.17 251.25 454.67C243.5 458.17 239.75 459.67 239.75 460.67C239.75 461.67 239.25 463.92 241.25 464.67C243.25 465.42 285.75 464.67 285.75 464.67C285.75 464.67 288 463.67 288 458.92C288 454.17 286 445.42 286 443.42C286 441.42 284.59 436.6 284.59 435.92C284.59 435.24 267.5 436.17 267.5 436.17C267.5 436.17 262.5 431.42 258.75 435.17Z" fill="white" stroke="#263238" stroke-linecap="round" stroke-linejoin="round"/>
<path d="M267.5 436.17C267.5 436.17 268.75 447.42 269.5 448.17C270.25 448.92 286 448.92 286 448.92" fill="white"/>
<path d="M267.5 436.17C267.5 436.17 268.75 447.42 269.5 448.17C270.25 448.92 286 448.92 286 448.92" stroke="#263238" stroke-linecap="round" stroke-linejoin="round"/>
<path d="M286 443.42L268.5 443.67" stroke="#263238" stroke-linecap="round" stroke-linejoin="round"/>
<path d="M239.75 462.67H287.5" stroke="#263238" stroke-linecap="round" stroke-linejoin="round"/>
<path d="M290 294.25C290 294.25 276.14 340.91 274.44 347.34C272.74 353.77 282.56 410.23 282.56 411.24C282.56 412.25 283.91 415.3 283.91 418.68C283.91 422.06 282.56 423.07 283.24 424.09C283.92 425.11 286.24 427.47 285.94 429.5C285.836 431.065 285.117 432.524 283.94 433.56C283.194 434.339 282.266 434.919 281.24 435.25H273.12C273.12 435.25 271.12 420.03 265.68 379.8C260.24 339.57 269.07 316.57 270.76 309.13C271.911 304.33 273.612 299.679 275.83 295.27L290 294.25Z" fill="#263238" stroke="#263238" stroke-linecap="round" stroke-linejoin="round"/>
<path d="M247.25 435.17L249.5 446.92C249.5 446.92 247.5 451.17 239.75 454.67C232 458.17 228.25 459.67 228.25 460.67C228.25 461.67 227.75 463.92 229.75 464.67C231.75 465.42 274.25 464.67 274.25 464.67C274.25 464.67 276.5 463.67 276.5 458.92C276.5 454.17 274.5 445.42 274.5 443.42C274.5 441.42 273.09 436.6 273.09 435.92C273.09 435.24 256 436.17 256 436.17C256 436.17 251 431.42 247.25 435.17Z" fill="white" stroke="#263238" stroke-linecap="round" stroke-linejoin="round"/>
<path d="M256 436.17C256 436.17 257.25 447.42 258 448.17C258.75 448.92 274.5 448.92 274.5 448.92" fill="white"/>
<path d="M256 436.17C256 436.17 257.25 447.42 258 448.17C258.75 448.92 274.5 448.92 274.5 448.92" stroke="#263238" stroke-linecap="round" stroke-linejoin="round"/>
<path d="M274.5 443.42L257 443.67" stroke="#263238" stroke-linecap="round" stroke-linejoin="round"/>
<path d="M228.25 462.67H276" stroke="#263238" stroke-linecap="round" stroke-linejoin="round"/>
<path d="M234.21 294.25C234.21 294.25 233.87 323.67 235.56 336.18C237.25 348.69 243.68 377.77 244.69 393.66C245.7 409.55 247.4 417 247.4 417C247.4 417 245 419 245 421C245 423 246.35 423 246 426.08C245.65 429.16 244.31 430.13 245.33 431.49C246.35 432.85 247.02 435.54 250.4 436.22C253.78 436.9 269.67 436.56 273.05 435.88C276.43 435.2 278.12 431.82 278.12 429.12C278.12 426.42 277.12 424.39 277.12 421.34C277.12 418.29 278.81 415.6 278.81 413.57C278.81 411.54 278.13 410.52 278.13 408.49C278.13 406.46 273.74 374.01 273.74 367.25C273.74 360.49 273.4 337.49 274.41 331.74C275.42 325.99 280.5 298.61 280.5 298.61L234.21 294.25Z" fill="#92E3A9" stroke="#263238" stroke-linecap="round" stroke-linejoin="round"/>
<path d="M255.64 304.17C259.656 305.547 263.842 306.365 268.08 306.6C271.337 306.691 274.583 306.995 277.8 307.51L279.62 299.01L255.64 304.17Z" fill="#263238" stroke="#263238" stroke-linecap="round" stroke-linejoin="round"/>
<path d="M251.93 305.629C251.93 305.629 253.59 352.089 256.93 367.579C260.27 383.069 264.67 408.509 263.57 411.829C262.47 415.149 260.8 422.889 260.8 422.889C260.8 422.889 266.89 421.789 266.89 425.099C266.89 428.409 258.04 430.639 260.25 432.299C262.46 433.959 264.66 435.779 264.66 435.779" stroke="#263238" stroke-linecap="round" stroke-linejoin="round"/>
<path d="M271.58 424.369C271.58 424.369 253.22 427.369 258.43 428.369C263.64 429.369 273.57 428.119 274.07 426.879C274.57 425.639 273.07 424.119 271.58 424.369Z" fill="#263238" stroke="#263238" stroke-linecap="round" stroke-linejoin="round"/>
<path d="M190.54 103.15L190.03 123.91L209.61 123.74L209.78 102.98L190.54 103.15Z" fill="#92E3A9"/>
<path d="M212.82 141.46C212.82 141.46 208.6 137.24 206.74 133.36C204.88 129.48 202.19 127.12 202.19 124.42C202.19 121.72 203.37 115.42 202.86 112.94C202.35 110.46 202.86 105.18 204.55 105.18C204.943 105.18 205.33 105.269 205.684 105.44C206.037 105.611 206.347 105.86 206.59 106.168C206.834 106.476 207.004 106.835 207.089 107.218C207.174 107.601 207.171 107.998 207.08 108.38C206.74 110.07 208.08 115.98 208.08 115.98C208.08 115.98 209.43 104.67 209.6 103.98C209.77 103.29 212.13 103.3 213.15 103.81C214.17 104.32 215.34 104.14 215.34 106.34C215.34 108.54 214.83 111.06 214.83 111.57C214.83 112.08 219.56 114.78 219.73 116.8C219.9 118.82 219.39 123.72 218.21 125.8C217.403 127.059 216.733 128.4 216.21 129.8C216.04 130.47 220.77 137.56 220.77 137.56L212.82 141.46Z" fill="white" stroke="#263238" stroke-linecap="round" stroke-linejoin="round"/>
<path d="M220.69 134.33L209.19 143.12C209.19 143.12 228.8 183.69 229.48 185C230.16 186.31 244.35 195.15 244.35 195.15L265.65 168.77C265.65 168.77 238.94 160.32 238.27 159.31C237.6 158.3 220.69 134.33 220.69 134.33Z" fill="#263238" stroke="#263238" stroke-linecap="round" stroke-linejoin="round"/>
<path d="M234.25 283.42L233.25 299.17C233.25 299.17 246.25 304.67 260.25 304.42C274.25 304.17 293 298.67 293 298.67L295.75 283.17C295.75 283.17 262 285.92 251.75 284.92C241.5 283.92 234.25 283.42 234.25 283.42Z" fill="white" stroke="#263238" stroke-linecap="round" stroke-linejoin="round"/>
<path d="M224.25 278.42L223.5 282.92C223.5 282.92 234.09 288.7 257.5 290.92C271.907 292.248 286.435 290.719 300.25 286.42L300.5 278.67C288.051 281.638 275.298 283.148 262.5 283.17C249.626 282.837 236.815 281.246 224.25 278.42Z" fill="#263238" stroke="#263238" stroke-linecap="round" stroke-linejoin="round"/>
<path d="M243.25 185.42C243.25 185.42 235 199.92 232.25 211.17C229.5 222.42 224 274.42 223.25 277.42C222.5 280.42 240 286.42 251.5 286.67C263 286.92 288.75 287.42 293.25 285.67C297.75 283.92 302 281.42 302 278.67C302 275.92 302.25 265.67 302.25 257.42C302.25 249.17 299.75 205.67 297.5 195.67C295.25 185.67 293.75 178.67 293 177.42C292.25 176.17 286.75 170.17 275.5 170.92C266.72 171.567 258.187 174.127 250.5 178.42C247.649 180.256 245.185 182.634 243.25 185.42Z" fill="#263238" stroke="#263238" stroke-linecap="round" stroke-linejoin="round"/>
<path d="M167.85 201.579C167.85 201.579 163.79 203.269 163.45 207.329C163.11 211.389 170.56 215.439 174.95 221.529C179.34 227.619 185.09 233.999 185.09 233.999L193.89 246.169L204.37 237.379L177.32 205.999C177.32 205.999 178.67 202.999 176.98 201.939C175.558 201.278 174.019 200.905 172.451 200.843C170.884 200.781 169.32 201.032 167.85 201.579Z" fill="white" stroke="#263238" stroke-linecap="round" stroke-linejoin="round"/>
<path d="M168.53 211.05L199 200.9C199 200.9 201 209.36 210.15 218.15C215.636 223.436 221.517 228.297 227.74 232.69L200.35 248.24L168.53 211.05Z" fill="white" stroke="#263238" stroke-linecap="round" stroke-linejoin="round"/>
<path d="M168.53 211.049C169.872 209.543 170.699 207.648 170.89 205.639C170.981 204.711 170.724 203.783 170.17 203.033C169.616 202.283 168.804 201.765 167.89 201.579L197.98 192.789C197.98 192.789 203.73 194.789 198.98 200.899L168.53 211.049Z" fill="white" stroke="#263238" stroke-linecap="round" stroke-linejoin="round"/>
<path d="M208.85 243.201C208.85 243.201 202.09 242.201 201.75 240.201C201.41 238.201 200.06 233.781 198.75 232.091C197.44 230.401 190.97 227.021 188.94 224.651C186.91 222.281 185.56 218.901 184.21 219.241C182.86 219.581 180.83 220.931 181.5 222.241C182.17 223.551 185.22 229.351 185.22 229.351L185.9 231.711C185.9 231.711 179.81 230.711 178.8 230.361C178.506 230.277 178.195 230.267 177.896 230.331C177.596 230.396 177.317 230.533 177.083 230.73C176.849 230.928 176.667 231.18 176.553 231.464C176.439 231.748 176.397 232.056 176.43 232.361C176.43 234.051 175.08 234.051 176.77 235.061C178.46 236.071 180.49 237.431 180.49 237.431C180.49 237.431 182.86 242.841 183.49 243.851C184.12 244.861 189.58 247.241 190.59 247.911C191.6 248.581 197.02 250.281 199.72 250.911C202.42 251.541 208.51 253.961 208.51 253.961L210.2 246.181L208.85 243.201Z" fill="white" stroke="#263238" stroke-linecap="round" stroke-linejoin="round"/>
<path d="M280.53 196.539C280.53 196.539 279.85 225.279 279.85 226.629C279.85 227.979 280.85 255.709 277.85 258.069C274.85 260.429 259.93 263.479 238.29 262.809C216.65 262.139 207.18 257.399 207.18 257.399L208.87 243.199L250.12 240.199C250.12 240.199 245.73 208.759 246.4 197.939C247.07 187.119 255.87 181.369 255.87 181.369" fill="#263238"/>
<path d="M280.53 196.539C280.53 196.539 279.85 225.279 279.85 226.629C279.85 227.979 280.85 255.709 277.85 258.069C274.85 260.429 259.93 263.479 238.29 262.809C216.65 262.139 207.18 257.399 207.18 257.399L208.87 243.199L250.12 240.199C250.12 240.199 245.73 208.759 246.4 197.939C247.07 187.119 255.87 181.369 255.87 181.369" stroke="#263238" stroke-linecap="round" stroke-linejoin="round"/>
<path d="M235 264.069C235 264.069 275.94 265.499 278.1 260.469C280.26 255.439 280.25 205.879 280.25 205.879" stroke="#707070" stroke-linecap="round" stroke-linejoin="round"/>
<path d="M253 187.199C253 187.199 244.37 196.539 245.81 208.749C247.25 220.959 250.13 240.149 250.13 240.149L234.32 241.079" stroke="#707070" stroke-linecap="round" stroke-linejoin="round"/>
<path d="M235.53 109.12C235.53 109.12 229.86 118.93 230.95 120.23C232.04 121.53 231.17 123.94 231.17 123.94C231.17 123.94 225.5 128.3 225.94 129.82C226.38 131.34 230.94 135.49 230.94 135.49C230.94 135.49 231.81 147.26 232.94 148.35C234.07 149.44 241.44 150.74 242.94 150.96C243.768 151.062 244.577 151.285 245.34 151.62L249.69 175.15L274.1 153.15L270.18 142.69C270.18 142.69 268 128.69 268.18 122.21C268.36 115.73 257.06 107.82 250.31 105.86C243.56 103.9 235.53 109.12 235.53 109.12Z" fill="white" stroke="#263238" stroke-linecap="round" stroke-linejoin="round"/>
<path d="M240.1 95.8196C240.1 95.8196 234.44 89.9396 227.68 94.5196C220.92 99.0996 222.89 106.52 228.99 109.12C235.09 111.72 242.28 109.77 239.89 112.39C237.5 115.01 236.89 120.67 240.54 121.76C244.19 122.85 243.59 126.99 243.59 128.76C243.59 130.53 246.59 130.29 247.3 128.76C248.01 127.23 249.69 123.1 253.83 124.84C257.97 126.58 257.76 136.17 256.23 138.57C254.7 140.97 253.18 140.75 253.18 140.75C253.18 140.75 255.58 141.62 254.05 144.45L252.53 147.29C252.53 147.29 256.01 151.43 264.73 149.9C273.45 148.37 275.41 144.45 274.1 141.19C272.79 137.93 269.74 137.48 273.01 132.69C276.28 127.9 284.35 122.22 283.69 111.33C283.26 104.14 266.26 97.3296 266.26 97.3296C266.26 97.3296 270.18 90.7896 261.26 86.6496C252.34 82.5096 242.09 87.3096 242.74 91.6496C243.39 95.9896 240.1 95.8196 240.1 95.8196Z" fill="#263238" stroke="#263238" stroke-linecap="round" stroke-linejoin="round"/>
<path d="M230.89 119.45C230.89 119.45 228.12 118.71 227.89 120.02C227.66 121.33 227.89 127.86 227.89 127.86C228.865 128.467 230.026 128.701 231.16 128.52C232.69 128.08 231.81 122.63 231.81 122.63" stroke="#263238" stroke-linecap="round" stroke-linejoin="round"/>
<path d="M248.17 126.769L228.1 123.449L228.12 122.189L248.17 126.769Z" fill="#263238" stroke="#263238" stroke-linecap="round" stroke-linejoin="round"/>
<path d="M276.94 146.389C276.94 146.389 265.82 154.449 258.19 162.729C250.56 171.009 241.41 180.169 241 182.999C240.59 185.829 241.43 190.189 245.79 185.609C250.15 181.029 258.21 174.939 264.32 174.499C270.43 174.059 279.79 177.119 284.58 177.769C289.37 178.419 292.43 179.769 294.17 177.119C295.91 174.469 291.34 168.619 291.34 165.559C291.34 162.499 291.99 157.279 289.81 153.559C287.63 149.839 280.64 145.299 276.94 146.389Z" fill="#757575" stroke="#263238" stroke-linecap="round" stroke-linejoin="round"/>
<path d="M291.18 157.18C290.561 159.297 289.716 161.343 288.66 163.28C287.39 165.17 269.52 168.75 269.52 168.75C269.52 168.75 284.24 167.91 286.97 167.91C289.7 167.91 292.86 170.43 292.86 170.43L291.39 166.43C291.39 166.43 292 159.08 291.18 157.18Z" fill="#263238" stroke="#263238" stroke-linecap="round" stroke-linejoin="round"/>
</svg>
