<?xml version="1.0" encoding="UTF-8" standalone="no"?>
<!DOCTYPE svg PUBLIC "-//W3C//DTD SVG 1.1//EN" "http://www.w3.org/Graphics/SVG/1.1/DTD/svg11.dtd">
<svg xmlns:dc="http://purl.org/dc/elements/1.1/" version="1.1" xmlns="http://www.w3.org/2000/svg" xmlns:xl="http://www.w3.org/1999/xlink" viewBox="92.2113 472.221 173.914 36.943752" width="173.914" height="36.943752">
  <defs/>
  <metadata> Produced by OmniGraffle 7.12.1 
    <dc:date>2020-09-21 07:49:27 +0000</dc:date>
  </metadata>
  <g id="Canvas_2" stroke="none" stroke-opacity="1" fill-opacity="1" stroke-dasharray="none" fill="none">
    <title>Canvas 2</title>
    <g id="Canvas_2: Layer 1">
      <title>Layer 1</title>
      <g id="Graphic_123">
        <path d="M 148.0483 480.8027 L 153.7313 480.8027 L 144.9023 487.4227 L 152.7063 494.5377 L 146.5043 494.5377 L 139.7333 487.4227 Z M 140.7113 480.8027 L 138.6813 494.5377 L 134.3993 494.5377 L 136.4293 480.8027 Z" fill="#0043a5"/>
      </g>
      <g id="Graphic_124">
        <path d="M 158.7446 489.4189 L 157.9876 494.5379 L 153.7056 494.5379 L 155.7356 480.8029 L 160.0176 480.8029 L 159.2866 485.7509 L 168.4406 485.7509 L 169.1716 480.8029 L 173.4546 480.8029 L 171.4246 494.5379 L 167.1416 494.5379 L 167.8986 489.4189 Z" fill="#0043a5"/>
      </g>
      <g id="Graphic_125">
        <path d="M 182.8437 477.5947 L 185.8987 477.5947 C 186.0857 477.5947 186.2197 477.6007 186.3007 477.6117 C 186.3807 477.6227 186.4327 477.6347 186.4527 477.6467 C 186.4737 477.6577 186.4887 477.6857 186.4957 477.7317 C 186.5037 477.7767 186.4987 477.8567 186.4827 477.9697 C 186.4567 478.1407 186.3857 478.2557 186.2697 478.3157 C 186.1527 478.3757 185.9027 478.4337 185.5177 478.4907 C 185.4367 478.5017 185.3407 478.5187 185.2287 478.5417 C 184.8107 478.6047 184.4857 478.6807 184.2567 478.7717 C 184.0277 478.8637 183.8397 479.0357 183.6937 479.2917 C 183.6377 479.3947 183.5947 479.5157 183.5627 479.6547 C 183.5307 479.7947 183.4897 480.0397 183.4367 480.3927 L 185.4067 480.3927 C 185.4307 480.2397 185.4427 480.1597 185.4427 480.1547 C 185.4467 480.1317 185.4787 480.0997 185.5377 480.0607 C 185.5977 480.0207 185.7317 479.9947 185.9377 479.9837 L 185.9537 479.9837 C 186.1617 479.9667 186.3537 479.9467 186.5307 479.9237 C 186.7077 479.9017 186.9047 479.8597 187.1197 479.7997 C 187.3367 479.7407 187.5417 479.6457 187.7387 479.5147 C 187.9337 479.3827 188.0687 479.2237 188.1427 479.0357 C 188.2297 478.9067 188.2977 478.7487 188.3477 478.5677 C 188.3977 478.3857 188.4407 478.1687 188.4777 477.9187 C 188.5237 477.6067 188.5287 477.3357 188.4897 477.1087 C 188.4527 476.8807 188.3487 476.6857 188.1767 476.5237 C 188.0037 476.3627 187.7567 476.2417 187.4357 476.1647 C 187.1147 476.0887 186.7057 476.0507 186.2107 476.0507 L 183.0717 476.0507 Z M 180.8227 489.2407 L 186.1297 489.2407 L 184.2067 484.3007 Z M 178.8327 492.1997 L 177.2077 494.5377 L 172.4557 494.5377 L 182.0197 480.8027 L 187.5047 480.8027 L 192.9317 494.5377 L 188.1797 494.5377 L 187.2707 492.1997 Z" fill="#0043a5"/>
      </g>
      <g id="Graphic_126">
        <path d="M 198.4668 490.4512 C 198.4238 490.7412 198.4818 490.9422 198.6388 491.0542 C 198.7948 491.1632 199.1178 491.2202 199.6078 491.2202 L 207.3798 491.2202 C 207.8348 491.2202 208.1808 491.1472 208.4188 491.0022 C 208.6558 490.8562 208.7908 490.6742 208.8238 490.4512 L 209.0578 488.8732 L 209.6448 484.8972 C 209.6938 484.5682 209.6368 484.3442 209.4758 484.2282 C 209.3138 484.1112 208.9878 484.0532 208.4978 484.0532 L 200.6658 484.0532 C 200.2108 484.0532 199.8778 484.1292 199.6648 484.2792 C 199.4518 484.4302 199.3258 484.6362 199.2868 484.8972 Z M 195.5118 484.3012 C 195.5938 483.7432 195.7258 483.2812 195.9078 482.9142 C 196.0898 482.5472 196.3778 482.2042 196.7728 481.8872 C 197.1238 481.5852 197.4978 481.3532 197.8958 481.1902 C 198.2908 481.0282 198.7768 480.9122 199.3498 480.8412 C 199.9228 480.7692 200.6088 480.7262 201.4038 480.7092 C 202.1998 480.6912 203.4248 480.6822 205.0798 480.6822 C 206.7358 480.6822 207.9568 480.6912 208.7448 480.7092 C 209.5328 480.7262 210.1988 480.7692 210.7428 480.8412 C 211.2878 480.9122 211.7308 481.0282 212.0738 481.1902 C 212.4168 481.3532 212.7168 481.5852 212.9738 481.8872 C 213.2738 482.2042 213.4598 482.5472 213.5338 482.9142 C 213.6078 483.2812 213.6038 483.7432 213.5218 484.3012 L 213.2278 486.2882 C 212.9598 488.0972 212.7288 489.6642 212.5328 490.9882 C 212.4498 491.5522 212.3158 492.0252 212.1308 492.4102 C 211.9458 492.7932 211.6568 493.1412 211.2648 493.4542 C 210.9188 493.7452 210.5468 493.9692 210.1448 494.1282 C 209.7418 494.2882 209.2538 494.4042 208.6768 494.4782 C 208.0998 494.5532 207.3968 494.6002 206.5658 494.6232 C 205.7348 494.6462 204.5328 494.6582 202.9638 494.6582 C 201.3888 494.6582 200.1948 494.6462 199.3818 494.6232 C 198.5698 494.6002 197.8828 494.5532 197.3258 494.4782 C 196.7688 494.4042 196.3208 494.2882 195.9828 494.1282 C 195.6458 493.9692 195.3378 493.7452 195.0638 493.4542 C 194.7618 493.1412 194.5758 492.7932 194.5048 492.4102 C 194.4338 492.0252 194.4398 491.5522 194.5238 490.9882 Z" fill="#0043a5"/>
      </g>
      <g id="Graphic_127">
        <path d="M 232.4062 494.5381 L 228.1332 494.5381 L 229.6922 483.9841 L 223.6602 483.9841 L 224.1312 480.8031 L 240.2712 480.8031 L 239.8022 483.9841 L 233.9662 483.9841 Z" fill="#0043a5"/>
      </g>
      <g id="Graphic_128">
        <path d="M 244.6289 489.4189 L 243.8729 494.5379 L 239.5909 494.5379 L 241.6209 480.8029 L 245.9019 480.8029 L 245.1719 485.7509 L 254.3259 485.7509 L 255.0569 480.8029 L 259.3399 480.8029 L 257.3109 494.5379 L 253.0269 494.5379 L 253.7829 489.4189 Z" fill="#0043a5"/>
      </g>
      <g id="Graphic_129">
        <path d="M 260.8633 478.6357 L 265.5633 476.8527 L 266.1253 478.7127 L 261.3653 480.2657 Z M 265.1683 480.8027 L 263.1373 494.5377 L 258.8543 494.5377 L 260.8843 480.8027 Z" fill="#0043a5"/>
      </g>
      <g id="Graphic_130">
        <path d="M 167.2109 500.0449 L 166.5659 499.2829 L 161.2719 499.2829 L 160.7119 503.0699 L 166.7639 503.0699 Z M 169.5929 499.2829 L 168.8119 504.5729 C 168.7409 505.0469 168.4499 505.3009 167.9369 505.3349 L 158.8759 505.3349 C 158.3729 505.3009 158.1559 505.0469 158.2269 504.5729 L 159.2479 497.6639 C 159.3069 497.2619 159.5929 497.0469 160.1049 497.0199 L 167.6579 497.0199 Z" fill="#00ccd6"/>
      </g>
      <g id="Graphic_131">
        <path d="M 184.6562 499.2832 L 183.7612 505.3352 L 181.4922 505.3352 L 182.2742 500.0452 L 181.6302 499.2832 L 176.3352 499.2832 L 175.4402 505.3352 L 173.1772 505.3352 L 174.3102 497.6642 C 174.3702 497.2622 174.6562 497.0472 175.1682 497.0192 L 182.7212 497.0192 Z" fill="#00ccd6"/>
      </g>
      <g id="Graphic_132">
        <path d="M 190.8379 503.0703 L 199.1589 503.0703 L 198.8239 505.3353 L 189.0009 505.3353 C 188.4989 505.3003 188.2819 505.0473 188.3529 504.5733 L 189.4689 497.0193 L 191.7329 497.0193 Z" fill="#00ccd6"/>
      </g>
      <g id="Graphic_133">
        <path d="M 205.5664 505.335 L 203.3024 505.335 L 204.5324 497.02 L 206.7954 497.02 Z" fill="#00ccd6"/>
      </g>
      <g id="Graphic_134">
        <path d="M 221.6016 499.2832 L 220.7076 505.3352 L 218.4386 505.3352 L 219.2196 500.0452 L 218.5766 499.2832 L 213.2816 499.2832 L 212.3866 505.3352 L 210.1226 505.3352 L 211.2556 497.6642 C 211.3166 497.2622 211.6016 497.0472 212.1136 497.0192 L 219.6666 497.0192 Z" fill="#00ccd6"/>
      </g>
      <g id="Graphic_135">
        <path d="M 237 497.0195 L 236.666 499.2835 L 228.344 499.2835 L 228.231 500.0445 L 236.553 500.0445 L 236.219 502.3085 L 227.896 502.3085 L 227.784 503.0705 L 236.105 503.0705 L 235.771 505.3345 L 225.948 505.3345 C 225.445 505.3005 225.229 505.0465 225.299 504.5735 L 226.32 497.6645 C 226.379 497.2615 226.665 497.0465 227.177 497.0195 Z" fill="#00ccd6"/>
      </g>
      <g id="Graphic_136">
        <path d="M 125.353 505.124 C 125.309 507.234 123.607 509.017 121.501 509.146 C 120.798 509.19 120.131 509.062 119.537 508.79 L 118.396 508.019 L 108.449 501.28 L 115.919 492.027 L 124.262 502.246 L 124.569 502.626 C 125.078 503.321 125.369 504.187 125.353 505.124 Z" fill="#0043a5"/>
      </g>
      <g id="Graphic_137">
        <path d="M 109.2573 483.874 L 105.1823 487.354 C 103.7683 488.563 102.0093 489.182 100.2353 489.182 C 98.8973 489.182 97.5553 488.83 96.3463 488.11 C 94.7213 487.148 93.3833 485.766 92.4653 484.112 L 92.2113 483.647 L 92.2113 477.217 C 92.2113 474.456 94.4503 472.221 97.2113 472.221 C 98.0113 472.221 98.7923 472.398 99.4953 472.734 C 100.2023 473.069 100.8373 473.562 101.3423 474.181 Z" fill="#0043a5"/>
      </g>
      <g id="Graphic_138">
        <path d="M 124.8115 481.0088 L 124.0115 482.0028 L 115.9185 492.0278 L 108.4485 501.2798 L 103.4885 507.4238 C 101.7385 509.5908 98.4975 509.7608 96.5325 507.7878 L 93.3185 504.5588 C 92.6115 503.8468 92.2115 502.8808 92.2115 501.8778 L 92.2115 483.6478 L 92.4655 484.1128 C 93.3835 485.7658 94.7215 487.1488 96.3465 488.1108 C 97.5555 488.8298 98.8965 489.1818 100.2345 489.1818 C 102.0095 489.1818 103.7685 488.5638 105.1825 487.3548 L 109.2575 483.8738 L 118.4335 476.0318 L 118.8125 475.7088 C 118.8205 475.7048 118.8295 475.6968 118.8325 475.6968 C 119.6945 475.0548 120.8095 474.7388 122.0025 474.9458 C 123.7045 475.2398 125.0615 476.6388 125.3125 478.3488 C 125.4545 479.3268 125.2565 480.2438 124.8115 481.0088 Z" fill="#00ccd6"/>
      </g>
    </g>
  </g>
</svg>
