<svg width="500" height="500" viewBox="0 0 500 500" fill="none" xmlns="http://www.w3.org/2000/svg">
<path d="M500 382.4H0V382.65H500V382.4Z" fill="#EBEBEB"/>
<path d="M85.58 398.49H52.46V398.74H85.58V398.49Z" fill="#EBEBEB"/>
<path d="M179.83 401.211H171.14V401.461H179.83V401.211Z" fill="#EBEBEB"/>
<path d="M112 389.211H86.5801V389.461H112V389.211Z" fill="#EBEBEB"/>
<path d="M449.9 390.891H422V391.141H449.9V390.891Z" fill="#EBEBEB"/>
<path d="M413.1 390.891H391.47V391.141H413.1V390.891Z" fill="#EBEBEB"/>
<path d="M328.66 395.109H277.21V395.359H328.66V395.109Z" fill="#EBEBEB"/>
<path d="M237 337.8H43.91C42.3973 337.797 40.9475 337.195 39.8788 336.124C38.8102 335.053 38.21 333.603 38.21 332.09V60.66C38.2231 59.156 38.8292 57.718 39.8964 56.6582C40.9637 55.5985 42.4059 55.0026 43.91 55H237C238.514 55 239.967 55.6016 241.038 56.6724C242.108 57.7433 242.71 59.1956 242.71 60.71V332.09C242.71 333.604 242.108 335.057 241.038 336.128C239.967 337.198 238.514 337.8 237 337.8ZM43.91 55.2C42.4636 55.2026 41.0774 55.7791 40.0556 56.8027C39.0338 57.8264 38.46 59.2136 38.46 60.66V332.09C38.46 333.536 39.0338 334.924 40.0556 335.947C41.0774 336.971 42.4636 337.547 43.91 337.55H237C238.447 337.547 239.834 336.971 240.858 335.948C241.881 334.924 242.457 333.537 242.46 332.09V60.66C242.457 59.2127 241.881 57.8255 240.858 56.8021C239.834 55.7787 238.447 55.2026 237 55.2H43.91Z" fill="#EBEBEB"/>
<path d="M453.31 337.8H260.21C258.696 337.797 257.246 337.195 256.175 336.125C255.105 335.054 254.503 333.604 254.5 332.09V60.66C254.516 59.1551 255.124 57.7171 256.193 56.6576C257.262 55.5981 258.705 55.0025 260.21 55H453.31C454.812 55.0052 456.252 55.6022 457.317 56.6617C458.382 57.7212 458.987 59.1578 459 60.66V332.09C459 333.601 458.401 335.05 457.335 336.121C456.268 337.191 454.821 337.795 453.31 337.8ZM260.21 55.2C258.763 55.2026 257.375 55.7787 256.352 56.8021C255.329 57.8255 254.753 59.2127 254.75 60.66V332.09C254.753 333.537 255.329 334.924 256.352 335.948C257.375 336.971 258.763 337.547 260.21 337.55H453.31C454.757 337.547 456.145 336.971 457.168 335.948C458.191 334.924 458.767 333.537 458.77 332.09V60.66C458.767 59.2127 458.191 57.8255 457.168 56.8021C456.145 55.7787 454.757 55.2026 453.31 55.2H260.21Z" fill="#EBEBEB"/>
<path d="M70.02 176.93H74.82L77.87 132.76H71.63L70.02 176.93Z" fill="#E6E6E6"/>
<path d="M72.8101 176.93H77.6101L80.6601 132.76H75.8501L72.8101 176.93Z" fill="#F5F5F5"/>
<path d="M194.44 176.93H199.24L202.29 132.76H196.05L194.44 176.93Z" fill="#E6E6E6"/>
<path d="M197.23 176.93H202.03L205.08 132.76H200.27L197.23 176.93Z" fill="#F5F5F5"/>
<path d="M58.1402 132.76H90.1802V125.27H58.1402V132.76Z" fill="#E6E6E6"/>
<path d="M222.79 125.27H90.1802V132.76H222.79V125.27Z" fill="#F5F5F5"/>
<path d="M58.1402 165.619H90.1802V158.129H58.1402V165.619Z" fill="#E6E6E6"/>
<path d="M222.79 158.119H90.1802V165.609H222.79V158.119Z" fill="#F5F5F5"/>
<path d="M151.33 84.3203H112.42C107.311 84.3203 103.17 88.4617 103.17 93.5703V116.01C103.17 121.119 107.311 125.26 112.42 125.26H151.33C156.439 125.26 160.58 121.119 160.58 116.01V93.5703C160.58 88.4617 156.439 84.3203 151.33 84.3203Z" fill="#E0E0E0"/>
<path d="M154.43 120.77H115.51C112.926 120.768 110.449 119.739 108.622 117.911C106.796 116.083 105.77 113.604 105.77 111.02V88.5703C105.773 85.987 106.799 83.5101 108.625 81.6825C110.451 79.8549 112.927 78.8256 115.51 78.8203H154.43C157.015 78.823 159.493 79.851 161.321 81.6789C163.149 83.5069 164.177 85.9853 164.18 88.5703V111C164.181 112.282 163.93 113.551 163.441 114.736C162.952 115.921 162.234 116.997 161.328 117.905C160.423 118.812 159.348 119.532 158.164 120.024C156.981 120.515 155.712 120.769 154.43 120.77ZM115.51 79.8203C113.192 79.8256 110.97 80.7495 109.332 82.3896C107.694 84.0297 106.773 86.2522 106.77 88.5703V111C106.773 113.318 107.694 115.541 109.332 117.181C110.97 118.821 113.192 119.745 115.51 119.75H154.43C156.749 119.745 158.972 118.821 160.611 117.182C162.251 115.542 163.175 113.319 163.18 111V88.5703C163.175 86.2513 162.251 84.0288 160.611 82.389C158.972 80.7492 156.749 79.8256 154.43 79.8203H115.51Z" fill="#E0E0E0"/>
<path d="M160.34 84.3203H121.43C116.322 84.3203 112.18 88.4617 112.18 93.5703V116.01C112.18 121.119 116.322 125.26 121.43 125.26H160.34C165.449 125.26 169.59 121.119 169.59 116.01V93.5703C169.59 88.4617 165.449 84.3203 160.34 84.3203Z" fill="#F0F0F0"/>
<path d="M169.59 104.801H109.5V106.171H169.59V104.801Z" fill="#E0E0E0"/>
<path d="M169.59 111.881H109.5V113.251H169.59V111.881Z" fill="#E0E0E0"/>
<path d="M153.532 118.636C159.98 117.728 164.471 111.764 163.562 105.316C162.654 98.8687 156.69 94.3782 150.243 95.2867C143.795 96.1952 139.304 102.159 140.213 108.606C141.121 115.054 147.085 119.545 153.532 118.636Z" fill="#E0E0E0"/>
<path d="M159.776 115.592C164.976 111.673 166.015 104.281 162.096 99.0806C158.177 93.8803 150.785 92.8414 145.585 96.7601C140.385 100.679 139.346 108.071 143.264 113.271C147.183 118.472 154.575 119.511 159.776 115.592Z" fill="#F5F5F5"/>
<path d="M159.664 113.151C163.518 109.297 163.518 103.047 159.664 99.1927C155.809 95.3382 149.56 95.3383 145.705 99.1927C141.851 103.047 141.851 109.297 145.705 113.151C149.56 117.005 155.809 117.005 159.664 113.151Z" fill="#EBEBEB"/>
<path d="M99.3802 245.17H73.1802V378.58H99.3802V245.17Z" fill="#F0F0F0"/>
<path d="M207.41 378.58H78.21V382.39H207.41V378.58Z" fill="#F0F0F0"/>
<path d="M99.3799 378.59H212.44L212.44 245.18H99.3799L99.3799 378.59Z" fill="#F5F5F5"/>
<path d="M202.15 261.58V305.34H109.68V261.58H143V262.44C143.005 263.077 143.261 263.686 143.712 264.135C144.164 264.584 144.774 264.837 145.41 264.84H166.48C167.116 264.837 167.725 264.584 168.174 264.134C168.624 263.685 168.878 263.076 168.88 262.44V261.58H202.15Z" fill="#E0E0E0"/>
<path d="M211.73 260.07L202.15 305.34H109.68L119.27 260.07H152.57L152.39 260.96C152.302 261.249 152.283 261.555 152.336 261.852C152.388 262.15 152.509 262.431 152.691 262.672C152.872 262.914 153.108 263.11 153.379 263.243C153.65 263.376 153.948 263.444 154.25 263.44H175.33C176.02 263.4 176.679 263.137 177.206 262.689C177.732 262.242 178.099 261.635 178.25 260.96L178.43 260.07H211.73Z" fill="#EBEBEB"/>
<path d="M109.68 362.16H202.14V318.41H109.68V362.16Z" fill="#EBEBEB"/>
<path d="M166.44 315.66H145.37C144.045 315.66 142.97 316.735 142.97 318.06V319.26C142.97 320.586 144.045 321.66 145.37 321.66H166.44C167.766 321.66 168.84 320.586 168.84 319.26V318.06C168.84 316.735 167.766 315.66 166.44 315.66Z" fill="#F5F5F5"/>
<path d="M180.28 212.92H160.3V218.33H180.28V212.92Z" fill="#EBEBEB"/>
<path d="M180.28 211.52H120.97V212.92H180.28V211.52Z" fill="#E0E0E0"/>
<path d="M190.78 218.32H91.1201V245.17H190.78V218.32Z" fill="#F0F0F0"/>
<path d="M183.15 216.961H98.7598V218.331H183.15V216.961Z" fill="#E0E0E0"/>
<path d="M117.97 218.32H91.1201V245.17H117.97V218.32Z" fill="#E0E0E0"/>
<path d="M123.65 216.96L124.49 212.92H122.82L123.65 216.96Z" fill="#E0E0E0"/>
<path d="M418.69 77.2305H288.76V362.17H418.69V77.2305Z" fill="#E6E6E6"/>
<path d="M424.76 77.2305H290.4V362.17H424.76V77.2305Z" fill="#F5F5F5"/>
<path d="M413.09 350.501V88.8906H302.05V350.501H413.09Z" fill="white"/>
<path d="M395.241 146.32C400.483 125.514 387.865 104.398 367.059 99.1567C346.253 93.9151 325.137 106.533 319.896 127.339C314.654 148.145 327.272 169.261 348.078 174.502C368.884 179.744 390 167.126 395.241 146.32Z" fill="#F0F0F0"/>
<path d="M357.58 173.869C378.037 173.869 394.62 157.286 394.62 136.829C394.62 116.372 378.037 99.7891 357.58 99.7891C337.123 99.7891 320.54 116.372 320.54 136.829C320.54 157.286 337.123 173.869 357.58 173.869Z" fill="#E0E0E0"/>
<path d="M357.58 147.58C363.517 147.58 368.33 142.767 368.33 136.83C368.33 130.893 363.517 126.08 357.58 126.08C351.643 126.08 346.83 130.893 346.83 136.83C346.83 142.767 351.643 147.58 357.58 147.58Z" fill="white"/>
<path d="M353.33 179.5H330.22V202.61H353.33V179.5Z" fill="#F5F5F5"/>
<path d="M384.94 179.5H361.83V202.61H384.94V179.5Z" fill="#E6E6E6"/>
<path d="M395.351 278.309C400.364 257.446 387.515 236.47 366.652 231.458C345.789 226.445 324.814 239.294 319.801 260.157C314.789 281.019 327.638 301.995 348.5 307.008C369.363 312.02 390.339 299.171 395.351 278.309Z" fill="#F0F0F0"/>
<path d="M394.149 275.274C397.466 255.088 383.79 236.036 363.604 232.719C343.418 229.403 324.366 243.078 321.049 263.264C317.733 283.45 331.408 302.503 351.594 305.819C371.78 309.136 390.833 295.46 394.149 275.274Z" fill="#E6E6E6"/>
<path d="M357.58 279.99C363.517 279.99 368.33 275.177 368.33 269.24C368.33 263.303 363.517 258.49 357.58 258.49C351.643 258.49 346.83 263.303 346.83 269.24C346.83 275.177 351.643 279.99 357.58 279.99Z" fill="white"/>
<path d="M361.84 335.02H384.95V311.91H361.84V335.02Z" fill="#F5F5F5"/>
<path d="M330.22 335.02H353.33V311.91H330.22V335.02Z" fill="#E6E6E6"/>
<path d="M250 427.56C357.082 427.56 443.89 422.492 443.89 416.24C443.89 409.988 357.082 404.92 250 404.92C142.917 404.92 56.1099 409.988 56.1099 416.24C56.1099 422.492 142.917 427.56 250 427.56Z" fill="#F5F5F5"/>
<g opacity="0.4">
<path opacity="0.4" d="M143.13 174.561C123.205 174.683 103.621 169.391 86.4698 159.251C86.3808 159.197 86.3163 159.11 86.2901 159.009C86.264 158.908 86.2782 158.801 86.3298 158.711C86.3557 158.666 86.3902 158.626 86.4315 158.595C86.4728 158.563 86.52 158.54 86.5703 158.527C86.6207 158.514 86.6731 158.511 86.7245 158.519C86.7759 158.526 86.8253 158.544 86.8698 158.571C141.41 190.391 196.93 165.981 250.64 142.381C302.54 119.571 356.22 96.0007 409.09 123.001C409.136 123.024 409.177 123.056 409.21 123.094C409.244 123.133 409.27 123.178 409.286 123.227C409.302 123.276 409.309 123.327 409.305 123.378C409.302 123.43 409.288 123.48 409.265 123.526C409.242 123.572 409.21 123.613 409.171 123.646C409.132 123.68 409.087 123.706 409.039 123.722C408.94 123.755 408.833 123.747 408.74 123.701C356.19 96.9007 302.74 120.421 250.95 143.151C215.55 158.661 179.36 174.561 143.13 174.561Z" fill="#263238"/>
<path opacity="0.4" d="M143.13 190.2C123.8 190.321 104.782 185.332 87.9996 175.74C87.9095 175.69 87.8432 175.605 87.815 175.506C87.7869 175.407 87.7993 175.3 87.8496 175.21C87.902 175.119 87.988 175.053 88.0889 175.025C88.1899 174.997 88.2979 175.009 88.3896 175.06C142.39 205.58 197.39 181.4 250.66 158.01C303.06 135.01 357.25 111.17 410.66 139.36C410.737 139.417 410.792 139.499 410.814 139.593C410.835 139.687 410.823 139.785 410.778 139.87C410.733 139.955 410.659 140.021 410.569 140.056C410.479 140.091 410.38 140.092 410.29 140.06C357.29 112.06 303.29 135.78 251.01 158.73C215.55 174.29 179.35 190.2 143.13 190.2Z" fill="#263238"/>
<path opacity="0.4" d="M143.12 205.83C124.37 205.949 105.902 201.26 89.4798 192.21C89.389 192.158 89.3224 192.072 89.2944 191.971C89.2663 191.87 89.279 191.762 89.3298 191.67C89.3538 191.625 89.3868 191.584 89.4268 191.552C89.4668 191.519 89.513 191.496 89.5626 191.481C89.6122 191.467 89.6641 191.464 89.7151 191.47C89.7662 191.477 89.8154 191.494 89.8598 191.52C143.4 220.77 197.91 196.81 250.63 173.64C303.53 150.4 358.23 126.36 412.1 155.8C412.19 155.851 412.256 155.934 412.286 156.033C412.316 156.132 412.307 156.238 412.26 156.33C412.236 156.376 412.203 156.416 412.163 156.449C412.123 156.481 412.077 156.506 412.028 156.521C411.979 156.535 411.927 156.54 411.876 156.535C411.825 156.53 411.775 156.515 411.73 156.49C358.19 127.24 303.67 151.19 250.95 174.36C215.55 189.92 179.34 205.83 143.12 205.83Z" fill="#263238"/>
<path opacity="0.4" d="M143.11 221.461C124.946 221.578 107.039 217.176 90.9997 208.651C90.9074 208.6 90.8382 208.516 90.8065 208.415C90.7749 208.315 90.7832 208.206 90.8297 208.111C90.8804 208.019 90.9656 207.95 91.0668 207.92C91.1679 207.89 91.2768 207.901 91.3697 207.951C144.37 235.951 198.42 212.231 250.65 189.271C304.03 165.811 359.24 141.551 413.65 172.271C413.74 172.322 413.806 172.406 413.834 172.505C413.862 172.605 413.85 172.711 413.8 172.801C413.747 172.892 413.661 172.959 413.56 172.987C413.459 173.015 413.351 173.002 413.26 172.951C359.26 142.431 304.2 166.611 250.99 189.951C215.56 205.551 179.34 221.461 143.11 221.461Z" fill="#263238"/>
<path opacity="0.4" d="M143.11 237.101C125.517 237.226 108.154 233.11 92.4897 225.101C92.3981 225.052 92.3292 224.97 92.2974 224.871C92.2657 224.772 92.2737 224.665 92.3197 224.571C92.343 224.525 92.3753 224.484 92.4147 224.45C92.454 224.417 92.4997 224.391 92.5491 224.375C92.5984 224.359 92.6504 224.354 92.702 224.358C92.7537 224.363 92.8039 224.377 92.8497 224.401C145.39 251.191 198.85 227.681 250.64 204.941C304.52 181.271 360.23 156.781 415.11 188.801C415.155 188.827 415.194 188.862 415.226 188.903C415.257 188.944 415.28 188.992 415.293 189.042C415.306 189.092 415.309 189.145 415.302 189.196C415.294 189.247 415.277 189.297 415.25 189.341C415.225 189.386 415.191 189.425 415.151 189.457C415.11 189.488 415.064 189.511 415.015 189.524C414.965 189.537 414.913 189.54 414.863 189.533C414.812 189.526 414.763 189.508 414.72 189.481C360.18 157.621 304.65 182.001 251 205.621C215.56 221.181 179.33 237.101 143.11 237.101Z" fill="#263238"/>
</g>
<path d="M127.76 201.999C127.394 200.547 126.521 199.274 125.3 198.409C124.597 197.914 124.011 197.272 123.581 196.528C123.151 195.784 122.888 194.955 122.81 194.099L123.02 193.519C123.056 193.421 123.051 193.313 123.007 193.218C122.963 193.123 122.883 193.05 122.785 193.014C122.687 192.978 122.578 192.983 122.484 193.027C122.389 193.071 122.316 193.151 122.28 193.249L114.22 215.999C113.967 215.441 113.603 214.941 113.15 214.529C112.02 213.531 110.635 212.866 109.15 212.609C105.82 211.959 102.77 213.199 102.35 215.369C101.98 217.239 103.68 219.199 106.28 220.129C106.714 220.282 107.158 220.402 107.61 220.489C109.077 220.807 110.604 220.71 112.02 220.209C112.588 220.04 113.103 219.729 113.518 219.306C113.933 218.882 114.233 218.361 114.39 217.789L120.05 201.879C120.399 203.37 121.281 204.683 122.53 205.569C123.27 206.092 123.882 206.776 124.32 207.569C124.759 208.362 125.011 209.244 125.06 210.149C125.067 210.202 125.088 210.253 125.122 210.295C125.155 210.337 125.199 210.37 125.25 210.389H125.32C125.386 210.4 125.453 210.386 125.51 210.351C125.567 210.316 125.609 210.262 125.63 210.199L127.63 204.579C127.94 203.753 127.985 202.852 127.76 201.999Z" fill="#263238"/>
<path d="M351.3 158.069C350.144 157.1 348.677 156.582 347.17 156.609C346.309 156.623 345.456 156.452 344.667 156.107C343.878 155.762 343.173 155.251 342.6 154.609L342.42 154.009C342.39 153.909 342.321 153.825 342.23 153.774C342.138 153.724 342.03 153.711 341.93 153.739C341.83 153.769 341.745 153.838 341.695 153.929C341.644 154.021 341.632 154.128 341.66 154.229L348.55 177.479C348.015 177.172 347.423 176.978 346.81 176.909C345.307 176.763 343.793 177.04 342.44 177.709C339.35 179.149 337.6 181.959 338.54 183.979C339.35 185.719 341.9 186.309 344.54 185.519C344.981 185.387 345.412 185.223 345.83 185.029C347.212 184.42 348.397 183.436 349.25 182.189C349.612 181.714 349.848 181.155 349.936 180.564C350.023 179.973 349.959 179.369 349.75 178.809L344.92 162.519C346.09 163.525 347.587 164.069 349.13 164.049C350.04 164.04 350.94 164.235 351.764 164.621C352.588 165.007 353.315 165.574 353.89 166.279C353.928 166.318 353.976 166.345 354.029 166.359C354.082 166.373 354.137 166.373 354.19 166.359H354.26C354.317 166.326 354.363 166.275 354.388 166.213C354.413 166.152 354.417 166.083 354.4 166.019L352.69 160.269C352.472 159.407 351.985 158.636 351.3 158.069Z" fill="#263238"/>
<path d="M196.45 197.65C197.518 198.084 198.475 198.752 199.251 199.606C200.026 200.459 200.6 201.476 200.93 202.58C200.952 202.647 200.993 202.705 201.048 202.748C201.103 202.791 201.17 202.816 201.24 202.82C201.269 202.83 201.301 202.83 201.33 202.82C201.414 202.81 201.492 202.772 201.552 202.712C201.611 202.652 201.649 202.574 201.66 202.49L202.19 197.64C202.315 196.543 202.102 195.434 201.58 194.46C200.699 192.766 199.241 191.443 197.47 190.73C196.454 190.32 195.539 189.695 194.788 188.897C194.037 188.1 193.468 187.149 193.12 186.11L193.2 185.32C193.214 185.189 193.176 185.058 193.093 184.955C193.011 184.852 192.891 184.785 192.76 184.77C192.694 184.763 192.628 184.77 192.564 184.789C192.501 184.807 192.442 184.839 192.391 184.881C192.34 184.922 192.298 184.974 192.266 185.032C192.235 185.091 192.216 185.155 192.21 185.22L188.88 215.75C188.405 215.136 187.81 214.625 187.13 214.25C185.442 213.34 183.534 212.917 181.62 213.03C179.706 213.075 177.841 213.646 176.23 214.68C175.517 215.015 174.918 215.552 174.509 216.225C174.1 216.899 173.899 217.678 173.931 218.465C173.963 219.252 174.226 220.012 174.689 220.65C175.151 221.288 175.792 221.775 176.53 222.05C177.677 222.688 178.944 223.079 180.25 223.2C180.84 223.271 181.436 223.291 182.03 223.26C186.31 223.09 189.7 220.7 189.65 217.91L191.07 204.85C191.95 206.595 193.431 207.962 195.24 208.7C196.88 209.5 198.42 210.27 199.72 213.63C199.749 213.694 199.794 213.749 199.849 213.791C199.905 213.833 199.971 213.86 200.04 213.87H200.13C200.215 213.861 200.294 213.822 200.352 213.759C200.411 213.697 200.446 213.616 200.45 213.53L200.98 208.69C201.115 207.589 200.902 206.474 200.37 205.5C199.489 203.806 198.031 202.483 196.26 201.77C195.243 201.362 194.327 200.737 193.576 199.94C192.825 199.142 192.256 198.19 191.91 197.15L192.28 193.8C193.153 195.55 194.636 196.92 196.45 197.65Z" fill="#263238"/>
<path d="M168.51 183.461L169.34 166.131L169.65 159.671V159.301L152 158.461V158.821L151.69 165.291L150.94 181.141C150.231 180.466 149.376 179.964 148.441 179.674C147.506 179.385 146.516 179.315 145.55 179.471C142.43 179.791 140.06 181.711 140.26 183.751C140.44 185.501 142.47 186.751 145.03 186.911C145.452 186.946 145.877 186.946 146.3 186.911C149.4 186.601 151.75 184.721 151.59 182.701L152.3 167.811L168.51 168.581L167.88 181.971C167.506 181.55 167.05 181.21 166.54 180.971C165.275 180.388 163.873 180.166 162.49 180.331C159.37 180.651 157 182.561 157.2 184.601C157.38 186.361 159.41 187.601 161.97 187.771C162.392 187.806 162.817 187.806 163.24 187.771C166.31 187.371 168.67 185.481 168.51 183.461ZM152.32 167.051L152.4 165.321L168.61 166.101L168.53 167.821L152.32 167.051Z" fill="#263238"/>
<path d="M404.82 150.12L406.52 136.22L407.15 131.04V130.75L393 129V129.3L392.36 134.48L390.8 147.2C390.27 146.614 389.611 146.159 388.875 145.871C388.14 145.582 387.347 145.469 386.56 145.54C384.03 145.6 382.01 147.01 382.05 148.66C382.05 150.08 383.65 151.24 385.7 151.49C386.033 151.514 386.367 151.514 386.7 151.49C389.21 151.42 391.22 150.04 391.21 148.41L392.67 136.47L405.67 138.06L404.36 148.8C404.093 148.433 403.753 148.126 403.36 147.9C402.381 147.355 401.269 147.095 400.15 147.15C397.61 147.22 395.59 148.62 395.63 150.27C395.63 151.69 397.23 152.85 399.28 153.1C399.613 153.124 399.947 153.124 400.28 153.1C402.82 153.13 404.82 151.75 404.82 150.12ZM392.77 135.94L392.93 134.56L405.93 136.15L405.77 137.53L392.77 135.94Z" fill="#263238"/>
<path d="M352.79 118.15L344.34 100.79L341.19 94.31L341 94L323.31 102.61L323.48 102.97L326.64 109.45L334.36 125.33C332.73 124.7 330.36 125.12 328.22 126.58C325.33 128.58 324.04 131.69 325.33 133.58C326.44 135.2 329.11 135.37 331.67 134.13C332.099 133.925 332.51 133.684 332.9 133.41C335.75 131.46 337.04 128.41 335.81 126.47L327.36 109.11L343.61 101.2L351.34 117C349.71 116.37 347.34 116.79 345.19 118.25C343.892 119.102 342.854 120.296 342.19 121.7C341.861 122.239 341.695 122.861 341.712 123.492C341.729 124.123 341.928 124.735 342.286 125.255C342.643 125.775 343.143 126.181 343.726 126.423C344.309 126.665 344.949 126.734 345.57 126.62C346.615 126.555 347.636 126.276 348.57 125.8C349.003 125.591 349.421 125.35 349.82 125.08C352.73 123.14 354 120 352.79 118.15Z" fill="#263238"/>
<path d="M294.53 205.929C293.7 205.929 292.82 205.929 291.91 205.829C285.85 205.349 280.52 202.239 276.05 196.599C262.62 179.599 261 145.279 262.32 136.699L262.86 136.779C261.55 145.309 263.15 179.419 276.48 196.259C280.85 201.779 286.05 204.809 291.95 205.259C301.1 205.989 307.73 202.889 311.12 196.309C316.47 185.919 312.39 168.399 301.61 155.559C298.15 151.439 296.98 146.979 298.4 143.329C298.909 141.995 299.772 140.824 300.896 139.943C302.02 139.062 303.363 138.504 304.78 138.329C308.66 137.809 312.69 139.949 315.78 144.189L315.34 144.509C312.34 140.439 308.51 138.379 304.82 138.869C303.501 139.031 302.251 139.549 301.204 140.369C300.157 141.188 299.354 142.277 298.88 143.519C297.53 146.989 298.67 151.249 302 155.209C313.09 168.419 317.11 185.809 311.57 196.559C309.35 200.999 304.58 205.929 294.53 205.929Z" fill="#EA3C71"/>
<path d="M241.5 102.158C234.5 105.478 225.13 107.888 228.1 120.468C231.07 133.048 223.16 136.768 229.1 141.678C235.04 146.588 255.79 146.138 263.77 143.048C272.77 139.558 283.18 127.768 273.03 121.738C265.11 117.038 261.67 110.958 260.52 107.258C258.17 99.7084 250.08 95.4384 241.5 102.158Z" fill="#263238"/>
<path d="M280.65 121.249C272.94 119.679 265.21 116.819 260.95 106.649C259.24 102.569 256.53 99.9993 253.3 99.4193C249.65 98.7693 245.56 100.619 241.81 104.639L241.41 104.259C245.29 100.109 249.54 98.1893 253.41 98.8893C256.83 99.4993 259.69 102.179 261.47 106.439C265.63 116.369 273.21 119.169 280.78 120.709L280.65 121.249Z" fill="#263238"/>
<path d="M277.72 158.73L278.09 159.12L278.58 159.62C278.93 159.95 279.27 160.3 279.65 160.62C280.38 161.3 281.17 161.95 281.97 162.62C283.571 163.927 285.24 165.149 286.97 166.28C288.73 167.43 290.57 168.48 292.42 169.51C293.42 169.99 294.3 170.51 295.27 170.97L297.51 172.04C297.833 172.161 298.188 172.161 298.51 172.04C299.193 171.79 299.832 171.432 300.4 170.98C301.927 169.763 303.3 168.366 304.49 166.82C307.129 163.404 309.506 159.793 311.6 156.02L315.79 157.73C314.421 162.278 312.503 166.644 310.08 170.73C308.775 172.934 307.177 174.953 305.33 176.73C304.217 177.786 302.94 178.657 301.55 179.31C299.793 180.137 297.824 180.402 295.91 180.07C295.414 179.981 294.925 179.85 294.45 179.68L293.53 179.34L291.87 178.7C290.75 178.28 289.67 177.77 288.58 177.3C286.397 176.297 284.271 175.175 282.21 173.94C280.133 172.687 278.129 171.314 276.21 169.83C275.21 169.06 274.31 168.27 273.39 167.41C272.93 166.99 272.47 166.54 272.02 166.08L271.35 165.36C271.11 165.09 270.93 164.89 270.59 164.48L277.72 158.73Z" fill="#FFB573"/>
<path d="M270.4 150.37C274.1 149.47 283.5 161.63 283.5 161.63L277.79 172.5C277.79 172.5 262 163.59 262.6 158.68C263.22 153.57 265 151.69 270.4 150.37Z" fill="#EA3C71"/>
<path opacity="0.2" d="M270.4 150.37C274.1 149.47 283.5 161.63 283.5 161.63L277.79 172.5C277.79 172.5 262 163.59 262.6 158.68C263.22 153.57 265 151.69 270.4 150.37Z" fill="white"/>
<path opacity="0.2" d="M272.84 154.58L271.94 168.81C275.08 170.96 277.79 172.5 277.79 172.5L278.98 170.22L272.84 154.58Z" fill="black"/>
<path d="M310.8 158.339L314.24 148.789L319.13 156.449C319.13 156.449 316.39 161.449 312.67 161.449L310.8 158.339Z" fill="#FFB573"/>
<path d="M319.21 144.369L324.24 150.099L319.13 156.439L314.24 148.789L319.21 144.369Z" fill="#FFB573"/>
<path d="M262.21 402.489L271.12 402.839L272.71 382.139L263.8 381.789L262.21 402.489Z" fill="#FFB573"/>
<path d="M175.42 279.969L173.66 288.729L193.4 295.619L195.15 286.849L175.42 279.969Z" fill="#FFB573"/>
<path d="M175.18 289.999L178.58 280.549C178.644 280.388 178.646 280.208 178.585 280.046C178.524 279.883 178.405 279.749 178.25 279.669L171.17 275.899C170.988 275.807 170.788 275.754 170.583 275.745C170.379 275.737 170.175 275.772 169.986 275.849C169.796 275.925 169.625 276.042 169.485 276.19C169.344 276.339 169.237 276.516 169.17 276.709C168.03 280.019 167.65 281.709 166.17 285.829C165.24 288.389 162.98 293.139 161.71 296.659C160.44 300.179 163.86 301.659 164.71 300.289C168.51 294.209 171.49 292.759 174.15 291.219C174.622 290.941 174.985 290.511 175.18 289.999Z" fill="#263238"/>
<path d="M271.42 402.309L261.75 399.599C261.584 399.548 261.405 399.561 261.248 399.635C261.091 399.709 260.967 399.839 260.9 399.999L257.65 407.339C257.578 407.53 257.547 407.734 257.559 407.938C257.571 408.142 257.626 408.342 257.72 408.523C257.815 408.704 257.946 408.863 258.107 408.99C258.267 409.117 258.452 409.209 258.65 409.259C262.03 410.139 263.71 410.399 267.97 411.589C270.58 412.319 278.23 415.769 281.97 416.069C285.71 416.369 286.2 412.679 284.67 412.219C279.738 410.762 275.502 407.564 272.75 403.219C272.43 402.766 271.958 402.443 271.42 402.309Z" fill="#263238"/>
<g opacity="0.2">
<path opacity="0.2" d="M272.71 382.139L271.89 392.809L262.98 392.469L263.79 381.799L272.71 382.139Z" fill="black"/>
<path opacity="0.2" d="M195.15 286.849L193.39 295.619L183.22 292.059L184.98 283.299L195.15 286.849Z" fill="black"/>
</g>
<path d="M275.07 154.089C275.93 159.149 276.76 171.909 273.07 201.629L236.84 203.869C236.56 189.979 235.84 178.779 228.31 151.869C228.122 151.207 228.085 150.51 228.202 149.832C228.318 149.153 228.585 148.508 228.983 147.946C229.381 147.384 229.9 146.918 230.502 146.583C231.104 146.248 231.773 146.052 232.46 146.009C235.22 145.849 238.69 145.739 242.23 145.889C247.815 146.012 253.385 146.519 258.9 147.409C263.6 148.249 268.75 149.549 271.74 150.359C272.595 150.596 273.363 151.074 273.954 151.735C274.544 152.396 274.932 153.214 275.07 154.089Z" fill="#EA3C71"/>
<path opacity="0.2" d="M275.07 154.089C275.93 159.149 276.76 171.909 273.07 201.629L236.84 203.869C236.56 189.979 235.84 178.779 228.31 151.869C228.122 151.207 228.085 150.51 228.202 149.832C228.318 149.153 228.585 148.508 228.983 147.946C229.381 147.384 229.9 146.918 230.502 146.583C231.104 146.248 231.773 146.052 232.46 146.009C235.22 145.849 238.69 145.739 242.23 145.889C247.815 146.012 253.385 146.519 258.9 147.409C263.6 148.249 268.75 149.549 271.74 150.359C272.595 150.596 273.363 151.074 273.954 151.735C274.544 152.396 274.932 153.214 275.07 154.089Z" fill="white"/>
<path d="M273 201.629C273 201.629 284.29 269.929 285.38 297.169C286.52 325.509 273.78 389.949 273.78 389.949H261.73C261.73 389.949 266.14 328.429 263.36 300.699C260.36 270.469 246.51 203.269 246.51 203.269L273 201.629Z" fill="#EA3C71"/>
<path d="M260.68 390.389H274.87L275.91 385.859L260.02 385.309L260.68 390.389Z" fill="#263238"/>
<path opacity="0.2" d="M258.47 219.698C268.47 237.048 263.38 270.148 260.98 282.498C258.24 264.348 254.14 242.208 250.98 225.958C251.79 216.608 253.86 211.698 258.47 219.698Z" fill="black"/>
<path d="M263.48 202.229C263.48 202.229 263.22 274.229 252.2 295.349C239.11 320.349 184.82 294.589 184.82 294.589L187.22 282.589C187.22 282.589 223.22 290.699 232.63 283.989C242.75 252.629 224.15 225.989 236.81 203.829L263.48 202.229Z" fill="#EA3C71"/>
<path d="M187.42 281.209L184.45 296.029L188.79 298.549L193.07 281.259L187.42 281.209Z" fill="#263238"/>
<path d="M236.85 158.069C235.22 162.519 233.58 167.069 232.02 171.609C230.46 176.149 229.02 180.699 227.75 185.239L227.52 186.089L227.41 186.519C227.41 186.659 227.32 186.849 227.34 186.739V186.269C227.345 186.185 227.345 186.102 227.34 186.019C227.32 185.863 227.287 185.709 227.24 185.559C227.216 185.48 227.186 185.403 227.15 185.329C227.109 185.215 227.059 185.104 227 184.999C226.879 184.762 226.732 184.541 226.56 184.339C226.365 184.09 226.132 183.874 225.87 183.699C225.642 183.531 225.393 183.394 225.13 183.289C224.922 183.209 224.708 183.146 224.49 183.099C224.329 183.055 224.165 183.022 224 182.999C223.74 182.989 223.481 183.019 223.23 183.089C223.05 183.159 223.17 183.139 223.31 183.089C223.491 183.014 223.668 182.931 223.84 182.839C224.24 182.619 224.69 182.349 225.14 182.049C226.97 180.839 228.89 179.389 230.76 177.929C234.52 174.989 238.3 171.929 242.09 168.879L245.3 172.069C242.195 175.934 238.887 179.633 235.39 183.149C233.594 184.975 231.701 186.705 229.72 188.329C229.19 188.749 228.64 189.169 228.01 189.599C227.68 189.809 227.35 190.029 226.94 190.249C226.435 190.536 225.898 190.764 225.34 190.929C224.795 191.086 224.228 191.157 223.66 191.139C223.415 191.132 223.171 191.106 222.93 191.059C222.635 191.008 222.346 190.925 222.07 190.809C221.737 190.673 221.422 190.498 221.13 190.289C220.811 190.063 220.522 189.797 220.27 189.499C220.053 189.233 219.865 188.945 219.71 188.639C219.64 188.499 219.56 188.319 219.52 188.209L219.4 187.869C219.337 187.645 219.287 187.418 219.25 187.189C219.24 187.029 219.24 186.868 219.25 186.709C219.23 186.446 219.23 186.181 219.25 185.919V185.579V185.329C219.31 184.919 219.34 184.819 219.37 184.659L219.46 184.199L219.65 183.269C220.65 178.269 221.98 173.519 223.45 168.779C224.92 164.039 226.5 159.399 228.36 154.729L236.85 158.069Z" fill="#FFB573"/>
<path d="M229.55 146.48C225.99 147.81 222.4 160.58 222.4 160.58L237.11 169.78C237.11 169.78 241.79 157.46 239.97 152.86C238.08 148.07 233.62 145 229.55 146.48Z" fill="#EA3C71"/>
<path opacity="0.2" d="M229.55 146.48C225.99 147.81 222.4 160.58 222.4 160.58L237.11 169.78C237.11 169.78 241.79 157.46 239.97 152.86C238.08 148.07 233.62 145 229.55 146.48Z" fill="white"/>
<path d="M172.49 293.999C172.49 293.999 172.49 294.069 172.49 294.109C172.573 294.298 172.703 294.462 172.868 294.586C173.032 294.71 173.226 294.79 173.43 294.819C173.554 294.851 173.684 294.849 173.807 294.814C173.93 294.779 174.042 294.711 174.13 294.619C174.93 293.809 174.2 290.619 174.13 290.299C174.122 290.258 174.101 290.22 174.071 290.192C174.04 290.163 174.002 290.144 173.96 290.139C173.92 290.133 173.879 290.139 173.842 290.155C173.805 290.17 173.773 290.196 173.75 290.229C173.14 291.229 172.16 292.999 172.49 293.999ZM173.85 290.899C174.11 292.169 174.29 293.899 173.85 294.329C173.808 294.368 173.756 294.396 173.7 294.408C173.643 294.42 173.585 294.417 173.53 294.399C173.395 294.381 173.266 294.33 173.156 294.25C173.046 294.169 172.958 294.062 172.9 293.939C172.69 293.409 173 292.289 173.85 290.929V290.899Z" fill="#EA3C71"/>
<path d="M173.82 290.74C174.15 291.8 175.27 293.58 176.18 293.74C176.347 293.762 176.516 293.728 176.661 293.643C176.806 293.558 176.919 293.426 176.98 293.27C177.049 293.123 177.085 292.962 177.085 292.8C177.085 292.637 177.049 292.477 176.98 292.33C176.5 291.12 174.08 290.24 173.98 290.2C173.948 290.18 173.912 290.17 173.875 290.17C173.838 290.17 173.802 290.18 173.77 290.2C173.744 290.225 173.724 290.257 173.712 290.292C173.7 290.326 173.696 290.363 173.7 290.4C173.733 290.515 173.773 290.629 173.82 290.74ZM176.65 292.53C176.679 292.617 176.689 292.709 176.681 292.8C176.672 292.891 176.645 292.98 176.6 293.06C176.48 293.3 176.35 293.31 176.25 293.3C175.63 293.21 174.61 291.76 174.25 290.73C175.04 291.07 176.33 291.73 176.62 292.47C176.625 292.492 176.635 292.512 176.65 292.53Z" fill="#EA3C71"/>
<path d="M274.23 404.72C274.948 404.993 275.738 405.014 276.47 404.78C276.641 404.694 276.788 404.569 276.9 404.414C277.011 404.259 277.083 404.079 277.11 403.89C277.136 403.776 277.132 403.657 277.099 403.545C277.066 403.433 277.004 403.331 276.92 403.25C276.03 402.37 272.1 403.16 271.66 403.25C271.618 403.26 271.579 403.283 271.549 403.315C271.519 403.347 271.498 403.387 271.49 403.43C271.486 403.473 271.495 403.516 271.517 403.554C271.538 403.591 271.571 403.621 271.61 403.64C272.449 404.079 273.326 404.441 274.23 404.72ZM276.23 403.37C276.364 403.396 276.489 403.459 276.59 403.55C276.625 403.582 276.651 403.623 276.665 403.669C276.679 403.715 276.681 403.763 276.67 403.81C276.652 403.934 276.604 404.053 276.531 404.155C276.458 404.258 276.362 404.341 276.25 404.4C275.6 404.72 274.16 404.4 272.34 403.55C273.627 403.267 274.953 403.206 276.26 403.37H276.23Z" fill="#EA3C71"/>
<path d="M271.65 403.669H271.73C272.89 403.499 275.44 402.209 275.55 401.189C275.55 400.949 275.5 400.618 274.95 400.398C274.757 400.312 274.547 400.268 274.335 400.268C274.124 400.268 273.914 400.312 273.72 400.398C272.39 400.988 271.54 403.259 271.5 403.349C271.484 403.381 271.475 403.417 271.475 403.453C271.475 403.49 271.484 403.526 271.5 403.559C271.515 403.587 271.537 403.612 271.563 403.631C271.589 403.65 271.619 403.663 271.65 403.669ZM274.65 400.749H274.78C275.14 400.899 275.12 401.049 275.11 401.099C275.05 401.719 273.26 402.789 272.04 403.099C272.388 402.14 273.033 401.316 273.88 400.749C274.135 400.65 274.416 400.65 274.67 400.749H274.65Z" fill="#EA3C71"/>
<path d="M236.14 201.778L235.41 205.078C235.3 205.338 235.61 205.578 236.03 205.548L273.32 203.248C273.65 203.248 273.91 203.048 273.92 202.848L274.05 199.578C274.05 199.358 273.76 199.178 273.4 199.208L236.71 201.468C236.596 201.466 236.484 201.493 236.384 201.547C236.284 201.602 236.2 201.681 236.14 201.778Z" fill="white"/>
<path d="M241.32 205.579L240.32 205.639C240.13 205.639 239.97 205.559 239.98 205.439L240.18 201.189C240.18 201.069 240.35 200.959 240.55 200.949L241.55 200.879C241.74 200.879 241.9 200.959 241.89 201.089L241.69 205.329C241.68 205.449 241.51 205.569 241.32 205.579Z" fill="#EA3C71"/>
<path d="M270.58 203.77L269.58 203.83C269.39 203.83 269.23 203.75 269.24 203.63L269.44 199.39C269.44 199.26 269.61 199.15 269.8 199.14L270.8 199.08C270.99 199.08 271.15 199.16 271.14 199.28L270.94 203.52C270.94 203.65 270.78 203.76 270.58 203.77Z" fill="#EA3C71"/>
<path d="M256 204.669L255 204.739C254.8 204.739 254.65 204.659 254.65 204.529L254.85 200.289C254.85 200.159 255.02 200.049 255.22 200.039L256.22 199.979C256.42 199.979 256.57 200.059 256.57 200.179L256.37 204.429C256.31 204.549 256.15 204.659 256 204.669Z" fill="#EA3C71"/>
<path d="M242.2 146C247.785 146.119 253.355 146.623 258.87 147.51C260.87 147.86 262.97 148.31 264.94 148.76C265.99 152.01 266.72 158.65 263.79 164.13C263.381 163.077 262.761 162.119 261.968 161.314C261.175 160.509 260.227 159.875 259.18 159.45C257.542 160.975 256.294 162.872 255.54 164.98C251.65 164.28 241.18 155.19 236.4 147.87L235.16 145.98C237.33 145.85 239.75 145.84 242.2 146Z" fill="white"/>
<path d="M242.71 127.629C244.09 132.999 245.71 142.759 242.2 145.939C242.2 145.939 244 151.429 253.96 152.329C264.96 153.329 258.87 147.459 258.87 147.459C252.8 145.459 252.69 141.159 253.48 137.149L242.71 127.629Z" fill="#FFB573"/>
<path d="M242.21 145.999C247.792 146.108 253.36 146.613 258.87 147.509L259.96 147.709C261.45 150.309 261.9 153.259 259.05 158.559C259.05 158.559 244.2 152.349 240.05 145.939L242.21 145.999Z" fill="#FFB573"/>
<path opacity="0.2" d="M247.1 131.52L253.47 137.15C253.272 138.091 253.161 139.048 253.14 140.01C250.83 139.48 247.03 137.19 246.64 134.81C246.567 133.693 246.723 132.573 247.1 131.52Z" fill="black"/>
<path d="M235.64 121.15C238.81 129.44 239.97 133.02 245.64 136.02C254.11 140.53 263.64 134.83 262.97 125.77C262.41 117.61 257.33 105.43 247.97 104.65C245.914 104.466 243.845 104.811 241.96 105.653C240.075 106.495 238.436 107.805 237.2 109.458C235.964 111.112 235.172 113.055 234.899 115.101C234.626 117.147 234.881 119.23 235.64 121.15Z" fill="#FFB573"/>
<path d="M248.64 121.779L247.9 121.699C248.089 120.73 248.605 119.854 249.36 119.219C249.528 119.044 249.741 118.918 249.976 118.856C250.21 118.794 250.457 118.798 250.69 118.867C250.922 118.937 251.131 119.069 251.294 119.249C251.456 119.429 251.566 119.65 251.61 119.889L250.9 120.119C250.879 120.003 250.83 119.894 250.756 119.801C250.683 119.709 250.588 119.636 250.48 119.589C250.362 119.571 250.24 119.58 250.126 119.617C250.011 119.653 249.907 119.715 249.82 119.799C249.224 120.315 248.81 121.009 248.64 121.779Z" fill="#263238"/>
<path d="M257 117.9C256.959 117.694 256.964 117.481 257.015 117.276C257.065 117.072 257.16 116.881 257.293 116.718C257.426 116.555 257.593 116.423 257.783 116.331C257.972 116.24 258.18 116.192 258.39 116.19C258.77 116.159 259.15 116.243 259.48 116.432C259.81 116.622 260.076 116.907 260.24 117.25L259.59 117.61C259.494 117.393 259.333 117.211 259.128 117.089C258.924 116.967 258.687 116.912 258.45 116.93C258.341 116.933 258.234 116.958 258.134 117.002C258.035 117.047 257.945 117.111 257.87 117.19C257.807 117.279 257.763 117.38 257.74 117.486C257.718 117.593 257.718 117.703 257.74 117.81L257 117.9Z" fill="#263238"/>
<path d="M255.59 118.729C256.693 120.11 257.982 121.331 259.42 122.359C259.147 122.718 258.799 123.014 258.4 123.227C258.001 123.439 257.561 123.562 257.11 123.589L255.59 118.729Z" fill="#ED893E"/>
<path d="M254.2 127.46C254.54 127.404 254.874 127.32 255.2 127.21C255.226 127.202 255.25 127.189 255.271 127.171C255.292 127.154 255.309 127.132 255.321 127.108C255.333 127.083 255.34 127.057 255.342 127.03C255.343 127.002 255.339 126.975 255.33 126.95C255.312 126.898 255.275 126.855 255.227 126.83C255.179 126.804 255.123 126.797 255.07 126.81C254.221 127.1 253.314 127.185 252.426 127.056C251.537 126.928 250.692 126.589 249.96 126.07C249.916 126.034 249.86 126.017 249.804 126.023C249.748 126.028 249.696 126.056 249.66 126.1C249.624 126.143 249.607 126.2 249.613 126.256C249.619 126.312 249.646 126.364 249.69 126.4C250.334 126.866 251.064 127.201 251.839 127.383C252.613 127.565 253.416 127.591 254.2 127.46Z" fill="#263238"/>
<path d="M235.44 128.7C236.499 130.052 238.047 130.932 239.75 131.15C242.01 131.41 242.75 129.31 241.86 127.36C241.03 125.61 238.86 123.36 236.73 124C236.269 124.148 235.853 124.408 235.518 124.758C235.183 125.107 234.941 125.534 234.813 126.001C234.685 126.467 234.675 126.959 234.785 127.43C234.894 127.901 235.119 128.338 235.44 128.7Z" fill="#FFB573"/>
<path d="M250 104.609C256.54 109.439 248.29 110.059 244.15 113.609C240.15 117.019 243.24 122.609 236.46 124.849C234.39 125.345 232.268 125.59 230.14 125.579C230.14 125.579 233.28 119.439 232.28 115.749C231.28 112.059 242.51 98.999 250 104.609Z" fill="#263238"/>
<path d="M248.88 103.91C250.27 106.91 253.73 106.3 256.5 109.36C258.2 111.23 260.95 104.92 256.57 102.74C252.19 100.56 246.7 99.2096 248.88 103.91Z" fill="#263238"/>
<path d="M241.77 126.349C242.7 129.879 242.3 133.049 238.77 133.979C237.929 134.199 237.053 134.251 236.191 134.133C235.33 134.014 234.501 133.727 233.75 133.288C233 132.848 232.344 132.266 231.819 131.573C231.293 130.88 230.91 130.09 230.69 129.249C230.47 128.408 230.418 127.532 230.537 126.671C230.655 125.809 230.942 124.98 231.382 124.229C231.821 123.479 232.404 122.823 233.096 122.298C233.789 121.773 234.579 121.389 235.42 121.169C238.94 120.249 240.84 122.809 241.77 126.349Z" fill="#EA3C71"/>
<path d="M241.92 101.84L237.59 103.94C229.2 110.75 234 123.23 234 123.23L237.27 121.74C237.27 121.74 233.53 108.64 241.92 101.84Z" fill="#EA3C71"/>
<path d="M234 123.498H233.89C233.823 123.47 233.769 123.416 233.74 123.348C233.69 123.218 228.97 110.598 237.41 103.748L241.8 101.608C241.861 101.578 241.93 101.572 241.995 101.59C242.059 101.609 242.115 101.651 242.15 101.708C242.186 101.764 242.201 101.832 242.192 101.898C242.183 101.964 242.15 102.024 242.1 102.068C233.94 108.688 237.5 121.548 237.54 121.678C237.555 121.742 237.548 121.809 237.521 121.869C237.494 121.928 237.448 121.977 237.39 122.008L234.11 123.498H234ZM240.4 102.878L237.71 104.188C230.3 110.188 233.53 120.998 234.15 122.858L236.95 121.578C236.53 119.908 234.25 109.408 240.4 102.878Z" fill="#EA3C71"/>
<path opacity="0.3" d="M238 127.329C238.71 130.059 238.61 132.459 236.5 133.009C234.39 133.559 232.11 131.789 231.39 129.059C230.67 126.329 231.8 123.659 233.91 123.059C236.02 122.459 237.31 124.599 238 127.329Z" fill="white"/>
<path d="M245.07 118.89C245.156 118.868 245.232 118.82 245.288 118.751C245.344 118.683 245.376 118.598 245.38 118.51C245.5 116.51 247.64 115.21 247.66 115.2C247.756 115.142 247.824 115.048 247.85 114.939C247.877 114.83 247.859 114.715 247.8 114.62C247.742 114.524 247.648 114.456 247.539 114.43C247.43 114.403 247.316 114.422 247.22 114.48C247.11 114.54 244.69 116.07 244.54 118.48C244.536 118.535 244.543 118.591 244.56 118.643C244.578 118.696 244.605 118.744 244.642 118.786C244.678 118.828 244.722 118.862 244.772 118.887C244.821 118.911 244.875 118.926 244.93 118.93L245.07 118.89Z" fill="#263238"/>
<path d="M259.29 111.869C259.363 111.869 259.435 111.85 259.499 111.813C259.562 111.776 259.614 111.723 259.65 111.659C259.679 111.611 259.698 111.558 259.706 111.503C259.714 111.447 259.711 111.391 259.697 111.337C259.683 111.283 259.658 111.233 259.624 111.188C259.591 111.144 259.548 111.107 259.5 111.079C258.924 110.731 258.273 110.525 257.602 110.48C256.93 110.435 256.258 110.551 255.64 110.819C255.539 110.869 255.463 110.957 255.427 111.064C255.391 111.171 255.4 111.288 255.45 111.389C255.501 111.489 255.589 111.566 255.696 111.602C255.803 111.637 255.919 111.629 256.02 111.579C256.51 111.371 257.044 111.285 257.574 111.326C258.105 111.368 258.618 111.537 259.07 111.819C259.14 111.849 259.214 111.866 259.29 111.869Z" fill="#263238"/>
<path d="M241 170.8L239.56 161.25L247.3 166C247.3 166 247.03 171.74 243.68 173.33L241 170.8Z" fill="#FFB573"/>
<path d="M242.32 156.42L249.55 159.04L247.33 166L239.59 161.25L242.32 156.42Z" fill="#FFB573"/>
<path d="M316.459 143.69L311.919 147.103C311.667 147.292 311.616 147.649 311.805 147.901L319.424 158.037C319.613 158.289 319.97 158.339 320.222 158.15L324.763 154.737C325.014 154.548 325.065 154.191 324.876 153.939L317.257 143.803C317.068 143.552 316.711 143.501 316.459 143.69Z" fill="#EA3C71"/>
<path d="M316.835 144.961L313.038 147.815C312.835 147.968 312.794 148.256 312.947 148.46L316.936 153.767C317.089 153.97 317.377 154.011 317.58 153.859L321.377 151.005C321.581 150.852 321.621 150.564 321.469 150.361L317.479 145.053C317.327 144.85 317.038 144.809 316.835 144.961Z" fill="white"/>
<path d="M317.88 156.5L317.82 155.25L319.09 154.5C319.744 154.116 320.34 153.641 320.86 153.09L321.3 152.63L321.02 152.22C320.867 151.997 320.645 151.831 320.389 151.746C320.133 151.662 319.856 151.663 319.6 151.75L318.53 152.11L313.16 152.84V155.12L314.88 157.47L317.88 156.5Z" fill="#FFB573"/>
</svg>
