<svg width="500" height="500" viewBox="0 0 500 500" fill="none" xmlns="http://www.w3.org/2000/svg">
<path d="M500 382.4H0V382.65H500V382.4Z" fill="#EBEBEB"/>
<path d="M449.9 398.49H416.78V398.74H449.9V398.49Z" fill="#EBEBEB"/>
<path d="M331.22 401.211H292V401.461H331.22V401.211Z" fill="#EBEBEB"/>
<path d="M415.78 389.211H358.76V389.461H415.78V389.211Z" fill="#EBEBEB"/>
<path d="M243.11 390.891H174.48V391.141H243.11V390.891Z" fill="#EBEBEB"/>
<path d="M258.34 390.891H252.01V391.141H258.34V390.891Z" fill="#EBEBEB"/>
<path d="M225.14 395.109H98.3301V395.359H225.14V395.109Z" fill="#EBEBEB"/>
<path d="M237 337.8H43.91C42.3973 337.797 40.9475 337.195 39.8788 336.124C38.8102 335.053 38.21 333.603 38.21 332.09V60.66C38.2231 59.156 38.8292 57.718 39.8964 56.6582C40.9637 55.5985 42.4059 55.0026 43.91 55H237C238.514 55 239.967 55.6016 241.038 56.6724C242.108 57.7433 242.71 59.1956 242.71 60.71V332.09C242.71 333.604 242.108 335.057 241.038 336.128C239.967 337.198 238.514 337.8 237 337.8ZM43.91 55.2C42.4636 55.2026 41.0774 55.7791 40.0556 56.8027C39.0338 57.8264 38.46 59.2136 38.46 60.66V332.09C38.46 333.536 39.0338 334.924 40.0556 335.947C41.0774 336.971 42.4636 337.547 43.91 337.55H237C238.447 337.547 239.834 336.971 240.858 335.948C241.881 334.924 242.457 333.537 242.46 332.09V60.66C242.457 59.2127 241.881 57.8255 240.858 56.8021C239.834 55.7787 238.447 55.2026 237 55.2H43.91Z" fill="#EBEBEB"/>
<path d="M453.31 337.8H260.21C258.696 337.797 257.246 337.195 256.175 336.125C255.105 335.054 254.503 333.604 254.5 332.09V60.66C254.516 59.1551 255.124 57.7171 256.193 56.6576C257.262 55.5981 258.705 55.0025 260.21 55H453.31C454.812 55.0052 456.252 55.6022 457.317 56.6617C458.382 57.7212 458.987 59.1578 459 60.66V332.09C459 333.601 458.401 335.05 457.335 336.121C456.268 337.191 454.821 337.795 453.31 337.8ZM260.21 55.2C258.763 55.2026 257.375 55.7787 256.352 56.8021C255.329 57.8255 254.753 59.2127 254.75 60.66V332.09C254.753 333.537 255.329 334.924 256.352 335.948C257.375 336.971 258.763 337.547 260.21 337.55H453.31C454.757 337.547 456.145 336.971 457.168 335.948C458.191 334.924 458.767 333.537 458.77 332.09V60.66C458.767 59.2127 458.191 57.8255 457.168 56.8021C456.145 55.7787 454.757 55.2026 453.31 55.2H260.21Z" fill="#EBEBEB"/>
<path d="M78.3401 382.4H113.37L113.37 264.72H78.3401L78.3401 382.4Z" fill="#F5F5F5"/>
<path d="M78.3299 382.4H84.1099L84.1099 264.72H78.3299L78.3299 382.4Z" fill="#F0F0F0"/>
<path d="M240.99 268.609H107.97V298.049H240.99V268.609Z" fill="#E6E6E6"/>
<path d="M240.99 306.869H107.97V313.669H240.99V306.869Z" fill="#E6E6E6"/>
<path d="M233.21 264.721H78.3301V274.941H233.21V264.721Z" fill="#F0F0F0"/>
<path d="M233.21 382.4H268.24V264.72H233.21V382.4Z" fill="#F5F5F5"/>
<path d="M233.21 382.4H238.99L238.99 264.72H233.21V382.4Z" fill="#F0F0F0"/>
<path d="M344.26 382.401V200.561H284.13V382.401H344.26Z" fill="#F0F0F0"/>
<path d="M340.96 258.639V205.109H287.43V258.639H340.96Z" fill="#E6E6E6"/>
<path d="M340.96 316.979V263.449H287.43V316.979H340.96Z" fill="#E6E6E6"/>
<path d="M340.96 375.309V321.779H287.43V375.309H340.96Z" fill="#E6E6E6"/>
<path d="M308.49 258.649V205.119H287.44V258.649H308.49Z" fill="#E0E0E0"/>
<path d="M308.48 316.979V263.449H287.43V316.979H308.48Z" fill="#E0E0E0"/>
<path d="M308.49 375.319V321.789H287.44V375.319H308.49Z" fill="#E0E0E0"/>
<path d="M360.59 382.391V200.551H344.26V382.391H360.59Z" fill="#F5F5F5"/>
<path d="M408.55 382.401V200.561H348.42V382.401H408.55Z" fill="#F0F0F0"/>
<path d="M405.24 258.649V205.119H351.71V258.649H405.24Z" fill="#E6E6E6"/>
<path d="M405.25 316.979V263.449H351.72V316.979H405.25Z" fill="#E6E6E6"/>
<path d="M405.25 375.319V321.789H351.72V375.319H405.25Z" fill="#E6E6E6"/>
<path d="M372.78 258.649V205.119H351.73V258.649H372.78Z" fill="#E0E0E0"/>
<path d="M372.77 316.979V263.449H351.72V316.979H372.77Z" fill="#E0E0E0"/>
<path d="M372.77 375.309V321.779H351.72V375.309H372.77Z" fill="#E0E0E0"/>
<path d="M424.88 382.401V200.561H408.55V382.401H424.88Z" fill="#F5F5F5"/>
<path d="M388.252 254.591C393.649 249.194 393.649 240.443 388.252 235.046C382.855 229.649 374.104 229.649 368.707 235.046C363.31 240.443 363.31 249.194 368.707 254.591C374.104 259.988 382.855 259.988 388.252 254.591Z" fill="#F5F5F5"/>
<path d="M331.33 303.16C331.233 306.762 329.734 310.185 327.152 312.698C324.57 315.212 321.109 316.618 317.505 316.618C313.902 316.618 310.44 315.212 307.858 312.698C305.276 310.185 303.777 306.762 303.68 303.16H331.33Z" fill="#F0F0F0"/>
<path d="M331.33 292.82C331.379 294.667 331.059 296.505 330.386 298.226C329.714 299.947 328.703 301.515 327.415 302.839C326.126 304.163 324.585 305.215 322.883 305.934C321.181 306.652 319.352 307.022 317.505 307.022C315.657 307.022 313.829 306.652 312.127 305.934C310.424 305.215 308.884 304.163 307.595 302.839C306.306 301.515 305.296 299.947 304.623 298.226C303.951 296.505 303.63 294.667 303.68 292.82H331.33Z" fill="#F0F0F0"/>
<path d="M355.35 375.311H398.81V329.501H355.35V375.311Z" fill="#F0F0F0"/>
<path d="M405.24 329.5H398.81V375.31H405.24V329.5Z" fill="#E0E0E0"/>
<path d="M366.66 200.561H383.94V133.601H366.66V200.561Z" fill="#E6E6E6"/>
<path d="M319.81 200.56H377.16L385.82 122.18H328.47L319.81 200.56Z" fill="#F0F0F0"/>
<path d="M313.6 200.56H372.83L381.5 122.18H322.26L313.6 200.56Z" fill="#F5F5F5"/>
<path d="M355.76 200.56H367.26L354.01 122.18H342.52L355.76 200.56Z" fill="#FAFAFA"/>
<path d="M345.52 200.56H349.98L336.73 122.18H332.27L345.52 200.56Z" fill="#FAFAFA"/>
<path d="M205.94 238.01V87.3398L70.9399 87.3398V238.01H205.94Z" fill="#EBEBEB"/>
<path d="M207.16 238V87.3301H205.94V238H207.16Z" fill="#E0E0E0"/>
<path d="M80.9399 228H195.94L195.94 97.33H80.9399L80.9399 228Z" fill="#F5F5F5"/>
<path d="M147.51 235H179.9V189.67H147.51V235Z" fill="white"/>
<path d="M100.01 219.041H132.39L134.72 173.711H102.34L100.01 219.041Z" fill="white"/>
<path d="M165.59 138.379H197.97L200.3 93.0391H167.92L165.59 138.379Z" fill="white"/>
<path d="M123.044 164.324L155.393 165.742L157.378 120.456L125.029 119.038L123.044 164.324Z" fill="white"/>
<path d="M76.677 151.735L109.043 150.797L107.73 105.486L75.3639 106.424L76.677 151.735Z" fill="white"/>
<path d="M250 427.56C357.082 427.56 443.89 422.492 443.89 416.24C443.89 409.988 357.082 404.92 250 404.92C142.917 404.92 56.1099 409.988 56.1099 416.24C56.1099 422.492 142.917 427.56 250 427.56Z" fill="#F5F5F5"/>
<path d="M154.92 408.349H162.65L165.74 390.459H158.01L154.92 408.349Z" fill="#FFC3BD"/>
<path d="M109.49 408.349H117.22L124.28 390.459H116.55L109.49 408.349Z" fill="#FFC3BD"/>
<path d="M118.3 407.459H108.88C108.726 407.461 108.577 407.513 108.454 407.607C108.332 407.701 108.243 407.831 108.2 407.979L106.27 414.849C106.222 415.006 106.211 415.173 106.238 415.335C106.266 415.497 106.33 415.651 106.427 415.784C106.524 415.917 106.651 416.025 106.797 416.101C106.944 416.176 107.105 416.217 107.27 416.219C110.27 416.169 112.53 415.989 116.34 415.989C118.69 415.989 123.51 416.239 126.76 416.239C130.01 416.239 130.61 413.029 129.3 412.739C123.42 411.439 121.3 409.639 119.48 407.929C119.158 407.633 118.738 407.465 118.3 407.459Z" fill="#263238"/>
<path d="M162.64 407.459H154.21C154.054 407.461 153.904 407.512 153.78 407.606C153.655 407.699 153.564 407.83 153.52 407.979L151.6 414.849C151.549 415.006 151.537 415.174 151.563 415.337C151.59 415.5 151.654 415.655 151.752 415.788C151.849 415.922 151.977 416.03 152.124 416.105C152.271 416.18 152.434 416.219 152.6 416.219C155.6 416.169 160.05 415.989 163.87 415.989C168.35 415.989 172.19 416.239 177.44 416.239C180.61 416.239 181.67 413.029 180.36 412.739C174.36 411.419 169.47 411.279 164.44 408.059C163.909 407.693 163.284 407.485 162.64 407.459Z" fill="#263238"/>
<path d="M162.24 187.09C166.32 189.65 170.61 192.23 174.84 194.68C179.07 197.13 183.37 199.51 187.67 201.57C188.74 202.1 189.81 202.57 190.88 203.05C191.41 203.29 191.94 203.48 192.47 203.7L193.27 204.03L193.92 204.27C195.294 204.869 196.811 205.06 198.29 204.82C199.906 204.413 201.355 203.515 202.44 202.25C203.147 201.49 203.793 200.674 204.37 199.81C204.67 199.36 204.96 198.89 205.23 198.41L206 197L211.66 198.3C211.577 199.053 211.454 199.8 211.29 200.54C211.13 201.24 210.95 201.94 210.73 202.64C210.294 204.074 209.701 205.456 208.96 206.76C208.144 208.183 207.135 209.485 205.96 210.63C204.682 211.891 203.184 212.908 201.54 213.63C199.847 214.363 198.033 214.777 196.19 214.85C194.464 214.928 192.736 214.757 191.06 214.34C190.68 214.25 190.22 214.15 189.9 214.04L188.9 213.73C188.25 213.52 187.58 213.32 186.95 213.09C185.69 212.62 184.39 212.18 183.18 211.66C178.354 209.661 173.643 207.394 169.07 204.87C166.8 203.63 164.56 202.36 162.36 201.02C160.16 199.68 157.99 198.36 155.78 196.87L162.24 187.09Z" fill="#FFC3BD"/>
<path d="M150.61 194.219C152.14 201.599 170.71 212.219 170.71 212.219L177.48 194.429C177.48 194.429 172.19 191.119 164.29 185.839C156.39 180.559 148.92 186.119 150.61 194.219Z" fill="#263238"/>
<path d="M203.85 199.85L209.22 191.42L213.22 200.6C213.22 200.6 210.04 205.42 205.13 202.94L203.85 199.85Z" fill="#FFC3BD"/>
<path d="M216.07 188.23L218.7 195.11L213.23 200.59L209.22 191.42L216.07 188.23Z" fill="#FFC3BD"/>
<path opacity="0.2" d="M165.74 390.469L164.14 399.689H156.42L158.01 390.469H165.74Z" fill="black"/>
<path opacity="0.2" d="M116.55 390.469H124.28L120.63 399.689H112.91L116.55 390.469Z" fill="black"/>
<path d="M159.57 184C159.57 184 170.3 206.12 164.86 250.64L123.86 256.02C123.12 249.72 124.86 218.29 116.59 189.24C121.04 187.771 125.58 186.586 130.18 185.69C135.934 184.594 141.747 183.833 147.59 183.41C151.593 183.288 155.599 183.485 159.57 184Z" fill="#263238"/>
<path opacity="0.2" d="M116.63 189.26L116.81 189.2C120.81 188.08 125.42 192.3 127.88 198.46C131.47 207.46 135.7 219.33 135.7 219.33L122.45 222.5C121.54 211.264 119.591 200.137 116.63 189.26Z" fill="black"/>
<path d="M130.51 165.73C132.02 171.23 133.86 181.43 130.22 185.73C134.937 189.664 140.72 192.101 146.83 192.73C150.66 188.66 147.63 183.46 147.63 183.46C141.27 182.77 141.1 178.08 141.87 173.55L130.51 165.73Z" fill="#FFC3BD"/>
<path d="M162.42 234.42L153.23 183.42C151.539 183.724 149.925 184.358 148.479 185.286C147.033 186.213 145.784 187.417 144.804 188.828C143.823 190.238 143.13 191.828 142.764 193.507C142.398 195.185 142.366 196.919 142.67 198.61L147.22 223.89C147.843 227.3 149.793 230.324 152.643 232.298C155.492 234.272 159.009 235.035 162.42 234.42Z" fill="#3FBA95"/>
<path opacity="0.3" d="M162.42 234.42L153.23 183.42C151.539 183.724 149.925 184.358 148.479 185.286C147.033 186.213 145.784 187.417 144.804 188.828C143.823 190.238 143.13 191.828 142.764 193.507C142.398 195.185 142.366 196.919 142.67 198.61L147.22 223.89C147.843 227.3 149.793 230.324 152.643 232.298C155.492 234.272 159.009 235.035 162.42 234.42Z" fill="black"/>
<path d="M197.63 284.901L191.19 286.061C190.083 286.259 188.946 286.22 187.855 285.946C186.764 285.671 185.743 285.168 184.862 284.469C183.98 283.77 183.258 282.892 182.742 281.892C182.226 280.892 181.929 279.794 181.87 278.671L179.22 227.671C179.117 225.744 179.722 223.845 180.921 222.333C182.12 220.821 183.83 219.799 185.73 219.461L197.64 217.311C198.919 217.083 200.234 217.172 201.47 217.572C202.706 217.971 203.825 218.668 204.729 219.601C205.633 220.535 206.293 221.676 206.652 222.924C207.012 224.172 207.059 225.49 206.79 226.761L202 249.181C201.838 249.953 201.79 250.745 201.86 251.531L204.08 276.401C204.257 278.366 203.694 280.328 202.501 281.9C201.308 283.472 199.571 284.542 197.63 284.901Z" fill="#3FBA95"/>
<path opacity="0.2" d="M197.64 217.289L185.73 219.429C183.832 219.772 182.124 220.794 180.926 222.306C179.728 223.817 179.121 225.713 179.22 227.639L180.09 244.569C187.943 243.236 195.817 242.126 203.71 241.239L206.79 226.719C207.058 225.449 207.01 224.133 206.649 222.886C206.289 221.639 205.628 220.5 204.724 219.569C203.821 218.637 202.702 217.942 201.467 217.545C200.231 217.147 198.917 217.059 197.64 217.289Z" fill="black"/>
<path d="M207.48 264.86L196.65 266.8L196.74 248.02L207.57 246.07L207.48 264.86Z" fill="#3FBA95"/>
<path d="M209.12 255.169C209.12 260.359 208.36 264.699 207.48 264.849C206.6 264.999 205.9 260.939 205.92 255.749C205.94 250.559 206.68 246.229 207.57 246.069C208.46 245.909 209.15 249.999 209.12 255.169Z" fill="#3FBA95"/>
<path opacity="0.2" d="M209.12 255.169C209.12 260.359 208.36 264.699 207.48 264.849C206.6 264.999 205.9 260.939 205.92 255.749C205.94 250.559 206.68 246.229 207.57 246.069C208.46 245.909 209.15 249.999 209.12 255.169Z" fill="black"/>
<path d="M163.2 170.71C159.641 171.359 156.485 173.394 154.423 176.367C152.361 179.339 151.561 183.008 152.2 186.57L160.34 231.8C160.987 235.36 163.021 238.518 165.995 240.58C168.968 242.643 172.638 243.441 176.2 242.8C202.78 238.021 229.77 235.908 256.77 236.49L284.54 237.1L266.76 138.27L240.94 148.52C215.831 158.489 189.788 165.923 163.2 170.71Z" fill="#3FBA95"/>
<path opacity="0.3" d="M234.5 151L249.86 236.41C251.21 236.41 252.57 236.41 253.92 236.41L238.28 149.51C237 150.07 235.76 150.55 234.5 151Z" fill="black"/>
<path d="M279.82 187C284.73 214.29 286.82 236.75 284.52 237.17C282.22 237.59 276.35 215.8 271.44 188.51C266.53 161.22 264.44 138.76 266.74 138.34C269.04 137.92 274.91 159.66 279.82 187Z" fill="#3FBA95"/>
<path opacity="0.2" d="M279.82 187C284.73 214.29 286.82 236.75 284.52 237.17C282.22 237.59 276.35 215.8 271.44 188.51C266.53 161.22 264.44 138.76 266.74 138.34C269.04 137.92 274.91 159.66 279.82 187Z" fill="black"/>
<path opacity="0.2" d="M135.14 168.91L141.86 173.52C141.665 174.569 141.561 175.633 141.55 176.7C139.14 176.7 135.67 174.46 135.23 171.98C135.015 170.971 134.985 169.931 135.14 168.91Z" fill="black"/>
<path d="M140.81 143.281C144.87 143.651 150.99 154.561 146.92 158.401C142.85 162.241 133.12 142.571 140.81 143.281Z" fill="#263238"/>
<path d="M126.56 158.84C128.93 166.04 129.94 170.39 134.64 172.97C141.7 176.85 149.92 170.59 149.77 162.7C149.64 155.6 145.77 145.02 137.83 144.4C136.03 144.29 134.23 144.619 132.586 145.361C130.942 146.102 129.504 147.232 128.394 148.653C127.285 150.075 126.538 151.745 126.218 153.52C125.899 155.294 126.016 157.12 126.56 158.84Z" fill="#FFC3BD"/>
<path d="M146 142.11C144.027 141.707 142.012 141.549 140 141.64C141.169 140.562 142.231 139.373 143.17 138.09C141.29 139.378 139.203 140.335 137 140.92C137.368 139.999 137.597 139.028 137.68 138.04C136.15 139.88 133.55 141.13 130.74 142.18C131.938 140.687 132.862 138.994 133.47 137.18C131.72 140.41 125.15 143.18 121.01 145.93H120.95C120.659 146.102 120.382 146.296 120.12 146.51C119.782 146.748 119.49 147.046 119.26 147.39C118.868 147.823 118.574 148.334 118.395 148.89C118.217 149.446 118.159 150.033 118.225 150.613C118.291 151.193 118.48 151.752 118.779 152.253C119.078 152.754 119.481 153.186 119.96 153.52C119.203 154.057 118.661 154.845 118.432 155.745C118.203 156.644 118.302 157.596 118.71 158.43C118.65 157.03 118.98 155.5 119.99 154.88C118.29 159.8 123.99 164.44 129.07 165.75C132.07 166.51 133.91 155.03 131.07 150.49C134.92 150 138.21 149.04 140.18 147.68C138.697 148.161 137.123 148.294 135.58 148.07C139.28 146.61 143.26 144.55 146.4 145.07C144.888 144.519 143.289 144.245 141.68 144.26C142.744 143.823 143.88 143.589 145.03 143.57C148.4 143.71 150.62 146.57 149.76 148.49C151.05 146.42 150.58 143.08 146 142.11Z" fill="#263238"/>
<path d="M125.34 168C126.043 168.619 126.865 169.089 127.756 169.379C128.646 169.67 129.587 169.775 130.52 169.69C133.05 169.45 133.52 166.93 132.2 164.99C130.98 163.25 128.2 161.27 125.96 162.48C125.478 162.737 125.065 163.108 124.758 163.56C124.451 164.013 124.259 164.533 124.198 165.076C124.137 165.62 124.209 166.17 124.408 166.679C124.607 167.188 124.927 167.642 125.34 168Z" fill="#FFC3BD"/>
<path d="M164.86 250.66C164.86 250.66 185.86 308.39 183.63 331.94C181.34 356.45 167.15 397.94 167.15 397.94H154.06C154.06 397.94 161.74 357.94 162.56 333.85C163.45 307.62 139.41 274.45 137.94 254.24L164.86 250.66Z" fill="#3FBA95"/>
<path opacity="0.2" d="M143.44 270.559C142.969 270.257 142.457 270.024 141.92 269.869C146.52 282.259 153.97 296.709 158.55 310.809C159.05 287.499 154 277.119 143.44 270.559Z" fill="black"/>
<path d="M150.33 252.57C150.33 252.57 156.33 309.67 150.24 331.78C143.57 356 124.37 397.9 124.37 397.9H110.22C110.22 397.9 122.54 358 126.94 334C131.72 308 125.31 275.39 123.94 256.06L150.33 252.57Z" fill="#3FBA95"/>
<path d="M126.86 398.21H108.89L110.1 392.91H129.34L126.86 398.21Z" fill="#3FBA95"/>
<path opacity="0.4" d="M126.86 398.21H108.89L110.1 392.91H129.34L126.86 398.21Z" fill="black"/>
<path d="M170.05 398.21H152.27L152.56 393.17L171.04 392.91L170.05 398.21Z" fill="#3FBA95"/>
<path opacity="0.4" d="M170.05 398.21H152.27L152.56 393.17L171.04 392.91L170.05 398.21Z" fill="black"/>
<path d="M138.27 157.33C138.42 157.92 138.87 158.33 139.27 158.18C139.67 158.03 139.85 157.47 139.7 156.87C139.55 156.27 139.1 155.87 138.7 156.02C138.3 156.17 138.11 156.73 138.27 157.33Z" fill="#263238"/>
<path d="M145 155.16C145.16 155.76 145.6 156.16 146 156.02C146.4 155.88 146.59 155.3 146.43 154.71C146.27 154.12 145.83 153.71 145.43 153.85C145.03 153.99 144.89 154.56 145 155.16Z" fill="#263238"/>
<path d="M143 156.15C144.186 157.743 145.598 159.154 147.19 160.34C146.864 160.762 146.452 161.11 145.981 161.36C145.511 161.61 144.992 161.757 144.46 161.79L143 156.15Z" fill="#ED847E"/>
<path d="M143.12 164C142.343 164.284 141.508 164.37 140.689 164.251C139.871 164.132 139.095 163.813 138.43 163.32C138.412 163.303 138.399 163.283 138.389 163.261C138.379 163.239 138.375 163.215 138.375 163.19C138.375 163.166 138.379 163.142 138.389 163.12C138.399 163.097 138.412 163.077 138.43 163.06C138.464 163.028 138.508 163.01 138.555 163.01C138.602 163.01 138.646 163.028 138.68 163.06C139.303 163.507 140.026 163.796 140.785 163.902C141.544 164.008 142.318 163.929 143.04 163.67C143.062 163.663 143.086 163.66 143.109 163.662C143.133 163.664 143.156 163.671 143.176 163.682C143.197 163.693 143.215 163.709 143.23 163.727C143.244 163.746 143.254 163.767 143.26 163.79C143.264 163.836 143.253 163.882 143.227 163.92C143.202 163.958 143.164 163.987 143.12 164Z" fill="#263238"/>
<path d="M135.66 155.8C135.585 155.82 135.505 155.82 135.43 155.8C135.385 155.784 135.344 155.758 135.309 155.725C135.274 155.692 135.247 155.653 135.228 155.609C135.209 155.564 135.2 155.517 135.2 155.469C135.201 155.421 135.211 155.374 135.23 155.33C135.437 154.772 135.769 154.268 136.201 153.857C136.632 153.446 137.152 153.139 137.72 152.96C137.766 152.948 137.814 152.946 137.861 152.953C137.908 152.961 137.953 152.978 137.993 153.003C138.033 153.028 138.068 153.061 138.095 153.1C138.122 153.139 138.141 153.184 138.15 153.23C138.164 153.327 138.142 153.426 138.089 153.509C138.035 153.592 137.954 153.652 137.86 153.68C137.404 153.821 136.987 154.065 136.64 154.393C136.294 154.72 136.027 155.123 135.86 155.57C135.824 155.669 135.753 155.751 135.66 155.8Z" fill="#263238"/>
<path d="M147.41 151.89C147.346 151.911 147.277 151.913 147.212 151.897C147.147 151.882 147.087 151.848 147.04 151.8C146.754 151.446 146.386 151.17 145.966 150.995C145.547 150.821 145.091 150.754 144.64 150.8C144.594 150.81 144.547 150.81 144.501 150.801C144.456 150.791 144.412 150.772 144.374 150.745C144.337 150.717 144.305 150.682 144.282 150.642C144.259 150.601 144.244 150.556 144.24 150.51C144.23 150.412 144.256 150.315 144.313 150.236C144.37 150.157 144.455 150.101 144.55 150.08C145.108 150.009 145.675 150.079 146.199 150.283C146.723 150.487 147.187 150.82 147.55 151.25C147.616 151.32 147.653 151.413 147.653 151.51C147.653 151.606 147.616 151.699 147.55 151.77C147.517 151.824 147.468 151.866 147.41 151.89Z" fill="#263238"/>
<path d="M124.86 195.5C125.72 198.85 126.62 202.37 127.59 205.78C128.56 209.19 129.53 212.62 130.59 215.98C131.65 219.34 132.83 222.66 134.08 225.88C135.25 228.987 136.665 231.996 138.31 234.88C138.51 235.19 138.7 235.55 138.9 235.83L139.21 236.28L139.36 236.5C139.646 236.846 139.983 237.146 140.36 237.39C141.632 238.271 142.969 239.053 144.36 239.73C147.36 241.22 150.63 242.59 153.93 243.88C160.55 246.46 167.41 248.88 174.21 251.2L172.89 256.85C165.555 255.788 158.289 254.292 151.13 252.37C147.452 251.391 143.833 250.202 140.29 248.81C138.337 248.048 136.451 247.125 134.65 246.05C133.471 245.343 132.395 244.478 131.45 243.48L131 243L130.75 242.68L130.24 242.02C129.89 241.58 129.62 241.15 129.31 240.71C127.122 237.399 125.241 233.894 123.69 230.24C122.13 226.75 120.81 223.24 119.58 219.67C117.126 212.62 115.066 205.439 113.41 198.16L124.86 195.5Z" fill="#FFC3BD"/>
<path d="M112.05 193.509C108.25 202.369 114.43 222.579 114.43 222.579L132.93 217.829C131.787 210.698 130.14 203.657 128 196.759C124.8 187.289 115 186.689 112.05 193.509Z" fill="#263238"/>
<path d="M120.78 408.809C120.105 408.792 119.434 408.698 118.78 408.529C118.746 408.519 118.716 408.5 118.692 408.473C118.669 408.447 118.655 408.414 118.65 408.379C118.649 408.343 118.657 408.307 118.675 408.275C118.693 408.243 118.719 408.217 118.75 408.199C119.04 408.019 121.62 406.489 122.45 406.929C122.542 406.979 122.618 407.055 122.667 407.147C122.717 407.239 122.739 407.344 122.73 407.449C122.745 407.638 122.713 407.828 122.638 408.002C122.563 408.176 122.447 408.329 122.3 408.449C121.847 408.733 121.313 408.86 120.78 408.809ZM119.32 408.269C120.222 408.57 121.204 408.52 122.07 408.129C122.167 408.05 122.244 407.949 122.295 407.834C122.345 407.719 122.368 407.594 122.36 407.469C122.363 407.426 122.355 407.382 122.335 407.344C122.316 407.305 122.286 407.272 122.25 407.249C121.82 406.999 120.36 407.689 119.32 408.269Z" fill="#3FBA95"/>
<path d="M118.81 408.53H118.72C118.693 408.514 118.671 408.49 118.657 408.462C118.643 408.433 118.637 408.402 118.64 408.37C118.64 408.27 118.97 406.04 119.91 405.31C120.018 405.218 120.144 405.15 120.28 405.11C120.416 405.071 120.559 405.06 120.7 405.08C120.835 405.076 120.966 405.122 121.069 405.209C121.172 405.295 121.24 405.417 121.26 405.55C121.37 406.42 119.73 408.11 118.9 408.55C118.868 408.555 118.836 408.548 118.81 408.53ZM120.56 405.4C120.403 405.405 120.252 405.461 120.13 405.56C119.552 406.249 119.185 407.089 119.07 407.98C119.9 407.38 120.96 406.1 120.89 405.59C120.89 405.59 120.89 405.44 120.64 405.41L120.56 405.4Z" fill="#3FBA95"/>
<path d="M165.78 408.81C164.969 408.793 164.162 408.699 163.37 408.53C163.333 408.525 163.298 408.508 163.273 408.48C163.247 408.453 163.232 408.417 163.23 408.38C163.226 408.341 163.235 408.301 163.255 408.267C163.274 408.233 163.304 408.206 163.34 408.19C163.7 408.01 166.89 406.43 167.8 406.96C167.885 407.008 167.956 407.077 168.005 407.162C168.054 407.246 168.08 407.342 168.08 407.44C168.087 407.609 168.054 407.778 167.985 407.932C167.916 408.087 167.811 408.223 167.68 408.33C167.118 408.698 166.449 408.867 165.78 408.81ZM163.99 408.27C165.68 408.55 166.99 408.48 167.45 408.06C167.537 407.989 167.605 407.899 167.651 407.796C167.696 407.693 167.716 407.582 167.71 407.47C167.713 407.432 167.705 407.394 167.687 407.36C167.67 407.327 167.643 407.299 167.61 407.28C167.11 407 165.3 407.66 164 408.27H163.99Z" fill="#3FBA95"/>
<path d="M163.4 408.53C163.367 408.54 163.333 408.54 163.3 408.53C163.274 408.511 163.254 408.485 163.242 408.455C163.229 408.425 163.225 408.392 163.23 408.36C163.37 407.244 163.848 406.197 164.6 405.36C164.881 405.131 165.238 405.016 165.6 405.04C166.1 405.1 166.23 405.35 166.26 405.56C166.35 406.43 164.4 408.1 163.45 408.56L163.4 408.53ZM165.47 405.4C165.232 405.4 165.001 405.485 164.82 405.64C164.205 406.301 163.802 407.129 163.66 408.02C164.66 407.45 165.98 406.14 165.92 405.61C165.92 405.61 165.92 405.44 165.58 405.41L165.47 405.4Z" fill="#3FBA95"/>
<path d="M172.74 251.069L180.47 249.799L177.36 259.409C177.36 259.409 170.62 259.019 170.63 255.339L172.74 251.069Z" fill="#FFC3BD"/>
<path d="M187.79 253.369L184.83 261.129L177.36 259.409L180.47 249.799L187.79 253.369Z" fill="#FFC3BD"/>
<path d="M392.33 143.531L381 101.431C380.779 100.61 380.399 99.8406 379.882 99.1666C379.364 98.4927 378.718 97.9273 377.982 97.5029C377.245 97.0785 376.432 96.8034 375.59 96.6932C374.747 96.5831 373.891 96.6401 373.07 96.8609L291.07 118.861C289.411 119.308 287.998 120.396 287.141 121.885C286.284 123.374 286.054 125.142 286.5 126.801L297.82 168.901C298.265 170.559 299.35 171.973 300.837 172.832C302.324 173.69 304.091 173.924 305.75 173.481L317.32 170.371L333.25 179.541L329.86 167.001L387.76 151.441C389.412 150.993 390.82 149.91 391.676 148.428C392.532 146.946 392.767 145.186 392.33 143.531Z" fill="#3FBA95"/>
<path opacity="0.2" d="M392.33 143.531L381 101.431C380.779 100.61 380.399 99.8406 379.882 99.1666C379.364 98.4927 378.718 97.9273 377.982 97.5029C377.245 97.0785 376.432 96.8034 375.59 96.6932C374.747 96.5831 373.891 96.6401 373.07 96.8609L291.07 118.861C289.411 119.308 287.998 120.396 287.141 121.885C286.284 123.374 286.054 125.142 286.5 126.801L297.82 168.901C298.265 170.559 299.35 171.973 300.837 172.832C302.324 173.69 304.091 173.924 305.75 173.481L317.32 170.371L333.25 179.541L329.86 167.001L387.76 151.441C389.412 150.993 390.82 149.91 391.676 148.428C392.532 146.946 392.767 145.186 392.33 143.531Z" fill="black"/>
<path d="M425.74 231.68L430.12 203.18C430.292 202.058 430.012 200.914 429.34 199.999C428.669 199.083 427.662 198.472 426.54 198.3L371 189.76C370.444 189.673 369.877 189.697 369.33 189.83C368.784 189.964 368.269 190.203 367.816 190.536C367.363 190.869 366.979 191.288 366.688 191.769C366.397 192.25 366.204 192.784 366.12 193.34L361.73 221.84C361.558 222.962 361.838 224.106 362.509 225.021C363.181 225.937 364.188 226.548 365.31 226.72L373.14 227.93L380.33 237.73L381.64 229.23L420.82 235.23C421.376 235.321 421.945 235.302 422.494 235.173C423.042 235.044 423.56 234.807 424.017 234.477C424.475 234.147 424.862 233.731 425.158 233.251C425.453 232.77 425.651 232.237 425.74 231.68Z" fill="#3FBA95"/>
<path opacity="0.3" d="M425.74 231.68L430.12 203.18C430.292 202.058 430.012 200.914 429.34 199.999C428.669 199.083 427.662 198.472 426.54 198.3L371 189.76C370.444 189.673 369.877 189.697 369.33 189.83C368.784 189.964 368.269 190.203 367.816 190.536C367.363 190.869 366.979 191.288 366.688 191.769C366.397 192.25 366.204 192.784 366.12 193.34L361.73 221.84C361.558 222.962 361.838 224.106 362.509 225.021C363.181 225.937 364.188 226.548 365.31 226.72L373.14 227.93L380.33 237.73L381.64 229.23L420.82 235.23C421.376 235.321 421.945 235.302 422.494 235.173C423.042 235.044 423.56 234.807 424.017 234.477C424.475 234.147 424.862 233.731 425.158 233.251C425.453 232.77 425.651 232.237 425.74 231.68Z" fill="white"/>
<path d="M423.77 185.481L416.63 134.481C416.347 132.469 415.277 130.653 413.655 129.43C412.033 128.207 409.992 127.679 407.98 127.961L308.57 141.861C306.558 142.144 304.741 143.214 303.519 144.836C302.296 146.458 301.768 148.499 302.05 150.511L309.19 201.511C309.327 202.507 309.66 203.466 310.169 204.334C310.678 205.201 311.353 205.959 312.156 206.565C312.959 207.171 313.873 207.612 314.847 207.864C315.821 208.115 316.834 208.172 317.83 208.031L331.83 206.031L349.18 219.121L347.05 203.901L417.22 194.091C419.228 193.813 421.044 192.751 422.271 191.138C423.499 189.524 424.038 187.491 423.77 185.481Z" fill="#3FBA95"/>
<path d="M318.43 164.26L324.06 163.47L332.91 173.23L331.4 162.44L337.08 161.65L339.81 181.15L334.13 181.95L325.33 172.26L326.83 182.97L321.16 183.76L318.43 164.26Z" fill="white"/>
<path d="M341.07 161.09L357.23 158.83L357.81 163L347.7 164.41L348.13 167.51L357.51 166.2L358.07 170.2L348.69 171.51L349.22 175.35L359.63 173.9L360.25 178.31L343.8 180.61L341.07 161.09Z" fill="white"/>
<path d="M358.76 158.621L364.48 157.821L368.07 168.451L369.56 157.111L375.26 156.311L379.81 166.791L380.35 155.601L386.04 154.801L384.47 174.911L378.56 175.731L373.42 163.931L371.73 176.691L365.82 177.511L358.76 158.621Z" fill="white"/>
<path d="M388.78 167.72L394.47 166.56C394.625 167.302 394.97 167.991 395.47 168.56C395.844 168.909 396.296 169.163 396.788 169.304C397.279 169.445 397.798 169.468 398.3 169.37C399.021 169.317 399.697 169.001 400.2 168.48C400.391 168.284 400.536 168.048 400.624 167.788C400.713 167.529 400.742 167.253 400.71 166.98C400.666 166.721 400.567 166.473 400.418 166.256C400.27 166.038 400.076 165.856 399.85 165.72C398.833 165.256 397.728 165.017 396.61 165.02C394.513 164.974 392.457 164.433 390.61 163.44C389.998 163.058 389.481 162.543 389.095 161.934C388.709 161.325 388.464 160.637 388.38 159.92C388.235 158.895 388.402 157.85 388.86 156.92C389.373 155.887 390.18 155.028 391.18 154.45C392.632 153.666 394.227 153.18 395.87 153.02C397.851 152.616 399.908 152.822 401.77 153.61C402.527 154.041 403.183 154.631 403.692 155.338C404.201 156.046 404.552 156.855 404.72 157.71L399.09 158.84C398.911 158.117 398.478 157.482 397.87 157.05C397.23 156.707 396.492 156.594 395.78 156.73C395.21 156.767 394.671 157.005 394.26 157.4C394.112 157.552 394.001 157.735 393.936 157.936C393.87 158.137 393.851 158.351 393.88 158.56C393.908 158.724 393.973 158.88 394.07 159.015C394.167 159.15 394.293 159.261 394.44 159.34C395.107 159.635 395.83 159.782 396.56 159.77C398.556 159.85 400.536 160.162 402.46 160.7C403.541 161.035 404.508 161.665 405.25 162.52C405.893 163.32 406.302 164.282 406.43 165.3C406.61 166.528 406.418 167.782 405.88 168.9C405.321 170.068 404.431 171.046 403.32 171.71C401.907 172.511 400.345 173.011 398.73 173.18C395.396 173.647 393.01 173.314 391.57 172.18C390.144 171.068 389.156 169.489 388.78 167.72Z" fill="white"/>
</svg>
