<svg width="300" height="300" viewBox="0 0 300 300" fill="none" xmlns="http://www.w3.org/2000/svg">
<path d="M266.781 110.028L262.953 128.605L260.489 126.196L256.297 129.194L253.093 125.206L245.909 130.441L239.769 120.152L232.921 124.172L230.205 120.421L221.509 125.331L218.893 119.715L224.989 90.1323L257.669 96.8938L266.781 110.028Z" fill="#EBEBEB"/>
<path d="M257.667 96.8945L266.779 110.029L255.443 107.684L257.667 96.8945Z" fill="#DBDBDB"/>
<path d="M262.136 132.317L256.524 159.572L212.504 150.466L218.076 123.432L220.692 129.043L229.392 124.133L232.104 127.885L238.956 123.869L245.092 134.157L252.28 128.923L255.48 132.907L259.676 129.913L262.136 132.317Z" fill="#EBEBEB"/>
<path d="M199.131 129.122L154.271 131.904L150.707 74.2048L184.019 72.1367L196.247 82.4172L199.131 129.122Z" fill="#EBEBEB"/>
<path d="M184.02 72.1367L196.247 82.4172L184.696 83.1347L184.02 72.1367Z" fill="#DBDBDB"/>
<path d="M171.599 110.962L171.423 109.66C170.971 106.963 171.707 103.944 174.047 100.79C176.159 97.9846 177.303 95.9806 177.175 93.704C177.031 91.1389 175.331 89.5197 172.167 89.6479C170.358 89.742 168.622 90.3851 167.187 91.4916L165.807 88.3934C167.407 87.0908 170.207 86.1289 172.867 85.9886C178.639 85.668 181.447 89.0908 181.667 92.9105C181.859 96.3293 180.091 98.8984 177.843 101.9C175.779 104.638 175.103 106.894 175.395 109.447L175.519 110.754L171.599 110.962ZM170.887 118.061C170.783 116.201 171.963 114.822 173.719 114.726C175.475 114.63 176.755 115.864 176.859 117.728C176.955 119.487 175.879 120.906 174.023 121.011C172.251 121.111 170.971 119.82 170.871 118.061H170.887Z" fill="#DBDBDB"/>
<path d="M59.3916 101.147L54.8796 99.0991L54.2516 100.482C54.1589 100.679 54.0142 100.848 53.8331 100.97C53.652 101.091 53.4413 101.161 53.2236 101.171C52.9757 101.179 52.7285 101.204 52.4836 101.243C52.2687 101.275 52.0491 101.248 51.8483 101.165C51.6475 101.082 51.4731 100.945 51.3436 100.77L50.4596 99.532L46.4316 102.426L47.3156 103.664C47.4386 103.843 47.5109 104.052 47.525 104.268C47.5391 104.485 47.4944 104.701 47.3956 104.895C47.2816 105.115 47.1788 105.341 47.0876 105.572C47.0084 105.776 46.8753 105.954 46.7026 106.087C46.5299 106.221 46.3242 106.304 46.1076 106.33L44.5996 106.478L45.0836 111.42L46.5996 111.267C46.817 111.25 47.0351 111.292 47.2303 111.39C47.4255 111.487 47.5905 111.636 47.7076 111.821C47.7716 111.925 47.8396 112.025 47.9116 112.125C47.9836 112.225 48.0556 112.322 48.1316 112.418C48.2696 112.586 48.3584 112.789 48.3881 113.005C48.4177 113.221 48.3871 113.441 48.2996 113.64L47.6676 115.035L52.1836 117.087L52.8116 115.696C52.9052 115.499 53.0508 115.331 53.2326 115.21C53.4144 115.089 53.6257 115.02 53.8436 115.011C54.0888 115.001 54.3332 114.977 54.5756 114.939C54.7906 114.907 55.0101 114.934 55.2109 115.017C55.4117 115.1 55.5861 115.237 55.7156 115.412L56.5996 116.65L60.6316 113.756L59.7476 112.518C59.6209 112.341 59.5462 112.132 59.5321 111.914C59.5179 111.697 59.5649 111.48 59.6676 111.287C59.779 111.068 59.8792 110.844 59.9676 110.614C60.0445 110.409 60.177 110.23 60.3501 110.096C60.5232 109.962 60.7301 109.879 60.9476 109.857L62.4636 109.704L61.9756 104.762L60.4596 104.911C60.2436 104.93 60.0265 104.889 59.8323 104.792C59.6382 104.695 59.4746 104.546 59.3596 104.362C59.2916 104.257 59.2236 104.157 59.1516 104.057C59.0796 103.957 59.0076 103.857 58.9316 103.764C58.7945 103.594 58.7064 103.389 58.6768 103.173C58.6472 102.956 58.6772 102.735 58.7636 102.534L59.3916 101.147ZM56.8316 105.72C57.2994 106.374 57.563 107.153 57.5893 107.957C57.6155 108.761 57.4032 109.555 56.9791 110.238C56.555 110.922 55.9381 111.464 55.2066 111.796C54.4751 112.128 53.6618 112.235 52.8695 112.104C52.0772 111.972 51.3415 111.609 50.7555 111.059C50.1695 110.508 49.7595 109.796 49.5773 109.013C49.3951 108.229 49.449 107.409 49.7321 106.656C50.0151 105.903 50.5147 105.251 51.1676 104.782C52.0429 104.154 53.1313 103.9 54.1934 104.076C55.2556 104.252 56.2045 104.844 56.8316 105.72Z" fill="#EBEBEB"/>
<path d="M263.351 166.717L260.343 168.457L260.875 169.379C260.954 169.511 260.994 169.663 260.989 169.818C260.984 169.972 260.935 170.121 260.847 170.248C260.755 170.393 260.667 170.541 260.587 170.697C260.521 170.836 260.417 170.952 260.288 171.033C260.158 171.114 260.008 171.156 259.855 171.154H258.799V174.637H259.863C260.016 174.635 260.166 174.677 260.296 174.758C260.425 174.839 260.529 174.956 260.595 175.094C260.675 175.25 260.763 175.399 260.855 175.543C260.943 175.67 260.992 175.819 260.997 175.974C261.002 176.128 260.962 176.28 260.883 176.413L260.351 177.334L263.359 179.074L263.895 178.148C263.972 178.017 264.085 177.91 264.22 177.839C264.355 177.768 264.507 177.736 264.659 177.747H265.171C265.323 177.737 265.474 177.769 265.609 177.84C265.744 177.91 265.857 178.017 265.935 178.148L266.471 179.078L269.475 177.338L268.943 176.413C268.867 176.28 268.83 176.128 268.836 175.975C268.841 175.822 268.89 175.674 268.975 175.547C269.067 175.403 269.155 175.25 269.235 175.098C269.301 174.96 269.404 174.843 269.534 174.762C269.664 174.681 269.814 174.639 269.967 174.641H271.031V171.158H269.959C269.806 171.16 269.656 171.118 269.526 171.037C269.396 170.956 269.293 170.84 269.227 170.701C269.147 170.549 269.059 170.397 268.967 170.252C268.882 170.125 268.833 169.977 268.828 169.824C268.822 169.671 268.859 169.52 268.935 169.387L269.467 168.461L266.463 166.721L265.927 167.635C265.849 167.766 265.737 167.873 265.602 167.944C265.467 168.015 265.315 168.047 265.163 168.036H264.907H264.651C264.498 168.046 264.346 168.014 264.211 167.944C264.075 167.873 263.962 167.766 263.883 167.635L263.351 166.717ZM264.907 170.044C265.47 170.043 266.022 170.21 266.491 170.523C266.96 170.836 267.325 171.282 267.541 171.804C267.757 172.325 267.814 172.899 267.704 173.453C267.595 174.007 267.323 174.516 266.925 174.915C266.526 175.315 266.018 175.587 265.465 175.697C264.913 175.807 264.34 175.75 263.819 175.533C263.299 175.317 262.854 174.95 262.541 174.481C262.228 174.011 262.062 173.458 262.063 172.894C262.062 172.519 262.135 172.148 262.278 171.802C262.421 171.456 262.63 171.141 262.894 170.876C263.159 170.611 263.472 170.401 263.818 170.257C264.163 170.114 264.533 170.04 264.907 170.04V170.044Z" fill="#EBEBEB"/>
<path d="M68.5205 86.3373L65.7645 88.4535L66.4005 89.2992C66.4954 89.4197 66.5538 89.565 66.5686 89.7177C66.5835 89.8705 66.5543 90.0243 66.4846 90.1609C66.408 90.3169 66.3412 90.4776 66.2846 90.6419C66.2352 90.7866 66.1466 90.9147 66.0286 91.0117C65.9106 91.1088 65.7679 91.1708 65.6165 91.191L64.5605 91.3273L65.0086 94.7781L66.0645 94.6419C66.2183 94.6204 66.3749 94.6429 66.5164 94.7067C66.658 94.7705 66.7786 94.8731 66.8645 95.0026C66.9609 95.142 67.065 95.2758 67.1765 95.4034C67.2796 95.5169 67.3479 95.6578 67.3735 95.8091C67.399 95.9604 67.3806 96.1159 67.3205 96.2571L66.9205 97.2431L70.1205 98.5777L70.5205 97.5918C70.5801 97.4503 70.6779 97.3284 70.8031 97.2399C70.9282 97.1513 71.0756 97.0997 71.2285 97.0908L71.4845 97.0627L71.7365 97.0226C71.8846 96.9947 72.0374 97.0079 72.1785 97.0609C72.3195 97.1139 72.4434 97.2046 72.5365 97.3232L73.1885 98.1769L75.9445 96.0607L75.3005 95.215C75.2075 95.0928 75.1504 94.9471 75.1355 94.7941C75.1207 94.6412 75.1487 94.4871 75.2165 94.3493C75.2924 94.1943 75.3591 94.0351 75.4165 93.8723C75.4658 93.7276 75.5545 93.5995 75.6725 93.5025C75.7905 93.4055 75.9332 93.3434 76.0845 93.3232L77.1405 93.187L76.6925 89.7361L75.6365 89.8724C75.4832 89.8942 75.3268 89.8724 75.1853 89.8093C75.0438 89.7462 74.923 89.6444 74.8365 89.5156C74.7365 89.3714 74.6325 89.2351 74.5205 89.1148C74.4274 88.9989 74.3671 88.8599 74.3459 88.7125C74.3248 88.5651 74.3437 88.4147 74.4005 88.2772L74.8005 87.2912L71.6005 85.9565L71.2005 86.9425C71.1402 87.0834 71.0422 87.2048 70.9172 87.2933C70.7922 87.3817 70.6452 87.4337 70.4925 87.4435L70.2365 87.4676L70.0005 87.4756C69.8525 87.5035 69.6997 87.4903 69.5586 87.4373C69.4176 87.3843 69.2937 87.2936 69.2005 87.175L68.5205 86.3373ZM70.4925 89.4355C71.0497 89.3637 71.6157 89.4589 72.1189 89.709C72.6222 89.9592 73.0402 90.353 73.3204 90.841C73.6005 91.3289 73.7301 91.889 73.6929 92.4507C73.6557 93.0124 73.4533 93.5504 73.1113 93.9969C72.7692 94.4435 72.3029 94.7785 71.771 94.9598C71.2392 95.1411 70.6656 95.1605 70.1228 95.0155C69.58 94.8706 69.0921 94.5678 68.7209 94.1453C68.3496 93.7229 68.1115 93.1998 68.0365 92.6419C67.9866 92.2696 68.0105 91.8911 68.1071 91.5281C68.2036 91.1651 68.3708 90.8249 68.599 90.5269C68.8273 90.2289 69.1121 89.9791 69.437 89.7918C69.762 89.6045 70.1207 89.4834 70.4925 89.4355Z" fill="#EBEBEB"/>
<path d="M47.9278 176.765C48.0781 172.891 48.0247 169.011 47.7678 165.142C47.1955 157.153 45.9795 149.224 44.1318 141.431C43.1158 137.046 41.8678 132.734 40.5638 128.425C40.5238 128.293 40.3158 128.329 40.3518 128.465C44.3798 143.655 47.6838 159.327 47.4558 175.118C47.3918 179.527 46.8798 183.876 46.4638 188.268C46.4638 188.385 46.6438 188.433 46.6718 188.312C47.4998 184.541 47.7718 180.605 47.9278 176.765Z" fill="#EBEBEB"/>
<path d="M40.3528 128.453C40.3528 128.453 34.2568 143.964 35.6208 147.595C36.9848 151.227 39.8008 152.004 39.8008 152.004C39.8008 152.004 36.0688 157.343 38.6768 162.349C41.2848 167.355 47.0768 167.118 47.4768 172.794C47.4648 172.822 47.7848 149.09 40.3528 128.453Z" fill="#EBEBEB"/>
<path d="M46.8006 163.022C46.8105 162.996 46.8105 162.968 46.8006 162.942C46.0006 152.353 44.0175 141.886 40.8886 131.74C40.8886 131.712 40.8286 131.72 40.8366 131.74C42.0446 136.282 43.1113 140.843 44.0366 145.423C43.2171 144.645 42.2159 144.086 41.1246 143.796C41.1246 143.796 41.0926 143.82 41.1246 143.828C42.271 144.249 43.3018 144.936 44.1326 145.832C44.3086 146.734 44.4846 147.632 44.6486 148.533C43.2846 147.006 41.3966 146.249 39.5046 145.527C39.5004 145.529 39.4967 145.532 39.4942 145.536C39.4916 145.54 39.4902 145.545 39.4902 145.549C39.4902 145.554 39.4916 145.559 39.4942 145.563C39.4967 145.566 39.5004 145.57 39.5046 145.571C41.4766 146.373 43.4366 147.407 44.7726 149.111C45.2366 151.684 45.6446 154.266 45.9966 156.858C45.0118 155.824 43.7487 155.099 42.3606 154.77C42.3166 154.77 42.2926 154.822 42.3366 154.834C43.7625 155.255 45.0356 156.082 46.0006 157.215H46.0246C46.1446 158.123 46.2593 159.036 46.3686 159.952C45.6068 159.306 44.7465 158.787 43.8206 158.413C43.7966 158.413 43.7806 158.441 43.8206 158.449C44.7655 158.859 45.6308 159.433 46.3766 160.145C46.3766 160.145 46.3966 160.145 46.4086 160.145C46.5086 161.014 46.6086 161.884 46.6966 162.754C45.3231 161.09 43.5405 159.814 41.5246 159.05C41.5162 159.05 41.508 159.054 41.502 159.06C41.496 159.066 41.4926 159.074 41.4926 159.082C41.4926 159.091 41.496 159.099 41.502 159.105C41.508 159.111 41.5162 159.114 41.5246 159.114C43.5152 159.994 45.2637 161.343 46.6206 163.046C46.6356 163.065 46.6557 163.079 46.6785 163.086C46.7013 163.093 46.7258 163.093 46.7486 163.086C46.8806 164.421 47.0006 165.756 47.0966 167.094C47.0966 167.114 47.1286 167.114 47.1286 167.094C47.0246 165.75 46.9153 164.393 46.8006 163.022Z" fill="white"/>
<path d="M41.9009 142.269C40.7969 141.58 39.5357 141.186 38.2369 141.123C38.2305 141.123 38.2244 141.125 38.2199 141.13C38.2154 141.134 38.2129 141.14 38.2129 141.147C38.2129 141.153 38.2154 141.159 38.2199 141.164C38.2244 141.168 38.2305 141.171 38.2369 141.171C39.4926 141.409 40.7112 141.814 41.8609 142.373C41.9089 142.385 41.9449 142.301 41.9009 142.269Z" fill="white"/>
<path d="M42.6388 158.69C41.7903 158.202 40.856 157.882 39.8869 157.748C39.8549 157.748 39.8509 157.792 39.8869 157.8C40.8332 157.99 41.7486 158.311 42.6068 158.754C42.6428 158.774 42.6748 158.71 42.6388 158.69Z" fill="white"/>
<path d="M63.9602 147.864C61.3813 149.65 59.0129 151.723 56.9002 154.044C54.7214 156.502 53.0408 159.36 51.9522 162.461C49.6353 168.921 48.3895 175.718 48.2642 182.581C48.1865 186.382 48.5502 190.179 49.3482 193.896C49.3546 193.923 49.3712 193.946 49.3945 193.961C49.4178 193.976 49.446 193.982 49.4732 193.977C49.5005 193.972 49.5247 193.956 49.5409 193.934C49.5571 193.911 49.564 193.883 49.5602 193.856C48.5673 187.297 48.6051 180.623 49.6722 174.076C50.7202 167.663 52.3642 160.681 56.4362 155.467C58.6522 152.625 61.4162 150.393 64.1482 148.084C64.2922 147.956 64.1082 147.76 63.9602 147.864Z" fill="#EBEBEB"/>
<path d="M49.1602 177.955C50.6281 175.576 52.3532 173.367 54.3042 171.366C57.3561 168.308 59.9241 166.136 60.3241 164.116C60.7241 162.096 57.2682 160.605 57.2682 160.605C57.2682 160.605 61.4881 161.366 62.6441 159.591C63.8001 157.815 64.3561 147.531 64.3561 147.531C64.3561 147.531 56.6762 153.026 53.0962 160.729C49.5162 168.432 49.1602 177.955 49.1602 177.955Z" fill="#EBEBEB"/>
<path d="M61.6008 157.179C61.0951 157.103 60.5825 157.086 60.0728 157.126C60.0128 157.126 60.0168 157.231 60.0728 157.235C60.5768 157.235 61.0848 157.211 61.5888 157.235C61.5946 157.233 61.5998 157.23 61.6039 157.226C61.608 157.222 61.6109 157.216 61.6121 157.21C61.6134 157.205 61.613 157.198 61.611 157.193C61.609 157.187 61.6055 157.182 61.6008 157.179Z" fill="white"/>
<path d="M56.0848 167.154C55.2738 167.171 54.4721 167.331 53.7168 167.628C53.7168 167.628 53.7168 167.668 53.7168 167.664C54.5168 167.475 55.2888 167.399 56.0808 167.263C56.0911 167.258 56.1 167.251 56.1063 167.241C56.1127 167.232 56.1163 167.221 56.1167 167.21C56.1171 167.198 56.1143 167.187 56.1087 167.177C56.1031 167.168 56.0948 167.16 56.0848 167.154Z" fill="white"/>
<path d="M54.4272 163.707C54.0905 163.705 53.7543 163.734 53.4232 163.795C53.4171 163.798 53.4118 163.802 53.4081 163.807C53.4043 163.813 53.4023 163.819 53.4023 163.826C53.4023 163.832 53.4043 163.838 53.4081 163.844C53.4118 163.849 53.4171 163.853 53.4232 163.856C53.7585 163.875 54.0949 163.86 54.4272 163.811C54.441 163.811 54.4542 163.806 54.464 163.796C54.4737 163.786 54.4792 163.773 54.4792 163.759C54.4792 163.746 54.4737 163.732 54.464 163.722C54.4542 163.713 54.441 163.707 54.4272 163.707Z" fill="white"/>
<path d="M26.6447 158.773C29.1444 159.622 31.5398 160.753 33.7847 162.144C36.1141 163.627 38.1341 165.549 39.7327 167.803C43.0963 172.494 45.6716 177.705 47.3567 183.23C48.2965 186.288 48.8765 189.447 49.0847 192.64C49.0804 192.661 49.069 192.68 49.0527 192.693C49.0363 192.706 49.0158 192.714 48.9947 192.714C48.9736 192.714 48.9532 192.706 48.9368 192.693C48.9204 192.68 48.9091 192.661 48.9047 192.64C48.1987 187.103 46.6303 181.711 44.2567 176.661C41.9247 171.711 38.9847 166.444 34.4887 163.166C32.0407 161.382 29.2887 160.212 26.5447 158.977C26.4007 158.929 26.5007 158.725 26.6447 158.773Z" fill="#EBEBEB"/>
<path d="M45.5641 179.699C43.8262 178.115 41.9202 176.727 39.88 175.559C36.704 173.791 34.124 172.629 33.336 171.086C32.548 169.543 35 167.539 35 167.539C35 167.539 31.76 169.142 30.416 167.96C29.072 166.777 26.248 158.601 26.248 158.601C26.248 158.601 33.732 161.266 38.4 166.673C43.0681 172.08 45.5641 179.699 45.5641 179.699Z" fill="#EBEBEB"/>
<path d="M39.3518 172.172C38.616 172.121 37.8772 172.212 37.1758 172.441C37.1758 172.441 37.1758 172.477 37.1758 172.473C37.8913 172.35 38.6143 172.275 39.3398 172.248C39.3918 172.248 39.4038 172.176 39.3518 172.172Z" fill="white"/>
<path d="M32.8236 163.596C32.4879 163.568 32.1501 163.587 31.8196 163.652C31.7836 163.652 31.7956 163.716 31.8196 163.712C32.1516 163.676 32.4756 163.688 32.8036 163.68C32.8138 163.68 32.8238 163.677 32.8319 163.671C32.84 163.665 32.8458 163.656 32.8481 163.646C32.8505 163.636 32.8493 163.626 32.8449 163.616C32.8404 163.607 32.8329 163.6 32.8236 163.596Z" fill="white"/>
<path d="M55.2162 202.978H38.3242L40.7322 185.299L41.3482 180.766H52.1922L52.8082 185.299L55.2162 202.978Z" fill="#DBDBDB"/>
<path d="M52.8084 185.299H40.7324L41.3484 180.766H52.1924L52.8084 185.299Z" fill="#C7C7C7"/>
<path d="M53.7409 179.195H39.7969V183.034H53.7409V179.195Z" fill="#DBDBDB"/>
<path d="M27.584 202.977L57.988 202.881L88.392 202.845L149.2 202.777L210.008 202.845L240.412 202.881L270.816 202.977L240.412 203.078L210.008 203.11L149.2 203.178L88.392 203.11L57.988 203.074L27.584 202.977Z" fill="#263238"/>
<path d="M150.001 232.849C213.346 232.849 264.697 227.211 264.697 220.256C264.697 213.301 213.346 207.663 150.001 207.663C86.6558 207.663 35.3047 213.301 35.3047 220.256C35.3047 227.211 86.6558 232.849 150.001 232.849Z" fill="#EBEBEB"/>
<path d="M123.3 218.172C122.368 218.488 95.6436 218.573 94.6196 217.939C94.2196 217.699 93.9916 213.799 93.8196 209.078C93.7836 208.06 93.7556 207.005 93.7316 205.939L91.5996 191.655L109.468 191.539L111.152 205.827L111.084 208.969C111.084 208.969 121.332 213.518 122.38 214.344C123.428 215.17 124.232 217.855 123.3 218.172Z" fill="#EB9481"/>
<path d="M123.3 218.171C122.368 218.488 95.644 218.572 94.62 217.939C94.148 217.642 93.892 211.947 93.748 205.939L111.132 205.827L111.064 208.969C111.064 208.969 121.312 213.518 122.36 214.344C123.408 215.169 124.232 217.855 123.3 218.171Z" fill="white"/>
<path d="M123.3 218.172C122.368 218.489 95.6443 218.573 94.6203 217.94C94.2203 217.699 93.9923 213.799 93.8203 209.078L111.048 208.97C111.048 208.97 121.296 213.519 122.344 214.344C123.392 215.17 124.232 217.855 123.3 218.172Z" fill="#A6A6A6"/>
<path d="M122.912 217.101C118.432 217.005 100.352 217.049 95.9157 217.298C95.8797 217.298 95.8797 217.322 95.9157 217.326C100.356 217.515 118.436 217.326 122.912 217.174C123.008 217.17 123.008 217.101 122.912 217.101Z" fill="#263238"/>
<path d="M120.635 213.386C120.137 213.375 119.642 213.467 119.181 213.658C118.72 213.848 118.304 214.132 117.959 214.492C117.329 215.135 116.974 215.997 116.967 216.897C116.967 216.925 117.015 216.925 117.019 216.897C117.168 216.01 117.598 215.196 118.247 214.574C118.896 213.953 119.728 213.559 120.619 213.45C120.627 213.452 120.636 213.451 120.644 213.447C120.651 213.442 120.657 213.435 120.659 213.426C120.661 213.418 120.66 213.409 120.655 213.401C120.651 213.394 120.643 213.388 120.635 213.386Z" fill="#263238"/>
<path d="M112.799 209.41C111.007 209.39 108.931 210.031 107.819 211.506C107.779 211.562 107.859 211.623 107.911 211.594C109.477 210.766 111.126 210.108 112.831 209.631C112.858 209.623 112.881 209.607 112.896 209.584C112.911 209.561 112.917 209.533 112.913 209.506C112.909 209.479 112.895 209.454 112.874 209.437C112.853 209.419 112.827 209.41 112.799 209.41Z" fill="#263238"/>
<path d="M114.192 209.943C112.396 209.943 110.32 210.569 109.212 212.04C109.168 212.1 109.248 212.16 109.304 212.132C110.867 211.301 112.515 210.641 114.22 210.164C114.246 210.157 114.268 210.14 114.283 210.118C114.298 210.095 114.305 210.068 114.301 210.041C114.298 210.015 114.285 209.99 114.265 209.972C114.245 209.954 114.219 209.944 114.192 209.943Z" fill="#263238"/>
<path d="M115.575 210.48C113.783 210.48 111.707 211.101 110.595 212.576C110.555 212.632 110.635 212.692 110.687 212.664C112.252 211.836 113.902 211.178 115.607 210.7C115.633 210.693 115.656 210.677 115.671 210.654C115.686 210.631 115.692 210.603 115.688 210.576C115.684 210.549 115.67 210.524 115.65 210.507C115.629 210.489 115.602 210.479 115.575 210.48Z" fill="#263238"/>
<path d="M116.963 211.017C115.167 210.997 113.091 211.638 111.983 213.113C111.939 213.169 112.023 213.229 112.075 213.201C113.64 212.373 115.29 211.714 116.995 211.238C117.021 211.23 117.044 211.214 117.059 211.191C117.074 211.168 117.08 211.14 117.076 211.113C117.072 211.086 117.059 211.061 117.038 211.044C117.017 211.026 116.99 211.016 116.963 211.017Z" fill="#263238"/>
<path d="M97.043 213.029C95.043 213.029 95.043 216.176 97.043 216.164C99.0429 216.152 99.0589 213.017 97.043 213.029Z" fill="#263238"/>
<path d="M114.724 204.609C113.816 203.855 112.672 204.609 112.116 205.383C111.19 206.75 110.638 208.336 110.516 209.984C110.516 210.02 110.544 210.036 110.572 210.036C110.579 210.07 110.594 210.101 110.616 210.128C110.638 210.155 110.666 210.176 110.697 210.19C110.729 210.204 110.764 210.21 110.798 210.207C110.833 210.205 110.866 210.194 110.896 210.176C112.168 209.29 113.64 208.497 114.604 207.242C115.152 206.513 115.6 205.31 114.724 204.609ZM112.54 208.433C111.924 208.886 111.288 209.306 110.688 209.783C111.008 208.886 111.284 207.98 111.692 207.114C111.88 206.699 112.097 206.297 112.34 205.912C112.74 205.314 114.484 203.807 114.668 205.759C114.772 206.829 113.272 207.896 112.54 208.433Z" fill="#263238"/>
<path d="M106.051 210.665C107.611 210.898 109.223 210.449 110.755 210.204C110.789 210.195 110.819 210.179 110.845 210.156C110.871 210.134 110.891 210.105 110.904 210.073C110.917 210.041 110.922 210.007 110.919 209.972C110.916 209.938 110.905 209.905 110.887 209.876C110.893 209.871 110.898 209.865 110.901 209.859C110.904 209.852 110.906 209.845 110.906 209.837C110.906 209.83 110.904 209.823 110.901 209.816C110.898 209.81 110.893 209.804 110.887 209.799C109.656 208.699 108.158 207.943 106.543 207.607C105.599 207.427 104.263 207.687 104.143 208.862C103.999 209.968 105.139 210.521 106.051 210.665ZM104.963 209.647C103.763 208.108 106.055 207.976 106.743 208.136C107.19 208.248 107.628 208.39 108.055 208.561C108.93 208.924 109.786 209.332 110.619 209.783C109.859 209.859 109.111 209.996 108.355 210.1C107.451 210.22 105.635 210.493 104.963 209.647Z" fill="#263238"/>
<path d="M65.3281 125.631C65.3281 125.631 86.0761 160.997 86.6321 163.482C87.4841 167.298 92.0001 204.977 92.0001 204.977L113.6 204.576C113.6 204.576 109.88 171.354 106.356 160.408C103.82 152.525 85.5081 126.376 85.5081 126.376L65.3281 125.631Z" fill="#37474F"/>
<path d="M111.635 201.274C108.535 201.25 97.547 201.125 93.419 201.51C93.387 201.51 93.391 201.566 93.419 201.57C94.839 201.775 108.531 201.458 111.631 201.358C111.637 201.36 111.644 201.361 111.651 201.36C111.658 201.359 111.665 201.357 111.67 201.353C111.676 201.349 111.681 201.344 111.684 201.338C111.688 201.332 111.69 201.325 111.69 201.318C111.69 201.312 111.689 201.305 111.686 201.298C111.683 201.292 111.679 201.286 111.674 201.282C111.668 201.278 111.662 201.275 111.655 201.273C111.649 201.272 111.642 201.272 111.635 201.274Z" fill="#263238"/>
<path d="M68.8673 128.878C70.2273 131.014 71.6673 133.106 73.0513 135.226C74.4353 137.347 75.8273 139.467 77.1993 141.583C79.9353 145.858 82.602 150.162 85.1993 154.493C86.4669 156.501 87.5513 158.619 88.4393 160.821C89.2499 163.025 89.8591 165.297 90.2593 167.611C90.6833 169.932 90.9633 172.276 91.2233 174.621C91.49 177.114 91.7687 179.608 92.0593 182.104C92.6273 187.21 93.1967 192.316 93.7673 197.423C93.8353 198.048 93.9033 198.673 93.9673 199.302C93.9673 199.394 93.8113 199.41 93.7993 199.302C93.1633 194.232 92.6353 189.142 92.0593 184.072C91.7713 181.541 91.4847 179.012 91.1993 176.485C90.9313 174.132 90.6753 171.775 90.3113 169.439C89.9773 167.132 89.4692 164.854 88.7913 162.625C88.0445 160.317 87.0436 158.099 85.8073 156.012C83.3073 151.687 80.6593 147.439 78.0113 143.186C75.3633 138.934 72.6433 134.645 69.8513 130.445C69.5073 129.928 69.1593 129.411 68.7993 128.902C68.7713 128.874 68.8433 128.838 68.8673 128.878Z" fill="#263238"/>
<path d="M72.1275 220.256C71.1435 220.196 45.7275 209.879 45.0235 208.901C44.9922 208.844 44.9783 208.778 44.9835 208.713C44.9835 207.835 46.7475 204.773 48.2195 200.749C48.3115 200.492 48.9675 199.298 49.8755 197.691C52.3995 193.286 56.7995 185.699 56.7995 185.699L73.4115 192.312L65.4595 204.236L64.2235 207.122C64.2235 207.122 72.0195 215.198 72.6755 216.34C73.3315 217.482 73.1075 220.312 72.1275 220.256Z" fill="#EB9481"/>
<path d="M72.1275 220.255C71.1435 220.195 45.7275 209.878 45.0235 208.9C44.9922 208.843 44.9783 208.777 44.9835 208.712C44.9835 207.834 46.7475 204.772 48.2195 200.748C48.3115 200.492 48.9675 199.297 49.8755 197.69L65.4755 204.235L64.2395 207.121C64.2395 207.121 72.0355 215.197 72.6915 216.339C73.3475 217.481 73.1075 220.311 72.1275 220.255Z" fill="white"/>
<path d="M72.128 220.256C71.144 220.196 45.728 209.879 45.024 208.901C44.752 208.529 45.888 205.054 48.224 200.749L64.224 207.126C64.224 207.126 72.02 215.194 72.68 216.344C73.34 217.494 73.108 220.312 72.128 220.256Z" fill="#A6A6A6"/>
<path d="M72.1671 219.117C68.0511 217.346 51.2751 210.588 47.0711 209.153C47.0351 209.153 47.0271 209.153 47.0711 209.177C51.1151 211.021 67.9431 217.642 72.1511 219.197C72.2311 219.217 72.2551 219.153 72.1671 219.117Z" fill="#263238"/>
<path d="M71.4464 214.817C70.99 214.616 70.4969 214.512 69.9984 214.512C69.4999 214.512 69.0068 214.616 68.5504 214.817C67.7297 215.177 67.0793 215.84 66.7344 216.669C66.7344 216.693 66.7704 216.713 66.7824 216.689C67.2539 215.92 67.9614 215.325 68.7986 214.994C69.6359 214.662 70.5579 214.611 71.4264 214.849C71.4331 214.847 71.4389 214.843 71.4426 214.837C71.4463 214.831 71.4476 214.824 71.4464 214.817Z" fill="#263238"/>
<path d="M65.675 208.188C64.023 207.494 61.8551 207.31 60.2751 208.26C60.2151 208.296 60.2751 208.38 60.3271 208.376C62.0884 208.197 63.8637 208.207 65.623 208.404C65.6501 208.407 65.6773 208.4 65.6996 208.384C65.7219 208.369 65.7377 208.345 65.744 208.319C65.7504 208.292 65.7469 208.264 65.7342 208.24C65.7215 208.216 65.7005 208.198 65.675 208.188Z" fill="#263238"/>
<path d="M66.759 209.205C65.107 208.512 62.939 208.328 61.359 209.278C61.299 209.314 61.359 209.398 61.411 209.394C63.1723 209.213 64.9478 209.222 66.707 209.422C66.7341 209.425 66.7613 209.418 66.7836 209.402C66.8059 209.386 66.8217 209.363 66.828 209.337C66.8344 209.31 66.8309 209.282 66.8182 209.258C66.8055 209.234 66.7845 209.215 66.759 209.205Z" fill="#263238"/>
<path d="M67.8469 210.224C66.1909 209.531 64.0229 209.347 62.4468 210.297C62.3828 210.333 62.4469 210.417 62.4949 210.413C64.2561 210.232 66.0316 210.241 67.7909 210.441C67.8185 210.445 67.8468 210.44 67.8703 210.424C67.8938 210.409 67.9108 210.385 67.9178 210.358C67.9248 210.331 67.9214 210.302 67.9083 210.278C67.8952 210.253 67.8732 210.234 67.8469 210.224Z" fill="#263238"/>
<path d="M68.9328 211.242C67.2768 210.549 65.1128 210.364 63.5328 211.31C63.4688 211.35 63.5328 211.434 63.5808 211.43C65.342 211.249 67.1176 211.259 68.8768 211.459C68.9044 211.463 68.9328 211.457 68.9563 211.442C68.9798 211.427 68.9967 211.403 69.0037 211.376C69.0107 211.349 69.0074 211.32 68.9942 211.295C68.9811 211.27 68.9592 211.251 68.9328 211.242Z" fill="#263238"/>
<path d="M49.7118 205.619C47.8438 204.873 46.6838 207.787 48.5598 208.532C50.4358 209.278 51.5998 206.364 49.7118 205.619Z" fill="#263238"/>
<path d="M69.2548 204.46C68.6908 203.422 67.3588 203.678 66.5468 204.196C65.1789 205.114 64.0755 206.376 63.3468 207.855C63.3436 207.861 63.3419 207.868 63.3418 207.876C63.3417 207.883 63.3433 207.89 63.3464 207.897C63.3494 207.903 63.354 207.909 63.3596 207.914C63.3652 207.918 63.3717 207.921 63.3788 207.923C63.3788 208.055 63.4668 208.212 63.6228 208.18C65.1388 207.831 66.7988 207.65 68.1588 206.849C68.9388 206.384 69.7868 205.442 69.2548 204.46ZM65.7948 207.182C65.0548 207.37 64.3108 207.522 63.5788 207.739C64.1842 207.008 64.8264 206.308 65.5028 205.642C65.8357 205.325 66.1899 205.03 66.5628 204.761C67.1428 204.36 69.3348 203.618 68.7748 205.498C68.4668 206.536 66.6788 206.957 65.7948 207.182Z" fill="#263238"/>
<path d="M58.9465 206.813C60.3065 207.614 61.9665 207.803 63.4785 208.155C63.6345 208.191 63.7385 208.035 63.7265 207.899C63.734 207.898 63.7411 207.895 63.7473 207.891C63.7534 207.887 63.7583 207.881 63.7616 207.874C63.7648 207.867 63.7662 207.859 63.7656 207.852C63.7651 207.844 63.7626 207.837 63.7585 207.831C63.0309 206.349 61.9274 205.084 60.5585 204.163C59.7585 203.642 58.4185 203.382 57.8505 204.416C57.2825 205.45 58.1505 206.344 58.9465 206.813ZM58.3225 205.458C57.7665 203.578 59.9545 204.324 60.5345 204.729C60.9069 204.998 61.2598 205.294 61.5905 205.614C62.2655 206.281 62.9064 206.982 63.5105 207.715C62.7785 207.498 62.0345 207.342 61.2945 207.153C60.3985 206.913 58.6265 206.512 58.3225 205.458Z" fill="#263238"/>
<path d="M66.7503 203.571L48.1543 196.048C48.1543 196.048 71.2103 162.08 71.3783 159.551C71.5303 157.314 61.4023 137.828 61.0063 132.148C60.5743 126.016 63.5183 121.274 66.7583 118.329L85.9383 126.501C85.9383 126.501 83.9143 129.743 80.7383 131.551C80.7383 131.551 90.5743 154.076 90.0143 161.002C89.4543 167.928 66.7503 203.571 66.7503 203.571Z" fill="#37474F"/>
<path d="M67.5751 200.028C64.8871 198.869 65.6751 199.162 62.9711 198.024C61.6511 197.471 52.971 193.851 51.635 193.551C51.607 193.551 51.587 193.591 51.615 193.607C52.771 194.316 61.5231 197.783 62.8551 198.312C65.5791 199.386 64.8071 199.05 67.5431 200.092C67.5471 200.097 67.5526 200.102 67.5588 200.104C67.565 200.107 67.5719 200.108 67.5786 200.108C67.5854 200.107 67.592 200.105 67.5976 200.101C67.6032 200.097 67.6078 200.092 67.6108 200.086C67.6139 200.08 67.6153 200.073 67.615 200.066C67.6147 200.059 67.6127 200.053 67.6091 200.047C67.6055 200.041 67.6005 200.036 67.5945 200.033C67.5886 200.029 67.5819 200.028 67.5751 200.028Z" fill="#263238"/>
<path d="M83.8833 131.138C81.8864 131.604 79.9328 132.24 78.0433 133.038C78.0357 133.041 78.0287 133.045 78.0226 133.05C78.0166 133.055 78.0117 133.062 78.0082 133.069C78.0046 133.076 78.0026 133.084 78.0021 133.092C78.0016 133.1 78.0027 133.108 78.0053 133.116C78.0079 133.124 78.012 133.131 78.0174 133.137C78.0227 133.143 78.0292 133.148 78.0364 133.151C78.0437 133.155 78.0515 133.157 78.0596 133.157C78.0676 133.158 78.0757 133.157 78.0833 133.154C80.0433 132.581 82.0353 132.044 83.9633 131.367C84.1113 131.314 84.0353 131.106 83.8833 131.138Z" fill="#263238"/>
<path d="M81.5995 130.36C81.4131 130.692 81.2487 131.036 81.1075 131.39C80.9694 131.659 80.8839 131.951 80.8555 132.252C80.8555 132.312 80.9355 132.324 80.9715 132.288C81.1722 132.047 81.3341 131.777 81.4515 131.486C81.6155 131.17 81.7835 130.857 81.9395 130.532C82.0475 130.296 81.7235 130.144 81.5995 130.36Z" fill="#263238"/>
<path d="M81.8387 128.541C81.9587 128.244 82.0747 127.952 82.1987 127.655C82.3227 127.359 82.4787 127.054 82.5987 126.741C82.5987 126.693 82.6947 126.741 82.6747 126.777C82.5547 127.074 82.4787 127.387 82.3867 127.691C82.2947 127.996 82.1907 128.301 82.0907 128.605C81.9027 129.17 81.6907 129.731 81.4307 130.28C81.7454 130.296 82.0597 130.241 82.3507 130.12C82.6479 129.93 82.8763 129.649 83.0027 129.319C83.1707 128.99 83.3267 128.653 83.4987 128.325C83.7104 127.969 83.8885 127.595 84.0307 127.206C84.0307 127.158 84.1267 127.206 84.1067 127.242C83.8459 128.064 83.5042 128.857 83.0867 129.611C82.9067 129.904 82.7667 130.212 82.4387 130.325C82.0836 130.424 81.712 130.45 81.3466 130.401C81.2986 130.401 81.2426 130.401 81.2586 130.329C81.4224 129.723 81.616 129.127 81.8387 128.541Z" fill="#263238"/>
<path d="M81.0228 132.284C81.7068 133.731 82.3068 135.174 82.9428 136.617C83.5788 138.06 84.1428 139.455 84.7148 140.889C85.8588 143.783 86.8828 146.733 87.7828 149.707C88.2268 151.182 88.6388 152.669 89.0068 154.168C89.4121 155.662 89.7089 157.184 89.8948 158.721C90.0553 160.256 89.9195 161.807 89.4948 163.29C89.0537 164.756 88.4876 166.182 87.8028 167.551C87.3828 168.416 87.2428 168.3 87.4428 167.863C88.0148 166.621 89.5148 162.857 89.4068 159.695C89.3193 158.181 89.0862 156.679 88.7108 155.21C88.3615 153.695 87.9681 152.192 87.5308 150.701C86.6788 147.759 85.6668 144.877 84.6268 142C84.0428 140.396 83.4268 138.793 82.8268 137.19C82.2268 135.587 81.6268 134.112 80.9548 132.34C80.9348 132.268 81.0028 132.24 81.0228 132.284Z" fill="#263238"/>
<path d="M66.9069 127.503C67.2389 127.379 67.7069 127.583 68.0429 127.639C68.4781 127.713 68.9178 127.757 69.3589 127.772C69.7954 127.787 70.2325 127.772 70.6669 127.727C71.1045 127.716 71.5333 127.602 71.919 127.395C72.5517 126.933 73.0941 126.358 73.519 125.699C74.0252 125.026 74.4433 124.291 74.763 123.511C74.763 123.463 74.847 123.511 74.831 123.543C74.691 123.988 74.587 124.437 74.431 124.874C74.2585 125.284 74.0525 125.68 73.8149 126.056C73.4298 126.814 72.8603 127.462 72.1589 127.94C71.3869 128.381 70.3949 128.341 69.5349 128.305C69.0362 128.275 68.5402 128.21 68.0509 128.108C67.6989 128.032 67.1069 127.976 66.8829 127.667C66.8724 127.656 66.8646 127.642 66.86 127.626C66.8555 127.611 66.8543 127.595 66.8566 127.58C66.8589 127.564 66.8646 127.549 66.8733 127.536C66.882 127.522 66.8935 127.511 66.9069 127.503Z" fill="#263238"/>
<path d="M53.4635 192.484C56.5195 187.846 59.5195 183.17 62.4635 178.456C65.4075 173.743 68.3115 168.994 71.1755 164.208C71.8595 163.066 72.6475 161.927 73.0875 160.661C73.5675 159.286 73.2955 157.951 72.8635 156.605C72.0477 154.148 71.0942 151.739 70.0075 149.39C68.9355 147.022 67.7795 144.693 66.6435 142.356C65.5075 140.02 64.3195 137.711 63.4435 135.274C62.6435 132.946 62.3195 130.533 62.9435 128.12C63.5675 125.707 64.9115 123.575 66.3155 121.567C66.6835 121.038 67.0635 120.513 67.4355 119.964C67.4635 119.924 67.5235 119.964 67.4955 120.012C65.9475 122.104 64.4395 124.32 63.5315 126.777C63.0674 127.988 62.8078 129.268 62.7635 130.565C62.7559 131.881 62.9598 133.19 63.3675 134.441C64.1195 136.877 65.3075 139.182 66.4155 141.475C67.5235 143.767 68.7075 146.14 69.7995 148.501C70.926 150.877 71.9274 153.31 72.7995 155.791C73.1715 156.893 73.5995 158.048 73.5675 159.23C73.5395 160.525 72.9235 161.691 72.2835 162.781C69.4835 167.531 66.6155 172.224 63.6955 176.889C60.7755 181.555 57.7715 186.22 54.7315 190.837L53.5795 192.581C53.5195 192.653 53.4155 192.569 53.4635 192.484Z" fill="#263238"/>
<path d="M87.0034 104.898C88.7354 108.706 97.4834 113.952 101.579 114.517C104.523 114.918 113.475 115.062 116.543 114.593C120.143 114.04 117.391 104.321 115.267 104.573C109.427 105.255 104.467 106.016 102.907 106.016C101.003 106.016 90.7034 102.706 89.4634 102.237C86.4234 101.103 86.0234 102.738 87.0034 104.898Z" fill="#EB9481"/>
<path d="M87.0596 105.912C89.2516 109.162 96.5356 114.477 96.5356 114.477L97.5476 112.232L100.896 104.81C100.896 104.81 94.2036 102.705 89.7996 101.743C89.2813 101.625 88.7542 101.55 88.2236 101.519C85.4116 101.367 85.1676 103.106 87.0596 105.912Z" fill="#1890FF"/>
<path d="M87.0596 105.912C89.2516 109.162 96.5356 114.477 96.5356 114.477L97.5476 112.232C94.8316 109.07 90.6356 104.28 88.2236 101.527C85.4116 101.366 85.1676 103.106 87.0596 105.912Z" fill="#263238"/>
<path d="M95.2221 112.97C95.7781 111.603 98.2501 106.1 98.8661 104.954C98.9061 104.873 98.9701 104.881 98.9341 104.954C97.8618 107.69 96.6413 110.366 95.2781 112.97C95.2621 113.018 95.1981 113.002 95.2221 112.97Z" fill="#263238"/>
<path d="M114.195 104.673C117.747 104.208 122.143 103.41 125.867 104.993C126.286 105.158 126.636 105.459 126.863 105.847C128.543 106.529 128.727 107.527 128.727 107.527C130.099 108.641 130.147 109.691 130.147 109.691C130.147 109.691 132.115 110.492 131.815 111.783C131.487 113.21 128.791 111.783 126.831 111.899C122.331 112.18 116.031 113.835 114.731 114.044L114.195 104.673Z" fill="#EB9481"/>
<path d="M121.911 108.874C123.227 108.783 124.547 108.783 125.863 108.874C127.296 109.054 128.714 109.342 130.103 109.735C130.112 109.738 130.122 109.738 130.131 109.734C130.139 109.73 130.146 109.722 130.149 109.713C130.152 109.704 130.152 109.694 130.148 109.686C130.144 109.677 130.136 109.67 130.127 109.667C127.516 108.641 124.674 108.352 121.911 108.833C121.847 108.825 121.847 108.878 121.911 108.874Z" fill="#263238"/>
<path d="M121.076 104.709C123.272 104.822 124.644 105.174 126.852 105.84V105.816C124.42 104.798 123.424 104.701 121.064 104.613C120.988 104.645 120.992 104.709 121.076 104.709Z" fill="#263238"/>
<path d="M121.43 112.58C120.858 112.849 120.998 113.149 122.09 113.402C123.182 113.654 127.722 113.73 127.562 115.318C127.402 116.905 120.998 116.704 119.21 116.143C117.422 115.582 114.73 114.043 114.73 114.043C115.998 113.831 118.974 113.025 121.43 112.58Z" fill="#EB9481"/>
<path d="M91.7585 110.966C91.7305 111.651 91.6665 112.348 91.5705 113.042C91.5705 113.014 91.5705 112.99 91.5985 112.966C91.7305 112.605 91.8625 112.236 92.0225 111.888C92.0225 111.888 92.0625 111.888 92.0585 111.888C91.9816 112.27 91.8663 112.643 91.7145 113.002C91.6425 113.174 91.5745 113.342 91.4985 113.511C91.4505 113.819 91.3945 114.124 91.3345 114.429C91.2145 115.002 90.6745 117.439 90.5345 117.851C90.5105 117.936 90.4065 117.916 90.4145 117.819C90.4425 117.37 90.8945 114.833 90.9865 114.256C91.1652 113.142 91.4042 112.038 91.7025 110.95C91.7225 110.93 91.7625 110.946 91.7585 110.966Z" fill="#263238"/>
<path d="M87.5994 129.19C86.5314 129.739 85.1554 130.592 78.9554 129.37C78.5554 129.29 78.1794 129.194 77.7874 129.077C71.9754 127.33 64.9874 120.48 64.6074 119.995C64.6074 119.995 73.8434 104.993 85.6554 100.276C87.1154 99.6947 89.5314 100.817 90.8554 102.216C91.3314 102.717 92.3674 106.4 91.9714 109.382C91.5754 112.364 88.6634 128.64 87.5994 129.19Z" fill="#1890FF"/>
<path d="M86.768 109.247C86.8126 109.881 86.7241 110.517 86.508 111.114C86.4573 110.48 86.546 109.843 86.768 109.247Z" fill="white"/>
<path d="M82.7397 119.463C82.7652 119.778 82.7544 120.096 82.7077 120.409C82.6692 120.724 82.5927 121.034 82.4797 121.331C82.4522 121.014 82.4629 120.695 82.5117 120.381C82.5526 120.067 82.6291 119.759 82.7397 119.463Z" fill="white"/>
<path d="M75.8967 111.739C75.9418 112.375 75.8532 113.012 75.6367 113.611C75.5864 112.976 75.6752 112.337 75.8967 111.739Z" fill="white"/>
<path d="M89.4038 118.941C89.4293 119.258 89.4186 119.577 89.3718 119.891C89.3333 120.207 89.2567 120.516 89.1438 120.813C89.1162 120.496 89.127 120.177 89.1758 119.863C89.2162 119.548 89.2927 119.239 89.4038 118.941Z" fill="white"/>
<path d="M80.6152 110.417C80.9299 110.39 81.2467 110.399 81.5592 110.445C81.8741 110.485 82.183 110.563 82.4792 110.678C81.8465 110.723 81.2114 110.634 80.6152 110.417Z" fill="white"/>
<path d="M72.8477 117.795C73.4803 117.751 74.1153 117.84 74.7117 118.056C74.0788 118.107 73.4425 118.018 72.8477 117.795Z" fill="white"/>
<path d="M82 125.783C82.6327 125.738 83.2679 125.826 83.864 126.044C83.2312 126.094 82.595 126.005 82 125.783Z" fill="white"/>
<path d="M70.4512 122.882C71.0838 122.837 71.7188 122.926 72.3152 123.143C71.6823 123.193 71.0462 123.104 70.4512 122.882Z" fill="white"/>
<path d="M86.707 102.064C87.3397 102.019 87.9747 102.108 88.571 102.325C87.9383 102.37 87.3034 102.281 86.707 102.064Z" fill="white"/>
<path d="M84.447 104.621C84.2448 104.865 84.0137 105.083 83.759 105.27C83.5111 105.462 83.2428 105.626 82.959 105.759C83.1599 105.517 83.3881 105.299 83.639 105.11C83.8892 104.917 84.1602 104.753 84.447 104.621Z" fill="white"/>
<path d="M72.1307 111.887C71.926 112.129 71.6937 112.345 71.4387 112.532C71.1933 112.728 70.9246 112.892 70.6387 113.021C70.8444 112.781 71.0766 112.565 71.3307 112.376C71.5766 112.181 71.8452 112.017 72.1307 111.887Z" fill="white"/>
<path d="M87.5115 115.166C87.3069 115.409 87.0747 115.627 86.8195 115.815C86.5736 116.01 86.305 116.174 86.0195 116.304C86.2242 116.062 86.4564 115.844 86.7115 115.655C86.9588 115.462 87.2272 115.298 87.5115 115.166Z" fill="white"/>
<path d="M77.5506 121.45C77.346 121.693 77.1137 121.911 76.8586 122.099C76.6123 122.294 76.3437 122.458 76.0586 122.588C76.2632 122.346 76.4955 122.128 76.7506 121.939C76.9979 121.746 77.2663 121.582 77.5506 121.45Z" fill="white"/>
<path d="M91.3279 106.581C91.1233 106.823 90.8911 107.041 90.6359 107.23C90.3881 107.422 90.1198 107.586 89.8359 107.719C90.0406 107.476 90.2728 107.258 90.5279 107.07C90.7743 106.875 91.0428 106.711 91.3279 106.581Z" fill="white"/>
<path d="M91.1204 113.864C90.8782 113.659 90.6607 113.426 90.4724 113.17C90.2777 112.924 90.1138 112.655 89.9844 112.369C90.2275 112.571 90.4451 112.803 90.6324 113.058C90.8235 113.308 90.9871 113.578 91.1204 113.864Z" fill="white"/>
<path d="M68.9192 118.881C68.677 118.676 68.4595 118.443 68.2712 118.188C68.0787 117.94 67.915 117.671 67.7832 117.386C68.0254 117.591 68.2429 117.824 68.4312 118.08C68.6251 118.326 68.7889 118.596 68.9192 118.881Z" fill="white"/>
<path d="M88.4192 124.85C88.1761 124.647 87.9585 124.416 87.7712 124.16C87.5795 123.912 87.4159 123.643 87.2832 123.359C87.5254 123.564 87.7429 123.797 87.9312 124.052C88.1242 124.298 88.288 124.566 88.4192 124.85Z" fill="white"/>
<path d="M78.6477 107.836C78.4056 107.632 78.1881 107.401 77.9997 107.146C77.8089 106.897 77.6453 106.629 77.5117 106.345C77.7548 106.547 77.9724 106.779 78.1597 107.034C78.3506 107.283 78.5142 107.552 78.6477 107.836Z" fill="white"/>
<path d="M78.8196 128.248C78.5774 128.043 78.3599 127.811 78.1716 127.555C77.9797 127.307 77.816 127.038 77.6836 126.753C77.9267 126.956 78.1443 127.188 78.3316 127.443C78.5241 127.692 78.6878 127.962 78.8196 128.248Z" fill="white"/>
<path d="M80.4796 116.208C80.2397 116.002 80.0237 115.769 79.8357 115.514C79.6404 115.269 79.4764 114.999 79.3477 114.713C79.5886 114.918 79.8048 115.151 79.9916 115.406C80.1861 115.653 80.35 115.922 80.4796 116.208Z" fill="white"/>
<path d="M88.6899 106.213C87.1819 105.932 85.7659 102.81 85.5859 100.71C85.5859 100.566 86.2899 99.4235 87.0939 97.9926C87.5819 97.1229 88.0979 96.1409 88.5099 95.2111C88.5939 95.0227 89.0859 95.66 89.0859 95.66L90.1579 96.4616L93.6979 99.183C92.855 100.197 92.139 101.31 91.5659 102.498C91.5093 102.626 91.4664 102.761 91.4379 102.898C91.4364 102.921 91.4364 102.944 91.4379 102.967C91.2179 103.76 90.1419 106.482 88.6899 106.213Z" fill="#EB9481"/>
<path d="M91.44 102.918C91.4384 102.941 91.4384 102.963 91.44 102.986C91.2298 102.924 91.0251 102.845 90.828 102.75C86.952 100.93 88.66 95.7275 88.66 95.7275L90.18 96.481L93.72 99.2025C92.877 100.216 92.161 101.329 91.588 102.517C91.5245 102.645 91.4749 102.779 91.44 102.918Z" fill="#263238"/>
<path d="M97.7676 88.1084C97.7676 88.1084 99.5396 89.2346 99.5476 91.2386C99.5556 93.2426 98.7476 95.2026 98.5796 95.2747C98.4116 95.3468 97.7676 88.1084 97.7676 88.1084Z" fill="#263238"/>
<path d="M88.975 89.1503C87.911 91.2545 87.967 97.8877 89.295 99.5951C91.223 102.072 94.935 102.926 97.179 100.477C99.351 98.1042 99.127 89.4629 97.579 87.8517C95.327 85.4709 90.551 86.0361 88.975 89.1503Z" fill="#EB9481"/>
<path d="M94.6241 94.4609C94.6241 94.4609 94.5881 94.485 94.5921 94.501C94.6161 94.9539 94.5681 95.475 94.1641 95.6353C94.1641 95.6353 94.1641 95.6633 94.1641 95.6593C94.6641 95.5792 94.7201 94.8858 94.6241 94.4609Z" fill="#263238"/>
<path d="M94.2116 93.9998C93.4837 93.9598 93.4597 95.4187 94.1356 95.4547C94.8116 95.4908 94.8196 94.0319 94.2116 93.9998Z" fill="#263238"/>
<path d="M97.0906 94.4448C97.0906 94.4448 97.1266 94.4448 97.1266 94.4849C97.1026 94.9378 97.1546 95.4588 97.5626 95.6152C97.5626 95.6152 97.5626 95.6432 97.5626 95.6392C97.0586 95.5631 96.9986 94.8697 97.0906 94.4448Z" fill="#263238"/>
<path d="M97.5033 93.9805C98.2273 93.9364 98.2633 95.3953 97.5913 95.4354C96.9193 95.4755 96.8953 94.0165 97.5033 93.9805Z" fill="#263238"/>
<path d="M93.7561 92.8891C93.9472 92.8346 94.1355 92.7704 94.3201 92.6967C94.5302 92.6586 94.7216 92.5515 94.8641 92.3921C94.8987 92.3338 94.9131 92.2657 94.9052 92.1983C94.8972 92.1309 94.8673 92.068 94.8201 92.0194C94.7119 91.9369 94.5836 91.8849 94.4486 91.8687C94.3136 91.8525 94.1767 91.8727 94.0521 91.9272C93.7822 91.9996 93.5485 92.1695 93.3961 92.4042C93.3657 92.46 93.3519 92.5234 93.3563 92.5868C93.3607 92.6503 93.3832 92.7111 93.4211 92.7622C93.459 92.8132 93.5107 92.8523 93.57 92.8748C93.6294 92.8973 93.694 92.9023 93.7561 92.8891Z" fill="#263238"/>
<path d="M97.9979 93.5353C97.8033 93.4917 97.6111 93.4382 97.4219 93.375C97.2111 93.347 97.0156 93.2498 96.8659 93.0984C96.8274 93.0427 96.8088 92.9755 96.8131 92.9079C96.8175 92.8402 96.8445 92.776 96.8899 92.7257C96.9931 92.6373 97.1181 92.5784 97.2518 92.5551C97.3855 92.5318 97.523 92.5451 97.6499 92.5934C97.9235 92.6502 98.1661 92.8075 98.3299 93.0343C98.3642 93.088 98.3821 93.1505 98.3816 93.2142C98.3811 93.2779 98.362 93.3401 98.3269 93.3932C98.2917 93.4463 98.2419 93.488 98.1835 93.5132C98.125 93.5385 98.0606 93.5461 97.9979 93.5353Z" fill="#263238"/>
<path d="M93.5994 98.7449C93.7074 98.8532 93.8114 98.9976 93.9754 99.0137C94.1435 99.0136 94.3098 98.9781 94.4634 98.9094C94.4634 98.9094 94.4914 98.9094 94.4634 98.9335C94.3978 99.0216 94.3096 99.0903 94.2081 99.132C94.1066 99.1737 93.9958 99.1869 93.8874 99.1702C93.796 99.1452 93.7139 99.0938 93.6514 99.0225C93.5888 98.9512 93.5485 98.863 93.5354 98.769C93.5322 98.7605 93.5325 98.751 93.5363 98.7428C93.54 98.7345 93.5469 98.728 93.5554 98.7248C93.5639 98.7216 93.5733 98.722 93.5815 98.7257C93.5898 98.7295 93.5962 98.7364 93.5994 98.7449Z" fill="#263238"/>
<path d="M96.2157 96.8131C96.2157 96.8131 96.2357 97.4864 96.2157 97.8031C95.6011 97.7377 94.9804 97.7593 94.3718 97.8672C94.2278 97.8993 94.2438 97.783 94.4078 97.7069C94.898 97.4824 95.444 97.4098 95.9758 97.4985C96.0078 97.4143 95.9238 96.4564 95.9758 96.4604C96.2177 96.508 96.4519 96.5889 96.6717 96.7009C96.6717 95.29 96.4477 93.8953 96.4677 92.4844C96.4677 92.4364 96.5438 92.4283 96.5518 92.4844C96.836 93.9769 96.97 95.4942 96.9517 97.0135C96.9557 97.1858 96.3357 96.8772 96.2157 96.8131Z" fill="#263238"/>
<path d="M95.316 97.563C95.1565 97.9833 94.8607 98.3376 94.476 98.569C93.872 98.8135 93.676 98.2644 94.284 97.7674C94.6029 97.606 94.9598 97.5352 95.316 97.563Z" fill="#263238"/>
<path d="M94.6879 98.445C94.6241 98.4971 94.5526 98.539 94.4759 98.5692C93.92 98.7937 93.7 98.3488 94.1479 97.8999C94.4519 97.924 94.7999 98.0362 94.6879 98.445Z" fill="#FF99BA"/>
<path d="M88.6726 94.8215C89.4046 95.0459 90.2446 92.8415 90.4846 92.0159C90.6926 91.2704 90.9326 88.9017 90.9686 88.7373C91.0046 88.573 94.1686 90.8335 96.0006 90.2965C97.8326 89.7594 99.0766 88.0961 99.1046 87.3225C99.1326 86.549 96.8406 84.5851 94.8606 84.4849C92.8806 84.3847 90.1966 86.8897 90.1966 86.8897C90.5208 86.521 90.8151 86.127 91.0766 85.7113C91.0446 85.6231 89.7646 86.1362 89.5286 87.05C89.5286 87.05 89.7846 85.8997 89.6886 85.8796C89.5926 85.8596 88.5966 86.8416 88.8206 87.5871C88.8206 87.5871 87.6686 88.585 87.5646 89.6792C87.4606 90.7734 87.8126 94.557 88.6726 94.8215Z" fill="#263238"/>
<path d="M97.3114 89.8794C96.7666 90.1754 96.1798 90.3863 95.5714 90.5047C94.8886 90.5657 94.2012 90.4555 93.5714 90.1841C92.937 89.9385 92.3477 89.589 91.8274 89.15C91.3674 88.7732 90.9554 88.3123 90.4634 87.9756C90.3394 87.8875 90.1994 88.0678 90.2754 88.1801C91.0963 89.3418 92.2689 90.2076 93.6194 90.649C94.2467 90.8539 94.9163 90.8922 95.5627 90.7601C96.2092 90.628 96.8103 90.3301 97.3074 89.8955C97.3074 89.8955 97.3194 89.8794 97.3114 89.8794Z" fill="#263238"/>
<path d="M89.436 94.6255C89.436 94.6255 88.3 92.3169 87.276 92.6897C86.252 93.0624 86.876 96.2568 87.928 96.8419C88.0569 96.9255 88.2013 96.9821 88.3525 97.0084C88.5037 97.0346 88.6587 97.0301 88.8081 96.9949C88.9575 96.9597 89.0983 96.8946 89.222 96.8036C89.3457 96.7126 89.4498 96.5975 89.528 96.4652L89.436 94.6255Z" fill="#EB9481"/>
<path d="M87.4794 93.5991C87.4794 93.5991 87.4554 93.5991 87.4794 93.6312C88.2074 94.064 88.5034 94.8336 88.6794 95.6352C88.6463 95.5503 88.5951 95.4737 88.5295 95.4106C88.4639 95.3475 88.3854 95.2994 88.2995 95.2697C88.2135 95.2399 88.1221 95.2293 88.0316 95.2384C87.9412 95.2475 87.8537 95.2762 87.7754 95.3226C87.7514 95.3226 87.7754 95.3667 87.7754 95.3667C87.9185 95.3444 88.065 95.3671 88.1946 95.4317C88.3243 95.4963 88.4308 95.5996 88.4994 95.7274C88.6139 95.9414 88.7051 96.1671 88.7714 96.4007C88.7954 96.4769 88.9274 96.4568 88.9154 96.3727C89.0874 95.3747 88.5274 93.8636 87.4794 93.5991Z" fill="#263238"/>
<path d="M81.9345 104.933C81.1345 109.474 86.0465 124.773 89.1945 127.631C93.8785 131.879 102.538 134.673 105.678 135.583C107.046 135.983 110.83 126.336 109.446 125.699C106.482 124.348 97.2745 121.462 96.3985 120.741C95.5225 120.019 90.2425 112.376 87.8905 107.975C84.7425 102.052 82.3305 102.637 81.9345 104.933Z" fill="#EB9481"/>
<path d="M107.115 124.849C107.115 124.849 111.203 125.895 113.839 126.701C115.311 127.154 117.767 128.152 118.699 128.977C120.091 130.216 125.123 136.276 123.683 137.53C122.379 138.669 118.715 132.909 118.715 132.909C118.715 132.909 122.923 138.392 121.115 139.47C119.307 140.548 115.999 133.49 115.999 133.49C115.999 133.49 120.195 139.222 118.143 140.035C116.591 140.649 113.263 134.424 113.263 134.424C113.263 134.424 116.839 139.374 115.263 140.076C113.527 140.853 110.099 135.298 110.099 135.298C105.811 136.408 103.299 135.178 101.647 134.096C101.259 133.831 107.115 124.849 107.115 124.849Z" fill="#EB9481"/>
<path d="M117.381 130.917C117.901 131.543 118.429 132.176 118.889 132.845C119.349 133.514 119.785 134.204 120.181 134.913C120.717 135.831 121.147 136.807 121.461 137.823C120.773 136.06 119.161 133.635 118.701 132.965C118.241 132.296 117.813 131.603 117.357 130.933C117.345 130.917 117.369 130.901 117.381 130.917Z" fill="#263238"/>
<path d="M114.936 132.541C115.824 133.247 117.684 135.868 118.4 137.627C118.432 137.699 118.4 137.695 118.348 137.627C117.788 136.758 115.516 133.391 114.916 132.553C114.904 132.541 114.924 132.529 114.936 132.541Z" fill="#263238"/>
<path d="M112.587 133.567C113.69 134.726 114.562 136.087 115.155 137.575C115.183 137.647 115.127 137.635 115.083 137.575C114.255 136.224 113.615 135.17 112.543 133.603C112.527 133.567 112.563 133.531 112.587 133.567Z" fill="#263238"/>
<path d="M86.3991 105.267C82.7471 100.092 80.5631 102.008 81.2951 107.627C81.9831 112.882 83.8191 119.142 83.8191 119.142L93.0191 114.669C93.0191 114.669 88.7231 108.581 86.3991 105.267Z" fill="#1890FF"/>
<path d="M88.6189 107.302C88.7402 107.595 88.8274 107.9 88.8789 108.212C88.9351 108.525 88.9552 108.844 88.9389 109.162C88.8189 108.868 88.733 108.562 88.6829 108.248C88.6234 107.937 88.6019 107.619 88.6189 107.302Z" fill="white"/>
<path d="M83.168 110.449C83.7551 110.21 84.3868 110.1 85.02 110.128C84.7282 110.249 84.4235 110.335 84.112 110.385C83.801 110.445 83.4841 110.466 83.168 110.449Z" fill="white"/>
<path d="M83.4043 102.4C83.1566 102.986 82.787 103.512 82.3203 103.943C82.568 103.358 82.9376 102.832 83.4043 102.4Z" fill="white"/>
<path d="M91.1992 112.865C91.0778 113.158 90.9235 113.437 90.7392 113.695C90.5598 113.956 90.3504 114.196 90.1152 114.408C90.3629 113.823 90.7325 113.297 91.1992 112.865Z" fill="white"/>
<path d="M84.7998 116.004C84.5065 115.883 84.2286 115.729 83.9718 115.543C83.7107 115.363 83.4717 115.153 83.2598 114.917C83.8443 115.166 84.3694 115.536 84.7998 116.004Z" fill="white"/>
<path d="M87.6003 106.826C88.0923 107.503 88.6003 108.164 89.1043 108.83C88.9763 108.493 88.8643 108.152 88.7683 107.808H88.7923C88.8923 108.072 89.0083 108.333 89.1043 108.609L89.2483 109.01C89.2607 109.037 89.2714 109.066 89.2803 109.094C89.6803 109.611 90.0803 110.128 90.4483 110.657C90.9003 111.291 91.3363 111.932 91.7763 112.573C92.2163 113.214 92.6603 114.012 93.1363 114.657C93.1803 114.713 92.3363 115.058 92.2443 115.102C92.1523 115.146 92.1043 115.07 92.1923 115.042C92.2803 115.014 92.9523 114.601 92.9603 114.593C92.5203 113.944 92.0123 113.347 91.5523 112.717C91.0923 112.088 90.6363 111.459 90.1923 110.822C89.2923 109.523 88.4683 108.176 87.5723 106.874L87.6003 106.826Z" fill="#263238"/>
<path d="M81.5114 111.346C81.6514 111.619 81.8034 111.887 81.9114 112.168L82.0634 112.517C81.8514 111.519 81.6634 110.513 81.4434 109.515C81.8674 111.118 82.2954 112.757 82.6874 114.384C83.0594 115.939 83.5114 117.511 83.7274 119.098C84.0063 118.975 84.2954 118.877 84.5914 118.805C84.2943 118.998 83.9745 119.153 83.6394 119.266C83.1572 117.652 82.7567 116.015 82.4394 114.36C82.3394 113.911 82.2474 113.463 82.1514 113.014C82.0474 112.741 81.9234 112.481 81.7994 112.212C81.6754 111.943 81.5634 111.643 81.4514 111.358C81.4754 111.342 81.5034 111.326 81.5114 111.346Z" fill="#263238"/>
<path d="M83.9554 117.595C85.2354 116.873 90.5834 114.1 91.7794 113.587C91.8634 113.551 91.9074 113.587 91.8234 113.643C89.2848 115.121 86.6676 116.459 83.9834 117.651C83.9514 117.659 83.9194 117.615 83.9554 117.595Z" fill="#263238"/>
<path d="M230.528 222.966H108.656L126.276 122.826H248.148L230.528 222.966Z" fill="#1890FF"/>
<path d="M167.989 112.453H128.105L126.277 122.825H168.961L167.989 112.453Z" fill="#1890FF"/>
<g opacity="0.1">
<path d="M230.528 222.966H108.656L126.276 122.826H248.148L230.528 222.966Z" fill="black"/>
<path d="M167.987 112.453H128.103L126.275 122.825H168.959L167.987 112.453Z" fill="black"/>
</g>
<path d="M123.802 116.685C123.535 115.538 123.535 114.345 123.802 113.198C124.068 114.345 124.068 115.538 123.802 116.685Z" fill="#263238"/>
<path d="M120.258 117.711C119.85 117.288 119.499 116.814 119.214 116.3C118.914 115.798 118.679 115.259 118.514 114.697C118.922 115.118 119.273 115.591 119.558 116.104C119.857 116.609 120.092 117.148 120.258 117.711Z" fill="#263238"/>
<path d="M117.698 120.377C116.574 120.034 115.543 119.438 114.686 118.633C115.246 118.797 115.784 119.031 116.286 119.331C116.798 119.619 117.272 119.97 117.698 120.377Z" fill="#263238"/>
<path d="M116.802 123.968C115.658 124.235 114.467 124.235 113.322 123.968C114.467 123.7 115.658 123.7 116.802 123.968Z" fill="#263238"/>
<path d="M117.84 127.519C117.416 127.925 116.943 128.276 116.432 128.565C115.93 128.865 115.393 129.099 114.832 129.263C115.254 128.854 115.728 128.503 116.24 128.216C116.741 127.915 117.279 127.681 117.84 127.519Z" fill="#263238"/>
<path d="M120.496 130.08C120.155 131.208 119.56 132.242 118.756 133.102C118.919 132.539 119.154 132 119.456 131.498C119.741 130.983 120.09 130.506 120.496 130.08Z" fill="#263238"/>
<path d="M124.08 130.966C124.219 131.536 124.287 132.122 124.28 132.709C124.289 133.297 124.221 133.883 124.08 134.453C123.937 133.883 123.869 133.297 123.88 132.709C123.873 132.122 123.941 131.536 124.08 130.966Z" fill="#263238"/>
<path d="M127.625 129.96C128.032 130.383 128.383 130.857 128.669 131.37C128.97 131.872 129.204 132.411 129.365 132.974C128.561 132.114 127.966 131.08 127.625 129.952V129.96Z" fill="#263238"/>
<path d="M130.182 127.274C130.743 127.436 131.281 127.67 131.782 127.971C132.294 128.258 132.767 128.609 133.19 129.017C132.628 128.856 132.09 128.621 131.59 128.32C131.077 128.034 130.604 127.682 130.182 127.274Z" fill="#263238"/>
<path d="M131.064 123.684C132.21 123.417 133.402 123.417 134.548 123.684C133.402 123.951 132.21 123.951 131.064 123.684Z" fill="#263238"/>
<path d="M130.041 120.132C130.465 119.726 130.938 119.376 131.449 119.09C131.949 118.786 132.487 118.55 133.049 118.388C132.191 119.194 131.159 119.79 130.033 120.132H130.041Z" fill="#263238"/>
<path d="M127.381 117.571C127.546 117.009 127.779 116.471 128.077 115.967C128.363 115.454 128.714 114.98 129.121 114.557C128.959 115.119 128.725 115.658 128.425 116.16C128.139 116.673 127.788 117.147 127.381 117.571Z" fill="#263238"/>
<path d="M230.349 222.965H108.217L90.873 126.46H213.009L230.349 222.965Z" fill="#1890FF"/>
<path d="M133.197 185.454C136 185.454 138.273 183.177 138.273 180.368C138.273 177.559 136 175.282 133.197 175.282C130.394 175.282 128.121 177.559 128.121 180.368C128.121 183.177 130.394 185.454 133.197 185.454Z" fill="#263238"/>
<path d="M173.326 185.454C176.129 185.454 178.402 183.177 178.402 180.368C178.402 177.559 176.129 175.282 173.326 175.282C170.523 175.282 168.25 177.559 168.25 180.368C168.25 183.177 170.523 185.454 173.326 185.454Z" fill="#263238"/>
<path d="M160.554 186.268L160.274 185.735C160.25 185.687 157.626 180.829 152.35 180.829C147.55 180.829 146.35 185.402 146.318 185.599L146.174 186.18L145.01 185.899L145.15 185.314C145.15 185.258 146.582 179.627 152.35 179.627C158.35 179.627 161.218 184.95 161.338 185.178L161.618 185.707L160.554 186.268Z" fill="#263238"/>
<path d="M125.724 88.0036C125.532 89.8445 124.834 91.5959 123.707 93.0622C122.58 94.5286 121.068 95.6522 119.34 96.3078C117.613 96.9633 115.737 97.125 113.924 96.7747C112.11 96.4245 110.429 95.5761 109.068 94.3242L104.08 95.0577L106.576 90.7371C106.005 89.3312 105.762 87.8135 105.864 86.2992C105.966 84.7849 106.412 83.3139 107.166 81.9979C107.921 80.6819 108.965 79.5554 110.219 78.7042C111.473 77.853 112.904 77.2993 114.403 77.0852C115.903 76.8711 117.431 77.0023 118.873 77.4688C120.314 77.9352 121.631 78.7247 122.722 79.7772C123.813 80.8298 124.651 82.1176 125.171 83.5431C125.691 84.9685 125.88 86.494 125.724 88.0036Z" fill="white"/>
<path d="M125.724 88.0038C125.536 89.8438 124.844 91.5958 123.724 93.0659C123.176 93.8094 122.516 94.4626 121.768 95.0018C121.035 95.5612 120.227 96.0133 119.368 96.3445C118.508 96.6838 117.604 96.8997 116.684 96.9857C116.224 97.0271 115.761 97.0365 115.3 97.0138C114.837 97.0019 114.375 96.9536 113.92 96.8695C112.081 96.5306 110.374 95.6854 108.988 94.4286L109.104 94.4647L104.124 95.2302L103.76 95.2863L103.944 94.9657L106.424 90.6371V90.8094C105.839 89.3776 105.59 87.8301 105.697 86.2866C105.803 84.7431 106.263 83.2448 107.04 81.9076C107.816 80.5747 108.882 79.4347 110.16 78.573C111.435 77.7227 112.886 77.1728 114.404 76.9646C115.922 76.7564 117.467 76.8952 118.924 77.3706C120.365 77.8619 121.678 78.6698 122.768 79.7353C123.855 80.7981 124.686 82.0951 125.198 83.5277C125.71 84.9604 125.89 86.4911 125.724 88.0038ZM125.724 88.0038C125.885 86.4986 125.7 84.9763 125.181 83.5544C124.662 82.1326 123.824 80.8492 122.732 79.8034C121.639 78.7576 120.322 77.9773 118.88 77.5228C117.439 77.0683 115.913 76.9518 114.42 77.1822C112.941 77.4015 111.533 77.9582 110.304 78.8095C109.085 79.6674 108.067 80.7806 107.32 82.072C106.584 83.3662 106.151 84.8104 106.052 86.2964C105.954 87.7924 106.195 89.2912 106.756 90.6811L106.792 90.7693L106.744 90.8535L104.232 95.1661L104.056 94.9016L109.048 94.2002H109.116L109.164 94.2443C110.498 95.4888 112.152 96.3367 113.94 96.6931C114.385 96.7841 114.837 96.8391 115.292 96.8575C115.746 96.8895 116.202 96.8895 116.656 96.8575C117.566 96.784 118.463 96.5857 119.32 96.2683C120.179 95.955 120.987 95.5175 121.72 94.9697C122.465 94.4349 123.126 93.7904 123.68 93.0579C124.814 91.5949 125.522 89.8455 125.724 88.0038Z" fill="#263238"/>
<path d="M110.935 91.6228C110.928 91.4902 110.947 91.3573 110.993 91.2325C111.039 91.1077 111.109 90.9937 111.201 90.8975C111.292 90.8013 111.403 90.7249 111.525 90.6732C111.647 90.6215 111.779 90.5955 111.911 90.5968C112.183 90.5968 112.443 90.7049 112.635 90.8973C112.827 91.0897 112.935 91.3507 112.935 91.6228C112.935 91.895 112.827 92.156 112.635 92.3484C112.443 92.5408 112.183 92.6489 111.911 92.6489C111.779 92.6502 111.647 92.6242 111.525 92.5725C111.403 92.5208 111.292 92.4444 111.201 92.3482C111.109 92.252 111.039 92.138 110.993 92.0132C110.947 91.8884 110.928 91.7555 110.935 91.6228ZM111.335 89.2541L111.103 81.3022H112.703L112.471 89.2541H111.335Z" fill="#1890FF"/>
<path d="M114.74 91.6229C114.732 91.4905 114.752 91.358 114.797 91.2335C114.843 91.109 114.913 90.9951 115.004 90.899C115.095 90.8028 115.205 90.7264 115.327 90.6744C115.449 90.6224 115.58 90.596 115.712 90.5968C115.983 90.5968 116.244 90.7049 116.436 90.8973C116.628 91.0897 116.736 91.3507 116.736 91.6229C116.736 91.895 116.628 92.156 116.436 92.3484C116.244 92.5408 115.983 92.6489 115.712 92.6489C115.58 92.6497 115.449 92.6233 115.327 92.5713C115.205 92.5193 115.095 92.4429 115.004 92.3467C114.913 92.2506 114.843 92.1367 114.797 92.0122C114.752 91.8877 114.732 91.7552 114.74 91.6229ZM115.14 89.2541L114.92 81.3022H116.52L116.288 89.2541H115.14Z" fill="#1890FF"/>
<path d="M118.541 91.6228C118.533 91.4902 118.553 91.3573 118.598 91.2325C118.644 91.1077 118.715 90.9937 118.806 90.8975C118.898 90.8013 119.008 90.7249 119.13 90.6732C119.253 90.6215 119.384 90.5955 119.517 90.5968C119.788 90.5968 120.049 90.7049 120.241 90.8973C120.433 91.0897 120.541 91.3507 120.541 91.6228C120.541 91.895 120.433 92.156 120.241 92.3484C120.049 92.5408 119.788 92.6489 119.517 92.6489C119.384 92.6502 119.253 92.6242 119.13 92.5725C119.008 92.5208 118.898 92.4444 118.806 92.3482C118.715 92.252 118.644 92.138 118.598 92.0132C118.553 91.8884 118.533 91.7555 118.541 91.6228ZM118.941 89.2541L118.709 81.3022H120.309L120.081 89.2541H118.941Z" fill="#1890FF"/>
</svg>
