<svg width="203" height="128" viewBox="0 0 203 128" fill="none" xmlns="http://www.w3.org/2000/svg">
<path d="M203 112.485H0V112.571H203V112.485Z" fill="#EBEBEB"/>
<path d="M182.659 118.013H169.213V118.099H182.659V118.013Z" fill="#EBEBEB"/>
<path d="M134.475 118.947H130.947V119.033H134.475V118.947Z" fill="#EBEBEB"/>
<path d="M168.807 114.825H161.016V114.911H168.807V114.825Z" fill="#EBEBEB"/>
<path d="M38.834 115.402H21.2988V115.488H38.834V115.402Z" fill="#EBEBEB"/>
<path d="M45.0212 115.402H42.4512V115.488H45.0212V115.402Z" fill="#EBEBEB"/>
<path d="M91.4108 116.852H53.3767V116.938H91.4108V116.852Z" fill="#EBEBEB"/>
<path d="M96.2222 97.1616H17.8276C17.2135 97.1607 16.6249 96.9536 16.191 96.5858C15.7571 96.218 15.5134 95.7195 15.5134 95.1998V1.94461C15.5188 1.42789 15.7648 0.933816 16.1981 0.569714C16.6314 0.205612 17.217 0.00088517 17.8276 0H96.2222C96.837 0 97.4267 0.206688 97.8614 0.574594C98.2962 0.9425 98.5404 1.44149 98.5404 1.96178V95.1998C98.5404 95.7201 98.2962 96.2191 97.8614 96.587C97.4267 96.9549 96.837 97.1616 96.2222 97.1616ZM17.8276 0.0687143C17.2404 0.0696244 16.6776 0.267663 16.2628 0.619363C15.8479 0.971062 15.6149 1.44768 15.6149 1.94461V95.1998C15.6149 95.6967 15.8479 96.1734 16.2628 96.5251C16.6776 96.8768 17.2404 97.0748 17.8276 97.0757H96.2222C96.8098 97.0748 97.373 96.8769 97.7885 96.5253C98.204 96.1737 98.4379 95.6971 98.4389 95.1998V1.94461C98.4379 1.44737 98.204 0.970755 97.7885 0.619153C97.373 0.267552 96.8098 0.0696225 96.2222 0.0687143H17.8276Z" fill="#EBEBEB"/>
<path d="M184.044 97.1616H105.646C105.031 97.1607 104.442 96.9537 104.008 96.586C103.573 96.2183 103.328 95.7198 103.327 95.1998V1.94461C103.334 1.42757 103.581 0.933506 104.015 0.569499C104.449 0.205492 105.035 0.000875516 105.646 0H184.044C184.654 0.00178811 185.239 0.206915 185.671 0.57092C186.104 0.934925 186.349 1.42848 186.354 1.94461V95.1998C186.354 95.7189 186.111 96.2169 185.678 96.5846C185.245 96.9523 184.658 97.1598 184.044 97.1616ZM105.646 0.0687143C105.058 0.0696225 104.495 0.267552 104.079 0.619153C103.664 0.970755 103.43 1.44737 103.429 1.94461V95.1998C103.43 95.6971 103.664 96.1737 104.079 96.5253C104.495 96.8769 105.058 97.0748 105.646 97.0757H184.044C184.632 97.0748 185.195 96.8769 185.611 96.5253C186.026 96.1737 186.26 95.6971 186.261 95.1998V1.94461C186.26 1.44737 186.026 0.970755 185.611 0.619153C185.195 0.267552 184.632 0.0696225 184.044 0.0687143H105.646Z" fill="#EBEBEB"/>
<path d="M27.1167 112.485H82.2109L82.2109 13.9524H27.1167L27.1167 112.485Z" fill="#E6E6E6"/>
<path d="M25.8948 112.485H80.989L80.989 13.9524H25.8948L25.8948 112.485Z" fill="#F5F5F5"/>
<path d="M78.7925 110.396V16.041L28.0953 16.041L28.0953 110.396H78.7925Z" fill="#FAFAFA"/>
<path d="M67.1157 110.396L54.2699 16.041H39.7676L52.6134 110.396H67.1157Z" fill="white"/>
<path d="M29.021 110.396L29.021 16.041H28.0953L28.0953 110.396H29.021Z" fill="#E6E6E6"/>
<path d="M26.804 27.0181L80.0793 27.0181V24.2145L26.804 24.2145V27.0181Z" fill="#F5F5F5"/>
<path d="M111.338 112.485V55.3145H89.0929V112.485H111.338Z" fill="#F0F0F0"/>
<path d="M110.115 73.7405V56.9846H90.3146V73.7405H110.115Z" fill="#F5F5F5"/>
<path d="M110.115 92.0013V75.2454H90.3146V92.0013H110.115Z" fill="#F5F5F5"/>
<path d="M110.115 110.262V93.5059H90.3146V110.262H110.115Z" fill="#F5F5F5"/>
<path d="M104.598 56.7642H95.8158C95.8131 56.9926 95.8642 57.2193 95.9663 57.4308C96.0684 57.6424 96.2193 57.8346 96.4102 57.9961C96.6012 58.1577 96.8283 58.2854 97.0783 58.3718C97.3282 58.4582 97.5961 58.5015 97.8661 58.4992H102.527C102.798 58.501 103.066 58.4575 103.317 58.3711C103.568 58.2848 103.796 58.1573 103.989 57.9961C104.181 57.8348 104.334 57.643 104.438 57.4316C104.543 57.2201 104.597 56.9933 104.598 56.7642Z" fill="#E6E6E6"/>
<path d="M104.598 75.0254H95.8159C95.8159 75.4859 96.0318 75.9275 96.4162 76.2535C96.8006 76.5794 97.3221 76.7629 97.8662 76.7639H102.527C102.798 76.7652 103.067 76.7213 103.318 76.6346C103.569 76.5478 103.797 76.4201 103.989 76.2585C104.181 76.097 104.334 75.9049 104.439 75.6933C104.543 75.4817 104.597 75.2547 104.598 75.0254Z" fill="#E6E6E6"/>
<path d="M104.598 93.2859H95.8159C95.8159 93.7464 96.0318 94.188 96.4162 94.514C96.8006 94.8399 97.3221 95.0234 97.8662 95.0244H102.527C102.798 95.0257 103.067 94.9818 103.318 94.8951C103.569 94.8083 103.797 94.6806 103.989 94.519C104.181 94.3575 104.334 94.1654 104.439 93.9538C104.543 93.7422 104.597 93.5152 104.598 93.2859Z" fill="#E6E6E6"/>
<path d="M122.445 112.485V55.3145H111.333V112.485H122.445Z" fill="#F5F5F5"/>
<path d="M170.719 111.08H176.886V68.0371H170.719V111.08Z" fill="#F0F0F0"/>
<path d="M116.814 112.485H176.034V111.08H116.814V112.485Z" fill="#F0F0F0"/>
<path d="M170.719 68.0371H115.958V111.08H170.719V68.0371Z" fill="#FAFAFA"/>
<path d="M126.672 93.1895H159.988C161.562 93.1895 163.07 92.6607 164.183 91.7193C165.295 90.778 165.92 89.5012 165.92 88.17C165.92 86.8387 165.295 85.5619 164.183 84.6206C163.07 83.6792 161.562 83.1504 159.988 83.1504H126.672C125.099 83.1504 123.59 83.6792 122.478 84.6206C121.365 85.5619 120.74 86.8387 120.74 88.17C120.74 89.5012 121.365 90.778 122.478 91.7193C123.59 92.6607 125.099 93.1895 126.672 93.1895ZM159.997 83.4871C160.723 83.4871 161.443 83.6082 162.114 83.8436C162.786 84.0789 163.396 84.4238 163.91 84.8587C164.423 85.2935 164.831 85.8098 165.109 86.3779C165.387 86.9461 165.53 87.555 165.53 88.17C165.53 88.7849 165.387 89.3939 165.109 89.962C164.831 90.5302 164.423 91.0464 163.91 91.4812C163.396 91.9161 162.786 92.261 162.114 92.4963C161.443 92.7317 160.723 92.8528 159.997 92.8528H126.672C125.204 92.8528 123.797 92.3594 122.759 91.4812C121.721 90.603 121.138 89.4119 121.138 88.17C121.138 86.928 121.721 85.7369 122.759 84.8587C123.797 83.9805 125.204 83.4871 126.672 83.4871H159.997Z" fill="#F0F0F0"/>
<path d="M126.672 105.679H159.988C161.562 105.679 163.07 105.15 164.183 104.208C165.295 103.267 165.92 101.99 165.92 100.659C165.92 99.3277 165.295 98.051 164.183 97.1096C163.07 96.1683 161.562 95.6394 159.988 95.6394H126.672C125.099 95.6394 123.59 96.1683 122.478 97.1096C121.365 98.051 120.74 99.3277 120.74 100.659C120.74 101.99 121.365 103.267 122.478 104.208C123.59 105.15 125.099 105.679 126.672 105.679ZM159.988 95.9761C160.728 95.9592 161.463 96.0677 162.152 96.2953C162.84 96.523 163.468 96.8651 163.998 97.3014C164.528 97.7378 164.949 98.2596 165.236 98.8359C165.524 99.4123 165.672 100.032 165.672 100.657C165.672 101.283 165.524 101.902 165.236 102.479C164.949 103.055 164.528 103.577 163.998 104.013C163.468 104.449 162.84 104.792 162.152 105.019C161.463 105.247 160.728 105.355 159.988 105.338H126.672C125.933 105.355 125.198 105.247 124.509 105.019C123.82 104.792 123.192 104.449 122.663 104.013C122.133 103.577 121.712 103.055 121.424 102.479C121.137 101.902 120.988 101.283 120.988 100.657C120.988 100.032 121.137 99.4123 121.424 98.8359C121.712 98.2596 122.133 97.7378 122.663 97.3014C123.192 96.8651 123.82 96.523 124.509 96.2953C125.198 96.0677 125.933 95.9592 126.672 95.9761H159.988Z" fill="#F0F0F0"/>
<path d="M138.312 87.0882H148.364C148.692 87.0873 149.007 86.9766 149.239 86.7803C149.471 86.584 149.602 86.318 149.603 86.0403C149.602 85.7627 149.471 85.4967 149.239 85.3004C149.007 85.104 148.692 84.9933 148.364 84.9924H138.312C137.984 84.9933 137.669 85.104 137.437 85.3004C137.205 85.4967 137.075 85.7627 137.073 86.0403C137.075 86.318 137.205 86.584 137.437 86.7803C137.669 86.9766 137.984 87.0873 138.312 87.0882Z" fill="#EBEBEB"/>
<path d="M126.672 80.7012H159.988C161.562 80.7012 163.07 80.1724 164.183 79.231C165.295 78.2897 165.92 77.0129 165.92 75.6817C165.92 74.3504 165.295 73.0736 164.183 72.1323C163.07 71.1909 161.562 70.6621 159.988 70.6621H126.672C125.099 70.6621 123.59 71.1909 122.478 72.1323C121.365 73.0736 120.74 74.3504 120.74 75.6817C120.74 77.0129 121.365 78.2897 122.478 79.231C123.59 80.1724 125.099 80.7012 126.672 80.7012ZM159.988 70.9988C161.456 70.9988 162.864 71.4922 163.901 72.3704C164.939 73.2486 165.522 74.4397 165.522 75.6817C165.522 76.9236 164.939 78.1147 163.901 78.9929C162.864 79.8712 161.456 80.3645 159.988 80.3645H126.672C125.204 80.3645 123.797 79.8712 122.759 78.9929C121.721 78.1147 121.138 76.9236 121.138 75.6817C121.138 74.4397 121.721 73.2486 122.759 72.3704C123.797 71.4922 125.204 70.9988 126.672 70.9988H159.988Z" fill="#F0F0F0"/>
<path d="M138.312 74.5994H148.364C148.692 74.5985 149.007 74.4878 149.239 74.2914C149.471 74.0951 149.602 73.8291 149.603 73.5515C149.597 73.2765 149.465 73.0144 149.233 72.8216C149.001 72.6288 148.689 72.5207 148.364 72.5208H138.312C137.987 72.5207 137.675 72.6288 137.443 72.8216C137.212 73.0144 137.079 73.2765 137.073 73.5515C137.075 73.8291 137.205 74.0951 137.437 74.2914C137.669 74.4878 137.984 74.5985 138.312 74.5994Z" fill="#EBEBEB"/>
<path d="M138.312 99.5736H148.364C148.689 99.5737 149.001 99.4656 149.233 99.2728C149.465 99.08 149.597 98.8178 149.603 98.5429C149.596 98.2683 149.463 98.0066 149.232 97.814C149 97.6214 148.689 97.5131 148.364 97.5122H138.312C137.987 97.5131 137.676 97.6214 137.444 97.814C137.213 98.0066 137.08 98.2683 137.073 98.5429C137.079 98.8178 137.212 99.08 137.443 99.2728C137.675 99.4656 137.987 99.5737 138.312 99.5736Z" fill="#EBEBEB"/>
<path d="M114.829 68.0371H170.715V65.8486H114.829V68.0371Z" fill="#F0F0F0"/>
<path d="M178.096 65.8523H170.719V68.0408H178.096V65.8523Z" fill="#E6E6E6"/>
<path d="M130.732 31.3989C131.978 31.928 135.356 31.3576 134.232 33.2919C133.584 34.3052 132.809 35.2566 131.922 36.1298C130.663 37.4457 130.902 38.8784 132.388 39.3869C132.707 39.4794 132.989 39.6461 133.2 39.8679C133.887 40.6993 132.271 41.8125 131.475 42.6439C130.679 43.4754 130.363 44.2931 130.947 44.9115C131.597 45.5986 132.945 45.341 134.017 45.5471C136.591 46.0453 133.943 49.0515 134.215 50.5941C134.402 51.6523 135.433 51.9478 136.794 52.0955C137.918 52.2192 139.416 52.3051 139.477 53.2774C139.534 54.1226 138.235 55.0777 137.894 55.9641C137.732 56.3455 137.671 56.7523 137.714 57.1558C137.758 57.5594 137.905 57.9501 138.146 58.3004C138.374 58.5957 138.672 58.8477 139.022 59.0405C139.371 59.2333 139.764 59.3627 140.176 59.4205C141.45 59.6472 143.379 59.4205 143.472 60.6298C143.513 61.1727 143.066 61.6605 143.375 62.1553C143.546 62.364 143.768 62.5388 144.027 62.6675C144.286 62.7962 144.574 62.8758 144.873 62.9008C146.094 63.0586 147.338 63.04 148.551 62.8458C150.049 62.6122 152.262 61.4956 151.45 60.4202C151.31 60.266 151.136 60.1368 150.936 60.0401C150.737 59.9434 150.517 59.8811 150.289 59.8568C149.932 59.7949 148.884 59.8911 148.75 59.685C148.616 59.4789 148.978 58.6852 148.99 58.4C149.027 57.6081 148.879 56.8178 148.555 56.0741C148.142 55.1018 147.482 54.2177 146.623 53.4836C146.266 53.1778 145.701 52.9545 145.628 52.5113C145.555 52.0681 145.884 51.5802 146.249 51.137C146.822 50.4498 147.711 49.8039 148.032 49.0756C148.535 47.928 147.313 47.5638 146.18 47.3027C145.157 47.0657 143.809 46.7633 144.15 45.712C144.402 44.9527 145.535 44.3377 145.872 43.5887C146.331 42.5958 145.218 42.558 144.426 42.2145C143.391 41.7541 143.131 40.9295 143.505 39.8885C144.126 38.1706 147.849 35.7416 145.941 34.625C145.458 34.3398 145.007 34.2471 144.723 33.8176C144.439 33.3881 144.365 32.7869 143.959 32.3815C143.318 31.7253 141.99 31.6153 141.3 31.0072C139.875 29.7566 142.949 27.5406 140.143 27.0115C139.551 26.947 138.99 26.7488 138.519 26.4377C138.263 26.235 138.052 25.2558 137.764 25.1871C136.477 24.8848 134.159 26.9977 133.428 27.6471C132.539 28.4304 129.254 30.7667 130.732 31.3989Z" fill="#E0E0E0"/>
<path d="M152.814 60.5405C152.051 59.3415 148.71 58.1355 150.926 56.7613C152.122 56.0728 153.408 55.5043 154.759 55.0675C156.7 54.3803 157.39 52.7999 156.407 51.4909C156.181 51.2157 156.042 50.8966 156.001 50.5632C155.92 49.3539 158.052 49.0653 159.278 48.6289C160.504 48.1926 161.308 47.5261 161.174 46.5847C161.036 45.554 159.688 45.0936 158.872 44.3206C156.915 42.4584 161.154 40.7715 161.888 39.0468C162.392 37.8649 161.685 37.03 160.565 36.1539C159.651 35.4359 158.381 34.5632 158.941 33.5325C159.428 32.6392 161.178 32.3437 162.039 31.6154C162.436 31.2861 162.752 30.8932 162.968 30.4597C163.184 30.0262 163.296 29.5606 163.297 29.0901C163.278 28.2657 162.894 27.4775 162.221 26.881C161.239 25.9774 159.379 25.2043 160.074 23.9091C160.382 23.3319 161.085 23.0742 161.125 22.3974C161.113 22.1043 161.031 21.8163 160.886 21.5502C160.74 21.2841 160.533 21.0453 160.277 20.8479C159.326 20.0593 158.214 19.4227 156.996 18.9685C155.526 18.4188 152.867 18.4016 152.904 19.9305C152.949 20.3807 153.186 20.8017 153.569 21.1159C153.85 21.3701 154.832 21.8202 154.82 22.1019C154.808 22.3836 154.008 23.0055 153.793 23.2907C153.255 24.101 152.888 24.9846 152.709 25.9018C152.458 27.1176 152.481 28.3627 152.778 29.5711C152.896 30.0693 153.257 30.6018 153.038 31.0897C152.818 31.5776 152.226 31.9074 151.629 32.1582C150.691 32.5567 149.493 32.7594 148.75 33.3366C147.577 34.2471 148.425 35.2641 149.262 36.1264C150.017 36.9063 151.012 37.9233 150.041 38.82C149.339 39.4659 147.946 39.5072 147.199 40.0878C146.168 40.8677 147.122 41.4896 147.605 42.2729C148.222 43.3036 147.934 44.2656 146.944 45.1348C145.32 46.571 140.488 47.1001 141.467 49.2577C141.714 49.804 142.047 50.1372 142.035 50.7282C142.023 51.3191 141.702 51.965 141.8 52.6006C141.95 53.6107 143.05 54.4215 143.277 55.4076C143.74 57.4381 139.623 58.0943 141.767 60.1076C142.268 60.5048 142.64 61.004 142.847 61.5575C142.949 61.9011 142.51 63.0108 142.721 63.2341C143.667 64.2202 147.049 63.2788 148.105 62.9936C149.351 62.6329 153.728 61.9663 152.814 60.5405Z" fill="#F5F5F5"/>
<path d="M161.373 57.8367C161.373 57.8367 160.967 65.8522 145.466 65.8522C129.965 65.8522 129.559 57.8367 129.559 57.8367H161.373Z" fill="#F0F0F0"/>
<path d="M101.5 128C144.975 128 180.219 126.259 180.219 124.111C180.219 121.963 144.975 120.222 101.5 120.222C58.0244 120.222 22.7805 121.963 22.7805 124.111C22.7805 126.259 58.0244 128 101.5 128Z" fill="#F5F5F5"/>
<g opacity="0.2">
<path opacity="0.2" d="M146.456 121.236L120.598 80.7905L94.74 121.236H146.456Z" fill="#0043A5"/>
<path opacity="0.2" d="M146.456 52.8135L120.598 93.2551L94.74 52.8135H146.456Z" fill="#0043A5"/>
</g>
<path d="M125.336 76.6917L121.552 82.608C121.459 82.7537 121.322 82.8754 121.154 82.9603C120.986 83.0451 120.794 83.0899 120.598 83.0899C120.403 83.0899 120.211 83.0451 120.043 82.9603C119.875 82.8754 119.737 82.7537 119.644 82.608L115.86 76.6917C115.519 76.157 115.348 75.5564 115.364 74.9488C115.379 74.3413 115.581 73.7476 115.95 73.2259C116.318 72.7043 116.84 72.2726 117.465 71.9731C118.09 71.6736 118.796 71.5167 119.514 71.5176H121.702C122.419 71.5196 123.122 71.6788 123.744 71.9795C124.367 72.2802 124.886 72.7122 125.252 73.2333C125.618 73.7545 125.818 74.347 125.833 74.9531C125.848 75.5593 125.676 76.1583 125.336 76.6917Z" fill="#0043A5"/>
<path d="M121.008 111.025L132.762 115.113C132.991 115.195 133.18 115.341 133.297 115.527C133.414 115.713 133.452 115.927 133.405 116.134C133.357 116.341 133.227 116.528 133.036 116.663C132.845 116.798 132.605 116.873 132.356 116.876H108.861C108.612 116.873 108.372 116.798 108.181 116.663C107.99 116.528 107.859 116.341 107.812 116.134C107.764 115.927 107.802 115.713 107.919 115.527C108.036 115.341 108.225 115.195 108.455 115.113L120.176 111.025C120.308 110.978 120.449 110.954 120.592 110.954C120.735 110.954 120.876 110.978 121.008 111.025Z" fill="#0043A5"/>
<path d="M120.598 103.246C121.43 103.246 122.104 102.676 122.104 101.972C122.104 101.268 121.43 100.697 120.598 100.697C119.766 100.697 119.092 101.268 119.092 101.972C119.092 102.676 119.766 103.246 120.598 103.246Z" fill="#0043A5"/>
<path d="M120.598 89.3144C121.026 89.3144 121.373 89.0206 121.373 88.6582C121.373 88.2957 121.026 88.002 120.598 88.002C120.17 88.002 119.823 88.2957 119.823 88.6582C119.823 89.0206 120.17 89.3144 120.598 89.3144Z" fill="#0043A5"/>
<path d="M120.598 95.7499C121.085 95.7499 121.479 95.4161 121.479 95.0043C121.479 94.5926 121.085 94.2588 120.598 94.2588C120.112 94.2588 119.717 94.5926 119.717 95.0043C119.717 95.4161 120.112 95.7499 120.598 95.7499Z" fill="#0043A5"/>
<path d="M146.326 119.24H94.8697C94.2451 119.242 93.6468 119.453 93.2055 119.827C92.7643 120.201 92.516 120.707 92.5149 121.236C92.517 121.764 92.7658 122.27 93.207 122.643C93.6481 123.016 94.2458 123.227 94.8697 123.229H146.326C146.95 123.227 147.548 123.016 147.989 122.643C148.43 122.27 148.679 121.764 148.681 121.236C148.68 120.707 148.432 120.201 147.99 119.827C147.549 119.453 146.951 119.242 146.326 119.24Z" fill="#0043A5"/>
<path d="M146.326 50.8213H94.8697C94.2458 50.8231 93.6481 51.0336 93.207 51.4069C92.7658 51.7803 92.517 52.2861 92.5149 52.814C92.517 53.3419 92.7658 53.8477 93.207 54.2211C93.6481 54.5944 94.2458 54.8049 94.8697 54.8067H146.326C146.95 54.8049 147.548 54.5944 147.989 54.2211C148.43 53.8477 148.679 53.3419 148.681 52.814C148.679 52.2861 148.43 51.7803 147.989 51.4069C147.548 51.0336 146.95 50.8231 146.326 50.8213Z" fill="#0043A5"/>
<path d="M79.0198 120.483L76.1575 119.696L77.9358 113.983L80.798 114.769L79.0198 120.483Z" fill="#FF8B7B"/>
<path d="M76.1129 119.374L79.3284 120.257C79.3826 120.27 79.4286 120.301 79.4566 120.343C79.4846 120.384 79.4925 120.434 79.4786 120.48L78.8087 122.679C78.7658 122.792 78.6717 122.886 78.547 122.941C78.4222 122.996 78.2769 123.007 78.1429 122.971C77.0304 122.648 76.5189 122.445 75.1019 122.057C74.229 121.817 71.3627 121.191 70.1609 120.861C68.9591 120.532 69.3773 119.535 69.9214 119.583C72.3574 119.8 74.5498 119.704 75.5648 119.387C75.7406 119.332 75.9334 119.327 76.1129 119.374Z" fill="#263238"/>
<path opacity="0.2" d="M80.7982 114.773L77.9359 113.983L77.0183 116.93L79.8847 117.717L80.7982 114.773Z" fill="black"/>
<path d="M88.6219 56.9366C88.6219 56.9366 83.486 77.0526 82.2802 84.2848C80.9607 92.2041 76.0034 115.986 76.0034 115.986L81.318 117.23C81.318 117.23 88.6828 94.1659 90.8346 86.4665C93.1691 78.1074 99.3606 56.9194 99.3606 56.9194L88.6219 56.9366Z" fill="#0043A5"/>
<path opacity="0.3" d="M94.9713 63.5328C92.9413 67.4289 91.9385 75.9014 92.7261 79.8009C94.1634 74.8019 95.8929 68.8582 97.2287 64.2853C96.778 62.9591 96.031 61.4989 94.9713 63.5328Z" fill="black"/>
<path d="M81.4519 117.319L75.7598 115.993L75.8734 114.031L82.2801 115.904L81.4519 117.319Z" fill="#263238"/>
<path d="M74.9354 119.518C75.2002 119.583 75.4723 119.624 75.7474 119.641C75.761 119.642 75.7745 119.639 75.7865 119.634C75.7985 119.628 75.8084 119.62 75.8151 119.61C75.8219 119.6 75.8252 119.589 75.8247 119.577C75.8242 119.566 75.82 119.555 75.8124 119.545C75.7393 119.466 75.11 118.775 74.7162 118.796C74.6708 118.798 74.6269 118.81 74.5884 118.83C74.55 118.851 74.5185 118.879 74.4969 118.913C74.4562 118.963 74.4318 119.021 74.4261 119.081C74.4204 119.141 74.4336 119.202 74.4645 119.256C74.5796 119.388 74.7467 119.481 74.9354 119.518ZM75.581 119.518C75.0369 119.463 74.6634 119.346 74.5741 119.198C74.5554 119.163 74.5481 119.125 74.5531 119.087C74.5581 119.048 74.5752 119.012 74.6025 118.982C74.6128 118.965 74.6279 118.951 74.6463 118.941C74.6648 118.931 74.686 118.925 74.708 118.923C74.9192 118.903 75.3171 119.239 75.581 119.507V119.518Z" fill="#263238"/>
<path d="M75.719 119.637H75.7514C75.7632 119.635 75.7742 119.631 75.7834 119.624C75.7927 119.618 75.7998 119.609 75.8042 119.6C75.8042 119.572 76.1493 118.892 75.9504 118.569C75.9257 118.528 75.89 118.493 75.8463 118.466C75.8025 118.439 75.752 118.422 75.6987 118.414C75.641 118.4 75.5792 118.402 75.5233 118.421C75.4673 118.439 75.4204 118.473 75.3901 118.517C75.2236 118.765 75.4551 119.387 75.6865 119.61L75.719 119.637ZM75.719 118.548C75.7461 118.555 75.7714 118.566 75.793 118.582C75.8147 118.597 75.8324 118.616 75.8448 118.638C75.9128 118.914 75.8744 119.202 75.7352 119.459C75.5386 119.202 75.4646 118.891 75.5281 118.59C75.5281 118.559 75.585 118.524 75.6865 118.541L75.719 118.548Z" fill="#263238"/>
<path d="M94.0866 37.8374C93.9323 38.1466 93.8024 38.3802 93.6603 38.6414C93.5182 38.9025 93.3639 39.143 93.2137 39.3903C92.9132 39.8885 92.5966 40.373 92.2677 40.8574C91.6034 41.8301 90.8713 42.7686 90.0753 43.6678C89.2606 44.5977 88.3576 45.4698 87.3754 46.2755C86.329 47.1471 85.1426 47.8897 83.8513 48.4812L83.7498 48.5259C83.5856 48.5977 83.4108 48.6508 83.2302 48.6839C82.3055 48.8467 81.3477 48.8148 80.4409 48.5911C79.6876 48.4004 78.9709 48.118 78.3135 47.7528C77.2106 47.1252 76.2205 46.3661 75.374 45.499C74.5877 44.7083 73.8725 43.8688 73.2344 42.9875C72.6043 42.1215 72.0441 41.2204 71.5577 40.2905C71.4324 40.0445 71.4161 39.7686 71.5118 39.5133C71.6074 39.258 71.8087 39.0404 72.0786 38.9006C72.3485 38.7607 72.669 38.7078 72.9812 38.7517C73.2934 38.7956 73.5765 38.9333 73.7785 39.1395L73.8191 39.1808C74.489 39.8679 75.2157 40.5997 75.9465 41.2662C76.6586 41.9299 77.415 42.5585 78.212 43.149C78.9164 43.6893 79.6996 44.1511 80.5424 44.5233C80.8575 44.6604 81.1958 44.7554 81.5453 44.805C81.741 44.8358 81.9429 44.8215 82.1299 44.7638L81.5087 44.9665C82.3478 44.4877 83.1129 43.9222 83.7864 43.283C84.5195 42.5862 85.1976 41.8494 85.8164 41.0773C86.4578 40.2871 87.0669 39.4591 87.6393 38.607C87.9316 38.1844 88.2118 37.7549 88.4757 37.3186L88.8817 36.6693C89.0075 36.4597 89.1456 36.2192 89.243 36.0508L89.2674 36.0027C89.5633 35.4742 90.0925 35.065 90.7412 34.8631C91.3899 34.6612 92.1063 34.6827 92.7364 34.923C93.3665 35.1633 93.8601 35.6032 94.1111 36.1482C94.362 36.6931 94.3503 37.2997 94.0785 37.8374H94.0866Z" fill="#263238"/>
<path opacity="0.3" d="M87.4484 42.503C88.7232 39.6376 91.4313 39.5895 92.6046 40.3488C92.5193 40.4828 92.43 40.6168 92.3407 40.7508C91.7038 41.6888 91.0058 42.5961 90.2498 43.4684C89.4739 44.366 88.6203 45.2135 87.6961 46.004C87.4037 46.2479 87.1033 46.4884 86.7907 46.7221C86.6831 45.2929 86.9065 43.8597 87.4484 42.503Z" fill="black"/>
<path d="M71.4561 40.4689L68.8171 40.5514L69.4749 38.1636C70.3834 38.2017 71.2852 38.3168 72.1666 38.5071C72.3271 38.5483 72.4739 38.6208 72.5951 38.7188C72.7163 38.8169 72.8085 38.9377 72.8643 39.0716C72.92 39.2054 72.9377 39.3484 72.916 39.4891C72.8942 39.6298 72.8336 39.7642 72.7391 39.8814C72.5963 40.059 72.4053 40.205 72.1821 40.3073C71.9589 40.4095 71.7099 40.4649 71.4561 40.4689Z" fill="#FF8B7B"/>
<path d="M72.9337 38.4524C72.6747 38.2786 72.3782 38.1491 72.0608 38.071C71.8415 39.0468 70.4368 40.6925 70.4368 40.6925H71.537C71.6786 40.6928 71.8185 40.6669 71.9469 40.6164C72.0753 40.5659 72.189 40.4922 72.28 40.4004L73.0514 39.6171C73.1359 39.5348 73.2 39.439 73.2399 39.3353C73.2798 39.2317 73.2947 39.1223 73.2837 39.0137C73.2728 38.9051 73.2361 38.7994 73.176 38.703C73.1158 38.6066 73.0334 38.5214 72.9337 38.4524Z" fill="#0043A5"/>
<path d="M66.7952 39.4521L67.5341 37.7686L69.4666 38.1671L68.8089 40.5515L66.7952 39.4521Z" fill="#FF8B7B"/>
<path d="M99.9778 121.596H96.9693L96.8638 115.697H99.8722L99.9778 121.596Z" fill="#FF8B7B"/>
<path d="M96.8108 121.3H100.193C100.221 121.3 100.249 121.303 100.276 121.312C100.302 121.32 100.327 121.333 100.347 121.349C100.368 121.365 100.385 121.385 100.397 121.406C100.408 121.428 100.415 121.452 100.416 121.476L100.579 123.74C100.579 123.859 100.523 123.973 100.424 124.058C100.326 124.143 100.191 124.191 100.051 124.193C98.8733 124.176 98.313 124.118 96.8027 124.118C95.8892 124.118 92.832 124.197 91.5694 124.197C90.3067 124.197 90.3514 123.139 90.8751 123.042C93.2786 122.616 95.4223 122.012 96.2709 121.458C96.4235 121.354 96.6146 121.298 96.8108 121.3Z" fill="#263238"/>
<path opacity="0.2" d="M99.8763 115.701H96.8638L96.9206 118.741H99.9291L99.8763 115.701Z" fill="black"/>
<path d="M94.4926 56.936C94.4926 56.936 93.3436 79.0654 93.8308 86.3594C94.3668 94.3439 95.4873 118.006 95.4873 118.006H101.001C101.001 118.006 102.389 94.9864 102.722 87.0843C103.084 78.4951 104.72 56.936 104.72 56.936H94.4926Z" fill="#0043A5"/>
<path d="M101.224 118.006H95.268L94.8132 116.13L101.386 116.408L101.224 118.006Z" fill="#263238"/>
<path d="M95.7427 121.744C96.0163 121.738 96.2884 121.708 96.5547 121.655C96.5675 121.651 96.5791 121.645 96.5883 121.636C96.5975 121.628 96.6041 121.618 96.6075 121.607C96.609 121.596 96.6071 121.585 96.6022 121.574C96.5972 121.564 96.5893 121.555 96.5791 121.548C96.4816 121.49 95.629 120.998 95.2596 121.122C95.2185 121.136 95.1822 121.159 95.1538 121.187C95.1255 121.216 95.106 121.25 95.0972 121.287C95.0786 121.343 95.0771 121.402 95.0927 121.458C95.1083 121.515 95.1406 121.567 95.1865 121.61C95.3462 121.711 95.5441 121.759 95.7427 121.744ZM96.3517 121.569C95.8117 121.658 95.4179 121.644 95.2758 121.528C95.2466 121.499 95.2268 121.464 95.2182 121.427C95.2097 121.389 95.2127 121.351 95.2271 121.315C95.23 121.296 95.2387 121.279 95.2523 121.264C95.2659 121.25 95.2838 121.239 95.3042 121.232C95.5032 121.167 96.0025 121.38 96.3517 121.569Z" fill="#263238"/>
<path d="M96.5308 121.654C96.5414 121.657 96.5527 121.657 96.5633 121.654C96.5735 121.649 96.5822 121.642 96.5885 121.634C96.5949 121.626 96.5988 121.616 96.5998 121.606C96.5998 121.575 96.6688 120.843 96.3643 120.596C96.3257 120.564 96.2789 120.54 96.2275 120.526C96.1761 120.511 96.1215 120.507 96.068 120.514C96.0085 120.516 95.9515 120.534 95.906 120.567C95.8604 120.599 95.8288 120.643 95.8162 120.692C95.7432 120.971 96.1938 121.503 96.4943 121.654C96.5062 121.657 96.5189 121.657 96.5308 121.654ZM96.1248 120.624C96.1527 120.623 96.1804 120.627 96.2063 120.636C96.2321 120.645 96.2555 120.658 96.275 120.675C96.4427 120.92 96.5125 121.205 96.474 121.486C96.2141 121.297 95.9137 120.892 95.9583 120.709C95.9583 120.675 95.9908 120.634 96.0923 120.624H96.1248Z" fill="#263238"/>
<path d="M106.226 36.398C106.271 36.1832 106.265 35.9629 106.207 35.7503C106.149 35.5378 106.041 35.3373 105.889 35.1609C105.737 34.9844 105.545 34.8357 105.324 34.7236C105.103 34.6115 104.858 34.5383 104.602 34.5083H104.57C103.599 34.3881 102.381 34.2644 101.188 34.2163C98.9092 34.1063 96.6251 34.1063 94.3466 34.2163C93.2951 34.2988 92.2679 34.4465 91.4478 34.5805H91.4153C90.9025 34.6681 90.4278 34.8725 90.0422 35.1716C89.6566 35.4707 89.3747 35.8531 89.2269 36.2777C88.2444 39.0778 87.0711 44.7948 88.6058 56.9332H104.704C104.817 55.7169 104.497 51.759 104.732 46.7188C104.967 43.2549 105.466 39.8075 106.226 36.398Z" fill="#263238"/>
<path opacity="0.3" d="M106.071 37.1468C105.738 38.7753 105.328 40.9913 105.044 43.331C105.044 43.331 103.574 40.8917 103.306 38.8062C103.039 36.7207 105.154 36.5627 106.071 37.1468Z" fill="black"/>
<g opacity="0.2">
<path opacity="0.2" d="M95.2762 37.4691C95.2428 37.4678 95.2109 37.4574 95.1851 37.4393C95.1593 37.4213 95.1412 37.3966 95.1334 37.3691C95.1256 37.3416 95.1286 37.3127 95.1419 37.2867C95.1552 37.2608 95.1782 37.2392 95.2072 37.2252L100.225 35.0229C100.261 35.0082 100.302 35.0057 100.34 35.016C100.378 35.0262 100.409 35.0484 100.428 35.0779C100.447 35.1085 100.451 35.144 100.438 35.1768C100.426 35.2096 100.399 35.237 100.363 35.2531L95.3453 37.4485C95.324 37.4591 95.3006 37.4661 95.2762 37.4691Z" fill="white"/>
<path opacity="0.2" d="M97.574 37.6687C97.5542 37.6694 97.5344 37.6664 97.5162 37.6598C97.4979 37.6533 97.4816 37.6434 97.4684 37.6309L94.7157 35.3187C94.6886 35.2939 94.6736 35.2614 94.6736 35.2276C94.6736 35.1939 94.6886 35.1614 94.7157 35.1366C94.7446 35.1129 94.7832 35.0996 94.8233 35.0996C94.8635 35.0996 94.9021 35.1129 94.9309 35.1366L97.6795 37.4523C97.7076 37.4766 97.7233 37.5093 97.7233 37.5433C97.7233 37.5773 97.7076 37.61 97.6795 37.6343C97.6655 37.6457 97.649 37.6546 97.6309 37.6605C97.6127 37.6664 97.5934 37.6692 97.574 37.6687Z" fill="white"/>
<path opacity="0.2" d="M101.2 34.2126C98.9224 34.1026 96.6397 34.1026 94.3626 34.2126H94.2489C94.1936 34.3894 94.1805 34.5738 94.2105 34.7549C94.2405 34.936 94.3129 35.1103 94.4235 35.2674C94.8051 35.7828 95.6049 36.0714 96.8067 36.1263H97.2574C100.505 36.1263 101.76 34.4566 101.813 34.3844L101.926 34.2298L101.2 34.2126Z" fill="white"/>
</g>
<path d="M94.6871 34.1919C96.6765 33.7933 97.0256 32.7523 96.8916 31.6082C96.8601 31.3217 96.8072 31.0371 96.7333 30.7562L99.2261 29.0039L101.057 27.719C100.55 29.5846 99.9772 32.9825 101.463 34.2262C101.463 34.2262 100.245 35.9441 96.8226 35.7929C93.9522 35.6589 94.6871 34.1919 94.6871 34.1919Z" fill="#FF8B7B"/>
<path opacity="0.2" d="M96.7339 30.7566C96.8078 31.0375 96.8607 31.3221 96.8922 31.6087C97.822 31.4506 99.0643 30.6123 99.1943 29.8083C99.2399 29.5422 99.2508 29.2726 99.2267 29.0044L96.7339 30.7566Z" fill="black"/>
<path d="M95.4099 21.8167C94.0579 22.5038 94.2731 24.2216 93.9077 25.4516C94.7684 25.5238 96.1245 24.2285 96.1245 24.2285L96.9365 22.2599L95.4099 21.8167Z" fill="#263238"/>
<path d="M102.6 25.2727C101.736 27.6983 101.382 29.1516 99.5472 30.1651C98.957 30.4991 98.2702 30.6902 97.561 30.7177C96.8517 30.7452 96.1471 30.608 95.5233 30.3211C94.8996 30.0342 94.3804 29.6084 94.0219 29.0898C93.6635 28.5712 93.4794 27.9795 93.4897 27.3788C93.4897 25.0665 94.8944 21.4865 98.0287 20.9918C98.7043 20.8696 99.406 20.9 100.063 21.0798C100.721 21.2597 101.31 21.5827 101.774 22.0164C102.237 22.4501 102.557 22.9793 102.702 23.5509C102.847 24.1224 102.812 24.7163 102.6 25.2727Z" fill="#FF8B7B"/>
<path d="M99.9005 27.3313C101.931 25.3385 99.393 24.3559 101.468 22.9713C99.1332 23.0641 95.2884 22.9232 94.6022 21.5696C93.9161 20.2159 96.0273 18.3813 97.7853 18.2095C99.8153 18.0102 99.3768 20.1369 99.3768 20.1369C99.3768 20.1369 107.144 19.728 104.679 22.5419C106.547 22.4457 106.031 25.0018 102.783 27.1595C101.967 27.3897 99.9005 27.3313 99.9005 27.3313Z" fill="#263238"/>
<path d="M104.212 22.5762C104.212 22.5762 105.812 22.1742 105.759 21.1023C106.336 21.439 106.396 22.4628 104.212 22.5762Z" fill="#263238"/>
<path d="M103.075 27.805C102.608 28.2934 101.955 28.6297 101.228 28.7567C100.306 28.8975 100.091 28.1761 100.55 27.4717C100.956 26.8396 101.942 26.0047 102.77 26.1799C103.599 26.3551 103.664 27.19 103.075 27.805Z" fill="#FF8B7B"/>
<path d="M97.9758 25.2111C97.919 25.4103 97.7484 25.5546 97.5901 25.5237C97.4317 25.4928 97.3546 25.3141 97.4114 25.1149C97.4683 24.9156 97.6388 24.7713 97.7931 24.7988C97.9474 24.8263 98.0326 25.0084 97.9758 25.2111Z" fill="#263238"/>
<path d="M95.2842 24.7543C95.2273 24.9535 95.0568 25.0978 94.9025 25.0703C94.7483 25.0428 94.663 24.8608 94.7198 24.6615C94.7767 24.4622 94.9472 24.3179 95.1015 24.3454C95.2558 24.3729 95.341 24.555 95.2842 24.7543Z" fill="#263238"/>
<path d="M96.1125 24.998C95.6543 25.5637 95.108 26.0745 94.4885 26.5166C94.6265 26.6425 94.7955 26.7413 94.9835 26.806C95.1715 26.8707 95.3739 26.8998 95.5766 26.8911L96.1125 24.998Z" fill="#FF5652"/>
<path d="M96.405 27.5922C96.6861 27.6146 96.9696 27.5883 97.2383 27.5151C97.507 27.4418 97.7553 27.3232 97.9681 27.1662C97.975 27.161 97.9806 27.1547 97.9844 27.1476C97.9881 27.1405 97.9901 27.1328 97.9901 27.125C97.9901 27.1172 97.9881 27.1095 97.9844 27.1024C97.9806 27.0953 97.975 27.0889 97.9681 27.0837C97.9545 27.0726 97.9363 27.0664 97.9174 27.0664C97.8984 27.0664 97.8802 27.0726 97.8666 27.0837C97.6333 27.2516 97.3572 27.3716 97.06 27.4342C96.7627 27.4967 96.4524 27.5003 96.1533 27.4445C96.1442 27.443 96.1349 27.4431 96.1258 27.4447C96.1168 27.4464 96.1082 27.4495 96.1007 27.454C96.0931 27.4585 96.0867 27.4642 96.0818 27.4708C96.0768 27.4775 96.0736 27.4849 96.0721 27.4926C96.0685 27.5085 96.0724 27.525 96.0831 27.5385C96.0937 27.552 96.1102 27.5614 96.1289 27.5647L96.405 27.5922Z" fill="#263238"/>
<path d="M99.0153 24.6545C99.0377 24.6608 99.0619 24.6608 99.0843 24.6545C99.1013 24.6482 99.1167 24.6391 99.1295 24.6276C99.1422 24.6162 99.1521 24.6027 99.1586 24.5879C99.165 24.5731 99.1679 24.5574 99.167 24.5417C99.1661 24.526 99.1614 24.5106 99.1533 24.4964C99.0661 24.3208 98.929 24.1661 98.754 24.0462C98.579 23.9263 98.3717 23.8449 98.1505 23.8093C98.1129 23.8053 98.075 23.8139 98.0447 23.8331C98.0144 23.8523 97.9941 23.8807 97.9881 23.9124C97.9858 23.9282 97.9873 23.9442 97.9924 23.9595C97.9975 23.9749 98.0062 23.9892 98.0179 24.0016C98.0296 24.0141 98.0441 24.0245 98.0606 24.0321C98.0771 24.0398 98.0952 24.0447 98.1139 24.0464C98.2859 24.0771 98.4466 24.1425 98.5823 24.237C98.718 24.3315 98.8247 24.4523 98.8935 24.5892C98.9054 24.6081 98.9228 24.624 98.9442 24.6354C98.9655 24.6469 98.99 24.6534 99.0153 24.6545Z" fill="#263238"/>
<path d="M94.6182 23.3865C94.6401 23.3932 94.6637 23.3948 94.6865 23.3912C94.7094 23.3876 94.7307 23.3788 94.7481 23.3659C94.8883 23.2671 95.0538 23.1974 95.2314 23.1622C95.409 23.127 95.5938 23.1273 95.7713 23.1632C95.7891 23.1681 95.808 23.1701 95.8267 23.1689C95.8455 23.1677 95.8637 23.1634 95.8805 23.1562C95.8973 23.149 95.9122 23.1391 95.9245 23.127C95.9367 23.115 95.9461 23.101 95.9519 23.0859C95.9578 23.0708 95.9601 23.0548 95.9587 23.039C95.9573 23.0231 95.9522 23.0076 95.9437 22.9934C95.9352 22.9792 95.9235 22.9666 95.9092 22.9562C95.895 22.9458 95.8784 22.938 95.8606 22.933C95.6384 22.8865 95.4065 22.8844 95.1831 22.9267C94.9598 22.9691 94.7511 23.0547 94.5736 23.1769C94.544 23.1966 94.5249 23.2253 94.5203 23.2568C94.5158 23.2884 94.5262 23.3202 94.5492 23.3453C94.5657 23.3655 94.5901 23.3802 94.6182 23.3865Z" fill="#263238"/>
<path d="M106.372 35.4184L106.709 35.8066L107.014 36.1708C107.217 36.4147 107.399 36.6587 107.59 36.9026C107.96 37.3939 108.309 37.8921 108.646 38.3937C109.321 39.3964 109.934 40.4286 110.481 41.4858C110.765 42.008 111.009 42.5509 111.269 43.0834C111.528 43.6159 111.748 44.1691 111.947 44.7257C112.374 45.8335 112.727 46.9611 113.002 48.103L113.035 48.2335C113.094 48.4641 113.1 48.7024 113.05 48.9347C113.001 49.167 112.897 49.3887 112.746 49.5872C112.223 50.2666 111.603 50.8886 110.899 51.439C110.175 52.0003 109.354 52.4638 108.463 52.8133C107.584 53.1601 106.643 53.3807 105.678 53.4661C105.206 53.5073 104.731 53.5142 104.257 53.4867C104.022 53.4867 103.786 53.4489 103.551 53.418L103.193 53.3596L102.787 53.2737C102.74 53.2639 102.698 53.2386 102.672 53.2032C102.647 53.1678 102.638 53.1253 102.649 53.0847L103.21 51.092C103.21 51.0749 103.315 51.0714 103.38 51.0577L103.603 51.0199C103.758 50.9924 103.908 50.9615 104.062 50.9271C104.363 50.8582 104.657 50.7709 104.943 50.666C105.497 50.4738 106.015 50.2158 106.482 49.8998C107.396 49.2631 108.127 48.4582 108.617 47.5464L108.362 49.0306C108.013 48.0583 107.643 47.0963 107.196 46.1446C106.75 45.1929 106.263 44.2584 105.731 43.3377C105.199 42.4169 104.631 41.5064 104.017 40.62C103.717 40.1768 103.4 39.7405 103.084 39.3076L102.601 38.6685L102.361 38.3593L102.138 38.0845L102.057 37.9814C101.655 37.4971 101.497 36.8976 101.618 36.3148C101.738 35.732 102.128 35.2137 102.7 34.8738C103.272 34.5339 103.981 34.4004 104.669 34.5025C105.358 34.6046 105.971 34.9341 106.372 35.4184Z" fill="#263238"/>
<path d="M101.005 53.0744L100.132 54.2838L103.92 54.1567C103.92 54.1567 104.915 51.9991 103.559 51.6589L103.031 51.7792C102.187 51.9793 101.463 52.4419 101.005 53.0744Z" fill="#FF8B7B"/>
<path d="M102.564 51.3811C102.291 51.5373 102.057 51.7368 101.874 51.9686C102.905 52.4428 104.342 54.0576 104.342 54.0576L104.675 53.1711C104.718 53.0568 104.73 52.936 104.711 52.8173C104.692 52.6985 104.642 52.5847 104.566 52.484L103.936 51.6251C103.867 51.5305 103.777 51.4488 103.669 51.385C103.562 51.3211 103.44 51.2764 103.312 51.2535C103.184 51.2307 103.051 51.2303 102.923 51.2522C102.794 51.2741 102.672 51.318 102.564 51.3811Z" fill="#407BFF"/>
<path d="M100.465 56.1463L103.587 55.9126L103.92 54.157L100.132 54.2841L100.465 56.1463Z" fill="#FF8B7B"/>
<path d="M62.1424 14.2028L61.9353 13.9074C62.5307 13.6088 63.1508 13.347 63.7907 13.124L63.945 13.4435C63.3227 13.6585 62.7202 13.9123 62.1424 14.2028Z" fill="#0043A5"/>
<path d="M56.2146 20.2706L55.8086 20.1538C56.771 17.8986 58.5123 15.9402 60.8065 14.533L61.046 14.8112C58.8243 16.1792 57.1408 18.0816 56.2146 20.2706Z" fill="#0043A5"/>
<path d="M69.1009 34.7588C76.0027 34.7588 81.5976 30.0242 81.5976 24.1837C81.5976 18.3433 76.0027 13.6086 69.1009 13.6086C62.1992 13.6086 56.6042 18.3433 56.6042 24.1837C56.6042 30.0242 62.1992 34.7588 69.1009 34.7588Z" fill="#0043A5"/>
<path opacity="0.6" d="M79.5391 24.184C79.5383 26.2448 78.6861 28.2405 77.1299 29.8256C75.5738 31.4108 73.4117 32.4856 71.0178 32.8641C68.624 33.2425 66.1491 32.9008 64.0216 31.898C61.8941 30.8952 60.2479 29.2946 59.3679 27.373C58.4879 25.4515 58.4296 23.3301 59.2029 21.376C59.9763 19.4219 61.5327 17.7581 63.6027 16.6726C65.6728 15.5871 68.1262 15.1483 70.5382 15.4321C72.9503 15.7158 75.1692 16.7043 76.8108 18.2265C76.814 18.2253 76.8174 18.2246 76.8209 18.2246C76.8244 18.2246 76.8279 18.2253 76.8311 18.2265C78.5814 19.8564 79.5475 21.9816 79.5391 24.184Z" fill="white"/>
<path d="M79.5394 24.1842C79.5394 25.9012 78.948 27.581 77.8376 29.0181C76.7272 30.4552 75.1459 31.5872 73.2872 32.2758C71.4285 32.9644 69.3729 33.1796 67.372 32.8952C65.371 32.6107 63.5113 31.839 62.0205 30.6743C60.1977 28.9934 59.2141 26.781 59.2757 24.5002C59.3372 22.2195 60.4391 20.0474 62.3506 18.4387C64.2621 16.83 66.835 15.9095 69.5304 15.87C72.2259 15.8305 74.8349 16.675 76.8111 18.2267C76.8143 18.2255 76.8177 18.2248 76.8212 18.2248C76.8248 18.2248 76.8282 18.2255 76.8314 18.2267C78.5817 19.8566 79.5478 21.9819 79.5394 24.1842Z" fill="white"/>
<path d="M69.1007 24.6996C69.0207 24.6997 68.9415 24.6864 68.8676 24.6605C68.7937 24.6345 68.7267 24.5964 68.6703 24.5484L63.5791 20.2401C63.5193 20.1929 63.4713 20.136 63.438 20.0728C63.4047 20.0095 63.3868 19.9413 63.3853 19.8721C63.3839 19.8029 63.3989 19.7342 63.4296 19.67C63.4602 19.6058 63.5058 19.5475 63.5636 19.4986C63.6215 19.4497 63.6903 19.4111 63.7662 19.3852C63.842 19.3592 63.9232 19.3465 64.005 19.3477C64.0868 19.349 64.1674 19.3641 64.2421 19.3923C64.3168 19.4204 64.3841 19.461 64.4398 19.5117L69.1007 23.4559L71.7925 21.178C71.9079 21.087 72.0606 21.0374 72.2184 21.0398C72.3761 21.0421 72.5267 21.0962 72.6383 21.1906C72.7498 21.285 72.8138 21.4124 72.8165 21.5459C72.8193 21.6795 72.7608 21.8087 72.6532 21.9064L69.531 24.5484C69.4167 24.6448 69.2621 24.6991 69.1007 24.6996Z" fill="#263238"/>
</svg>
