<svg width="500" height="500" viewBox="0 0 500 500" fill="none" xmlns="http://www.w3.org/2000/svg">
<path d="M500 382.4H0V382.65H500V382.4Z" fill="#EBEBEB"/>
<path d="M137.66 389.211H104.54V389.461H137.66V389.211Z" fill="#EBEBEB"/>
<path d="M211.89 398.369H171.14V398.619H211.89V398.369Z" fill="#EBEBEB"/>
<path d="M103.54 395.24H52.46V395.49H103.54V395.24Z" fill="#EBEBEB"/>
<path d="M449.9 390.891H356.76V391.141H449.9V390.891Z" fill="#EBEBEB"/>
<path d="M347.86 390.891H341.53V391.141H347.86V390.891Z" fill="#EBEBEB"/>
<path d="M319.44 395.109H277.21V395.359H319.44V395.109Z" fill="#EBEBEB"/>
<path d="M237 337.8H43.91C42.3973 337.797 40.9475 337.195 39.8788 336.124C38.8102 335.053 38.21 333.603 38.21 332.09V60.66C38.2231 59.156 38.8292 57.718 39.8964 56.6582C40.9637 55.5985 42.4059 55.0026 43.91 55H237C238.514 55 239.967 55.6016 241.038 56.6724C242.108 57.7433 242.71 59.1956 242.71 60.71V332.09C242.71 333.604 242.108 335.057 241.038 336.128C239.967 337.198 238.514 337.8 237 337.8ZM43.91 55.2C42.4636 55.2026 41.0774 55.7791 40.0556 56.8027C39.0338 57.8264 38.46 59.2136 38.46 60.66V332.09C38.46 333.536 39.0338 334.924 40.0556 335.947C41.0774 336.971 42.4636 337.547 43.91 337.55H237C238.446 337.545 239.832 336.968 240.855 335.945C241.878 334.922 242.455 333.536 242.46 332.09V60.66C242.455 59.2135 241.878 57.8278 240.855 56.805C239.832 55.7822 238.446 55.2053 237 55.2H43.91Z" fill="#EBEBEB"/>
<path d="M453.31 337.8H260.21C258.697 337.795 257.248 337.191 256.178 336.122C255.109 335.052 254.505 333.603 254.5 332.09V60.66C254.516 59.1551 255.124 57.7171 256.193 56.6576C257.262 55.5981 258.705 55.0025 260.21 55H453.31C454.812 55.0052 456.252 55.6022 457.317 56.6617C458.382 57.7212 458.987 59.1578 459 60.66V332.09C459.001 332.839 458.855 333.58 458.57 334.272C458.285 334.964 457.866 335.593 457.338 336.123C456.809 336.654 456.182 337.075 455.491 337.362C454.799 337.65 454.059 337.799 453.31 337.8ZM260.21 55.2C258.764 55.2053 257.378 55.7822 256.355 56.805C255.332 57.8278 254.755 59.2135 254.75 60.66V332.09C254.755 333.536 255.332 334.922 256.355 335.945C257.378 336.968 258.764 337.545 260.21 337.55H453.31C454.756 337.545 456.142 336.968 457.165 335.945C458.188 334.922 458.765 333.536 458.77 332.09V60.66C458.765 59.2135 458.188 57.8278 457.165 56.805C456.142 55.7822 454.756 55.2053 453.31 55.2H260.21Z" fill="#EBEBEB"/>
<path d="M70.6699 171.1H157.43C157.43 171.1 152.76 160.24 137.16 163.62C137.16 163.62 133.88 151.27 121.98 152.98C121.98 152.98 112.13 142.3 97.7599 146.44C83.3899 150.58 84.6299 163.62 84.6299 163.62C84.6299 163.62 73.9999 160.84 70.6699 171.1Z" fill="#FAFAFA"/>
<path d="M302.89 104.941H216.14C216.14 104.941 220.8 94.0705 236.4 97.4505C236.4 97.4505 239.68 85.1005 251.59 86.8105C251.59 86.8105 261.44 76.1405 275.8 80.2805C290.16 84.4205 288.94 97.4505 288.94 97.4505C288.94 97.4505 299.61 94.6805 302.89 104.941Z" fill="#FAFAFA"/>
<path d="M366.87 102.111H433.24C433.24 102.111 430.7 93.0009 421.1 96.0009C421.1 96.0009 423.1 83.7409 416.02 82.3209C408.94 80.9009 406.69 90.2309 406.69 90.2309C405.07 88.3948 402.969 87.0475 400.625 86.3407C398.28 85.634 395.785 85.596 393.42 86.2309C391.095 86.8364 388.975 88.058 387.286 89.7668C385.596 91.4757 384.399 93.6086 383.82 95.9409C383.82 95.9409 372 89.1709 366.87 102.111Z" fill="#FAFAFA"/>
<path d="M126.7 222.17H45.96V382.14H126.7V222.17Z" fill="#E6E6E6"/>
<path d="M112.02 222.17H45.96V382.14H112.02V222.17Z" fill="#F0F0F0"/>
<path d="M127.65 222.17H44.2202V224.78H127.65V222.17Z" fill="#E0E0E0"/>
<path d="M127.65 216.949H44.2202V219.559H127.65V216.949Z" fill="#E0E0E0"/>
<path d="M125.9 219.561H45.96V222.171H125.9V219.561Z" fill="#F0F0F0"/>
<path d="M64.64 231.58H52.23V244.18H64.64V231.58Z" fill="#E6E6E6"/>
<path d="M64.6298 231.58H53.3198V244.18H64.6298V231.58Z" fill="#F5F5F5"/>
<path d="M83.43 231.58H71.02V244.18H83.43V231.58Z" fill="#E6E6E6"/>
<path d="M83.4199 231.58H72.1099V244.18H83.4199V231.58Z" fill="#F5F5F5"/>
<path d="M102.22 231.58H89.8101V244.18H102.22V231.58Z" fill="#E6E6E6"/>
<path d="M102.21 231.58H90.8999V244.18H102.21V231.58Z" fill="#F5F5F5"/>
<path d="M64.64 250.131H52.23V262.731H64.64V250.131Z" fill="#E6E6E6"/>
<path d="M64.6298 250.131H53.3198V262.731H64.6298V250.131Z" fill="#F5F5F5"/>
<path d="M83.43 250.131H71.02V262.731H83.43V250.131Z" fill="#E6E6E6"/>
<path d="M83.4199 250.131H72.1099V262.731H83.4199V250.131Z" fill="#F5F5F5"/>
<path d="M102.22 250.131H89.8101V262.731H102.22V250.131Z" fill="#E6E6E6"/>
<path d="M102.21 250.131H90.8999V262.731H102.21V250.131Z" fill="#F5F5F5"/>
<path d="M64.64 284.1H52.23V296.7H64.64V284.1Z" fill="#E6E6E6"/>
<path d="M64.6298 284.1H53.3198V296.7H64.6298V284.1Z" fill="#F5F5F5"/>
<path d="M83.43 284.1H71.02V296.7H83.43V284.1Z" fill="#E6E6E6"/>
<path d="M83.4199 284.1H72.1099V296.7H83.4199V284.1Z" fill="#F5F5F5"/>
<path d="M102.22 284.1H89.8101V296.7H102.22V284.1Z" fill="#E6E6E6"/>
<path d="M102.21 284.1H90.8999V296.7H102.21V284.1Z" fill="#F5F5F5"/>
<path d="M64.64 302.65H52.23V315.25H64.64V302.65Z" fill="#E6E6E6"/>
<path d="M64.6298 302.65H53.3198V315.25H64.6298V302.65Z" fill="#F5F5F5"/>
<path d="M83.43 302.65H71.02V315.25H83.43V302.65Z" fill="#E6E6E6"/>
<path d="M83.4199 302.65H72.1099V315.25H83.4199V302.65Z" fill="#F5F5F5"/>
<path d="M102.22 302.65H89.8101V315.25H102.22V302.65Z" fill="#E6E6E6"/>
<path d="M102.21 302.65H90.8999V315.25H102.21V302.65Z" fill="#F5F5F5"/>
<path d="M64.64 340.4H52.23V353H64.64V340.4Z" fill="#E6E6E6"/>
<path d="M64.6298 340.4H53.3198V353H64.6298V340.4Z" fill="#F5F5F5"/>
<path d="M83.43 340.4H71.02V353H83.43V340.4Z" fill="#E6E6E6"/>
<path d="M83.4199 340.4H72.1099V353H83.4199V340.4Z" fill="#F5F5F5"/>
<path d="M102.22 340.4H89.8101V353H102.22V340.4Z" fill="#E6E6E6"/>
<path d="M102.21 340.4H90.8999V353H102.21V340.4Z" fill="#F5F5F5"/>
<path d="M64.64 358.949H52.23V371.549H64.64V358.949Z" fill="#E6E6E6"/>
<path d="M64.6298 358.949H53.3198V371.549H64.6298V358.949Z" fill="#F5F5F5"/>
<path d="M83.43 358.949H71.02V371.549H83.43V358.949Z" fill="#E6E6E6"/>
<path d="M83.4199 358.949H72.1099V371.549H83.4199V358.949Z" fill="#F5F5F5"/>
<path d="M102.22 358.949H89.8101V371.549H102.22V358.949Z" fill="#E6E6E6"/>
<path d="M102.21 358.949H90.8999V371.549H102.21V358.949Z" fill="#F5F5F5"/>
<path d="M126.7 271.59H45.96V272.76H126.7V271.59Z" fill="#E0E0E0"/>
<path d="M126.7 329.65H45.96V330.82H126.7V329.65Z" fill="#E0E0E0"/>
<path d="M444.2 189.16H364.43V383.27H444.2V189.16Z" fill="#E0E0E0"/>
<path d="M421.48 189.16H364.43V383.27H421.48V189.16Z" fill="#F0F0F0"/>
<path d="M391.54 205.109H370.31V215.419H391.54V205.109Z" fill="#E6E6E6"/>
<path d="M391.54 205.109H371.72V215.419H391.54V205.109Z" fill="#F5F5F5"/>
<path d="M416.1 205.109H394.87V215.419H416.1V205.109Z" fill="#E6E6E6"/>
<path d="M416.1 205.109H396.28V215.419H416.1V205.109Z" fill="#F5F5F5"/>
<path d="M391.54 224.51H370.31V234.82H391.54V224.51Z" fill="#E6E6E6"/>
<path d="M391.54 224.51H371.72V234.82H391.54V224.51Z" fill="#F5F5F5"/>
<path d="M416.1 224.51H394.87V234.82H416.1V224.51Z" fill="#E6E6E6"/>
<path d="M416.1 224.51H396.28V234.82H416.1V224.51Z" fill="#F5F5F5"/>
<path d="M391.54 249.301H370.31V259.611H391.54V249.301Z" fill="#E6E6E6"/>
<path d="M391.54 249.301H371.72V259.611H391.54V249.301Z" fill="#F5F5F5"/>
<path d="M416.1 249.301H394.87V259.611H416.1V249.301Z" fill="#E6E6E6"/>
<path d="M416.1 249.301H396.28V259.611H416.1V249.301Z" fill="#F5F5F5"/>
<path d="M391.54 263.551H370.31V273.861H391.54V263.551Z" fill="#E6E6E6"/>
<path d="M391.54 263.551H371.72V273.861H391.54V263.551Z" fill="#F5F5F5"/>
<path d="M416.1 263.551H394.87V273.861H416.1V263.551Z" fill="#E6E6E6"/>
<path d="M416.1 263.551H396.28V273.861H416.1V263.551Z" fill="#F5F5F5"/>
<path d="M391.54 286.961H370.31V297.271H391.54V286.961Z" fill="#E6E6E6"/>
<path d="M391.54 286.961H371.72V297.271H391.54V286.961Z" fill="#F5F5F5"/>
<path d="M416.1 286.961H394.87V297.271H416.1V286.961Z" fill="#E6E6E6"/>
<path d="M416.1 286.961H396.28V297.271H416.1V286.961Z" fill="#F5F5F5"/>
<path d="M391.54 301.199H370.31V311.509H391.54V301.199Z" fill="#E6E6E6"/>
<path d="M391.54 301.199H371.72V311.509H391.54V301.199Z" fill="#F5F5F5"/>
<path d="M416.1 301.199H394.87V311.509H416.1V301.199Z" fill="#E6E6E6"/>
<path d="M416.1 301.199H396.28V311.509H416.1V301.199Z" fill="#F5F5F5"/>
<path d="M391.54 326.68H370.31V336.99H391.54V326.68Z" fill="#E6E6E6"/>
<path d="M391.54 326.68H371.72V336.99H391.54V326.68Z" fill="#F5F5F5"/>
<path d="M416.1 326.68H394.87V336.99H416.1V326.68Z" fill="#E6E6E6"/>
<path d="M416.1 326.68H396.28V336.99H416.1V326.68Z" fill="#F5F5F5"/>
<path d="M391.54 345.49H370.31V355.8H391.54V345.49Z" fill="#E6E6E6"/>
<path d="M391.54 345.49H371.72V355.8H391.54V345.49Z" fill="#F5F5F5"/>
<path d="M416.1 345.49H394.87V355.8H416.1V345.49Z" fill="#E6E6E6"/>
<path d="M416.1 345.49H396.28V355.8H416.1V345.49Z" fill="#F5F5F5"/>
<path opacity="0.05" d="M444.2 241.17H364.43V242.94H444.2V241.17Z" fill="black"/>
<path opacity="0.05" d="M444.2 279.52H364.43V281.29H444.2V279.52Z" fill="black"/>
<path opacity="0.05" d="M444.2 318.211H364.43V319.981H444.2V318.211Z" fill="black"/>
<path d="M444.2 183.42H360.67V189.62H444.2V183.42Z" fill="#E0E0E0"/>
<path opacity="0.05" d="M444.2 183.42H425.11V189.62H444.2V183.42Z" fill="black"/>
<path d="M250.82 145.58H160.64V379.96H250.82V145.58Z" fill="#E6E6E6"/>
<path d="M217.45 145.58H127.26V379.96H217.45V145.58Z" fill="#F0F0F0"/>
<path d="M209.58 161.49H135.13V173.43H209.58V161.49Z" fill="#E6E6E6"/>
<path d="M209.58 161.49H138.02V173.43H209.58V161.49Z" fill="#F5F5F5"/>
<path d="M209.58 181.59H135.13V193.53H209.58V181.59Z" fill="#E6E6E6"/>
<path d="M209.58 181.59H138.02V193.53H209.58V181.59Z" fill="#F5F5F5"/>
<path d="M209.58 202.471H135.13V214.411H209.58V202.471Z" fill="#E6E6E6"/>
<path d="M209.58 202.471H138.02V214.411H209.58V202.471Z" fill="#F5F5F5"/>
<path d="M209.58 223.359H135.13V235.299H209.58V223.359Z" fill="#E6E6E6"/>
<path d="M209.58 223.359H138.02V235.299H209.58V223.359Z" fill="#F5F5F5"/>
<path d="M209.58 244.24H135.13V256.18H209.58V244.24Z" fill="#E6E6E6"/>
<path d="M209.58 244.24H138.02V256.18H209.58V244.24Z" fill="#F5F5F5"/>
<path d="M209.58 265.131H135.13V277.071H209.58V265.131Z" fill="#E6E6E6"/>
<path d="M209.58 265.131H138.02V277.071H209.58V265.131Z" fill="#F5F5F5"/>
<path d="M209.58 288.15H135.13V300.09H209.58V288.15Z" fill="#E6E6E6"/>
<path d="M209.58 288.15H138.02V300.09H209.58V288.15Z" fill="#F5F5F5"/>
<path d="M209.58 311.16H135.13V323.1H209.58V311.16Z" fill="#E6E6E6"/>
<path d="M209.58 311.16H138.02V323.1H209.58V311.16Z" fill="#F5F5F5"/>
<path d="M209.58 334.18H135.13V346.12H209.58V334.18Z" fill="#E6E6E6"/>
<path d="M209.58 334.18H138.02V346.12H209.58V334.18Z" fill="#F5F5F5"/>
<path d="M209.58 357.199H135.13V369.139H209.58V357.199Z" fill="#E6E6E6"/>
<path d="M209.58 357.199H138.02V369.139H209.58V357.199Z" fill="#F5F5F5"/>
<path d="M253.17 143.221H124.71V148.941H253.17V143.221Z" fill="#F5F5F5"/>
<path d="M253.17 132.9H124.71V138.62H253.17V132.9Z" fill="#F5F5F5"/>
<path d="M248.9 137.5H127.26V143.22H248.9V137.5Z" fill="#F0F0F0"/>
<path d="M250.83 161.49H225.7V173.43H250.83V161.49Z" fill="#E0E0E0"/>
<path d="M250.83 181.141H225.7V193.081H250.83V181.141Z" fill="#E0E0E0"/>
<path d="M250.83 200.789H225.7V212.729H250.83V200.789Z" fill="#E0E0E0"/>
<path d="M250.83 223.35H225.7V235.29H250.83V223.35Z" fill="#E0E0E0"/>
<path d="M250.83 244.24H225.7V256.18H250.83V244.24Z" fill="#E0E0E0"/>
<path d="M250.83 265.131H225.7V277.071H250.83V265.131Z" fill="#E0E0E0"/>
<path d="M250.83 288.141H225.7V300.081H250.83V288.141Z" fill="#E0E0E0"/>
<path d="M250.83 311.16H225.7V323.1H250.83V311.16Z" fill="#E0E0E0"/>
<path d="M250.83 334.18H225.7V346.12H250.83V334.18Z" fill="#E0E0E0"/>
<path d="M250.83 357.199H225.7V369.139H250.83V357.199Z" fill="#E0E0E0"/>
<path d="M366.75 227.49H356.83V243.01H366.75V227.49Z" fill="#E0E0E0"/>
<path d="M366.75 252.891H356.83V268.411H366.75V252.891Z" fill="#E0E0E0"/>
<path d="M366.75 277.58H356.83V293.1H366.75V277.58Z" fill="#E0E0E0"/>
<path d="M366.75 303.68H356.83V319.2H366.75V303.68Z" fill="#E0E0E0"/>
<path d="M366.75 329.08H356.83V344.6H366.75V329.08Z" fill="#E0E0E0"/>
<path d="M366.75 211.891H262.36V370.651H366.75V211.891Z" fill="#E6E6E6"/>
<path d="M349.12 211.891H262.37V370.651H349.12V211.891Z" fill="#F0F0F0"/>
<path d="M340.71 227.5H270.17V243.02H340.71V227.5Z" fill="#EBEBEB"/>
<path d="M340.71 252.891H270.17V268.411H340.71V252.891Z" fill="#EBEBEB"/>
<path d="M340.71 278.289H270.17V293.809H340.71V278.289Z" fill="#EBEBEB"/>
<path d="M340.71 303.68H270.17V319.2H340.71V303.68Z" fill="#EBEBEB"/>
<path d="M340.71 329.08H270.17V344.6H340.71V329.08Z" fill="#EBEBEB"/>
<path d="M340.71 227.5H272.77V243.02H340.71V227.5Z" fill="#F5F5F5"/>
<path d="M340.71 252.891H272.77V268.411H340.71V252.891Z" fill="#F5F5F5"/>
<path d="M340.71 278.289H272.77V293.809H340.71V278.289Z" fill="#F5F5F5"/>
<path d="M340.71 303.68H272.77V319.2H340.71V303.68Z" fill="#F5F5F5"/>
<path d="M340.71 329.08H272.77V344.6H340.71V329.08Z" fill="#F5F5F5"/>
<path d="M250 427.56C357.082 427.56 443.89 422.492 443.89 416.24C443.89 409.988 357.082 404.92 250 404.92C142.917 404.92 56.1099 409.988 56.1099 416.24C56.1099 422.492 142.917 427.56 250 427.56Z" fill="#F5F5F5"/>
<path d="M139.73 416.24H135.73" stroke="#3FBA95" stroke-linecap="round" stroke-linejoin="round"/>
<path d="M128.17 416.24H26.02" stroke="#3FBA95" stroke-linecap="round" stroke-linejoin="round" stroke-dasharray="7.57 7.57"/>
<path d="M22.2402 416.24H18.2402" stroke="#3FBA95" stroke-linecap="round" stroke-linejoin="round"/>
<path d="M377.756 176.87L262.372 178.783L263.753 262.082L379.138 260.168L377.756 176.87Z" fill="#3FBA95"/>
<path opacity="0.3" d="M332.019 177.619L262.258 178.775L263.64 262.074L333.4 260.917L332.019 177.619Z" fill="white"/>
<path opacity="0.3" d="M342.531 183.231L322.441 183.633L322.553 189.233L342.643 188.831L342.531 183.231Z" fill="white"/>
<path opacity="0.3" d="M343.128 248.005L323.041 248.338L323.133 253.937L343.221 253.604L343.128 248.005Z" fill="white"/>
<path d="M356.52 230.19C363.031 230.19 368.31 224.217 368.31 216.85C368.31 209.482 363.031 203.51 356.52 203.51C350.009 203.51 344.73 209.482 344.73 216.85C344.73 224.217 350.009 230.19 356.52 230.19Z" stroke="white" stroke-miterlimit="10"/>
<path d="M357.01 205.539V207.779" stroke="white" stroke-linecap="round" stroke-linejoin="round"/>
<path d="M357.52 226.059V228.299" stroke="white" stroke-linecap="round" stroke-linejoin="round"/>
<path d="M346.58 216.41H348.83" stroke="white" stroke-linecap="round" stroke-linejoin="round"/>
<path d="M364.64 216.42H366.89" stroke="white" stroke-linecap="round" stroke-linejoin="round"/>
<path d="M357 216.41L357.01 209.51" stroke="white" stroke-width="0.5" stroke-linecap="round" stroke-linejoin="round"/>
<path d="M357.44 216.859L362.32 221.739" stroke="white" stroke-width="0.5" stroke-linecap="round" stroke-linejoin="round"/>
<path d="M358.09 216.42C358.09 216.636 358.026 216.846 357.906 217.026C357.787 217.205 357.616 217.345 357.417 217.427C357.218 217.51 356.999 217.531 356.788 217.489C356.576 217.447 356.382 217.343 356.229 217.191C356.077 217.038 355.973 216.844 355.931 216.633C355.889 216.421 355.911 216.202 355.993 216.003C356.076 215.804 356.215 215.634 356.395 215.514C356.574 215.394 356.785 215.33 357 215.33C357.144 215.329 357.286 215.356 357.419 215.41C357.552 215.465 357.672 215.545 357.774 215.646C357.875 215.748 357.956 215.869 358.01 216.001C358.064 216.134 358.091 216.277 358.09 216.42Z" fill="white"/>
<path opacity="0.3" d="M356.52 233.72C365.141 233.72 372.13 226.168 372.13 216.85C372.13 207.533 365.141 199.98 356.52 199.98C347.899 199.98 340.91 207.533 340.91 216.85C340.91 226.168 347.899 233.72 356.52 233.72Z" fill="white"/>
<path d="M226.88 363.15C228.62 364.48 263.55 360.72 254.52 298.75C254.52 298.75 271.09 302.96 272.87 302.68C272.87 302.68 297.18 339.95 279.48 358.41C261.78 376.87 235.4 378 235.4 378L226.88 363.15Z" fill="#3FBA95"/>
<path opacity="0.3" d="M226.88 363.15C228.62 364.48 263.55 360.72 254.52 298.75C254.52 298.75 271.09 302.96 272.87 302.68C272.87 302.68 297.18 339.95 279.48 358.41C261.78 376.87 235.4 378 235.4 378L226.88 363.15Z" fill="black"/>
<path d="M265.59 308.339C265.68 308.339 255.83 308.529 252.53 304.429C249.23 300.329 247 292.999 253 287.999C259 282.999 294.23 261.399 310.82 259.699C327.41 257.999 345.17 268.699 345.17 268.699L323.45 284.759L276.68 296.079L265.59 308.339Z" fill="#263238"/>
<path d="M233.74 353.39L234.65 362.35L245.41 361.44L243.79 352.23L233.74 353.39Z" fill="#FFC3BD"/>
<path d="M231.65 361.7L247.26 361.48L248.37 369.36C248.37 369.36 233.75 369.56 227.74 368.76C221.73 367.96 222.67 364.83 222.67 364.83C222.67 364.83 229.71 365 231.65 361.7Z" fill="#263238"/>
<path d="M367.878 384.38C370.208 361.473 356.379 341.305 336.989 339.332C317.599 337.359 299.991 354.329 297.66 377.235C295.329 400.142 309.159 420.31 328.549 422.283C347.939 424.256 365.547 407.286 367.878 384.38Z" fill="#263238"/>
<path d="M308.24 253.29C308.24 253.29 309.86 290.46 288.24 291.52C266.62 292.58 243.39 290.21 243.39 290.21L250.2 357L229.93 358.25C229.93 358.25 215.38 301.59 213.09 287.35C210.8 273.11 212.79 263.04 227.82 256.72C242.85 250.4 308.24 253.29 308.24 253.29Z" fill="#3FBA95"/>
<path d="M187.25 371.22L214.18 293L250.18 253.26C250.18 253.26 218.76 253.38 203.66 262.06C188.56 270.74 188 281.17 185.23 293.58C182.46 305.99 171.35 364.73 171.35 364.73L187.25 371.22Z" fill="#3FBA95"/>
<path opacity="0.7" d="M308.24 253.289C308.24 253.289 274.78 251.799 250.24 253.289C250.24 253.289 218.82 253.409 203.72 262.089C188.62 270.769 188 281.169 185.23 293.579C182.46 305.989 171.35 364.729 171.35 364.729L187.25 371.219L214.18 292.999C218.71 314.679 229.93 358.209 229.93 358.209L250.2 356.999L243.38 290.249C243.38 290.249 266.6 292.619 288.23 291.559C309.86 290.499 308.24 253.289 308.24 253.289Z" fill="black"/>
<path d="M253 193L240.57 194.51C240.57 194.51 238.41 217.36 236.4 221.8C236.4 221.8 198.17 227.05 182.51 226.6L174.56 232L174.28 241.39L182.07 241.62L184.58 235.67C184.58 235.67 189.84 235.44 191.06 232.48C191.06 232.48 231.68 242.29 246.64 231.09C246.66 231.1 255.68 217.85 253 193Z" fill="#FFC3BD"/>
<path d="M288.62 131.809C288.62 131.809 292.51 136.809 291.03 141.139C290.621 142.373 289.902 143.482 288.94 144.358C287.978 145.234 286.807 145.847 285.54 146.139C285.54 146.139 284.81 153.069 280.72 153.269C276.63 153.469 278 137.999 278 137.999L288.62 131.809Z" fill="#263238"/>
<path d="M257.13 253.459L254.4 208.789L237.46 197.529C237.46 197.529 243 177.999 253.6 174.689C264.2 171.379 287.32 163.789 301.34 167.559C315.36 171.329 313.75 187.869 311.34 200.139L308.64 200.779C308.64 200.779 308.22 249.129 308.2 253.289L257.13 253.459Z" fill="#263238"/>
<path d="M287.61 170.319C282.06 175.689 270.74 178.889 267.61 176.219C264.48 173.549 268.43 171.099 271.37 168.079C272.96 166.419 272.91 163.309 272.54 160.829C272.345 159.58 272.058 158.346 271.68 157.139C261.29 156.569 256.98 151.709 256.55 143.139C256.12 134.569 260 124.619 260 124.619L267.34 118.359C267.34 118.359 277.34 119.859 285.34 125.359C290.1 128.599 288.69 134.979 286.72 139.689C285.885 141.694 284.882 143.625 283.72 145.459C282.6 157.189 287.61 170.319 287.61 170.319Z" fill="#FFC3BD"/>
<path d="M262.33 145.499C262.33 145.499 266.33 145.689 268.08 143.209" stroke="#263238" stroke-linecap="round" stroke-linejoin="round"/>
<path d="M268.7 135.379C268.7 136.139 268.24 136.739 267.7 136.729C267.16 136.719 266.77 136.089 266.79 135.329C266.81 134.569 267.25 133.969 267.79 133.979C268.33 133.989 268.73 134.619 268.7 135.379Z" fill="#263238"/>
<path d="M259.58 135.619C259.58 136.379 259.12 136.979 258.58 136.969C258.04 136.959 257.65 136.329 257.67 135.569C257.69 134.809 258.13 134.209 258.67 134.219C259.21 134.229 259.61 134.869 259.58 135.619Z" fill="#263238"/>
<path d="M262.75 141.829L262.34 135.699L259.41 141.519C259.868 141.908 260.434 142.146 261.031 142.202C261.629 142.257 262.229 142.127 262.75 141.829Z" fill="#ED847E"/>
<path d="M268.22 130.579C268.987 130.368 269.804 130.437 270.525 130.772C271.247 131.107 271.826 131.687 272.16 132.409" stroke="#263238" stroke-linecap="round" stroke-linejoin="round"/>
<path d="M256.76 131.71C256.76 131.71 258.6 129.71 260.76 130.22" stroke="#263238" stroke-linecap="round" stroke-linejoin="round"/>
<path d="M286.79 139.69C275.35 140.1 273.93 127.13 273.93 127.13C268.27 130.13 260.04 124.63 260.04 124.63L267.38 118.35C267.38 118.35 277.38 119.87 285.38 125.35C290.17 128.6 288.76 135 286.79 139.69Z" fill="#263238"/>
<path d="M256.36 128.429C256.36 128.429 250.44 124.489 253.05 121.649C255.66 118.809 271.65 124.209 283.6 130.829C283.6 130.829 256.23 112.519 248.79 118.309C242.64 123.099 256.28 129.749 255.87 129.739L256.36 128.429Z" fill="#3FBA95"/>
<path d="M289.75 127.089C289.733 129.163 289.34 131.216 288.59 133.149L261.71 120.149C262.824 118.864 264.158 117.787 265.65 116.969C267.241 116.06 268.971 115.418 270.77 115.069C272.678 114.705 274.631 114.637 276.56 114.869C286.39 115.999 289.8 123.559 289.75 127.089Z" fill="#3FBA95"/>
<path d="M170.71 259.469C170.71 259.469 140.35 301.469 165.35 366.119" stroke="#263238" stroke-linecap="round" stroke-linejoin="round"/>
<path d="M210.78 281.29C210.78 281.29 210.78 281.37 210.78 281.53C210.78 281.69 210.78 281.78 210.78 281.96V282.06C210.419 286.105 209.75 290.116 208.78 294.06C207.4 299.89 205.57 305.44 204.06 309.9C197.66 328.85 198.4 349.27 198.4 349.27C196.28 346.63 192.4 344.75 187.55 343.43C169.89 338.58 139.91 341.18 139.91 341.18C134.03 320.55 136.13 288.26 141.98 270.18C147.83 252.1 164.05 256.18 164.05 256.18C164.05 256.18 181.17 256.68 183.32 256.45C187.255 255.972 191.238 256.053 195.15 256.69C208.37 259.11 211.55 269.56 210.78 281.29Z" fill="#3FBA95"/>
<path d="M342.59 360C312.59 387.08 254.68 389.92 211.59 386.92L187.45 343.49L177.67 325.9L209.09 283.55L210.75 281.32C210.75 281.32 210.75 281.4 210.75 281.56C210.75 281.72 210.75 281.81 210.75 281.99V282.09C210.32 289.64 207.54 350.23 229.75 365.09L229.93 365.22C232.935 367.162 236.422 368.229 240 368.3C280.75 369.48 279.61 316.3 269.25 304.91L339.96 290.7C339.96 290.7 353.92 325.85 342.59 360Z" fill="#3FBA95"/>
<path d="M263.94 293.38C263.94 293.38 257.31 298.88 260.73 306.26C264.15 313.64 297.12 299.31 310.1 296.7C323.08 294.09 338.1 291.54 344.56 290.21C351.02 288.88 350.46 270.35 345.18 268.71C339.9 267.07 288.18 276.21 279.6 281.23C273.934 284.671 268.68 288.747 263.94 293.38Z" fill="#263238"/>
<path d="M280.54 144.27C279.909 143.59 279.527 142.717 279.456 141.793C279.385 140.868 279.63 139.947 280.15 139.18C281.75 136.78 284.98 132.97 288.08 135.82C292.42 139.82 285.01 147.09 281.94 145.33C281.426 145.044 280.955 144.687 280.54 144.27Z" fill="#FFC3BD"/>
<path opacity="0.2" d="M256.36 128.429C256.36 128.429 250.44 124.489 253.05 121.649C254.21 120.389 257.68 120.649 262.37 121.989C265.386 122.801 268.34 123.827 271.21 125.059C275.33 126.849 279.71 129.139 283.6 130.829C283.6 130.829 256.23 112.519 248.79 118.309C242.64 123.099 255.43 129.309 255.88 129.729L256.1 128.919L256.36 128.429Z" fill="black"/>
<path d="M259.17 126.719C259.17 126.719 253.17 127.719 257.31 134.179L259.17 126.719Z" fill="#263238"/>
<path d="M264.92 122.779C264.92 122.779 255.87 119.599 253.35 121.399C250.83 123.199 253.47 126.629 256.35 128.399L258.66 128.699L260.02 124.599L263.54 124.169L264.92 122.779Z" fill="#263238"/>
<path opacity="0.3" d="M277.25 117.89L275.08 121.1L265.65 117C267.241 116.09 268.971 115.448 270.77 115.1L277.25 117.89Z" fill="white"/>
<path opacity="0.1" d="M275.15 156.26C274.526 157.919 273.631 159.464 272.5 160.83C272.305 159.58 272.018 158.347 271.64 157.14C272.853 157.055 274.041 156.757 275.15 156.26Z" fill="black"/>
<path d="M185.5 244.2C185.1 251.13 182.1 256.8 178.42 258.2C177.783 258.446 177.101 258.551 176.42 258.51C171.88 258.25 168.58 251.44 169.04 243.31C169.5 235.18 173.56 228.8 178.1 229.06C179.95 229.16 181.58 230.35 182.85 232.26C184.72 235 185.77 239.38 185.5 244.2Z" fill="#F5F5F5"/>
<path d="M185.5 244.2C185.1 251.13 182.1 256.8 178.42 258.2C174.22 257.96 171.17 251.67 171.6 244.2C172.03 236.73 175.77 230.8 179.97 231.04C181.052 231.121 182.076 231.561 182.88 232.29C184.72 235 185.77 239.38 185.5 244.2Z" fill="white"/>
<path d="M347.57 342.43C339.84 337 309.93 331.67 309.93 331.67C291.76 331.67 275.81 348.02 273.61 369.73C271.81 387.39 279.61 403.42 292.18 410.73C292.18 410.73 293.23 411.17 294.99 411.86C301.65 414.49 318.55 420.86 328.54 422.26" fill="#263238"/>
<path opacity="0.3" d="M367.878 384.38C370.208 361.473 356.379 341.305 336.989 339.332C317.599 337.359 299.991 354.329 297.66 377.235C295.329 400.142 309.159 420.31 328.549 422.283C347.939 424.256 365.547 407.286 367.878 384.38Z" fill="black"/>
<path d="M212.418 383.046C214.749 360.139 200.92 339.971 181.53 337.998C162.14 336.025 144.532 352.995 142.201 375.901C139.87 398.808 153.699 418.976 173.089 420.949C192.479 422.922 210.087 405.952 212.418 383.046Z" fill="#263238"/>
<path d="M198.88 345.639L181 420.709C178.391 421.131 175.738 421.209 173.11 420.939H172.91C169.48 420.059 171.01 421.009 167.57 419.869C158.82 416.979 146.11 411.869 146.11 411.869C132.64 405.319 125.03 389.389 126.88 371.189C129.12 349.139 144.94 332.669 163.56 334.019C163.56 334.019 172.4 335.649 181.5 338.019C185.5 339.019 189.5 340.209 192.79 341.449C194.968 342.617 197.01 344.022 198.88 345.639Z" fill="#263238"/>
<path opacity="0.3" d="M212.42 382.999C210.42 402.749 197.05 418.079 180.98 420.669C178.372 421.092 175.719 421.169 173.09 420.899H172.89C169.229 420.504 165.67 419.443 162.39 417.769C148.88 410.919 140.33 394.279 142.2 375.879C144.53 352.989 162.1 336.039 181.48 337.979H181.53C185.465 338.377 189.284 339.542 192.77 341.409C194.949 342.58 196.991 343.989 198.86 345.609C208.43 353.929 214 367.889 212.42 382.999Z" fill="black"/>
<path d="M207.55 356.7C206.964 355.765 206.294 354.884 205.55 354.07C201.08 347.97 190.86 345.69 184.17 346.23C179.041 346.73 174.117 348.496 169.84 351.37C164.96 354.53 161.47 359.37 156.63 362.69C147.45 369.03 133.52 368.85 124.3 362.32C123.78 361.95 123.286 361.546 122.82 361.11C121.88 360.132 121.254 358.896 121.02 357.56C120.667 355.892 120.795 354.158 121.39 352.56C123.39 346.94 130.06 342 134.27 338.99C142.805 332.968 152.845 329.433 163.27 328.78C193 326.73 205.68 352.12 207.55 356.7Z" fill="#3FBA95"/>
<path opacity="0.3" d="M205.49 357.499C199.1 348.279 190.9 345.689 184.21 346.229C179.081 346.729 174.157 348.495 169.88 351.369C165 354.529 161.51 359.369 156.67 362.689C147.49 369.029 133.56 368.849 124.34 362.319C123.82 361.949 123.326 361.545 122.86 361.109C121.92 360.131 121.294 358.895 121.06 357.559C120.707 355.891 120.836 354.157 121.43 352.559C124.52 356.129 133.52 364.729 145.71 360.559C160.91 355.309 164.62 339.709 180.87 339.849C193.78 339.999 201.73 349.999 205.49 357.499Z" fill="black"/>
<g opacity="0.3">
<path opacity="0.3" d="M138.62 336.24C142.956 333.158 147.835 330.923 153 329.65C158.17 328.334 163.525 327.895 168.84 328.35C174.147 328.861 179.344 330.183 184.25 332.27L186.07 333.07L187.85 333.96C189.05 334.52 190.18 335.22 191.34 335.86C192.5 336.5 193.57 337.29 194.68 338C195.79 338.71 196.83 339.54 197.89 340.33C193.529 337.408 188.874 334.951 184 333C179.136 331.049 174.011 329.825 168.79 329.37C163.58 328.872 158.324 329.209 153.22 330.37C150.658 330.938 148.146 331.714 145.71 332.69C143.238 333.642 140.863 334.831 138.62 336.24Z" fill="black"/>
</g>
<g opacity="0.3">
<path opacity="0.3" d="M171 329.089C169.753 324.919 169.004 320.616 168.77 316.269C168.44 311.939 168.37 307.589 168.46 303.269C168.55 298.949 168.85 294.589 169.25 290.269L169.98 283.809C170.3 281.659 170.58 279.509 170.98 277.369L170.07 290.369L169.71 296.849C169.65 299.009 169.52 301.169 169.51 303.329C169.34 307.649 169.42 311.969 169.58 316.329C169.65 318.489 169.82 320.639 170.04 322.789C170.215 324.909 170.536 327.014 171 329.089Z" fill="black"/>
</g>
<path opacity="0.3" d="M229.7 365C208.82 351.57 207.99 316.92 208.7 294.06C208.83 290.13 208.99 286.56 209.11 283.49C209.329 280.417 209.329 277.333 209.11 274.26C207 258.56 195 256.67 195 256.67H195.05C208.34 259.11 211.52 269.56 210.75 281.29C210.75 281.29 210.75 281.37 210.75 281.53C210.75 281.69 210.75 281.78 210.75 281.96V282.06C210.3 289.61 207.52 350.2 229.7 365Z" fill="black"/>
<path opacity="0.2" d="M228 246.659C226.25 248.489 203.62 243.799 199.67 245.899C198 246.779 197.27 249.899 195.59 253.319C190.87 260.819 184.23 261.999 183.82 262.059C191.74 256.059 193.95 241.619 190.02 232.489C186.09 223.359 172.02 225.729 171.22 225.999C173.619 224.945 176.2 224.364 178.82 224.289C186.43 223.889 195.71 226.029 198.31 230.849C203.59 240.679 226.23 238.469 228.31 241.049C230.39 243.629 229.75 244.829 228 246.659Z" fill="black"/>
<path d="M210.28 237.93C208.904 240.469 208.355 243.374 208.71 246.24L227.88 248.4C228.86 247.265 229.584 245.934 230.004 244.494C230.423 243.055 230.527 241.543 230.31 240.06C230.31 240.06 211.32 238.15 210.28 237.93Z" fill="#263238"/>
<path d="M152.07 237.219C152.07 237.219 150.16 233.159 152.45 230.589C147.33 230.129 144.16 229.589 140.86 229.109C140.37 230.599 140.13 232.029 141.86 234.299C143.59 236.569 152.07 237.219 152.07 237.219Z" fill="#263238"/>
<path d="M141.42 262.629C138.1 268.039 135.26 276.699 135.01 290.529" stroke="#3FBA95" stroke-linecap="round" stroke-linejoin="round"/>
<path d="M152.35 253.709C149.935 254.269 147.714 255.468 145.92 257.179" stroke="#3FBA95" stroke-linecap="round" stroke-linejoin="round"/>
<path d="M301.48 201.58L288.86 203.12C288.86 203.12 286.66 226.31 284.62 230.82C284.62 230.82 245.81 236.16 229.9 235.69L221.83 241.17L221.55 250.71L229.46 250.94L232.01 244.94C232.01 244.94 237.35 244.71 238.58 241.7C238.58 241.7 279.82 251.7 295.01 240.3C295 240.26 304.17 226.81 301.48 201.58Z" fill="#FFC3BD"/>
<path opacity="0.2" d="M198.72 379.999C198.36 392.579 190.12 402.539 180.31 402.259C178.992 402.219 177.685 401.994 176.43 401.589C168.57 399.089 162.91 389.819 163.22 378.969C163.53 368.469 169.32 359.789 176.93 357.379C178.451 356.89 180.043 356.663 181.64 356.709C191.45 356.999 199.09 367.459 198.72 379.999Z" fill="#FAFAFA"/>
<path d="M189.69 380C189.38 390.74 183.69 399.57 176.43 401.62C168.57 399.12 162.91 389.85 163.22 379C163.53 368.5 169.32 359.82 176.93 357.41C184.49 359.46 190 368.88 189.69 380Z" fill="#263238"/>
<path opacity="0.2" d="M352.8 380.999C352.43 393.579 344.19 403.549 334.39 403.259C333.071 403.225 331.764 402.999 330.51 402.589C322.64 400.089 316.98 390.829 317.3 379.969C317.6 369.479 323.39 360.789 331 358.379C332.521 357.89 334.113 357.663 335.71 357.709C345.52 357.999 353.16 368.439 352.8 380.999Z" fill="#FAFAFA"/>
<path d="M343.77 381C343.45 391.73 337.77 400.56 330.51 402.61C322.64 400.11 316.98 390.85 317.3 379.99C317.6 369.5 323.39 360.81 331 358.4C338.57 360.45 344.09 369.87 343.77 381Z" fill="#263238"/>
<path d="M368.26 347.86C368.43 360.23 349.6 368.42 318.09 373.58C309.596 375.074 300.916 375.175 292.39 373.88C278.39 371.57 271.55 365.65 271.55 365.65C271.55 365.65 275.11 322.9 310.34 317.48C334.34 313.8 352.4 323.48 361.56 333.91C365.87 338.81 368.21 343.9 368.26 347.86Z" fill="#3FBA95"/>
<path opacity="0.3" d="M368.26 347.86C368.43 360.23 349.6 368.42 318.09 373.58C309.596 375.073 300.916 375.175 292.39 373.88C293.9 362.27 300.68 331.82 330.15 328.66C343.52 327.22 353.84 329.92 361.56 333.91C365.87 338.81 368.21 343.9 368.26 347.86Z" fill="black"/>
<g opacity="0.3">
<path opacity="0.3" d="M273.59 365.839C274.238 360.019 275.626 354.307 277.72 348.839C279.779 343.314 282.621 338.114 286.16 333.399C287.948 331.055 289.957 328.888 292.16 326.929C294.343 324.937 296.749 323.206 299.33 321.769C304.466 318.872 310.158 317.096 316.03 316.559C313.152 317.041 310.322 317.77 307.57 318.739C306.18 319.159 304.87 319.809 303.57 320.359C302.265 320.983 300.994 321.674 299.76 322.429C298.5 323.149 297.34 324.019 296.15 324.829C294.96 325.639 293.86 326.599 292.81 327.609C290.674 329.549 288.729 331.689 287 333.999C283.487 338.623 280.624 343.707 278.49 349.109C277.382 351.799 276.427 354.55 275.63 357.349C274.781 360.135 274.1 362.97 273.59 365.839Z" fill="black"/>
</g>
<path d="M226.31 351.72L228.39 358.78L250.2 356.96L250.49 347.09L226.31 351.72Z" fill="#3FBA95"/>
<path d="M356.16 303.569L404.15 301.619" stroke="#3FBA95" stroke-linecap="round" stroke-linejoin="round"/>
<path d="M420.01 292.88L427.14 292.59" stroke="#3FBA95" stroke-linecap="round" stroke-linejoin="round"/>
<path d="M379.16 294.54L414.54 293.1" stroke="#3FBA95" stroke-linecap="round" stroke-linejoin="round"/>
<path d="M403.92 319.38L433.57 318.18" stroke="#3FBA95" stroke-linecap="round" stroke-linejoin="round"/>
<path d="M385.59 320.13L398.51 319.6" stroke="#3FBA95" stroke-linecap="round" stroke-linejoin="round"/>
</svg>
