<svg width="250" height="250" viewBox="0 0 250 250" fill="none" xmlns="http://www.w3.org/2000/svg">
<path d="M125.48 240.175C182.125 240.175 228.045 216.005 228.045 186.19C228.045 156.375 182.125 132.205 125.48 132.205C68.8349 132.205 22.915 156.375 22.915 186.19C22.915 216.005 68.8349 240.175 125.48 240.175Z" fill="#F5F5F5"/>
<path d="M151.4 211.94L108.745 187.315L175.77 148.62L218.425 173.245L151.4 211.94Z" fill="#E0E0E0"/>
<path d="M81.93 224.86C98.7637 224.86 112.41 216.983 112.41 207.265C112.41 197.548 98.7637 189.67 81.93 189.67C65.0964 189.67 51.45 197.548 51.45 207.265C51.45 216.983 65.0964 224.86 81.93 224.86Z" fill="#E0E0E0"/>
<path d="M210.305 160.89C210.305 160.89 210.05 154.845 212.28 149.78C214.51 144.715 218.12 141.2 221.855 140.305C225.59 139.41 229.2 142.415 225.525 145.445C221.85 148.475 215.025 152.035 213.125 161.5L210.305 160.89Z" fill="#1890FF"/>
<path opacity="0.15" d="M210.305 160.89C210.305 160.89 210.05 154.845 212.28 149.78C214.51 144.715 218.12 141.2 221.855 140.305C225.59 139.41 229.2 142.415 225.525 145.445C221.85 148.475 215.025 152.035 213.125 161.5L210.305 160.89Z" fill="black"/>
<path d="M211.175 161.175H211.135C211.082 161.161 211.037 161.127 211.008 161.081C210.979 161.034 210.969 160.979 210.98 160.925C213.435 150.465 220.395 143.165 223.735 141.825C223.785 141.805 223.842 141.806 223.891 141.828C223.941 141.849 223.98 141.89 224 141.94C224.02 141.99 224.019 142.047 223.997 142.096C223.976 142.146 223.935 142.185 223.885 142.205C220.615 143.515 213.795 150.705 211.385 161.02C211.372 161.065 211.344 161.105 211.306 161.133C211.268 161.161 211.222 161.176 211.175 161.175Z" fill="white"/>
<path d="M220.035 169.165C219.47 170.995 218.085 171.99 216.21 172.355C215.015 172.59 213.095 172.355 212.09 171.61C210.685 170.565 210.21 169.82 209.915 168.805C209.546 167.453 209.343 166.061 209.31 164.66C209.345 163.737 209.677 162.85 210.255 162.13C210.477 161.843 210.719 161.572 210.98 161.32C211.265 161.015 211.59 160.75 211.89 160.465C212.323 160.101 212.654 159.631 212.85 159.1C213.085 158.34 212.85 157.525 212.85 156.73C212.865 155.927 213.147 155.152 213.65 154.526C214.153 153.899 214.849 153.458 215.63 153.27C216.41 153.073 217.204 152.932 218.005 152.85C219.2 152.74 220.505 153.085 221.65 152.72C222.795 152.355 223.82 151.765 225.01 151.535C225.634 151.39 226.282 151.389 226.907 151.531C227.531 151.673 228.115 151.955 228.615 152.355C228.901 152.585 229.125 152.882 229.269 153.219C229.413 153.557 229.472 153.924 229.44 154.29C229.31 155.085 228.63 155.665 227.985 156.145C227.34 156.625 226.63 157.145 226.42 157.93C225.99 159.5 227.79 161.075 227.295 162.625C227.166 162.942 226.975 163.23 226.733 163.471C226.491 163.712 226.202 163.903 225.885 164.03C225.385 164.27 224.82 164.415 224.285 164.605C224.023 164.67 223.758 164.719 223.49 164.75C222.688 164.781 221.919 165.074 221.3 165.585C220.385 166.5 220.415 167.935 220.035 169.165Z" fill="#1890FF"/>
<path d="M216.135 159.825C216.497 159.367 216.883 158.928 217.29 158.51C218.187 157.589 219.174 156.76 220.235 156.035C221.873 154.89 223.675 154 225.58 153.395C225.955 153.276 226.338 153.183 226.725 153.115C226.772 153.108 226.82 153.12 226.858 153.148C226.897 153.176 226.923 153.218 226.93 153.265C226.934 153.288 226.934 153.312 226.929 153.335C226.924 153.357 226.914 153.379 226.901 153.398C226.887 153.417 226.87 153.433 226.85 153.446C226.83 153.458 226.808 153.466 226.785 153.47C225.125 153.745 220.26 155.505 216.82 159.565C218.149 159.201 219.539 159.116 220.903 159.314C222.267 159.513 223.575 159.992 224.745 160.72C224.783 160.748 224.809 160.79 224.816 160.837C224.824 160.884 224.813 160.931 224.785 160.97C224.767 160.994 224.743 161.013 224.716 161.026C224.689 161.039 224.66 161.045 224.63 161.045C224.594 161.045 224.558 161.033 224.53 161.01C223.145 160.108 221.533 159.617 219.88 159.595C218.825 159.557 217.77 159.677 216.75 159.95C216.155 160.105 215.945 160.49 215.705 161.025C215.09 162.386 214.559 163.784 214.115 165.21C213.895 165.925 213.695 166.645 213.52 167.37C213.435 167.71 213.35 168.045 213.27 168.37C213.149 168.734 213.067 169.109 213.025 169.49C212.88 170.21 212.745 170.935 212.625 171.66C212.625 171.705 212.625 171.755 212.6 171.8C212.6 171.837 212.593 171.874 212.577 171.908C212.561 171.941 212.539 171.971 212.51 171.995C212.465 172.014 212.416 172.014 212.371 171.996C212.326 171.979 212.29 171.944 212.27 171.9C212.245 171.805 212.245 171.705 212.27 171.61C212.618 169.389 213.156 167.203 213.88 165.075C214.425 163.26 214.945 161.36 216.135 159.825Z" fill="white"/>
<path d="M222.645 107.67L221.275 108.485L170.12 78.815L171.49 78L222.645 107.67Z" fill="#FAFAFA"/>
<path d="M171.49 77.9999L221.275 106.875V64.6349L171.49 35.7649V77.9999Z" fill="white"/>
<path d="M196.345 48.735V92.585L193.76 91.095V47.24L196.345 48.735Z" fill="#F0F0F0"/>
<path d="M197.635 47.985L196.345 48.735V92.585L197.635 91.835V47.985Z" fill="#E0E0E0"/>
<path d="M167.54 80.305L223.855 112.955V63.145L167.54 30.5V80.305ZM170.12 34.96L221.275 64.635V108.5L170.12 78.815V34.96Z" fill="#F0F0F0"/>
<path d="M170.12 78.815L171.49 78V35.765L170.12 34.96V78.815Z" fill="#E0E0E0"/>
<path d="M167.54 30.4899L168.93 29.6949L225.245 62.3499L223.855 63.145L167.54 30.4899Z" fill="#FAFAFA"/>
<path d="M225.245 62.35L223.855 63.145V112.955L225.245 112.16V62.35Z" fill="#E0E0E0"/>
<path d="M196.345 50.22L193.77 48.735V50.225L196.345 51.71V50.22Z" fill="#E0E0E0"/>
<path opacity="0.15" d="M196.345 51.71L197.635 50.965L196.345 50.22V51.71Z" fill="black"/>
<path d="M123.6 100.72L26.88 156.56V155.695L123.6 99.8501V100.72Z" fill="#37474F"/>
<path d="M120.805 98.2351L123.6 99.8501L26.88 155.695L24.08 154.08L120.805 98.2351Z" fill="#455A64"/>
<path d="M24.08 154.08L26.88 155.695V156.56L24.08 154.945V154.08Z" fill="#263238"/>
<path d="M118.655 99.48L26.23 152.84V75.9L118.655 22.54V99.48Z" fill="#1890FF"/>
<path opacity="0.2" d="M118.655 99.48L26.23 152.84V75.9L118.655 22.54V99.48Z" fill="black"/>
<path d="M28.7 148.125V77.765L116.19 27.25V97.61L28.7 148.125Z" fill="#37474F"/>
<path d="M116.19 27.25L30.585 76.675L28.7 77.765V80.285V148.125L30.585 147.035V79.19L116.19 29.77V27.25Z" fill="#263238"/>
<path opacity="0.3" d="M28.7 148.125L26.23 152.84L118.655 99.4801L116.19 97.6101L28.7 148.125Z" fill="black"/>
<path opacity="0.15" d="M116.19 27.25L118.655 22.54L26.23 75.9L28.7 77.765L116.19 27.25Z" fill="black"/>
<path d="M24.08 74.66L26.23 75.9V152.84L24.08 151.595V74.66Z" fill="#1890FF"/>
<path opacity="0.35" d="M24.08 74.66L26.23 75.9V152.84L24.08 151.595V74.66Z" fill="black"/>
<path d="M118.655 22.54L116.505 21.295L24.08 74.66L26.23 75.9L118.655 22.54Z" fill="#1890FF"/>
<path opacity="0.1" d="M118.655 22.54L116.505 21.295L24.08 74.66L26.23 75.9L118.655 22.54Z" fill="black"/>
<path d="M103.7 82.0251C103.725 82.0628 103.742 82.1054 103.75 82.1501L103.685 82.0351C103.605 82.0701 103.525 82.0951 103.44 82.1401C103.535 82.0051 103.61 81.9701 103.67 82.0051C103.513 81.7169 103.334 81.4412 103.135 81.1801C102.635 80.3704 101.867 79.7618 100.965 79.4601C99.82 79.1601 98.405 79.8351 97.05 80.6901C98.83 76.5151 100.97 72.5801 100.965 68.2801C100.965 63.7801 97.68 63.7801 95.01 67.4201C93.09 70.0501 91.18 72.7167 89.28 75.4201C91.47 70.8051 93.08 66.0601 92.385 62.0801C91.885 59.3051 89.74 59.1851 87.605 61.1651C86.315 62.3651 84.935 64.2701 83.47 66.2201C82.285 67.7951 81.065 69.4001 79.935 71.0851C80.8208 69.3508 81.4539 67.4987 81.815 65.5851C82.245 62.7751 81.615 59.2051 79.26 60.0151C77.315 60.6901 75.715 62.4401 74.215 64.5151C74.825 62.1651 74.85 59.7801 73.47 59.1051C72.585 58.6801 71.59 59.1401 70.64 60.0401L70.7 59.9501C70.132 60.4401 69.6415 61.0132 69.245 61.6501C69.14 61.8001 69.045 61.9551 68.95 62.1101C67.2 64.5201 65.84 67.4751 64.375 70.1851C63.46 71.8701 62.595 73.5401 61.69 75.1851C61.945 71.6851 60.805 68.9651 57.58 71.5101C56.205 72.5951 55.03 74.3101 53.855 75.6551C53.705 75.8251 53.55 75.9951 53.38 76.1551C53.247 75.788 53.0095 75.4679 52.6967 75.2343C52.384 75.0006 52.0097 74.8635 51.62 74.8401C49.855 74.8101 47.905 75.6551 45.95 77.7251C43.195 80.6451 41.405 88.0101 45.18 87.0251C45.72 86.8851 46.26 86.6301 46.795 86.4501C46.8259 87.0067 46.944 87.5551 47.145 88.0751C47.83 89.7851 49.19 89.6651 50.705 88.7101C49.63 91.3951 48.5 94.0001 47.46 96.6701C46.735 98.5601 46.05 100.605 45.24 102.475C43.92 105.505 42.45 108.435 41.69 111.66C41.554 112.189 41.4868 112.734 41.49 113.28C41.285 113.81 41.09 114.34 40.9 114.875C39.615 118.5 40.75 122.67 43.37 121.835C47.12 120.64 51.14 113.47 53.895 108.955C55.28 106.68 56.74 104.415 58.215 102.17L58.185 102.225C57.59 103.49 56.92 104.79 56.365 106.07C56.17 106.57 55.995 107.07 55.81 107.57C55.81 107.6 55.785 107.615 55.77 107.65C53.11 112.335 49.635 121.555 51.77 125C52.48 126.15 53.71 126.76 55.18 125.64C58.615 123.015 61.535 117.14 63.99 112.78C65.63 109.88 67.35 106.905 69.015 103.905C68.6228 105.282 68.3222 106.683 68.115 108.1C67.575 112.135 69.225 114.245 72.04 112.765C74.115 111.68 76.285 108.21 77.855 105.765C79.96 102.515 82.175 99.4401 84.295 96.2201C84.1612 97.1993 84.1361 98.1903 84.22 99.1751C84.545 102.675 86.635 103.805 89.385 101.02C91.96 98.4151 94.235 94.3351 96.93 92.5801C97.2215 93.0162 97.5566 93.4216 97.93 93.7901C99.205 95.0401 100.93 95.1351 102.855 94.1601C107.64 91.7601 108.595 80.0001 103.7 82.0251Z" fill="#455A64"/>
<path d="M119.365 99.0001L97.695 94.7151C97.575 94.7151 97.43 94.8901 97.43 95.0701V111.865C97.43 111.995 97.51 112.055 97.605 112L119.28 99.5001C119.455 99.3851 119.5 99.0351 119.365 99.0001ZM100.755 105.8V98.8401L109.795 100.58L100.755 105.8Z" fill="#1890FF"/>
<path d="M51.14 139.535C51.1251 139.254 51.044 138.98 50.9033 138.736C50.7625 138.491 50.5661 138.284 50.33 138.13C50.2478 138.07 50.1511 138.034 50.05 138.024C49.9489 138.015 49.8471 138.032 49.755 138.075L40.58 143.375L41.73 145.375L50.905 140.075C50.9896 140.015 51.0562 139.933 51.0977 139.838C51.1391 139.743 51.1537 139.638 51.14 139.535Z" fill="#FAFAFA"/>
<path d="M41.155 143.43C41.3911 143.584 41.5875 143.791 41.7283 144.036C41.869 144.28 41.9501 144.554 41.965 144.835C41.965 145.335 41.6 145.56 41.155 145.305C40.9179 145.151 40.7205 144.942 40.5789 144.697C40.4373 144.452 40.3555 144.178 40.34 143.895C40.34 143.38 40.705 143.17 41.155 143.43Z" fill="#E6E6E6"/>
<path d="M89.86 89.545C87.96 89.545 87.185 88.715 86.86 88.02C86.11 86.385 87.085 83.83 89.535 81.02C93.35 76.61 99.59 73.02 103.445 73.02C105.34 73.02 106.12 73.85 106.445 74.52C107.195 76.155 106.215 78.715 103.77 81.52C99.955 85.955 93.715 89.545 89.86 89.545ZM103.455 73.845C99.81 73.845 93.855 77.305 90.175 81.55C88.02 84.05 87.04 86.39 87.63 87.675C88.02 88.525 89.055 88.705 89.86 88.705C93.5 88.705 99.46 85.25 103.135 81C105.295 78.5 106.27 76.165 105.685 74.88C105.295 74.025 104.255 73.845 103.455 73.845Z" fill="#FAFAFA"/>
<path d="M87.69 84.885C87.6233 84.8862 87.5572 84.8713 87.4975 84.8416C87.4377 84.8119 87.386 84.7681 87.3468 84.7142C87.3075 84.6602 87.2819 84.5976 87.272 84.5315C87.2621 84.4655 87.2683 84.3981 87.29 84.335L96.26 57.6C96.2859 57.5227 96.3337 57.4546 96.3976 57.404C96.4615 57.3534 96.5388 57.3225 96.62 57.315C96.701 57.3084 96.7822 57.3251 96.854 57.3632C96.9258 57.4013 96.9851 57.4592 97.025 57.53L106 73.91C106.042 74.0063 106.046 74.1148 106.012 74.2142C105.978 74.3135 105.908 74.3965 105.816 74.4467C105.723 74.4969 105.616 74.5108 105.514 74.4854C105.412 74.4601 105.323 74.3975 105.265 74.31L96.765 58.77L88.085 84.6C88.0576 84.6831 88.0046 84.7554 87.9337 84.8066C87.8628 84.8577 87.7775 84.8852 87.69 84.885Z" fill="#FAFAFA"/>
<path d="M96.655 81.695C96.6001 81.695 96.5457 81.6841 96.495 81.6629C96.4443 81.6417 96.3984 81.6107 96.3598 81.5717C96.3212 81.5326 96.2907 81.4862 96.2701 81.4353C96.2496 81.3844 96.2393 81.3299 96.24 81.275V57.73C96.24 57.6751 96.2509 57.6207 96.2721 57.57C96.2932 57.5193 96.3242 57.4733 96.3633 57.4347C96.4024 57.3961 96.4487 57.3657 96.4996 57.3451C96.5506 57.3246 96.6051 57.3143 96.66 57.315C96.7701 57.315 96.8756 57.3587 96.9535 57.4365C97.0313 57.5144 97.075 57.6199 97.075 57.73V81.275C97.075 81.3864 97.0308 81.4932 96.952 81.572C96.8732 81.6507 96.7664 81.695 96.655 81.695Z" fill="#FAFAFA"/>
<path d="M92.6 60.5001C92.5262 60.4998 92.4537 60.4803 92.3897 60.4434C92.3257 60.4066 92.2724 60.3538 92.235 60.2901C92.1806 60.1938 92.1664 60.0799 92.1954 59.9732C92.2244 59.8665 92.2943 59.7755 92.39 59.7201L93.84 58.8851C93.8872 58.8573 93.9395 58.8391 93.9938 58.8316C94.048 58.824 94.1033 58.8274 94.1563 58.8413C94.2093 58.8552 94.259 58.8796 94.3025 58.9128C94.3461 58.9461 94.3826 58.9876 94.41 59.0351C94.4647 59.1321 94.4791 59.2467 94.4501 59.3543C94.4211 59.4618 94.351 59.5536 94.255 59.6101L92.805 60.4451C92.7432 60.4822 92.6722 60.5013 92.6 60.5001Z" fill="#FAFAFA"/>
<path d="M74 71.2201C73.9267 71.2205 73.8547 71.2012 73.7913 71.1643C73.728 71.1273 73.6758 71.0741 73.64 71.0101C73.6122 70.9629 73.594 70.9106 73.5865 70.8563C73.579 70.8021 73.5823 70.7468 73.5962 70.6938C73.6102 70.6409 73.6345 70.5911 73.6678 70.5476C73.701 70.504 73.7426 70.4675 73.79 70.4401L76.89 68.6501C76.985 68.6083 77.0921 68.6031 77.1906 68.6355C77.2892 68.668 77.3723 68.7358 77.4238 68.8258C77.4754 68.9159 77.4917 69.0218 77.4698 69.1233C77.4479 69.2247 77.3892 69.3144 77.305 69.3751L74.21 71.1601C74.1468 71.199 74.0742 71.2197 74 71.2201ZM80.195 67.6451C80.1212 67.6448 80.0487 67.6253 79.9847 67.5885C79.9207 67.5517 79.8674 67.4988 79.83 67.4351C79.7756 67.3388 79.7614 67.225 79.7904 67.1183C79.8194 67.0115 79.8893 66.9206 79.985 66.8651L83.08 65.0751C83.1755 65.0285 83.285 65.0199 83.3866 65.0508C83.4882 65.0818 83.5743 65.1501 83.6276 65.2421C83.6808 65.334 83.6972 65.4426 83.6736 65.5462C83.6499 65.6497 83.5879 65.7405 83.5 65.8001L80.4 67.5901C80.3432 67.6221 80.28 67.6409 80.215 67.6451H80.195ZM86.385 64.0701C86.3117 64.0705 86.2396 64.0512 86.1763 64.0143C86.113 63.9773 86.0608 63.9241 86.025 63.8601C85.9972 63.8129 85.979 63.7606 85.9715 63.7064C85.964 63.6521 85.9673 63.5968 85.9812 63.5439C85.9952 63.4909 86.0195 63.4412 86.0527 63.3976C86.086 63.354 86.1276 63.3175 86.175 63.2901L89.27 61.5001C89.3179 61.4724 89.3708 61.4544 89.4257 61.4472C89.4805 61.44 89.5363 61.4437 89.5897 61.4581C89.6432 61.4725 89.6932 61.4973 89.737 61.5311C89.7808 61.5649 89.8175 61.6071 89.845 61.6551C89.8994 61.7514 89.9137 61.8652 89.8846 61.972C89.8556 62.0787 89.7857 62.1696 89.69 62.2251L86.615 64.0001C86.5518 64.0404 86.4797 64.0644 86.405 64.0701H86.385Z" fill="#FAFAFA"/>
<path d="M69.5 73.84C69.4268 73.8398 69.3548 73.8208 69.2909 73.7849C69.227 73.7491 69.1734 73.6975 69.135 73.635C69.0804 73.538 69.066 73.4234 69.095 73.3158C69.124 73.2083 69.194 73.1164 69.29 73.06L70.74 72.225C70.8355 72.1784 70.9451 72.1698 71.0467 72.2008C71.1483 72.2317 71.2343 72.3001 71.2876 72.392C71.3408 72.4839 71.3573 72.5925 71.3336 72.6961C71.3099 72.7996 71.2479 72.8904 71.16 72.95L69.71 73.785C69.6464 73.8224 69.5738 73.8414 69.5 73.84Z" fill="#FAFAFA"/>
<path d="M92.6 84.0401C92.5262 84.0398 92.4537 84.0203 92.3897 83.9834C92.3257 83.9466 92.2724 83.8938 92.235 83.8301C92.1806 83.7338 92.1664 83.6199 92.1954 83.5132C92.2244 83.4065 92.2943 83.3155 92.39 83.2601L93.84 82.4251C93.887 82.3966 93.9393 82.3778 93.9938 82.3699C94.0482 82.3621 94.1036 82.3652 94.1568 82.3792C94.21 82.3932 94.2598 82.4178 94.3033 82.4514C94.3468 82.4851 94.3831 82.5271 94.41 82.5751C94.4647 82.6721 94.4791 82.7867 94.4501 82.8942C94.4211 83.0018 94.351 83.0936 94.255 83.1501L92.805 83.9851C92.7432 84.0222 92.6722 84.0413 92.6 84.0401Z" fill="#FAFAFA"/>
<path d="M74 94.765C73.9267 94.7654 73.8547 94.7461 73.7913 94.7092C73.728 94.6722 73.6758 94.619 73.64 94.555C73.6122 94.5078 73.594 94.4556 73.5865 94.4013C73.579 94.347 73.5823 94.2918 73.5962 94.2388C73.6102 94.1858 73.6345 94.1361 73.6678 94.0925C73.701 94.049 73.7426 94.0124 73.79 93.985L76.89 92.195C76.985 92.1532 77.0921 92.148 77.1906 92.1805C77.2892 92.2129 77.3723 92.2807 77.4238 92.3707C77.4754 92.4608 77.4917 92.5668 77.4698 92.6682C77.4479 92.7696 77.3892 92.8593 77.305 92.92L74.21 94.705C74.1468 94.7439 74.0742 94.7646 74 94.765ZM80.195 91.19C80.1212 91.1897 80.0487 91.1702 79.9847 91.1334C79.9207 91.0966 79.8674 91.0437 79.83 90.98C79.7756 90.8837 79.7614 90.7699 79.7904 90.6632C79.8194 90.5565 79.8893 90.4655 79.985 90.41L83.08 88.62C83.1755 88.5735 83.285 88.5648 83.3866 88.5958C83.4882 88.6268 83.5743 88.6951 83.6276 88.787C83.6808 88.8789 83.6972 88.9876 83.6736 89.0911C83.6499 89.1946 83.5879 89.2854 83.5 89.345L80.4 91.135C80.3432 91.167 80.28 91.1858 80.215 91.19H80.195ZM86.385 87.615C86.3117 87.6154 86.2396 87.5961 86.1763 87.5592C86.113 87.5223 86.0608 87.469 86.025 87.405C85.9972 87.3578 85.979 87.3056 85.9715 87.2513C85.964 87.197 85.9673 87.1418 85.9812 87.0888C85.9952 87.0358 86.0195 86.9861 86.0527 86.9425C86.086 86.899 86.1276 86.8624 86.175 86.835L89.27 85.045C89.3179 85.0173 89.3708 84.9993 89.4257 84.9921C89.4805 84.9849 89.5363 84.9886 89.5897 85.003C89.6432 85.0174 89.6932 85.0422 89.737 85.076C89.7808 85.1099 89.8175 85.152 89.845 85.2C89.8994 85.2963 89.9137 85.4102 89.8846 85.5169C89.8556 85.6236 89.7857 85.7146 89.69 85.77L86.595 87.56C86.5365 87.5921 86.4716 87.6108 86.405 87.615H86.385Z" fill="#FAFAFA"/>
<path d="M69.5 97.3851C69.4262 97.3848 69.3537 97.3653 69.2897 97.3284C69.2257 97.2916 69.1724 97.2388 69.135 97.1751C69.0806 97.0788 69.0664 96.9649 69.0954 96.8582C69.1244 96.7515 69.1944 96.6605 69.29 96.6051L70.74 95.7701C70.8355 95.7235 70.9451 95.7148 71.0467 95.7458C71.1483 95.7768 71.2343 95.8451 71.2876 95.937C71.3408 96.0289 71.3573 96.1376 71.3336 96.2411C71.3099 96.3447 71.2479 96.4354 71.16 96.4951L69.71 97.3301C69.6464 97.3674 69.5738 97.3864 69.5 97.3851Z" fill="#FAFAFA"/>
<path d="M64.74 75.8601C64.15 76.3901 63.38 74.8051 63.47 74.3051C63.54 73.9301 62.865 73.6051 62.76 74.0551C62.4643 75.089 62.1155 76.107 61.715 77.1051C61.61 77.4101 61.525 77.7151 61.4 78.0151C61.3561 78.1707 61.2831 78.3166 61.185 78.4451C61.1084 78.4851 61.0984 78.5251 61.155 78.5651C61.0666 78.4902 61.0051 78.3883 60.98 78.2751C60.695 77.5951 60.95 76.6451 61.085 75.9401C61.19 75.3951 61.395 74.6551 61.01 74.1701C60.88 74.0051 60.6 73.8751 60.425 74.0551C60.125 74.3601 58.3 77.5051 57.895 77.1051C57.8643 77.0637 57.8244 77.0301 57.7784 77.007C57.7323 76.9838 57.6816 76.9717 57.63 76.9717C57.5785 76.9717 57.5277 76.9838 57.4817 77.007C57.4357 77.0301 57.3957 77.0637 57.365 77.1051C57.11 77.5301 56.92 77.9951 56.67 78.4301C56.545 78.6451 56.34 78.8701 56.24 79.0901C56.24 79.0901 56.24 79.0901 56.205 79.1201C56.1774 79.0405 56.1573 78.9584 56.145 78.8751C56.095 78.6101 55.645 78.2951 55.48 78.6201C55.195 79.1201 55.1 79.7201 54.79 80.1951C54.7507 80.2514 54.7054 80.3034 54.655 80.3501C54.655 80.3501 54.655 80.3151 54.655 80.3001C54.6561 80.0783 54.624 79.8575 54.56 79.6451C54.49 79.3901 53.915 79.0951 53.765 79.4351C53.365 80.3201 53.135 81.4951 52.385 82.1651C52.2901 82.2511 52.1748 82.3113 52.05 82.3401C52.35 81.8001 52.845 80.9951 52.58 80.3401C52.5369 80.2281 52.4684 80.1277 52.3798 80.0468C52.2913 79.9658 52.1851 79.9065 52.0698 79.8735C51.9544 79.8406 51.833 79.8348 51.715 79.8568C51.5971 79.8788 51.4858 79.9278 51.39 80.0001C50.999 80.2708 50.7283 80.6827 50.635 81.1491C50.5417 81.6154 50.6331 82.0998 50.89 82.5001C50.6373 82.9481 50.2973 83.3408 49.89 83.6551C49.29 84.0801 48.275 84.2601 47.645 83.7801C47.5319 83.6808 47.4473 83.553 47.4 83.4101C47.6359 82.8384 47.8038 82.241 47.9 81.6301C47.94 81.3951 47.615 81.0401 47.37 81.1751C46.905 81.4351 46.74 82.1751 46.71 82.7101C46.5166 83.1718 46.2945 83.6211 46.045 84.0551C45.8242 84.4899 45.5375 84.8879 45.195 85.2351C44.76 85.6151 44.655 85.1151 44.525 84.7101C44.43 84.4201 43.855 84.0701 43.62 84.4301C43.2754 84.9676 42.9632 85.5253 42.685 86.1001C42.4895 86.6301 42.2291 87.1339 41.91 87.6001C41.83 87.4751 41.77 87.2851 41.72 87.2151C41.6239 87.0736 41.4907 86.9611 41.335 86.8901C41.1616 86.8151 40.9704 86.7908 40.7837 86.82C40.5969 86.8492 40.4223 86.9307 40.28 87.0551C40.22 87.1051 40.165 87.1601 40.11 87.2151C40.2075 86.9984 40.2927 86.7764 40.365 86.5501C40.66 85.6251 40.69 84.4101 39.99 83.6401C38.745 82.2751 36.755 84.0401 37.02 85.5401C37.075 85.8451 37.64 86.1551 37.635 85.6851C37.6658 85.3722 37.7731 85.0717 37.9475 84.81C38.1219 84.5484 38.358 84.3338 38.635 84.1851C39.43 83.7601 39.41 85.1851 39.335 85.6851C39.115 87.0951 38.14 88.2701 37.77 89.6451C37.61 90.2301 38.535 90.3251 38.845 90.0551C39.5572 89.4499 40.2256 88.7949 40.845 88.0951L40.95 87.9801L41 88.0001C41.1801 88.2786 41.4473 88.4896 41.76 88.6001C42.565 88.8451 42.975 88.0251 43.26 87.4251C43.545 86.8251 43.805 86.2551 44.105 85.6801C44.54 86.2101 45.15 86.5001 45.85 85.9401C46.4162 85.3968 46.8624 84.7411 47.16 84.0151C47.422 84.3016 47.7575 84.5108 48.13 84.6201C49.715 85.0951 50.805 84.2051 51.63 83.0251C51.7008 83.0559 51.7745 83.0794 51.85 83.0951C53.1 83.3951 53.725 82.0951 54.155 80.9601C54.2442 81.0799 54.3714 81.1659 54.5158 81.204C54.6602 81.2422 54.8133 81.2302 54.95 81.1701C55.58 80.9951 55.74 80.2901 55.915 79.6701C56.15 79.9251 56.46 80.0051 56.84 79.6701C57.37 79.1701 57.6 78.4201 57.91 77.7701C58.83 78.0751 59.73 76.6301 60.41 75.5551C60.375 75.6801 60.345 75.7901 60.335 75.8551C60.2499 76.2778 60.1898 76.7053 60.155 77.1351C60.1 77.9151 60.24 79.2651 61.28 79.3301C62.04 79.3801 62.31 78.3951 62.48 77.8301C62.72 77.0501 63.02 76.3001 63.24 75.5301C63.74 76.4801 64.64 77.2801 65.32 76.3551C65.5 76.0951 65 75.6401 64.74 75.8601Z" fill="#FAFAFA"/>
<path d="M54.89 104.85C54.36 105.265 53.965 106.29 53.225 106.35C53.0791 106.364 52.9325 106.332 52.805 106.26C53.0649 105.878 53.2608 105.455 53.385 105.01C53.59 104.23 53.29 103.225 52.3 103.295C51.095 103.385 51.47 105.295 51.77 106C51.77 106.05 51.82 106.1 51.845 106.15L51.74 106.26C51.575 106.425 51.275 106.72 51.01 106.705C50.665 106.705 50.6 106.205 50.54 105.93C50.48 105.655 50.135 105.47 49.945 105.66C49.485 106.13 49.33 106.895 49.01 107.46H48.945C48.91 107.361 48.8647 107.265 48.81 107.175C48.6968 106.96 48.5052 106.797 48.275 106.72C48.2093 106.688 48.134 106.682 48.0638 106.702C47.9936 106.722 47.9335 106.768 47.895 106.83C47.65 107.33 47.475 107.83 47.27 108.33C47.1653 108.59 47.0451 108.844 46.91 109.09C46.8033 109.24 46.6846 109.38 46.555 109.51C46.5505 109.432 46.5505 109.353 46.555 109.275C46.5825 108.969 46.5825 108.661 46.555 108.355C46.52 108.105 46.02 107.755 45.83 108.05C44.83 109.615 43.83 111.3 42.475 112.55C42.315 112.695 41.87 113.145 41.62 113.105C41.37 113.065 41.48 112.155 41.555 111.895C41.822 111.132 42.1885 110.407 42.645 109.74C42.945 109.24 43.3 108.525 43.855 108.24C43.8046 108.695 43.5851 109.114 43.24 109.415C43.055 109.585 43.32 110.055 43.55 109.875C43.8586 109.631 44.1086 109.322 44.2817 108.969C44.4547 108.616 44.5464 108.228 44.55 107.835C44.535 107.734 44.4896 107.641 44.4199 107.567C44.3502 107.492 44.2595 107.441 44.16 107.42C42.765 107.225 41.965 109.1 41.405 110.095C40.845 111.09 40.095 112.7 41.12 113.595C42.485 114.795 44.415 111.745 45.025 110.895C45.3 110.51 45.575 110.115 45.835 109.72C45.885 110.11 46.045 110.425 46.48 110.47C46.915 110.515 47.365 109.93 47.58 109.565C47.8974 108.959 48.1698 108.331 48.395 107.685C48.429 107.805 48.4831 107.918 48.555 108.02C48.6472 108.113 48.7648 108.176 48.893 108.202C49.0212 108.228 49.1541 108.215 49.275 108.165C49.915 107.935 49.98 107.24 50.21 106.665C50.2699 106.805 50.3581 106.932 50.4692 107.036C50.5804 107.141 50.7119 107.221 50.8557 107.273C50.9994 107.324 51.1522 107.345 51.3044 107.334C51.4566 107.323 51.6049 107.281 51.74 107.21C51.9877 107.081 52.2124 106.912 52.405 106.71C52.5777 106.856 52.7793 106.963 52.9965 107.025C53.2136 107.087 53.4415 107.102 53.665 107.07C54.0966 106.954 54.484 106.712 54.7786 106.376C55.0731 106.039 55.2615 105.623 55.32 105.18C55.31 105.085 55.095 104.685 54.89 104.85ZM52.27 105.305C52.205 105.005 52.08 104.265 52.41 104.055C52.74 103.845 52.75 104.17 52.73 104.38C52.6831 104.782 52.5427 105.167 52.32 105.505C52.3 105.44 52.285 105.37 52.27 105.305Z" fill="#FAFAFA"/>
<path d="M66.335 100.74C66.0221 100.468 65.8194 100.091 65.765 99.6801C65.72 99.3101 65.795 98.9351 65.735 98.5651C65.7243 98.4317 65.6812 98.3029 65.6093 98.19C65.5374 98.0771 65.4389 97.9836 65.3225 97.9175C65.2061 97.8514 65.0753 97.8148 64.9416 97.8109C64.8078 97.807 64.6751 97.8359 64.555 97.8951C64.0955 98.226 63.7232 98.6636 63.47 99.1701C63.335 99.3851 63.21 99.6051 63.085 99.8201C62.91 99.5851 62.515 99.4551 62.315 99.7201C62.0356 100.093 61.7753 100.481 61.535 100.88C61.535 100.83 61.535 100.78 61.535 100.73C61.4741 100.406 61.2943 100.115 61.0307 99.9166C60.7671 99.7178 60.4388 99.6245 60.11 99.6551C59.6964 99.7317 59.3079 99.9085 58.9785 100.17C58.649 100.431 58.3886 100.77 58.22 101.155C58.0465 101.491 57.9735 101.869 58.01 102.245C58.0122 102.352 58.0482 102.455 58.113 102.539C58.1777 102.624 58.2678 102.685 58.37 102.715C58.4215 102.736 58.4776 102.744 58.5328 102.737C58.5881 102.73 58.6405 102.709 58.685 102.675C58.73 102.635 58.85 102.455 58.78 102.39C58.71 102.325 58.975 101.7 59.025 101.605C59.1684 101.348 59.3486 101.114 59.56 100.91C59.7282 100.744 59.9268 100.611 60.145 100.52C60.2632 100.479 60.3857 100.453 60.51 100.44C60.72 100.555 60.695 101.12 60.7 101.32C60.7 101.715 60.7 102.105 60.7 102.5C60.7 102.895 61.385 103.175 61.6 102.8C61.975 102.145 62.335 101.48 62.74 100.845V100.875C62.86 101.095 63.35 101.32 63.51 101.015C63.91 100.26 64.295 99.3201 64.94 98.7301C64.94 98.9751 64.94 99.2751 64.94 99.3201C64.9581 99.6899 65.0528 100.052 65.218 100.383C65.3833 100.715 65.6155 101.008 65.9 101.245C66.335 101.595 66.775 101.08 66.335 100.74Z" fill="#FAFAFA"/>
<path d="M151.4 165.955L113.605 144.135L176.355 107.825L214.145 129.645L151.4 165.955Z" fill="#1890FF"/>
<g opacity="0.2">
<path opacity="0.2" d="M151.4 165.955L113.605 144.135L176.355 107.825L214.145 129.645L151.4 165.955Z" fill="black"/>
</g>
<path d="M113.605 144.135V187.775L115.595 188.925V186.16L149.41 205.68V208.445L151.4 209.595V165.955L113.605 144.135Z" fill="#1890FF"/>
<g opacity="0.45">
<path opacity="0.45" d="M113.605 144.135V187.775L115.595 188.925V186.16L149.41 205.68V208.445L151.4 209.595V165.955L113.605 144.135Z" fill="black"/>
</g>
<path d="M115.595 188.925L117.585 187.775V187.31L115.595 186.16V188.925Z" fill="#1890FF"/>
<g opacity="0.6">
<path opacity="0.6" d="M115.595 188.925L117.585 187.775V187.31L115.595 186.16V188.925Z" fill="black"/>
</g>
<path d="M151.4 209.595L153.39 208.445V205.68L212.16 171.665V174.435L214.145 173.285V129.645L151.4 165.955V209.595Z" fill="#1890FF"/>
<g opacity="0.3">
<path opacity="0.3" d="M151.4 209.595L153.39 208.445V205.68L212.16 171.665V174.435L214.145 173.285V129.645L151.4 165.955V209.595Z" fill="black"/>
</g>
<path d="M212.16 174.435L210.17 173.285V172.815L212.16 171.665V174.435Z" fill="#1890FF"/>
<g opacity="0.6">
<path opacity="0.6" d="M212.16 174.435L210.17 173.285V172.815L212.16 171.665V174.435Z" fill="black"/>
</g>
<g opacity="0.15">
<path opacity="0.15" d="M137.595 135.245L151.025 143C151.142 143.059 151.271 143.09 151.402 143.09C151.534 143.09 151.663 143.059 151.78 143L161.665 137.295C161.712 137.281 161.753 137.251 161.783 137.212C161.812 137.172 161.828 137.124 161.828 137.075C161.828 137.026 161.812 136.978 161.783 136.938C161.753 136.898 161.712 136.869 161.665 136.855L148.235 129.1C148.118 129.041 147.989 129.01 147.857 129.01C147.726 129.01 147.597 129.041 147.48 129.1L137.595 134.81C137.55 134.826 137.51 134.855 137.483 134.894C137.455 134.933 137.44 134.98 137.44 135.027C137.44 135.075 137.455 135.122 137.483 135.161C137.51 135.2 137.55 135.229 137.595 135.245Z" fill="black"/>
</g>
<g opacity="0.15">
<path opacity="0.15" d="M137.595 136.63L151.025 144.385C151.142 144.444 151.271 144.475 151.402 144.475C151.534 144.475 151.663 144.444 151.78 144.385L161.665 138.68C161.712 138.666 161.753 138.636 161.783 138.597C161.812 138.557 161.828 138.509 161.828 138.46C161.828 138.411 161.812 138.363 161.783 138.323C161.753 138.283 161.712 138.254 161.665 138.24L148.235 130.5C148.119 130.438 147.989 130.406 147.857 130.406C147.726 130.406 147.596 130.438 147.48 130.5L137.595 136.205C137.553 136.222 137.517 136.252 137.492 136.29C137.466 136.327 137.453 136.372 137.453 136.417C137.453 136.463 137.466 136.507 137.492 136.545C137.517 136.583 137.553 136.612 137.595 136.63Z" fill="black"/>
</g>
<path d="M137.595 135.94L151.025 143.69C151.141 143.752 151.271 143.784 151.402 143.784C151.534 143.784 151.664 143.752 151.78 143.69L161.665 138C161.71 137.984 161.75 137.955 161.777 137.916C161.805 137.877 161.82 137.83 161.82 137.782C161.82 137.735 161.805 137.688 161.777 137.649C161.75 137.61 161.71 137.581 161.665 137.565L148.235 129.81C148.118 129.751 147.989 129.72 147.857 129.72C147.726 129.72 147.597 129.751 147.48 129.81L137.595 135.5C137.548 135.514 137.507 135.543 137.477 135.583C137.448 135.623 137.432 135.671 137.432 135.72C137.432 135.769 137.448 135.817 137.477 135.857C137.507 135.896 137.548 135.926 137.595 135.94Z" fill="#EBEBEB"/>
<path d="M147.5 129.795L138.115 135.215L151.045 142.68C151.162 142.739 151.291 142.77 151.422 142.77C151.554 142.77 151.683 142.739 151.8 142.68L161.19 137.26L148.255 129.795C148.138 129.736 148.009 129.705 147.877 129.705C147.746 129.705 147.617 129.736 147.5 129.795Z" fill="#E0E0E0"/>
<path d="M137.596 134.575L151.026 142.325C151.143 142.384 151.272 142.415 151.403 142.415C151.534 142.415 151.664 142.384 151.781 142.325L161.666 136.62C161.711 136.604 161.75 136.575 161.778 136.536C161.806 136.497 161.821 136.45 161.821 136.402C161.821 136.355 161.806 136.308 161.778 136.269C161.75 136.23 161.711 136.201 161.666 136.185L148.236 128.43C148.119 128.371 147.989 128.34 147.858 128.34C147.727 128.34 147.598 128.371 147.481 128.43L137.596 134.135C137.386 134.255 137.386 134.45 137.596 134.575Z" fill="#FAFAFA"/>
<path opacity="0.15" d="M161.72 146.5C161.29 146.72 162.37 147.5 162.905 147.185L172.28 141.685L173.405 140.5C173.417 140.488 173.425 140.473 173.427 140.456C173.429 140.439 173.425 140.422 173.417 140.408C173.408 140.394 173.395 140.382 173.379 140.376C173.363 140.371 173.346 140.37 173.33 140.375L171.16 141.04L161.72 146.5Z" fill="black"/>
<path d="M171.245 140.19L173.245 139.8C173.257 139.798 173.27 139.799 173.282 139.805C173.293 139.81 173.303 139.819 173.309 139.83C173.315 139.841 173.317 139.854 173.316 139.866C173.314 139.879 173.309 139.891 173.3 139.9L171.945 141.435L171.245 140.19Z" fill="#FFA8A7"/>
<path d="M173.3 139.9C173.309 139.891 173.314 139.879 173.316 139.866C173.317 139.854 173.315 139.841 173.309 139.83C173.303 139.819 173.293 139.81 173.282 139.805C173.27 139.799 173.257 139.798 173.245 139.8L172.855 139.875C172.908 139.909 172.951 139.957 172.979 140.013C173.007 140.069 173.02 140.132 173.015 140.195V140.23L173.3 139.9Z" fill="#263238"/>
<path d="M164.5 145.705L164.66 145.61L164.86 145.5L171.945 141.435C172.012 141.214 171.992 140.977 171.89 140.77C171.838 140.628 171.752 140.501 171.639 140.4C171.527 140.299 171.392 140.227 171.245 140.19L164.165 144.25L163.785 144.47C164.04 144.34 164.75 145.575 164.5 145.705Z" fill="#455A64"/>
<path d="M165.12 145.35L165.485 145.14C165.595 145.085 165.53 144.82 165.405 144.545C165.24 144.18 164.905 143.83 164.77 143.905L164.5 144.06L164.405 144.115C164.55 144.04 164.875 144.39 165.04 144.755C165.165 145.02 165.225 145.255 165.135 145.345L165.12 145.35Z" fill="#EBEBEB"/>
<path d="M165.21 145.295C165.465 145.165 164.745 143.93 164.495 144.065L164.13 144.27C164.38 144.14 165.095 145.375 164.845 145.505L165.21 145.295Z" fill="#1890FF"/>
<path d="M164.5 145.705L164.86 145.5C165.105 145.37 164.425 144.175 164.165 144.25L163.8 144.46C164.04 144.34 164.75 145.575 164.5 145.705Z" fill="#EBEBEB"/>
<path opacity="0.15" d="M173.31 139.83L173.24 139.8L171.795 140.59L164.295 144.89C164.295 144.89 164.27 144.89 164.26 144.89C164.475 145.225 164.635 145.64 164.495 145.715L164.655 145.62L164.855 145.51L171.94 141.445L173.295 139.91C173.307 139.901 173.315 139.888 173.318 139.873C173.321 139.858 173.318 139.843 173.31 139.83Z" fill="black"/>
<path d="M162.97 146.58L164.5 145.705C164.605 145.65 164.545 145.385 164.425 145.115C164.255 144.75 163.925 144.395 163.785 144.47L162.25 145.35C161.945 145.525 162.225 146.185 162.565 146.485C162.615 146.54 162.68 146.579 162.753 146.596C162.825 146.613 162.901 146.607 162.97 146.58Z" fill="#F28F8F"/>
<path opacity="0.1" d="M163.06 146.105C163.02 145.94 162.943 145.786 162.835 145.655C162.726 145.525 162.59 145.42 162.435 145.35C162.397 145.336 162.356 145.331 162.316 145.337C162.276 145.342 162.238 145.357 162.205 145.38C161.975 145.595 162.245 146.205 162.565 146.485C162.615 146.537 162.678 146.575 162.748 146.592C162.818 146.61 162.891 146.608 162.96 146.585C163.075 146.5 163.12 146.34 163.06 146.105Z" fill="black"/>
<path opacity="0.15" d="M167.45 146.55C167.015 146.775 168.11 147.55 168.655 147.25L178.155 141.68L179.3 140.475C179.314 140.463 179.322 140.447 179.325 140.429C179.328 140.411 179.324 140.393 179.314 140.378C179.304 140.363 179.289 140.352 179.272 140.346C179.255 140.341 179.236 140.343 179.22 140.35L177.02 141.02L167.45 146.55Z" fill="black"/>
<path d="M177.115 140.175L179.145 139.775C179.158 139.774 179.17 139.777 179.181 139.783C179.192 139.789 179.201 139.799 179.206 139.81C179.212 139.821 179.215 139.833 179.214 139.846C179.212 139.858 179.208 139.87 179.2 139.88L177.83 141.435L177.115 140.175Z" fill="#FFA8A7"/>
<path d="M179.2 139.88C179.208 139.87 179.212 139.858 179.214 139.846C179.215 139.833 179.212 139.821 179.206 139.81C179.201 139.799 179.192 139.789 179.181 139.783C179.17 139.777 179.158 139.774 179.145 139.775L178.75 139.855C178.803 139.889 178.847 139.936 178.875 139.993C178.903 140.049 178.915 140.112 178.91 140.175V140.215L179.2 139.88Z" fill="#263238"/>
<path d="M170.27 145.77L170.435 145.675L170.635 145.56L177.83 141.435C177.895 141.212 177.874 140.973 177.77 140.765C177.717 140.621 177.63 140.492 177.516 140.389C177.401 140.286 177.264 140.213 177.115 140.175L169.93 144.295L169.55 144.515C169.805 144.385 170.525 145.64 170.27 145.77Z" fill="#455A64"/>
<path d="M170.905 145.41L171.275 145.195C171.38 145.14 171.32 144.87 171.19 144.595C171.025 144.225 170.69 143.865 170.545 143.945L170.27 144.1L170.175 144.16C170.32 144.08 170.675 144.44 170.825 144.805C170.945 145.075 171.005 145.33 170.915 145.405L170.905 145.41Z" fill="#EBEBEB"/>
<path d="M171 145.355C171.255 145.22 170.525 143.97 170.27 144.105L169.9 144.315C170.155 144.18 170.9 145.435 170.63 145.57L171 145.355Z" fill="#1890FF"/>
<path d="M170.27 145.77L170.635 145.56C170.885 145.43 170.195 144.215 169.93 144.295L169.565 144.51C169.805 144.385 170.525 145.64 170.27 145.77Z" fill="#EBEBEB"/>
<path opacity="0.15" d="M179.21 139.81L179.145 139.775L177.675 140.58L170.07 144.945C170.07 144.92 170.045 144.92 170.035 144.945C170.25 145.28 170.415 145.705 170.27 145.78L170.435 145.685L170.635 145.57L177.83 141.445L179.2 139.89C179.211 139.88 179.219 139.867 179.22 139.852C179.222 139.837 179.219 139.822 179.21 139.81Z" fill="black"/>
<path d="M168.715 146.66L170.27 145.77C170.38 145.715 170.32 145.45 170.195 145.17C170.025 144.8 169.695 144.44 169.55 144.515L168 145.41C167.69 145.585 167.975 146.26 168.32 146.56C168.368 146.615 168.432 146.653 168.502 146.671C168.573 146.689 168.647 146.685 168.715 146.66Z" fill="#F28F8F"/>
<path opacity="0.1" d="M168.81 146.175C168.77 146.007 168.692 145.851 168.582 145.719C168.472 145.586 168.332 145.48 168.175 145.41C168.137 145.396 168.096 145.392 168.056 145.397C168.016 145.402 167.978 145.417 167.945 145.44C167.71 145.66 167.98 146.275 168.31 146.56C168.359 146.615 168.424 146.653 168.495 146.671C168.566 146.689 168.641 146.685 168.71 146.66C168.825 146.595 168.87 146.415 168.81 146.175Z" fill="black"/>
<path opacity="0.15" d="M148.205 157.09C149.475 158.09 151.92 158.3 153.655 157.59C155.39 156.88 155.765 155.5 154.5 154.5C153.235 153.5 150.78 153.29 149.05 154C147.32 154.71 146.93 156.105 148.205 157.09Z" fill="black"/>
<path d="M149.92 149.07C149.337 149.051 148.761 149.207 148.268 149.519C147.775 149.832 147.387 150.285 147.155 150.82C146.26 152.66 147.155 154.94 148.525 155.905C150.245 157.115 152.94 157.19 154.525 155.74C156.28 154.14 156.41 151.11 155.21 149.78C154.01 148.45 152.17 148.83 151.685 149.035C150.97 149.34 150.5 149.04 149.92 149.07Z" fill="#1890FF"/>
<path opacity="0.6" d="M149.92 149.07C149.337 149.051 148.761 149.207 148.268 149.519C147.775 149.832 147.387 150.285 147.155 150.82C146.26 152.66 147.155 154.94 148.525 155.905C150.245 157.115 152.94 157.19 154.525 155.74C156.28 154.14 156.41 151.11 155.21 149.78C154.01 148.45 152.17 148.83 151.685 149.035C150.97 149.34 150.5 149.04 149.92 149.07Z" fill="white"/>
<path opacity="0.1" d="M153.535 155.37C152.585 155.844 151.523 156.048 150.465 155.959C149.407 155.871 148.394 155.494 147.535 154.87C147.795 155.26 148.124 155.598 148.505 155.87C150.225 157.08 152.92 157.155 154.505 155.705C155.12 155.099 155.566 154.343 155.797 153.511C156.027 152.679 156.036 151.801 155.82 150.965C155.92 151.42 155.595 154.245 153.535 155.37Z" fill="black"/>
<path opacity="0.2" d="M149.165 149.715C148.85 149.739 148.547 149.844 148.284 150.019C148.021 150.194 147.808 150.434 147.665 150.715C147.264 151.558 147.138 152.506 147.305 153.425C147.58 155.06 149.16 155.925 149.305 155.78C149.45 155.635 148.305 154.57 148.94 152.945C149.575 151.32 149.93 149.78 149.165 149.715Z" fill="white"/>
<path opacity="0.2" d="M148.805 150C148.524 150.154 148.277 150.361 148.077 150.611C147.877 150.861 147.729 151.148 147.64 151.455C147.495 151.995 147.565 152.36 147.64 152.42C147.715 152.48 148.735 151.595 149.05 151.17C149.5 150.55 149.575 149.72 148.805 150Z" fill="white"/>
<path d="M150.67 150.47C150.415 150.27 150.17 150.165 150.05 150.47C149.93 150.775 150.6 151.25 151.35 151.035C152.1 150.82 152.35 150.325 152.35 150.08C152.158 150.38 151.856 150.593 151.51 150.675C151.215 150.709 150.917 150.636 150.67 150.47Z" fill="#1890FF"/>
<path opacity="0.1" d="M150.67 150.47C150.415 150.27 150.17 150.165 150.05 150.47C149.93 150.775 150.6 151.25 151.35 151.035C152.1 150.82 152.35 150.325 152.35 150.08C152.158 150.38 151.856 150.593 151.51 150.675C151.215 150.709 150.917 150.636 150.67 150.47Z" fill="black"/>
<path d="M151.35 150.84C151.338 150.145 151.224 149.456 151.01 148.795C150.803 148.139 150.423 147.552 149.91 147.095C149.648 146.996 149.369 146.954 149.09 146.97C148.71 146.97 148.25 147.235 148.375 147.38C148.854 147.628 149.307 147.925 149.725 148.265C150.439 148.952 150.902 149.859 151.04 150.84C151.086 150.869 151.14 150.885 151.195 150.885C151.25 150.885 151.304 150.869 151.35 150.84Z" fill="#37474F"/>
<path d="M149.885 147.085C149.872 147.081 149.858 147.081 149.845 147.085C149.602 147.01 149.349 146.978 149.095 146.99C148.833 146.992 148.582 147.092 148.39 147.27C148.39 147.325 148.45 147.4 148.795 147.45C149.131 147.496 149.474 147.464 149.795 147.355C149.945 147.28 150 147.145 149.885 147.085Z" fill="#455A64"/>
<path opacity="0.1" d="M150.85 149.635C150.472 148.805 149.818 148.132 149 147.73C149.261 147.88 149.504 148.06 149.725 148.265C150.439 148.952 150.902 149.859 151.04 150.84C151.086 150.869 151.14 150.885 151.195 150.885C151.25 150.885 151.304 150.869 151.35 150.84C151.35 150.84 151.35 150.58 151.31 150.2C151.29 150.555 151.125 150.43 150.85 149.635Z" fill="black"/>
<path d="M151.165 149.335C151.477 149.382 151.796 149.347 152.09 149.232C152.384 149.117 152.643 148.926 152.84 148.68C152.991 148.445 153.086 148.179 153.119 147.902C153.151 147.624 153.119 147.343 153.025 147.08C152.76 147.035 152.488 147.053 152.231 147.134C151.975 147.215 151.741 147.356 151.55 147.545C151.348 147.791 151.208 148.082 151.141 148.393C151.074 148.705 151.082 149.028 151.165 149.335Z" fill="#1890FF"/>
<path opacity="0.1" d="M151.165 149.335C151.477 149.382 151.796 149.347 152.09 149.232C152.384 149.117 152.643 148.926 152.84 148.68C152.991 148.445 153.086 148.179 153.119 147.902C153.151 147.624 153.119 147.343 153.025 147.08C152.76 147.035 152.488 147.053 152.231 147.134C151.975 147.215 151.741 147.356 151.55 147.545C151.348 147.791 151.208 148.082 151.141 148.393C151.074 148.705 151.082 149.028 151.165 149.335Z" fill="black"/>
<path d="M153.025 147.08C152.76 147.035 152.488 147.053 152.231 147.134C151.975 147.215 151.741 147.356 151.55 147.545C151.348 147.791 151.208 148.082 151.141 148.393C151.074 148.705 151.082 149.028 151.165 149.335C151.547 148.415 152.194 147.63 153.025 147.08Z" fill="#1890FF"/>
<path opacity="0.15" d="M193.18 120.625C189.965 118.77 177.43 111.565 177.43 111.565L152.14 126.155C151.77 126.37 151.77 126.715 152.14 126.925L167.19 135.585C167.398 135.689 167.627 135.743 167.86 135.743C168.093 135.743 168.322 135.689 168.53 135.585L193.18 121.4C193.545 121.185 193.55 120.84 193.18 120.625Z" fill="black"/>
<path d="M152.265 124.635V125.135C152.266 125.374 152.329 125.608 152.448 125.815C152.567 126.022 152.739 126.195 152.945 126.315L165.92 133.78C166.127 133.898 166.362 133.96 166.6 133.96C166.838 133.96 167.073 133.898 167.28 133.78L191.08 120C191.287 119.88 191.458 119.708 191.578 119.501C191.697 119.294 191.76 119.059 191.76 118.82V118.5L166.6 133L152.265 124.635Z" fill="#EBEBEB"/>
<path d="M191.76 118.5L177.65 110.365C177.527 110.294 177.387 110.256 177.245 110.256C177.103 110.256 176.963 110.294 176.84 110.365L152.34 124.5C152.313 124.516 152.291 124.539 152.275 124.566C152.26 124.593 152.252 124.624 152.252 124.655C152.252 124.686 152.26 124.717 152.275 124.744C152.291 124.771 152.313 124.794 152.34 124.81L166.585 133.04L191.76 118.5Z" fill="#FAFAFA"/>
<path d="M166.47 131.84L158.86 127.45L181.115 114.6L188.765 118.965L166.47 131.84Z" fill="#E0E0E0"/>
<path d="M162.73 119.625L162.87 119.71L166.6 121.86L173.235 118.03L173.375 117.955L169.5 115.72L162.73 119.625Z" fill="#E0E0E0"/>
<path d="M162.87 119.71L166.6 121.86L173.235 118.03L169.5 115.88L162.87 119.71Z" fill="#E6E6E6"/>
<path d="M166.6 133.035V133.94C166.839 133.94 167.073 133.878 167.28 133.76L191.08 120C191.287 119.88 191.458 119.708 191.578 119.501C191.697 119.294 191.76 119.059 191.76 118.82V118.5L166.6 133.035Z" fill="#EBEBEB"/>
<path d="M166.6 133.035V133.94C166.839 133.94 167.073 133.878 167.28 133.76L191.08 120C191.287 119.88 191.458 119.708 191.578 119.501C191.697 119.294 191.76 119.059 191.76 118.82V118.5L166.6 133.035Z" fill="#E0E0E0"/>
<path d="M167 133.24C167.225 133.326 167.467 133.361 167.707 133.342C167.948 133.323 168.181 133.251 168.39 133.13L192.085 119.45C192.289 119.331 192.465 119.169 192.6 118.974C192.735 118.78 192.825 118.558 192.865 118.325L195.46 102.855C195.476 102.767 195.484 102.679 195.485 102.59C195.482 102.375 195.436 102.164 195.351 101.967C195.265 101.77 195.14 101.593 194.985 101.445L170.36 115.66C170.209 115.749 170.08 115.87 169.98 116.014C169.881 116.158 169.814 116.322 169.785 116.495L167 133.24Z" fill="#1890FF"/>
<g opacity="0.7">
<path opacity="0.7" d="M167 133.24C167.225 133.326 167.467 133.361 167.707 133.342C167.948 133.323 168.181 133.251 168.39 133.13L192.085 119.45C192.289 119.331 192.465 119.169 192.6 118.974C192.735 118.78 192.825 118.558 192.865 118.325L195.46 102.855C195.476 102.767 195.484 102.679 195.485 102.59C195.482 102.375 195.436 102.164 195.351 101.967C195.265 101.77 195.14 101.593 194.985 101.445L170.36 115.66C170.209 115.749 170.08 115.87 169.98 116.014C169.881 116.158 169.814 116.322 169.785 116.495L167 133.24Z" fill="white"/>
</g>
<path d="M166.6 133.04L166.765 133.13L166.985 133.24L169.79 116.5C169.819 116.327 169.886 116.163 169.985 116.019C170.085 115.875 170.214 115.754 170.365 115.665L195 101.445C194.903 101.348 194.794 101.264 194.675 101.195L170 115.44C169.848 115.526 169.716 115.646 169.616 115.789C169.516 115.933 169.449 116.097 169.42 116.27L166.6 133.04Z" fill="#FAFAFA"/>
<path d="M180.33 118.955C180.505 117.92 181.575 116.545 182.72 115.885C183.865 115.225 184.65 115.525 184.48 116.56C184.31 117.595 183.235 118.975 182.09 119.635C180.945 120.295 180.155 120 180.33 118.955Z" fill="#1890FF"/>
<path opacity="0.15" d="M191.085 141.71L179.42 135C179.384 134.987 179.352 134.964 179.329 134.932C179.307 134.901 179.295 134.863 179.295 134.825C179.295 134.786 179.307 134.749 179.329 134.717C179.352 134.686 179.384 134.662 179.42 134.65L197.69 124.1C197.784 124.053 197.888 124.029 197.992 124.029C198.097 124.029 198.201 124.053 198.295 124.1L209.96 130.835C210.125 130.935 210.125 131.09 209.96 131.185L191.69 141.735C191.594 141.778 191.49 141.798 191.385 141.793C191.28 141.789 191.177 141.761 191.085 141.71Z" fill="black"/>
<path d="M181.28 134.625L191.39 140.39L208.1 130.805L197.985 125.035L181.28 134.625Z" fill="black"/>
<path d="M191.5 139.955L181.745 134.355C181.998 133.528 181.98 132.642 181.695 131.825L191.385 137.365C191.54 138.219 191.579 139.09 191.5 139.955Z" fill="#F5F5F5"/>
<path d="M190.895 136.575C191.166 136.751 191.392 136.989 191.555 137.268C191.717 137.548 191.811 137.862 191.83 138.185V140.07C191.83 140.665 191.41 140.905 190.895 140.61L181.28 135.11V134.645L190.78 140.055C191.09 140.235 191.34 140.09 191.34 139.73V137.985C191.329 137.791 191.273 137.602 191.176 137.433C191.078 137.265 190.943 137.121 190.78 137.015L181.305 131.605V131.075L190.895 136.575Z" fill="#263238"/>
<path d="M181.28 131.055L198 121.465L207.615 126.965C207.888 127.14 208.116 127.378 208.28 127.659C208.443 127.94 208.537 128.256 208.555 128.58V130.5C208.567 130.615 208.548 130.732 208.5 130.838C208.452 130.943 208.376 131.034 208.28 131.1L191.57 140.69C191.666 140.624 191.742 140.533 191.79 140.428C191.838 140.322 191.857 140.205 191.845 140.09V138.2C191.827 137.876 191.733 137.561 191.57 137.281C191.408 137 191.182 136.762 190.91 136.585L181.28 131.055Z" fill="#455A64"/>
<path d="M191.555 137.27C191.724 137.546 191.819 137.861 191.83 138.185V140.075C191.842 140.19 191.823 140.307 191.775 140.413C191.727 140.518 191.651 140.609 191.555 140.675L208.265 131.085C208.361 131.019 208.437 130.928 208.485 130.823C208.533 130.717 208.552 130.6 208.54 130.485V128.6C208.529 128.275 208.435 127.958 208.265 127.68L191.555 137.27Z" fill="#37474F"/>
<path d="M182.27 129.755L191.65 135.1L207.14 126.21L197.76 120.865L182.27 129.755Z" fill="#1890FF"/>
<path opacity="0.35" d="M182.27 129.755L191.65 135.1L207.14 126.21L197.76 120.865L182.27 129.755Z" fill="black"/>
<path d="M191.755 134.695L182.71 129.5C182.945 128.733 182.928 127.911 182.66 127.155L191.66 132.29C191.799 133.084 191.831 133.893 191.755 134.695Z" fill="white"/>
<path d="M191.185 131.56C191.438 131.723 191.649 131.944 191.801 132.205C191.952 132.466 192.039 132.759 192.055 133.06V134.81C192.055 135.36 191.665 135.585 191.185 135.31L182.27 130.195V129.76L191.065 134.76C191.355 134.925 191.59 134.79 191.565 134.46V132.85C191.555 132.67 191.501 132.495 191.41 132.339C191.319 132.184 191.192 132.052 191.04 131.955L182.255 126.955V126.455L191.185 131.56Z" fill="#1890FF"/>
<path opacity="0.2" d="M191.185 131.56C191.438 131.723 191.649 131.944 191.801 132.205C191.952 132.466 192.039 132.759 192.055 133.06V134.81C192.055 135.36 191.665 135.585 191.185 135.31L182.27 130.195V129.76L191.065 134.76C191.355 134.925 191.59 134.79 191.565 134.46V132.85C191.555 132.67 191.501 132.495 191.41 132.339C191.319 132.184 191.192 132.052 191.04 131.955L182.255 126.955V126.455L191.185 131.56Z" fill="black"/>
<path d="M182.271 126.445L197.771 117.555L206.68 122.67C206.934 122.833 207.145 123.054 207.296 123.315C207.447 123.576 207.535 123.869 207.55 124.17V125.92C207.563 126.028 207.545 126.137 207.5 126.235C207.455 126.334 207.385 126.418 207.295 126.48L191.795 135.37C191.885 135.308 191.955 135.224 192 135.125C192.045 135.027 192.063 134.918 192.051 134.81V133.06C192.035 132.759 191.947 132.466 191.796 132.205C191.645 131.944 191.434 131.723 191.18 131.56L182.271 126.445Z" fill="#1890FF"/>
<path opacity="0.3" d="M182.271 126.445L197.771 117.555L206.68 122.67C206.934 122.833 207.145 123.054 207.296 123.315C207.447 123.576 207.535 123.869 207.55 124.17V125.92C207.563 126.028 207.545 126.137 207.5 126.235C207.455 126.334 207.385 126.418 207.295 126.48L191.795 135.37C191.885 135.308 191.955 135.224 192 135.125C192.045 135.027 192.063 134.918 192.051 134.81V133.06C192.035 132.759 191.947 132.466 191.796 132.205C191.645 131.944 191.434 131.723 191.18 131.56L182.271 126.445Z" fill="white"/>
<path d="M191.8 132.205C191.958 132.461 192.046 132.754 192.055 133.055V134.805C192.067 134.913 192.05 135.022 192.005 135.12C191.96 135.219 191.889 135.303 191.8 135.365L207.3 126.475C207.389 126.413 207.46 126.329 207.505 126.23C207.55 126.132 207.567 126.023 207.555 125.915V124.165C207.546 123.864 207.458 123.571 207.3 123.315L191.8 132.205Z" fill="#1890FF"/>
<path opacity="0.1" d="M191.8 132.205C191.958 132.461 192.046 132.754 192.055 133.055V134.805C192.067 134.913 192.05 135.022 192.005 135.12C191.96 135.219 191.889 135.303 191.8 135.365L207.3 126.475C207.389 126.413 207.46 126.329 207.505 126.23C207.55 126.132 207.567 126.023 207.555 125.915V124.165C207.546 123.864 207.458 123.571 207.3 123.315L191.8 132.205Z" fill="black"/>
<path opacity="0.15" d="M133.455 142.5C135.415 143.585 135.415 145.345 133.455 146.43C132.348 146.966 131.135 147.244 129.905 147.244C128.675 147.244 127.462 146.966 126.355 146.43C124.395 145.345 124.395 143.585 126.355 142.5C127.461 141.962 128.675 141.682 129.905 141.682C131.135 141.682 132.349 141.962 133.455 142.5Z" fill="black"/>
<path d="M126.86 136.055C128.908 135.461 131.09 135.517 133.105 136.215C134.785 136.905 134.76 137.955 133.045 138.555C130.997 139.15 128.815 139.094 126.8 138.395C125.06 137.705 125.09 136.655 126.86 136.055Z" fill="#263238"/>
<path d="M125.5 133.895L134.5 134.135L133.545 144.72C133.495 145.105 133.125 145.48 132.43 145.755C130.669 146.339 128.759 146.29 127.03 145.615C126.325 145.3 125.965 144.91 125.93 144.525L125.5 133.895Z" fill="#FAFAFA"/>
<path d="M134.5 134.135L134.305 136.285C134.067 136.441 133.812 136.57 133.545 136.67C131.202 137.414 128.677 137.349 126.375 136.485L126.14 136.37C125.947 136.272 125.762 136.16 125.585 136.035L125.5 133.895L134.5 134.135Z" fill="#EBEBEB"/>
<path d="M124.94 134.19L124.98 132.57L126.03 132.6C126.181 132.524 126.336 132.457 126.495 132.4C128.837 131.651 131.364 131.717 133.665 132.585C133.825 132.655 133.965 132.73 134.1 132.805L135.1 132.835L135.055 134.455C135.055 134.955 134.555 135.5 133.555 135.875C131.212 136.622 128.686 136.556 126.385 135.69C125.415 135.26 124.925 134.72 124.94 134.19Z" fill="#37474F"/>
<path d="M126.53 131.15C128.871 130.404 131.395 130.469 133.695 131.335C135.625 132.19 135.59 133.5 133.62 134.255C131.279 134.999 128.755 134.934 126.455 134.07C124.46 133.21 124.5 131.905 126.53 131.15Z" fill="#455A64"/>
<path d="M125.925 132.205L126.285 130.875L128.86 130.945C129.713 130.862 130.573 130.883 131.42 131.01L133.92 131.075L134.215 132.42C134.365 132.92 133.965 133.42 133.015 133.755C131.08 134.343 129.007 134.29 127.105 133.605C126.13 133.205 125.745 132.685 125.925 132.205Z" fill="#37474F"/>
<path d="M127.42 130.05C129.202 129.542 131.097 129.591 132.85 130.19C134.31 130.785 134.285 131.69 132.8 132.19C131.018 132.699 129.123 132.65 127.37 132.05C125.86 131.465 125.885 130.565 127.42 130.05Z" fill="#455A64"/>
<path d="M126.78 131.04C126.816 131.119 126.873 131.187 126.945 131.235C127.134 131.376 127.343 131.489 127.565 131.57C128.381 131.858 129.239 132.01 130.105 132.02C130.95 132.054 131.796 131.946 132.605 131.7C132.824 131.631 133.031 131.53 133.22 131.4C133.345 131.3 133.38 131.23 133.38 131.21C133.38 131.19 133.255 130.935 132.635 130.68C131.833 130.392 130.987 130.241 130.135 130.235C129.27 130.198 128.404 130.306 127.575 130.555C126.95 130.765 126.785 131 126.78 131.04Z" fill="#263238"/>
<path d="M126.945 131.235C127.134 131.376 127.343 131.489 127.565 131.57C128.381 131.858 129.239 132.01 130.105 132.02C130.95 132.054 131.796 131.946 132.605 131.7C132.824 131.631 133.031 131.53 133.22 131.4C133.041 131.257 132.84 131.143 132.625 131.065C131.823 130.775 130.978 130.623 130.125 130.615C129.26 130.578 128.395 130.687 127.565 130.935C127.345 131.004 127.136 131.105 126.945 131.235Z" fill="#37474F"/>
<g opacity="0.5">
<path opacity="0.5" d="M128.47 131.31C128.384 131.249 128.287 131.205 128.183 131.183C128.08 131.161 127.974 131.16 127.87 131.18C127.76 131.24 127.845 131.395 128.065 131.53C128.151 131.591 128.249 131.634 128.352 131.657C128.455 131.679 128.561 131.68 128.665 131.66C128.775 131.595 128.69 131.44 128.47 131.31Z" fill="black"/>
</g>
<path d="M134 141.305C134 141.7 133.58 142.09 132.77 142.375C130.84 142.934 128.783 142.88 126.885 142.22C126.07 141.895 125.665 141.49 125.675 141.09L125.52 137.19C125.52 137.615 125.935 138.05 126.805 138.395C128.82 139.094 131.002 139.15 133.05 138.555C133.91 138.255 134.345 137.845 134.355 137.42L134 141.305Z" fill="#455A64"/>
<path d="M131.24 141.465C131.376 141.254 131.499 141.035 131.61 140.81C131.841 140.405 132.21 140.096 132.65 139.94C132.679 139.929 132.71 139.929 132.739 139.941C132.767 139.952 132.791 139.973 132.805 140C132.884 140.268 132.887 140.552 132.816 140.821C132.744 141.091 132.6 141.336 132.399 141.529C132.198 141.722 131.947 141.857 131.675 141.918C131.403 141.979 131.119 141.964 130.855 141.875C130.855 141.875 130.825 141.81 130.855 141.8C131.005 141.716 131.136 141.602 131.24 141.465Z" fill="#1890FF"/>
<path d="M132.41 139.81C132.171 139.897 131.949 140.025 131.755 140.19C131.547 140.362 131.377 140.575 131.255 140.815C131.123 141.115 130.914 141.375 130.65 141.57C130.637 141.58 130.622 141.588 130.605 141.592C130.589 141.596 130.572 141.596 130.556 141.594C130.539 141.591 130.524 141.585 130.51 141.575C130.496 141.566 130.484 141.554 130.475 141.54C130.342 141.268 130.305 140.959 130.369 140.663C130.434 140.367 130.596 140.102 130.83 139.91C131.027 139.698 131.285 139.553 131.568 139.495C131.852 139.438 132.146 139.471 132.41 139.59C132.431 139.599 132.45 139.615 132.462 139.634C132.475 139.654 132.482 139.677 132.482 139.7C132.482 139.723 132.475 139.746 132.462 139.766C132.45 139.785 132.431 139.801 132.41 139.81Z" fill="#1890FF"/>
<path d="M122.965 97.1451L125.465 91.7651C125.812 91.7091 126.168 91.7537 126.491 91.8937C126.813 92.0337 127.089 92.2632 127.285 92.5551L124.91 97.8801L122.965 97.1451Z" fill="#E0E0E0"/>
<path d="M107 112.16C106.08 113.741 105.424 115.462 105.06 117.255C104.635 119.72 105.965 122.205 107.655 121.725C109.345 121.245 111.28 118.96 112.715 116.65C114.15 114.34 119.555 105.045 119.555 105.045C120.575 105.075 121.574 104.758 122.39 104.145C123.55 103.145 125.51 97.6751 125.51 97.6751C125.51 97.6751 124.255 97.715 122.835 97.82C123.37 96.955 123.23 96.1701 122.955 96.0951C122.59 96.0001 121.665 96.715 120.955 97C119.775 97.475 118.325 97.5001 118.055 97.7201C117.265 98.3301 116.6 100.405 115.555 101.82C112.575 106 107 112.16 107 112.16Z" fill="#FFA8A7"/>
<path d="M91.75 103.55C93.86 104.095 95.75 105.785 97.92 107.615C100.09 109.445 105.675 113.5 105.675 113.5L109.645 109.205L114.905 113.5C114.905 113.5 112.405 118 110.105 120.535C108.18 122.68 107.605 122.695 104.52 121.005C101.77 119.505 92.765 114.505 92.765 114.505L91.75 103.55Z" fill="#1890FF"/>
<path opacity="0.8" d="M91.75 103.55C93.86 104.095 95.75 105.785 97.92 107.615C100.09 109.445 105.675 113.5 105.675 113.5L109.645 109.205L114.905 113.5C114.905 113.5 112.405 118 110.105 120.535C108.18 122.68 107.605 122.695 104.52 121.005C101.77 119.505 92.765 114.505 92.765 114.505L91.75 103.55Z" fill="white"/>
<path opacity="0.1" d="M105.675 113.5C104.852 114.505 104.203 115.641 103.755 116.86C103.8 115.482 104.231 114.144 105 113L105.675 113.5Z" fill="black"/>
<path d="M119.57 105.045C118.972 104.705 118.503 104.178 118.235 103.545C118.672 103.508 119.088 103.342 119.429 103.066C119.771 102.791 120.022 102.419 120.15 102C120.55 100.555 120.085 100.085 121.15 99.4751C121.821 99.0714 122.414 98.5497 122.9 97.9351L125.4 97.8201C125.4 97.8201 124.595 101.095 124.135 102.25C123.675 103.405 122.425 105.165 119.57 105.045Z" fill="#F28F8F"/>
<path d="M123.155 96.8901C123.155 96.8901 124.735 96.5651 125.615 96.8301C125.995 96.9401 126.24 97.1701 126.115 97.9251C126.06 98.1269 125.961 98.3141 125.826 98.4732C125.69 98.6323 125.521 98.7593 125.33 98.8451C125.487 98.9544 125.614 99.1005 125.701 99.2704C125.788 99.4404 125.833 99.6291 125.83 99.8201C125.804 100.103 125.695 100.373 125.517 100.595C125.34 100.817 125.101 100.982 124.83 101.07C124.932 101.192 125 101.338 125.025 101.495C125.051 101.652 125.033 101.812 124.975 101.96C124.871 102.169 124.721 102.351 124.536 102.494C124.352 102.637 124.138 102.736 123.91 102.785C123.984 103.127 123.925 103.485 123.745 103.785C123.445 104.19 122.245 104.685 121.245 104.835C121.091 104.884 120.926 104.884 120.772 104.837C120.617 104.789 120.482 104.695 120.382 104.567C120.283 104.44 120.226 104.285 120.217 104.124C120.209 103.962 120.25 103.802 120.335 103.665C120.562 103.346 120.874 103.096 121.235 102.945C121.118 102.834 121.03 102.696 120.976 102.544C120.922 102.393 120.905 102.23 120.925 102.07C121.02 101.57 122.12 101.205 122.12 101.205C122.12 101.205 121.385 100.84 121.5 100.205C121.615 99.5701 122.925 99.2051 122.925 99.2051C122.765 99.2087 122.608 99.1576 122.481 99.0604C122.354 98.9632 122.264 98.8255 122.225 98.6701C122.77 98.0251 123.18 97.3751 123.155 96.8901Z" fill="#FFA8A7"/>
<path d="M68.5 197.76C68.5 197.76 67.325 185.825 68.37 178.91C69.27 172.98 70.265 170.525 70.45 169.175C70.45 169.175 72.11 153.73 72.39 141.86C72.525 136.235 72.82 133.3 77.13 126.86L78.75 124.985C79.005 127.175 81.1 127.11 84.07 127.585C86.935 128.04 90.57 127.63 94.895 126.38C95.585 132.045 96.17 144.305 96.73 156.035C97.005 161.765 96.685 166.565 96.61 170.235C96.505 175.235 95.14 194.7 95.14 194.7L95.11 195.525C95.11 196.435 95.285 197.075 95.855 198.55C96.5662 200.444 97.596 202.203 98.9 203.75C99.31 204.205 102.145 206.75 102.52 207.295C103.73 208.75 101.165 209.525 99.275 209.245C97.275 208.95 94.175 208.15 93.31 206.92C92.735 206.1 92.31 203.245 91.74 202.42C89.74 199.615 88.92 198.42 88.915 197.525C88.915 195.92 89.47 195.295 89.68 194.39C89.54 192.5 86.18 182.47 86.18 176.96C86.18 174.335 86.98 169.715 86.98 169.715L84.5 148.945C83.5 154.285 81.5 167.82 80.825 171.65C79.87 176.925 76.825 185.78 74.85 192.75C74.105 195.37 73.74 196.54 73.51 198.25C73.51 198.25 73.44 198.865 73.44 198.87C73.39 199.655 72.94 208.005 72.6 209.76C71.905 213.435 68.64 212.925 68.155 209.94C67.745 207.4 68.41 199.565 68.435 198.605L68.5 197.76Z" fill="#FFA8A7"/>
<path d="M68.375 197.705C67.45 197.705 68.01 201.29 67.74 203.585C67.45 206.045 66.62 207.835 66.36 209.85C66.0224 211.609 66.2682 213.429 67.06 215.035C67.685 216.535 70.89 218.585 72.145 216.49C73.4 214.395 73.705 211.99 73.595 209.69C73.48 207.31 73.36 205.57 73.335 203.765C73.335 202.17 74.59 198.45 73.4 198.205L73.33 198.825C72.89 199.675 68.785 200.21 68.33 198.555L68.375 197.705Z" fill="#37474F"/>
<path d="M88.57 199.405C88.275 200.55 88.525 203.71 88.525 203.71C88.525 203.71 89.025 204.805 90.775 205.555L91.63 201.175L88.57 199.405Z" fill="#263238"/>
<path d="M90.775 205.555L94.705 204.325L95.695 200.86L91.265 203.03L90.775 205.555Z" fill="black"/>
<path d="M95.0001 195.47L95.0301 194.65C95.5551 194.915 96.67 199.215 98.215 202.175C99.62 204.875 102.465 206.41 103.38 207.59C104.605 209.17 102.16 211.15 98.2901 210.265C96.3651 209.83 93.4651 208.555 92.6951 207.265C91.9251 205.975 91.6951 203.565 91.0501 202.6C90.4051 201.635 88.8951 200.515 88.5851 199.425C88.3452 198.437 88.3624 197.404 88.6351 196.425C88.9501 195.425 89.2351 194.245 89.5701 194.36V195.11C89.8201 195.645 90.7501 196.275 92.7101 196.405C93.6401 196.445 94.5451 196.315 95.0001 195.47Z" fill="#37474F"/>
<path d="M95.57 127.17C96.07 130.4 96.27 134.89 96.745 143.45C97.22 152.01 97.525 160.95 97.39 165.555C97.255 170.16 96.92 174.51 96.92 174.51C96.92 174.51 92.21 178.2 83.06 178.205C71.63 178.205 68.695 174.51 68.695 174.51L70.07 168.355C70.07 168.355 71.455 147.445 71.39 141.285C71.325 135.125 73.275 130.73 76.265 126.505L95.57 127.17Z" fill="#455A64"/>
<path d="M81.595 103.115L78.315 103.26C79.285 109.03 74.88 114.23 74.88 114.23L76.695 123.37C76.595 123.53 76.97 124.835 76.28 126.49C79.445 130.72 92.06 131.235 95.585 127.155C95.4037 125.852 95.1297 124.564 94.765 123.3L95.445 118.8C100.3 113.735 95.38 106.915 91.7 103.545L88.045 102.675L81.595 103.115Z" fill="#1890FF"/>
<path opacity="0.8" d="M81.595 103.115L78.315 103.26C79.285 109.03 74.88 114.23 74.88 114.23L76.695 123.37C76.595 123.53 76.97 124.835 76.28 126.49C79.445 130.72 92.06 131.235 95.585 127.155C95.4037 125.852 95.1297 124.564 94.765 123.3L95.445 118.8C100.3 113.735 95.38 106.915 91.7 103.545L88.045 102.675L81.595 103.115Z" fill="white"/>
<path d="M90.275 111.245C85.605 109.79 81.45 105.245 81.16 102.445L76.71 103.68L74.295 115.61C74.295 115.61 75.7 120.95 76.19 122.86C76.3937 123.584 76.4406 124.343 76.3276 125.086C76.2147 125.829 75.9445 126.54 75.535 127.17C74.4154 128.952 73.431 130.816 72.59 132.745C72.59 132.745 74.45 134.325 79.43 135.395C82.2473 135.934 85.13 136.044 87.98 135.72L89.55 129.67L90.45 135.275C90.45 135.275 94.095 134.985 96.775 133.025L95.185 123.31L95.57 118.915C96.777 117.633 97.532 115.991 97.72 114.24C97.915 111.495 96.86 109.295 94.92 106.74C92.98 104.185 91.75 103.545 91.75 103.545L89.325 102.44C90.7056 105.161 91.0435 108.292 90.275 111.245Z" fill="#1890FF"/>
<path opacity="0.2" d="M90.275 111.245C85.605 109.79 81.45 105.245 81.16 102.445L76.71 103.68L74.295 115.61C74.295 115.61 75.7 120.95 76.19 122.86C76.3937 123.584 76.4406 124.343 76.3276 125.086C76.2147 125.829 75.9445 126.54 75.535 127.17C74.4154 128.952 73.431 130.816 72.59 132.745C72.59 132.745 74.45 134.325 79.43 135.395C82.2473 135.934 85.13 136.044 87.98 135.72L89.55 129.67L90.45 135.275C90.45 135.275 94.095 134.985 96.775 133.025L95.185 123.31L95.57 118.915C96.777 117.633 97.532 115.991 97.72 114.24C97.915 111.495 96.86 109.295 94.92 106.74C92.98 104.185 91.75 103.545 91.75 103.545L89.325 102.44C90.7056 105.161 91.0435 108.292 90.275 111.245Z" fill="black"/>
<path d="M88 106.63C88 106.63 83.605 105.66 81.73 103V100.795C80.63 100.98 80.38 102.69 80.38 102.69C80.38 102.69 80.095 105.055 81.38 106.5C82.665 107.945 85.13 107.26 85.13 107.26C85.13 107.26 86.13 108.42 86.63 108.555C87.13 108.69 88 106.63 88 106.63Z" fill="#1890FF"/>
<path opacity="0.65" d="M88 106.63C88 106.63 83.605 105.66 81.73 103V100.795C80.63 100.98 80.38 102.69 80.38 102.69C80.38 102.69 80.095 105.055 81.38 106.5C82.665 107.945 85.13 107.26 85.13 107.26C85.13 107.26 86.13 108.42 86.63 108.555C87.13 108.69 88 106.63 88 106.63Z" fill="white"/>
<path d="M88 106.63C88.635 106.045 89 104.255 88.61 102.71C88.61 102.59 88.61 101.41 88.61 101.41C88.742 101.401 88.8743 101.422 88.9966 101.472C89.119 101.522 89.228 101.6 89.315 101.7L90.585 102.885C90.9823 103.54 91.1739 104.3 91.135 105.065C91.1203 105.377 91.0245 105.679 90.857 105.942C90.6894 106.205 90.4561 106.42 90.18 106.565C90.2427 107.021 90.2241 107.485 90.125 107.935C89.935 108.285 88 106.63 88 106.63Z" fill="#1890FF"/>
<path opacity="0.65" d="M88 106.63C88.635 106.045 89 104.255 88.61 102.71C88.61 102.59 88.61 101.41 88.61 101.41C88.742 101.401 88.8743 101.422 88.9966 101.472C89.119 101.522 89.228 101.6 89.315 101.7L90.585 102.885C90.9823 103.54 91.1739 104.3 91.135 105.065C91.1203 105.377 91.0245 105.679 90.857 105.942C90.6894 106.205 90.4561 106.42 90.18 106.565C90.2427 107.021 90.2241 107.485 90.125 107.935C89.935 108.285 88 106.63 88 106.63Z" fill="white"/>
<path d="M91.76 94.275C92.815 93.1651 93.515 91.7751 94.335 90.5101C94.6511 89.9246 95.0428 89.3833 95.5 88.9C95.94 88.51 96.5 88.255 96.915 87.835C97.5138 87.2771 97.8933 86.5234 97.985 85.71C98.0161 85.3076 97.9302 84.9047 97.7377 84.5499C97.5452 84.1951 97.2543 83.9035 96.9 83.71C97.1739 83.3738 97.3737 82.9836 97.4866 82.5649C97.5994 82.1462 97.6228 81.7084 97.555 81.28C97.494 80.8875 97.3532 80.5117 97.1412 80.1758C96.9293 79.8399 96.6507 79.551 96.3227 79.327C95.9946 79.103 95.6242 78.9487 95.2341 78.8735C94.8441 78.7984 94.4428 78.804 94.055 78.89C94.555 77.79 93.95 76.39 92.93 75.78C92.3998 75.488 91.8138 75.3117 91.2106 75.2625C90.6073 75.2134 90.0004 75.2927 89.43 75.495C88.3166 75.8939 87.2634 76.444 86.3 77.13L86.245 77.165C83.72 78.785 80.84 79.285 78.575 81.4C77.5394 82.3412 76.7312 83.5054 76.2115 84.8047C75.6918 86.1039 75.4742 87.5043 75.575 88.9C75.835 94.85 80.64 97.9 82.26 99.655C82.34 99.735 82.89 99.655 82.995 99.685L84.64 99.7601C85.035 99.7601 85.54 99.9951 85.92 99.8701C86.42 99.7151 86.795 99.05 87.095 98.655C88.385 96.87 90.28 95.8201 91.76 94.275Z" fill="#263238"/>
<path d="M78.77 78.0001C80.805 79.4051 80.09 81.4651 78.615 83.6001C77.14 85.7351 75.46 87.1301 73.425 85.7251C72.4498 84.9968 71.7951 83.9187 71.5988 82.7175C71.4024 81.5163 71.6796 80.2858 72.3722 79.2849C73.0647 78.284 74.1185 77.5908 75.3118 77.3512C76.5051 77.1115 77.7448 77.3441 78.77 78.0001Z" fill="#263238"/>
<path d="M95.68 92.3001C95.555 97.8001 93.775 99.1501 92.88 99.5401C91.985 99.9301 90.265 99.6901 88.59 99.4151V102.71C88.59 102.71 89.55 105.125 87.98 106.63C84.37 105.985 82.48 104.13 81.98 103.55C81.7999 103.34 81.7006 103.072 81.7 102.795V95.0401C81.7 95.0401 80.785 96.0101 79.16 94.9001C78.8111 94.6763 78.5124 94.3826 78.2827 94.0375C78.053 93.6924 77.8973 93.3035 77.8254 92.8952C77.7535 92.487 77.767 92.0683 77.8651 91.6655C77.9631 91.2627 78.1435 90.8846 78.395 90.5551C79.1 89.7201 80.895 89.6651 81.755 90.9551C82.255 91.9001 82.305 92.8551 82.85 92.4551C84.295 91.4151 83.52 89.0451 85.265 87.8751C85.8342 87.5666 86.4279 87.3057 87.04 87.0951C90.16 86.0201 92.855 85.0951 93.51 82.9851C94.735 83.7201 95.835 85.8201 95.68 92.3001Z" fill="#FFA8A7"/>
<path d="M89.765 91C89.7658 91.1451 89.724 91.2872 89.6447 91.4086C89.5655 91.5301 89.4523 91.6256 89.3192 91.6833C89.1861 91.7409 89.039 91.7582 88.8961 91.7329C88.7533 91.7076 88.6211 91.641 88.5158 91.5411C88.4106 91.4413 88.337 91.3128 88.3042 91.1715C88.2714 91.0302 88.2809 90.8824 88.3314 90.7465C88.3819 90.6105 88.4713 90.4924 88.5884 90.4068C88.7055 90.3212 88.8451 90.2719 88.99 90.265C89.1899 90.261 89.3833 90.3359 89.5284 90.4735C89.6735 90.611 89.7585 90.8002 89.765 91Z" fill="#263238"/>
<path d="M94.965 90.76C94.9718 90.8531 94.9601 90.9465 94.9305 91.035C94.9009 91.1234 94.8541 91.2051 94.7927 91.2753C94.7313 91.3456 94.6566 91.4029 94.5729 91.4441C94.4891 91.4852 94.3981 91.5093 94.305 91.515C94.21 91.5243 94.1141 91.5133 94.0237 91.4825C93.9334 91.4517 93.8506 91.402 93.781 91.3367C93.7114 91.2714 93.6566 91.1919 93.6202 91.1037C93.5838 91.0154 93.5667 90.9204 93.57 90.825C93.5588 90.7296 93.5673 90.6329 93.5951 90.5409C93.6229 90.4489 93.6693 90.3636 93.7314 90.2904C93.7936 90.2171 93.8702 90.1574 93.9564 90.115C94.0426 90.0726 94.1367 90.0484 94.2326 90.044C94.3286 90.0395 94.4245 90.0548 94.5143 90.089C94.6041 90.1232 94.6859 90.1755 94.7546 90.2427C94.8233 90.3099 94.8774 90.3905 94.9136 90.4795C94.9498 90.5685 94.9673 90.664 94.965 90.76Z" fill="#263238"/>
<path d="M88.59 99.4151C86.825 99.1801 83.19 98.1401 82.625 96.7001C82.8488 97.4282 83.2924 98.0691 83.895 98.5351C84.985 99.4651 88.59 100.535 88.59 100.535V99.4151Z" fill="#F28F8F"/>
<path d="M89.025 88.055L87.23 88.63C87.1609 88.3854 87.1876 88.1236 87.3046 87.8979C87.4217 87.6722 87.6203 87.4995 87.86 87.415C87.9785 87.377 88.1035 87.3635 88.2273 87.3754C88.3511 87.3873 88.4713 87.4244 88.5803 87.4843C88.6893 87.5442 88.785 87.6257 88.8615 87.7238C88.938 87.8219 88.9936 87.9346 89.025 88.055Z" fill="#263238"/>
<path d="M88.24 95.12L90.955 96.065C90.9001 96.2455 90.8094 96.4131 90.6883 96.5577C90.5673 96.7024 90.4183 96.8212 90.2503 96.9071C90.0823 96.9929 89.8988 97.0441 89.7106 97.0575C89.5224 97.0709 89.3335 97.0462 89.155 96.985C88.9698 96.9266 88.7983 96.8312 88.651 96.7046C88.5037 96.578 88.3837 96.4228 88.2981 96.2484C88.2126 96.0741 88.1633 95.8841 88.1533 95.6902C88.1433 95.4962 88.1728 95.3022 88.24 95.12Z" fill="#B16668"/>
<path d="M95.285 88.2151L93.445 87.7151C93.4713 87.5941 93.5218 87.4797 93.5935 87.3789C93.6653 87.278 93.7567 87.1927 93.8623 87.1282C93.968 87.0637 94.0856 87.0213 94.2081 87.0036C94.3306 86.9858 94.4554 86.9932 94.575 87.0251C94.8241 87.0933 95.0372 87.2553 95.1695 87.4771C95.3019 87.699 95.3433 87.9634 95.285 88.2151Z" fill="#263238"/>
<path d="M91.595 90.28V94.715L94.025 93.96L91.77 90.255C91.7106 90.2513 91.651 90.2598 91.595 90.28Z" fill="#F28F8F"/>
<path d="M88.5 95.765C88.3936 95.7674 88.2878 95.7825 88.185 95.81C88.2207 96.0814 88.3341 96.3367 88.5115 96.5452C88.6889 96.7537 88.9228 96.9064 89.185 96.985C89.347 97.0338 89.5159 97.0557 89.685 97.05C89.6874 97.0167 89.6874 96.9833 89.685 96.95C89.685 96.6357 89.5601 96.3343 89.3379 96.1121C89.1157 95.8899 88.8143 95.765 88.5 95.765Z" fill="#F28F8F"/>
<path d="M69.89 129.36C70.2683 129.983 70.6841 130.583 71.135 131.155C71.4933 131.663 72.0281 132.02 72.635 132.155C73.884 132.321 75.1133 132.611 76.305 133.02C77.35 133.35 78.01 133.265 78.045 133.52C78.08 133.775 77.905 134.26 76.96 134.46C76.2642 134.544 75.5609 134.544 74.865 134.46C75.6974 135.442 76.6635 136.302 77.735 137.015C79.855 138.41 80.57 139.465 78.37 140.805C76.755 141.805 73.95 141.525 70.075 137.905C68.2143 136.097 66.5254 134.12 65.03 132L69.89 129.36Z" fill="#FFA8A7"/>
<path d="M65.23 132.56C58.995 124.785 58.83 123.425 60.73 120.745C70.73 106.625 71.265 104.98 76.73 103.68C79.105 107.76 77.585 112.47 75.6 114.68L67.16 123.68C68.2 125.895 70.24 129.89 70.24 129.89C68.811 131.173 67.0917 132.089 65.23 132.56Z" fill="#1890FF"/>
<path opacity="0.8" d="M65.23 132.56C58.995 124.785 58.83 123.425 60.73 120.745C70.73 106.625 71.265 104.98 76.73 103.68C79.105 107.76 77.585 112.47 75.6 114.68L67.16 123.68C68.2 125.895 70.24 129.89 70.24 129.89C68.811 131.173 67.0917 132.089 65.23 132.56Z" fill="white"/>
<path opacity="0.1" d="M67.14 123.685C66.4499 122.61 65.4612 121.761 64.295 121.24C64.9735 121.228 65.6436 121.391 66.2402 121.715C66.8369 122.038 67.3397 122.51 67.7 123.085L67.14 123.685Z" fill="black"/>
<path opacity="0.2" d="M88.73 119.265C85.85 120.765 81.005 120.09 79.815 116.65C79.815 116.65 79.38 119.65 83.055 120.7C86.955 121.815 88.73 119.265 88.73 119.265Z" fill="black"/>
<path d="M182.3 104.275L180.935 100.74L182.035 97.575V95.635L178.675 97.575V99.5L180.12 102.97C180.143 103.007 180.176 103.037 180.215 103.055L182.3 104.275Z" fill="#1890FF"/>
<path opacity="0.2" d="M182.3 104.275L180.935 100.74L182.035 97.575V95.635L178.675 97.575V99.5L180.12 102.97C180.143 103.007 180.176 103.037 180.215 103.055L182.3 104.275Z" fill="black"/>
<path d="M188.325 83.395C188.307 83.0461 188.207 82.7065 188.033 82.4034C187.859 82.1002 187.617 81.8422 187.325 81.65L186.505 81.18C186.195 81.0224 185.853 80.9402 185.505 80.9402C185.157 80.9402 184.815 81.0224 184.505 81.18L174.295 87.06C174.004 87.2531 173.762 87.5113 173.589 87.8142C173.415 88.1172 173.315 88.4564 173.295 88.805V100.635C173.314 100.984 173.414 101.323 173.588 101.626C173.761 101.929 174.004 102.187 174.295 102.38L175.115 102.85C175.425 103.008 175.767 103.091 176.115 103.091C176.463 103.091 176.805 103.008 177.115 102.85L180.795 100.735L182.235 104.2C182.255 104.236 182.286 104.265 182.322 104.284C182.359 104.304 182.4 104.312 182.441 104.308C182.482 104.304 182.522 104.289 182.554 104.264C182.587 104.238 182.611 104.204 182.625 104.165L184.125 98.8L187.31 96.97C187.601 96.7772 187.843 96.519 188.017 96.216C188.19 95.913 188.291 95.5737 188.31 95.225L188.325 83.395Z" fill="#1890FF"/>
<path opacity="0.2" d="M173.27 100.635C173.288 100.984 173.388 101.323 173.562 101.627C173.736 101.93 173.978 102.188 174.27 102.38L175.09 102.85C175.374 102.992 175.684 103.073 176.001 103.088C176.318 103.103 176.634 103.05 176.93 102.935C176.455 103.11 176.095 102.845 176.095 102.27V90.4399C176.107 90.0869 176.208 89.7427 176.39 89.4399L173.555 87.8049C173.375 88.108 173.275 88.4523 173.265 88.8049L173.27 100.635Z" fill="black"/>
<path opacity="0.5" d="M188.29 83.11C188.175 82.68 187.79 82.545 187.32 82.815L177.105 88.7C176.807 88.8836 176.562 89.1422 176.395 89.45L173.565 87.815C173.734 87.5087 173.978 87.2505 174.275 87.065L184.5 81.18C184.81 81.0247 185.153 80.9438 185.5 80.9438C185.847 80.9438 186.19 81.0247 186.5 81.18L187.32 81.655C187.573 81.8179 187.79 82.0312 187.957 82.2815C188.123 82.5319 188.237 82.8139 188.29 83.11Z" fill="white"/>
<path d="M180.35 98.1601C180.164 98.1615 179.978 98.1346 179.8 98.08C179.48 97.969 179.207 97.7529 179.025 97.4669C178.844 97.1809 178.764 96.8419 178.8 96.505V95.1651C178.802 95.1409 178.809 95.1174 178.82 95.0959C178.831 95.0744 178.846 95.0554 178.865 95.04C178.884 95.0246 178.905 95.0131 178.928 95.0063C178.952 94.9994 178.976 94.9973 179 95.0001C179.025 94.9994 179.049 95.0037 179.072 95.0127C179.095 95.0217 179.116 95.0352 179.134 95.0524C179.152 95.0697 179.166 95.0903 179.175 95.1131C179.185 95.1359 179.19 95.1603 179.19 95.185V96.5C179.161 96.756 179.218 97.0145 179.353 97.2339C179.488 97.4533 179.693 97.621 179.935 97.71C181.03 98.05 182.835 96.99 183.96 95.34C184.458 94.6786 184.751 93.8861 184.805 93.06V91.7001C184.812 91.6556 184.835 91.6151 184.87 91.586C184.904 91.5568 184.947 91.5408 184.993 91.5408C185.038 91.5408 185.081 91.5568 185.116 91.586C185.15 91.6151 185.173 91.6556 185.18 91.7001V93.0651C185.128 93.9695 184.811 94.8387 184.27 95.5651C183.185 97.1201 181.58 98.1601 180.35 98.1601Z" fill="#FAFAFA"/>
<path d="M182 96.28C181.982 96.2844 181.963 96.2844 181.945 96.28L177.445 94.88C177.416 94.8726 177.39 94.8582 177.368 94.8382C177.346 94.8181 177.33 94.793 177.32 94.765C177.311 94.7367 177.308 94.7065 177.312 94.677C177.317 94.6475 177.328 94.6194 177.345 94.595L181.845 88.01C181.868 87.977 181.9 87.9519 181.938 87.9384C181.976 87.925 182.017 87.9238 182.055 87.935L186.555 89.335C186.583 89.3443 186.608 89.36 186.629 89.3808C186.65 89.4017 186.666 89.4271 186.675 89.455C186.689 89.4804 186.696 89.5087 186.696 89.5375C186.696 89.5663 186.689 89.5946 186.675 89.62L182.175 96.21C182.154 96.2359 182.127 96.2559 182.097 96.2682C182.066 96.2805 182.033 96.2846 182 96.28ZM177.805 94.59L181.925 95.875L186.195 89.61L182.08 88.325L177.805 94.59Z" fill="#FAFAFA"/>
<path d="M186.255 94.695C186.206 94.6964 186.156 94.6873 186.111 94.6684C186.065 94.6494 186.024 94.621 185.99 94.585C185.922 94.5061 185.886 94.4042 185.89 94.3L186.155 93.0249C186.162 92.9976 186.174 92.9719 186.191 92.9495C186.209 92.9271 186.23 92.9086 186.255 92.8949C186.295 92.8804 186.34 92.8804 186.38 92.8949C186.428 92.8766 186.468 92.8433 186.495 92.7999C186.515 92.7684 186.543 92.7431 186.577 92.7271C186.61 92.7112 186.648 92.7052 186.685 92.7099C186.721 92.7152 186.755 92.7307 186.782 92.7547C186.81 92.7786 186.83 92.8099 186.84 92.8449L187.09 93.785C187.092 93.8015 187.092 93.8184 187.09 93.8349C187.062 94.0493 186.966 94.2489 186.816 94.4039C186.665 94.559 186.468 94.6611 186.255 94.695ZM186.495 93.2399L186.26 94.335C186.341 94.2996 186.418 94.256 186.49 94.205C186.609 94.1154 186.69 93.9856 186.72 93.8399L186.555 93.2149L186.495 93.2399Z" fill="#FAFAFA"/>
<path d="M186.415 92.79C186.362 92.7899 186.311 92.7761 186.265 92.75C186.203 92.7075 186.154 92.6496 186.121 92.5821C186.089 92.5146 186.075 92.4397 186.08 92.365C186.078 92.2404 186.105 92.1171 186.161 92.0056C186.217 91.8941 186.299 91.7978 186.4 91.725C186.448 91.6954 186.503 91.6797 186.56 91.6797C186.616 91.6797 186.672 91.6954 186.72 91.725C186.783 91.766 186.834 91.8236 186.867 91.8915C186.899 91.9594 186.913 92.035 186.905 92.11C186.907 92.2339 186.88 92.3566 186.824 92.4673C186.768 92.5779 186.686 92.6733 186.585 92.745C186.534 92.7759 186.475 92.7915 186.415 92.79ZM186.53 92.115C186.485 92.1873 186.459 92.2699 186.455 92.355C186.5 92.2827 186.526 92.2001 186.53 92.115Z" fill="#FAFAFA"/>
<path d="M181.95 92.065C181.909 92.0631 181.869 92.0479 181.838 92.0216C181.806 91.9954 181.784 91.9595 181.774 91.9195C181.764 91.8794 181.768 91.8373 181.785 91.7995C181.801 91.7618 181.829 91.7303 181.865 91.71L186.405 89.34C186.433 89.3254 186.465 89.3183 186.497 89.3195C186.528 89.3206 186.559 89.3299 186.587 89.3465C186.614 89.3631 186.636 89.3864 186.652 89.4141C186.667 89.4419 186.675 89.4732 186.675 89.505V91.805C186.676 91.8297 186.671 91.8543 186.662 91.8773C186.653 91.9004 186.64 91.9214 186.623 91.9391C186.605 91.9568 186.585 91.9709 186.562 91.9805C186.539 91.9901 186.515 91.995 186.49 91.995C186.44 91.995 186.391 91.975 186.356 91.9394C186.32 91.9037 186.3 91.8554 186.3 91.805V89.805L182.04 92.035C182.012 92.0499 181.981 92.06 181.95 92.065Z" fill="#FAFAFA"/>
</svg>
